<svg width="557" height="756" viewBox="0 0 557 756" fill="none" xmlns="http://www.w3.org/2000/svg">
<path fill-rule="evenodd" clip-rule="evenodd" d="M54.8207 665C51.2774 680.343 38.7045 692.232 23 694.767C38.538 697.275 51.0104 708.939 54.705 724.046C57.8129 709.702 68.7912 698.292 82.8923 694.561V693.97C68.9606 690.284 58.0772 679.101 54.8207 665Z" fill="white"/>
<path fill-rule="evenodd" clip-rule="evenodd" d="M57.809 576C55.8259 584.587 48.7893 591.24 40 592.659C48.696 594.063 55.6764 600.591 57.7442 609.045C59.4837 601.018 65.6278 594.632 73.5196 592.544V592.213C65.7227 590.15 59.6317 583.892 57.809 576Z" fill="white"/>
<path fill-rule="evenodd" clip-rule="evenodd" d="M536.95 696.677C536.918 696.587 536.886 696.496 536.853 696.405C534.993 697.077 533.134 697.748 531.274 698.419C531.313 698.526 531.352 698.633 531.39 698.741C533.244 698.053 535.097 697.365 536.95 696.677M475.732 745.916C474.704 745.419 473.488 745.188 473.672 743.742C473.789 742.822 473.872 741.857 474.223 741.017C475.306 738.42 476.289 735.743 477.72 733.34C479.621 730.151 482.498 727.928 486.297 727.485C489.922 727.062 493.588 726.97 497.238 726.782C502.252 726.523 507.311 726.572 511.769 723.664C514.629 721.798 517.012 719.615 518.373 716.352C519.911 712.663 521.555 709 523.441 705.479C526.071 700.572 530.057 697.2 535.638 695.968C536.204 695.843 536.911 695.546 537.331 695.76C538.04 696.123 538.658 696.769 539.132 697.427C539.298 697.657 539.061 698.467 538.768 698.673C538.142 699.113 537.336 699.288 536.647 699.653C536.1 699.943 535.616 700.352 535.106 700.71C535.012 700.776 534.922 700.918 534.835 700.916C532.915 700.849 532.182 702.581 530.925 703.501C528.019 705.629 526.42 708.708 525 711.89C523.66 714.895 522.398 717.935 521.026 720.925C520.636 721.778 520.091 722.619 519.429 723.28C517.509 725.2 515.525 726.927 512.986 728.207C508.061 730.688 502.908 730.489 497.697 730.584C494.47 730.642 491.205 730.716 488.034 731.247C484.01 731.921 481.4 734.692 479.406 738.111C478.881 739.011 478.033 739.722 477.501 740.618C477.148 741.213 477.126 741.994 476.9 742.672C476.546 743.734 476.145 744.78 475.732 745.916" fill="white"/>
<path fill-rule="evenodd" clip-rule="evenodd" d="M472.851 719.971C472.915 720.068 472.98 720.166 473.045 720.264C473.967 719.659 474.889 719.054 475.812 718.449C475.739 718.338 475.666 718.227 475.593 718.117C474.679 718.735 473.764 719.352 472.851 719.971M501.111 717.773C501.143 717.865 501.176 717.957 501.208 718.049C502.357 717.641 503.506 717.233 504.655 716.825C504.623 716.734 504.591 716.644 504.559 716.553C503.41 716.96 502.26 717.367 501.111 717.773M524.48 691.542C524.278 691.742 524.076 691.942 523.764 692.25L524.835 692.168C525.704 693.506 525.301 694.564 524.328 695.543C523.479 696.396 522.707 697.352 521.358 697.414C521.219 697.42 520.992 697.495 520.96 697.59C520.543 698.844 519.644 698.863 518.643 698.5C518.631 699.081 518.75 699.661 518.575 700.133C518.387 700.642 517.939 701.062 517.578 701.499C515.488 704.021 514.837 707.127 513.925 710.157C513.087 712.944 511.82 715.561 509.346 717.345C509.022 717.578 508.584 717.652 507.954 717.894C507.588 718.61 507.036 719.503 505.718 719.731C504.951 719.863 504.291 720.593 503.523 720.745C501.407 721.162 499.256 721.684 497.125 721.656C495.149 721.63 493.142 721.086 491.219 720.527C487.036 719.312 482.863 719.399 478.766 720.633C476.491 721.319 474.43 722.587 473.006 724.657C472.574 725.284 471.958 725.779 471.453 726.358C468.994 729.176 467.131 732.343 465.926 735.888C465.555 736.983 465.205 738.085 464.836 739.18C464.661 739.696 464.438 739.962 463.813 739.607C462.273 738.734 462.003 738.106 462.281 736.259C463.399 728.841 467.416 723.196 473.11 718.611C475.634 716.58 478.73 715.967 481.852 715.813C483.958 715.71 486.102 715.947 488.199 716.241C490.155 716.515 492.065 717.102 494.008 717.486C496.368 717.953 498.642 717.346 500.905 716.782C506.613 715.357 509.928 711.648 511.266 705.994C512.751 699.723 516.339 694.993 521.959 691.842C522.655 691.452 523.512 691.35 524.295 691.114C524.357 691.257 524.418 691.399 524.48 691.542" fill="white"/>
<path fill-rule="evenodd" clip-rule="evenodd" d="M536.886 716.51C536.475 717.032 536.058 717.549 535.658 718.079C535.487 718.306 535.173 718.717 535.228 718.781C535.981 719.645 535.323 720.465 534.854 720.853C533.651 721.85 534.166 723.094 534.078 724.242C534.025 724.925 533.261 726.047 532.65 726.211C532.575 725.907 532.503 725.61 532.431 725.314C532.169 725.468 531.855 725.574 531.657 725.786C531.315 726.153 531.045 726.586 530.656 727.112C531.108 727.164 531.417 727.2 531.741 727.237C531.833 727.62 531.921 727.988 532.008 728.351C530.878 728.87 529.722 729.166 528.908 730.23C528.466 730.809 527.814 731.114 528.267 731.979C528.305 732.053 527.875 732.516 527.797 732.483C525.911 731.683 525.055 733.433 524.571 734.351C524.171 735.108 523.67 735.536 523.106 735.857C522.672 736.103 521.969 735.867 521.385 735.865C521.24 735.864 521.094 735.934 520.874 735.991C520.927 736.334 520.975 736.644 521.021 736.946C520.016 737.467 520.016 737.467 517.608 736.996C517.499 738.311 516.476 738.83 515.052 738.229C514.995 738.493 514.941 738.745 514.933 738.78C513.516 738.858 511.927 737.553 510.87 739.726C509.707 738.63 508.635 739.222 507.467 739.932C506.92 740.265 506.145 740.279 505.466 740.336C502.69 740.569 499.973 740.964 497.334 741.976C496.041 742.472 494.981 743.36 493.761 743.821C491.126 744.815 490.073 747.295 488.309 749.084C487.482 749.923 487.128 751.22 486.537 752.298C486.176 752.955 486.077 753.956 484.846 753.463C483.893 753.081 483.502 752.528 483.841 751.383C485.42 746.066 488.306 741.807 493.4 739.142C497.235 737.137 501.366 736.796 505.524 736.362C508.211 736.082 510.886 735.685 513.569 735.357C513.984 735.307 514.665 734.875 514.552 735.873L514.555 735.854L514.05 736.091C514.05 736.152 514.051 736.213 514.051 736.274C514.314 736.277 514.586 736.326 514.836 736.273C515.13 736.212 515.402 735.976 515.69 735.965C518.015 735.87 519.883 734.6 521.748 733.476C523.73 732.282 525.552 730.814 527.395 729.403C527.957 728.974 528.36 728.34 528.836 727.799L528.804 727.83C529.162 727.5 529.518 727.169 530.101 726.63C529.397 726.64 529.039 726.646 528.473 726.654C529.164 725.67 529.731 724.741 530.424 723.917C530.883 723.371 531.244 723.566 531.668 724.441C532.233 724.358 532.777 724.278 533.429 724.182C533.081 723.783 532.788 723.445 532.581 723.208C532.081 723.206 531.471 723.349 531.356 723.171C531.143 722.845 531.148 722.323 531.193 721.895C531.257 721.293 531.395 720.687 531.588 720.112C531.703 719.766 531.983 719.475 532.291 719.003C531.997 718.101 532.311 717.125 533.787 714.898C534.019 714.991 534.264 715.089 534.567 715.211C534.311 713.8 534.439 713.56 535.143 713.564L535.255 715.021L535.229 714.99C535.512 715.471 535.795 715.952 536.111 716.49C536.175 716.467 536.411 716.381 536.648 716.295C536.727 716.367 536.807 716.438 536.886 716.51" fill="white"/>
<path fill-rule="evenodd" clip-rule="evenodd" d="M537.243 715.603C537.165 715.532 537.087 715.462 537.009 715.391C537.037 713.761 536.964 713.694 535.61 714.101L535.636 714.131C536.099 713.618 536.561 713.105 537.081 712.527C536.71 712.328 536.356 712.138 535.814 711.847C536.235 711.557 536.535 711.34 536.847 711.141C536.95 711.076 537.14 711.097 537.197 711.014C539.422 707.794 542.542 705.712 546.053 704.193C547.677 703.491 549.414 703.05 551.104 702.504C551.345 702.426 551.613 702.43 551.869 702.396L552.005 702.75C549.894 703.551 547.783 704.352 545.673 705.153C545.709 705.256 545.745 705.359 545.78 705.462C547.975 704.67 550.168 703.878 552.341 703.093C553.254 704.755 553.15 704.975 551.599 705.788C549.564 706.855 547.569 707.999 545.547 709.092C545.145 709.31 544.772 709.633 544.234 709.16C544.015 708.968 543.435 709.187 542.91 709.228L542.85 708.451C542.376 708.804 541.969 709.108 541.317 709.595C541.93 709.621 542.229 709.633 542.517 709.645C542.526 709.759 542.562 709.847 542.532 709.891C542.205 710.377 541.679 710.643 541.791 711.494C541.868 712.076 541.093 712.116 540.706 711.592C540.421 711.961 540.135 712.333 539.707 712.887C539.873 713.951 539.149 714.637 537.676 714.323C537.757 714.668 537.909 714.98 537.861 715.257C537.836 715.404 537.461 715.49 537.243 715.603" fill="white"/>
<path fill-rule="evenodd" clip-rule="evenodd" d="M524.04 730.753C522.498 731.595 520.955 732.436 519.412 733.278C519.326 733.176 519.24 733.074 519.154 732.973C519.362 732.814 519.554 732.635 519.78 732.499C520.849 731.856 521.919 731.211 523.012 730.599C523.247 730.467 523.579 730.467 523.868 730.406C523.925 730.522 523.983 730.638 524.04 730.753" fill="white"/>
<path fill-rule="evenodd" clip-rule="evenodd" d="M514.281 735.359C514.932 733.799 516.359 733.97 517.503 733.425C517.51 734.24 516.544 734.785 514.287 735.33C514.284 735.338 514.281 735.359 514.281 735.359" fill="white"/>
<path fill-rule="evenodd" clip-rule="evenodd" d="M528.839 727.406C528.402 727.506 527.931 727.547 527.538 727.722C527.152 727.893 526.845 728.201 526.397 728.525C526.44 727.649 527.386 726.643 528.054 726.725C528.343 726.76 528.556 727.186 528.805 727.435C528.806 727.434 528.839 727.406 528.839 727.406" fill="white"/>
<path d="M78.2178 96.6388C58.9821 93.4721 39.2315 92.6489 19.8202 91.0923C15.0561 90.7102 7.24882 89.5651 1.72461 89.8721" stroke="#9E60FF" stroke-width="3" stroke-linecap="round"/>
<path d="M85.2624 79.2218C58.0348 47.5304 22.864 17.2162 9.93848 4.12305" stroke="#9E60FF" stroke-width="3" stroke-linecap="round"/>
<path d="M100.572 66.3523C101.088 55.9814 101.471 45.595 103.413 35.3692C103.816 33.2493 104.374 32.4444 103.623 31.1289" stroke="#9E60FF" stroke-width="3" stroke-linecap="round"/>
</svg>
