<svg width="1521" height="62" viewBox="0 0 1521 62" fill="none" xmlns="http://www.w3.org/2000/svg">
<path fill-rule="evenodd" clip-rule="evenodd" d="M1502.89 7.17905C1502.86 7.09438 1502.83 7.00926 1502.8 6.92459C1501.06 7.55233 1499.32 8.17965 1497.58 8.80742C1497.62 8.90727 1497.66 9.00755 1497.69 9.10825C1499.42 8.4653 1501.16 7.82197 1502.89 7.17905ZM1445.65 53.2184C1444.69 52.7539 1443.55 52.5379 1443.72 51.1856C1443.83 50.3257 1443.91 49.4233 1444.24 48.6376C1445.25 46.2097 1446.17 43.7065 1447.51 41.46C1449.29 38.4774 1451.98 36.3991 1455.53 35.9849C1458.92 35.5893 1462.34 35.5036 1465.76 35.3275C1470.45 35.0852 1475.18 35.1313 1479.34 32.4124C1482.02 30.6678 1484.25 28.6259 1485.52 25.5756C1486.96 22.1263 1488.49 18.7007 1490.26 15.4087C1492.72 10.8203 1496.44 7.66707 1501.66 6.51561C1502.19 6.39906 1502.85 6.12109 1503.25 6.32144C1503.91 6.66053 1504.49 7.26448 1504.93 7.88005C1505.08 8.09471 1504.86 8.85254 1504.59 9.0445C1504 9.45583 1503.25 9.62018 1502.61 9.96142C1502.09 10.2319 1501.64 10.6144 1501.17 10.9496C1501.08 11.0113 1500.99 11.1441 1500.91 11.1416C1499.12 11.0799 1498.43 12.6988 1497.26 13.5595C1494.54 15.5492 1493.04 18.4278 1491.72 21.4029C1490.46 24.2127 1489.28 27.0554 1488 29.8514C1487.63 30.6488 1487.13 31.4352 1486.51 32.0532C1484.71 33.8488 1482.86 35.4633 1480.48 36.6598C1475.88 38.9799 1471.06 38.7939 1466.19 38.8823C1463.17 38.9369 1460.12 39.0061 1457.15 39.5026C1453.39 40.1323 1450.95 42.7236 1449.08 45.9207C1448.59 46.7618 1447.8 47.4269 1447.3 48.265C1446.97 48.8206 1446.95 49.5509 1446.74 50.1853C1446.41 51.1781 1446.03 52.156 1445.65 53.2184Z" fill="white"/>
<path fill-rule="evenodd" clip-rule="evenodd" d="M1442.95 28.9589C1443.01 29.0502 1443.07 29.1419 1443.13 29.2333C1443.99 28.6676 1444.86 28.1019 1445.72 27.5362C1445.65 27.4326 1445.58 27.329 1445.51 27.2254C1444.66 27.8033 1443.8 28.381 1442.95 28.9589ZM1469.38 26.9043C1469.41 26.9904 1469.44 27.0764 1469.47 27.1624C1470.54 26.7808 1471.62 26.3996 1472.69 26.0179C1472.66 25.9331 1472.63 25.8486 1472.6 25.7638C1471.53 26.1442 1470.45 26.5243 1469.38 26.9043ZM1491.23 2.37768C1491.04 2.56414 1490.85 2.751 1490.56 3.03938L1491.56 2.96221C1492.37 4.21328 1491.99 5.20343 1491.08 6.11864C1490.29 6.91599 1489.57 7.81028 1488.31 7.86771C1488.18 7.87372 1487.96 7.94351 1487.93 8.03212C1487.54 9.20526 1486.7 9.2223 1485.77 8.88357C1485.76 9.4262 1485.87 9.9691 1485.7 10.4106C1485.53 10.8861 1485.11 11.279 1484.77 11.687C1482.82 14.0458 1482.21 16.9496 1481.36 19.7833C1480.57 22.3889 1479.39 24.8362 1477.07 26.5038C1476.77 26.7215 1476.36 26.7912 1475.77 27.0174C1475.43 27.6867 1474.92 28.5222 1473.68 28.7349C1472.97 28.8588 1472.35 29.5413 1471.63 29.6831C1469.65 30.0729 1467.64 30.561 1465.65 30.535C1463.8 30.5108 1461.92 30.0016 1460.13 29.4791C1456.21 28.3431 1452.31 28.4242 1448.48 29.5782C1446.35 30.2193 1444.43 31.4057 1443.1 33.341C1442.69 33.9267 1442.12 34.3901 1441.64 34.9313C1439.35 37.5665 1437.6 40.5271 1436.48 43.8427C1436.13 44.8659 1435.8 45.8964 1435.46 46.9207C1435.29 47.4024 1435.08 47.6514 1434.5 47.3197C1433.06 46.5033 1432.81 45.9164 1433.07 44.1889C1434.11 37.2529 1437.87 31.9751 1443.19 27.6881C1445.55 25.7884 1448.45 25.2151 1451.37 25.0716C1453.34 24.9752 1455.34 25.197 1457.3 25.4719C1459.13 25.7282 1460.92 26.2765 1462.73 26.6357C1464.94 27.072 1467.07 26.5049 1469.18 25.9771C1474.52 24.6455 1477.62 21.1771 1478.87 15.89C1480.26 10.0272 1483.61 5.60437 1488.87 2.65821C1489.52 2.29354 1490.32 2.19764 1491.05 1.97737C1491.11 2.11065 1491.17 2.24397 1491.23 2.37768Z" fill="white"/>
<path fill-rule="evenodd" clip-rule="evenodd" d="M1502.83 25.7233C1502.44 26.2118 1502.05 26.6948 1501.68 27.1905C1501.52 27.4034 1501.23 27.7876 1501.28 27.847C1501.98 28.6547 1501.37 29.4214 1500.93 29.7845C1499.8 30.7168 1500.28 31.8802 1500.2 32.9535C1500.15 33.5916 1499.44 34.641 1498.87 34.7943C1498.8 34.5102 1498.73 34.2327 1498.66 33.9553C1498.42 34.0993 1498.12 34.1985 1497.94 34.3974C1497.62 34.7402 1497.37 35.1451 1497 35.6365C1497.42 35.6856 1497.71 35.7192 1498.02 35.754C1498.1 36.1114 1498.18 36.4555 1498.27 36.7957C1497.21 37.2802 1496.13 37.5573 1495.37 38.5525C1494.95 39.0939 1494.34 39.3793 1494.77 40.1879C1494.8 40.2565 1494.4 40.6898 1494.33 40.6588C1492.57 39.9112 1491.76 41.5469 1491.31 42.4059C1490.94 43.1137 1490.47 43.5138 1489.94 43.8136C1489.54 44.0434 1488.88 43.8234 1488.33 43.8208C1488.2 43.8201 1488.06 43.886 1487.85 43.939C1487.9 44.2593 1487.95 44.5493 1487.99 44.8323C1487.05 45.3189 1487.05 45.3189 1484.8 44.8789C1484.7 46.1083 1483.74 46.5935 1482.41 46.0315C1482.36 46.2788 1482.31 46.514 1482.3 46.5464C1480.97 46.6195 1479.49 45.3992 1478.5 47.4314C1477.41 46.4068 1476.41 46.9597 1475.32 47.624C1474.81 47.935 1474.08 47.9485 1473.45 48.0019C1470.85 48.2195 1468.31 48.5891 1465.84 49.5353C1464.64 49.9989 1463.64 50.8296 1462.5 51.26C1460.04 52.1899 1459.05 54.5084 1457.41 56.1813C1456.63 56.9661 1456.3 58.1789 1455.75 59.1868C1455.41 59.8012 1455.32 60.7373 1454.17 60.2755C1453.28 59.9184 1452.91 59.4015 1453.23 58.3313C1454.7 53.3595 1457.4 49.3774 1462.17 46.8857C1465.75 45.0105 1469.61 44.692 1473.5 44.2863C1476.02 44.024 1478.52 43.653 1481.02 43.3464C1481.41 43.2993 1482.05 42.8954 1481.94 43.8289L1481.95 43.8108L1481.47 44.0326C1481.47 44.0896 1481.48 44.1465 1481.48 44.2035C1481.72 44.2069 1481.98 44.2519 1482.21 44.2028C1482.48 44.1453 1482.74 43.9251 1483.01 43.9143C1485.18 43.8261 1486.93 42.6385 1488.67 41.5875C1490.53 40.4706 1492.23 39.0982 1493.95 37.7793C1494.48 37.378 1494.86 36.7847 1495.3 36.2792L1495.27 36.3082C1495.6 35.9993 1495.94 35.6902 1496.48 35.1861C1495.82 35.1958 1495.49 35.2008 1494.96 35.2089C1495.61 34.2884 1496.14 33.4202 1496.78 32.6499C1497.21 32.1391 1497.55 32.3217 1497.95 33.1395C1498.48 33.0617 1498.98 32.987 1499.59 32.897C1499.27 32.5237 1499 32.2083 1498.8 31.9868C1498.33 31.9847 1497.76 32.1183 1497.66 31.9524C1497.46 31.6472 1497.46 31.1588 1497.5 30.7592C1497.56 30.1957 1497.69 29.6296 1497.87 29.0914C1497.98 28.7681 1498.24 28.496 1498.53 28.0547C1498.26 27.2112 1498.55 26.2983 1499.93 24.2164C1500.15 24.3037 1500.38 24.3953 1500.66 24.509C1500.42 23.1898 1500.54 22.9653 1501.2 22.9692L1501.3 24.3314L1501.28 24.3026C1501.54 24.7526 1501.81 25.2023 1502.1 25.7046C1502.16 25.6833 1502.38 25.6033 1502.6 25.5228C1502.68 25.5897 1502.75 25.6565 1502.83 25.7233Z" fill="white"/>
<path fill-rule="evenodd" clip-rule="evenodd" d="M1503.16 24.8753C1503.09 24.8092 1503.02 24.7431 1502.94 24.677C1502.97 23.1531 1502.9 23.0906 1501.64 23.4707L1501.66 23.4992C1502.09 23.0194 1502.52 22.5392 1503.01 21.9993C1502.66 21.8133 1502.33 21.6355 1501.83 21.3636C1502.22 21.0921 1502.5 20.8892 1502.79 20.7036C1502.89 20.6421 1503.07 20.662 1503.12 20.5846C1505.2 17.574 1508.12 15.6271 1511.4 14.2069C1512.92 13.55 1514.54 13.1375 1516.12 12.6275C1516.35 12.5546 1516.6 12.5581 1516.84 12.5263L1516.97 12.8577C1514.99 13.6065 1513.02 14.3552 1511.04 15.1039C1511.08 15.2003 1511.11 15.2966 1511.14 15.3933C1513.2 14.6527 1515.25 13.9118 1517.28 13.1783C1518.13 14.7317 1518.04 14.9382 1516.59 15.6982C1514.68 16.696 1512.82 17.7655 1510.93 18.7875C1510.55 18.9907 1510.2 19.2934 1509.7 18.8507C1509.49 18.6714 1508.95 18.8763 1508.46 18.9142L1508.4 18.1875C1507.96 18.5184 1507.58 18.8023 1506.97 19.2575C1507.54 19.2816 1507.82 19.2931 1508.09 19.3046C1508.1 19.4112 1508.14 19.4929 1508.11 19.5341C1507.8 19.9892 1507.31 20.2375 1507.41 21.0329C1507.49 21.5778 1506.76 21.6151 1506.4 21.1249C1506.13 21.4701 1505.87 21.8174 1505.47 22.3361C1505.62 23.3309 1504.94 23.9722 1503.57 23.6788C1503.64 24.0009 1503.79 24.2929 1503.74 24.5517C1503.72 24.6891 1503.37 24.7693 1503.16 24.8753Z" fill="white"/>
<path fill-rule="evenodd" clip-rule="evenodd" d="M1490.81 39.0402C1489.37 39.8272 1487.93 40.6139 1486.49 41.4009C1486.4 41.3058 1486.32 41.2106 1486.24 41.1155C1486.44 40.9671 1486.62 40.8002 1486.83 40.6731C1487.83 40.0714 1488.83 39.4687 1489.85 38.8956C1490.07 38.7726 1490.38 38.7723 1490.65 38.7155C1490.7 38.8236 1490.76 38.9321 1490.81 39.0402Z" fill="white"/>
<path fill-rule="evenodd" clip-rule="evenodd" d="M1481.69 43.3472C1482.3 41.888 1483.63 42.0483 1484.7 41.5387C1484.71 42.3009 1483.81 42.81 1481.7 43.32C1481.69 43.3272 1481.69 43.3472 1481.69 43.3472Z" fill="white"/>
<path fill-rule="evenodd" clip-rule="evenodd" d="M1495.3 35.9113C1494.89 36.0043 1494.45 36.0425 1494.09 36.2059C1493.73 36.3664 1493.44 36.654 1493.02 36.9575C1493.06 36.1383 1493.94 35.1975 1494.57 35.2738C1494.84 35.3064 1495.04 35.7054 1495.27 35.9378C1495.27 35.9374 1495.3 35.9113 1495.3 35.9113Z" fill="white"/>
<path fill-rule="evenodd" clip-rule="evenodd" d="M23.8273 6C21.1753 17.49 11.7602 26.3928 0 28.2905C11.6359 30.1682 20.9759 38.9035 23.7409 50.2173C26.0666 39.4766 34.2862 30.9315 44.8445 28.1374V27.6936C34.4131 24.9331 26.2645 16.559 23.8273 6Z" fill="white"/>
</svg>
