<svg width="638" height="710" viewBox="0 0 638 710" fill="none" xmlns="http://www.w3.org/2000/svg">
<path fill-rule="evenodd" clip-rule="evenodd" d="M619.89 655.179C619.859 655.094 619.829 655.009 619.799 654.925C618.06 655.552 616.321 656.18 614.582 656.807C614.619 656.907 614.655 657.008 614.691 657.108C616.424 656.465 618.157 655.822 619.89 655.179ZM562.649 701.218C561.688 700.754 560.551 700.538 560.722 699.186C560.832 698.326 560.91 697.423 561.238 696.638C562.25 694.21 563.169 691.706 564.508 689.46C566.286 686.477 568.976 684.399 572.528 683.985C575.917 683.589 579.344 683.504 582.758 683.327C587.446 683.085 592.176 683.131 596.345 680.412C599.019 678.668 601.247 676.626 602.519 673.576C603.957 670.126 605.494 666.701 607.259 663.409C609.718 658.82 613.444 655.667 618.663 654.516C619.192 654.399 619.853 654.121 620.245 654.321C620.909 654.661 621.487 655.264 621.93 655.88C622.085 656.095 621.864 656.853 621.59 657.045C621.004 657.456 620.25 657.62 619.606 657.961C619.095 658.232 618.642 658.614 618.166 658.95C618.078 659.011 617.994 659.144 617.911 659.142C616.116 659.08 615.431 660.699 614.256 661.559C611.539 663.549 610.043 666.428 608.716 669.403C607.463 672.213 606.283 675.055 605 677.851C604.635 678.649 604.126 679.435 603.507 680.053C601.712 681.849 599.857 683.463 597.482 684.66C592.878 686.98 588.059 686.794 583.187 686.882C580.169 686.937 577.116 687.006 574.152 687.503C570.389 688.132 567.949 690.724 566.084 693.921C565.593 694.762 564.8 695.427 564.303 696.265C563.973 696.821 563.953 697.551 563.741 698.185C563.41 699.178 563.035 700.156 562.649 701.218Z" fill="white"/>
<path fill-rule="evenodd" clip-rule="evenodd" d="M559.954 676.959C560.014 677.05 560.075 677.142 560.135 677.233C560.997 676.668 561.86 676.102 562.722 675.536C562.654 675.433 562.586 675.329 562.518 675.225C561.663 675.803 560.808 676.381 559.954 676.959ZM586.373 674.904C586.403 674.99 586.434 675.076 586.464 675.162C587.538 674.781 588.612 674.4 589.687 674.018C589.657 673.933 589.627 673.849 589.597 673.764C588.522 674.144 587.448 674.524 586.373 674.904ZM608.226 650.378C608.037 650.564 607.848 650.751 607.556 651.039L608.557 650.962C609.37 652.213 608.994 653.203 608.083 654.119C607.29 654.916 606.568 655.81 605.307 655.868C605.177 655.874 604.964 655.944 604.935 656.032C604.545 657.205 603.704 657.222 602.768 656.884C602.757 657.426 602.868 657.969 602.704 658.411C602.528 658.886 602.11 659.279 601.772 659.687C599.818 662.046 599.209 664.95 598.357 667.783C597.573 670.389 596.388 672.836 594.075 674.504C593.772 674.721 593.363 674.791 592.773 675.017C592.431 675.687 591.915 676.522 590.683 676.735C589.965 676.859 589.349 677.541 588.63 677.683C586.652 678.073 584.64 678.561 582.648 678.535C580.8 678.511 578.924 678.002 577.126 677.479C573.215 676.343 569.312 676.424 565.482 677.578C563.354 678.219 561.428 679.406 560.096 681.341C559.692 681.927 559.116 682.39 558.644 682.931C556.345 685.567 554.603 688.527 553.476 691.843C553.129 692.866 552.802 693.896 552.456 694.921C552.293 695.402 552.085 695.651 551.5 695.32C550.061 694.503 549.807 693.916 550.068 692.189C551.113 685.253 554.869 679.975 560.194 675.688C562.553 673.788 565.448 673.215 568.367 673.072C570.336 672.975 572.341 673.197 574.302 673.472C576.131 673.728 577.917 674.277 579.733 674.636C581.941 675.072 584.067 674.505 586.183 673.977C591.52 672.646 594.619 669.177 595.871 663.89C597.258 658.027 600.614 653.604 605.868 650.658C606.52 650.294 607.321 650.198 608.052 649.977C608.111 650.111 608.168 650.244 608.226 650.378Z" fill="white"/>
<path fill-rule="evenodd" clip-rule="evenodd" d="M619.826 673.723C619.443 674.212 619.052 674.695 618.679 675.19C618.518 675.403 618.225 675.788 618.277 675.847C618.981 676.655 618.365 677.421 617.927 677.785C616.802 678.717 617.284 679.88 617.201 680.953C617.151 681.592 616.437 682.641 615.866 682.794C615.796 682.51 615.729 682.233 615.661 681.955C615.416 682.099 615.123 682.199 614.937 682.397C614.618 682.74 614.366 683.145 614.001 683.636C614.424 683.686 614.713 683.719 615.016 683.754C615.102 684.111 615.184 684.456 615.266 684.796C614.209 685.28 613.129 685.557 612.367 686.552C611.953 687.094 611.345 687.379 611.767 688.188C611.803 688.257 611.401 688.69 611.328 688.659C609.565 687.911 608.764 689.547 608.312 690.406C607.938 691.114 607.47 691.514 606.942 691.814C606.537 692.043 605.879 691.823 605.333 691.821C605.197 691.82 605.061 691.886 604.855 691.939C604.904 692.259 604.949 692.549 604.992 692.832C604.053 693.319 604.053 693.319 601.801 692.879C601.699 694.108 600.742 694.594 599.412 694.031C599.358 694.279 599.307 694.514 599.3 694.546C597.975 694.619 596.489 693.399 595.501 695.431C594.414 694.407 593.411 694.96 592.319 695.624C591.807 695.935 591.083 695.948 590.448 696.002C587.852 696.219 585.312 696.589 582.844 697.535C581.635 697.999 580.644 698.83 579.504 699.26C577.039 700.19 576.055 702.508 574.406 704.181C573.633 704.966 573.301 706.179 572.749 707.187C572.412 707.801 572.319 708.737 571.167 708.275C570.276 707.918 569.911 707.402 570.228 706.331C571.704 701.359 574.403 697.377 579.166 694.886C582.752 693.01 586.614 692.692 590.502 692.286C593.015 692.024 595.516 691.653 598.025 691.346C598.413 691.299 599.049 690.895 598.944 691.829L598.947 691.811L598.474 692.033C598.474 692.09 598.475 692.147 598.476 692.203C598.721 692.207 598.975 692.252 599.209 692.203C599.484 692.145 599.739 691.925 600.008 691.914C602.182 691.826 603.928 690.639 605.672 689.587C607.526 688.471 609.229 687.098 610.952 685.779C611.478 685.378 611.855 684.785 612.3 684.279L612.27 684.308C612.605 683.999 612.938 683.69 613.483 683.186C612.824 683.196 612.49 683.201 611.961 683.209C612.607 682.288 613.137 681.42 613.785 680.65C614.214 680.139 614.551 680.322 614.948 681.139C615.476 681.062 615.985 680.987 616.594 680.897C616.269 680.524 615.995 680.208 615.802 679.987C615.334 679.985 614.764 680.118 614.656 679.952C614.457 679.647 614.462 679.159 614.504 678.759C614.563 678.196 614.692 677.63 614.873 677.091C614.981 676.768 615.242 676.496 615.53 676.055C615.255 675.211 615.549 674.298 616.929 672.216C617.146 672.304 617.376 672.395 617.659 672.509C617.419 671.19 617.539 670.965 618.197 670.969L618.302 672.331L618.277 672.303C618.542 672.753 618.807 673.202 619.102 673.705C619.162 673.683 619.383 673.603 619.604 673.523C619.678 673.59 619.753 673.656 619.826 673.723Z" fill="white"/>
<path fill-rule="evenodd" clip-rule="evenodd" d="M620.158 672.874C620.085 672.808 620.012 672.742 619.939 672.676C619.965 671.152 619.897 671.09 618.632 671.47L618.656 671.498C619.088 671.018 619.521 670.538 620.006 669.998C619.66 669.812 619.328 669.634 618.822 669.363C619.216 669.091 619.496 668.888 619.788 668.703C619.885 668.641 620.062 668.661 620.115 668.584C622.195 665.573 625.113 663.626 628.395 662.206C629.914 661.549 631.538 661.137 633.118 660.627C633.344 660.554 633.595 660.557 633.834 660.525L633.961 660.857C631.988 661.605 630.013 662.354 628.04 663.103C628.074 663.199 628.108 663.296 628.141 663.392C630.192 662.652 632.244 661.911 634.276 661.177C635.129 662.731 635.031 662.937 633.581 663.697C631.678 664.695 629.813 665.764 627.923 666.787C627.547 666.99 627.198 667.292 626.695 666.85C626.49 666.67 625.948 666.875 625.457 666.913L625.401 666.187C624.958 666.517 624.577 666.801 623.968 667.257C624.54 667.281 624.82 667.292 625.089 667.304C625.098 667.41 625.131 667.492 625.104 667.533C624.797 667.988 624.306 668.237 624.411 669.032C624.483 669.577 623.758 669.614 623.396 669.124C623.13 669.469 622.862 669.816 622.462 670.335C622.617 671.33 621.94 671.971 620.563 671.678C620.638 672 620.781 672.292 620.736 672.551C620.712 672.688 620.362 672.768 620.158 672.874Z" fill="white"/>
<path fill-rule="evenodd" clip-rule="evenodd" d="M607.813 687.04C606.371 687.827 604.928 688.614 603.485 689.401C603.405 689.306 603.325 689.211 603.244 689.116C603.438 688.967 603.618 688.8 603.829 688.673C604.829 688.071 605.829 687.469 606.851 686.896C607.071 686.773 607.382 686.772 607.651 686.715C607.705 686.824 607.759 686.932 607.813 687.04Z" fill="white"/>
<path fill-rule="evenodd" clip-rule="evenodd" d="M598.691 691.347C599.3 689.888 600.635 690.048 601.704 689.539C601.71 690.301 600.807 690.81 598.697 691.32C598.694 691.327 598.691 691.347 598.691 691.347Z" fill="white"/>
<path fill-rule="evenodd" clip-rule="evenodd" d="M612.303 683.911C611.894 684.004 611.454 684.043 611.086 684.206C610.725 684.366 610.438 684.654 610.019 684.958C610.059 684.138 610.944 683.197 611.569 683.274C611.839 683.306 612.038 683.705 612.271 683.938C612.272 683.937 612.303 683.911 612.303 683.911Z" fill="white"/>
<path fill-rule="evenodd" clip-rule="evenodd" d="M23.8273 0C21.1753 11.49 11.7602 20.3928 0 22.2905C11.6359 24.1682 20.9759 32.9035 23.7409 44.2173C26.0663 33.4779 34.2842 24.9336 44.8406 22.1385V21.6926C34.4111 18.931 26.2642 10.5577 23.8273 0Z" fill="white"/>
</svg>
