<svg width="1542" height="62" viewBox="0 0 1542 62" fill="none" xmlns="http://www.w3.org/2000/svg">
<path fill-rule="evenodd" clip-rule="evenodd" d="M1523.89 7.17905C1523.86 7.09438 1523.83 7.00926 1523.8 6.92459C1522.06 7.55233 1520.32 8.17965 1518.58 8.80742C1518.62 8.90727 1518.66 9.00755 1518.69 9.10825C1520.42 8.4653 1522.16 7.82197 1523.89 7.17905ZM1466.65 53.2184C1465.69 52.7539 1464.55 52.5379 1464.72 51.1856C1464.83 50.3257 1464.91 49.4233 1465.24 48.6376C1466.25 46.2097 1467.17 43.7065 1468.51 41.46C1470.29 38.4774 1472.98 36.3991 1476.53 35.9849C1479.92 35.5893 1483.34 35.5036 1486.76 35.3275C1491.45 35.0852 1496.18 35.1313 1500.34 32.4124C1503.02 30.6678 1505.25 28.6259 1506.52 25.5756C1507.96 22.1263 1509.49 18.7007 1511.26 15.4087C1513.72 10.8203 1517.44 7.66707 1522.66 6.51561C1523.19 6.39906 1523.85 6.12109 1524.25 6.32144C1524.91 6.66053 1525.49 7.26448 1525.93 7.88005C1526.08 8.09471 1525.86 8.85254 1525.59 9.0445C1525 9.45583 1524.25 9.62018 1523.61 9.96142C1523.09 10.2319 1522.64 10.6144 1522.17 10.9496C1522.08 11.0113 1521.99 11.1441 1521.91 11.1416C1520.12 11.0799 1519.43 12.6988 1518.26 13.5595C1515.54 15.5492 1514.04 18.4278 1512.72 21.4029C1511.46 24.2127 1510.28 27.0554 1509 29.8514C1508.63 30.6488 1508.13 31.4352 1507.51 32.0532C1505.71 33.8488 1503.86 35.4633 1501.48 36.6598C1496.88 38.9799 1492.06 38.7939 1487.19 38.8823C1484.17 38.9369 1481.12 39.0061 1478.15 39.5026C1474.39 40.1323 1471.95 42.7236 1470.08 45.9207C1469.59 46.7618 1468.8 47.4269 1468.3 48.265C1467.97 48.8206 1467.95 49.5509 1467.74 50.1853C1467.41 51.1781 1467.03 52.156 1466.65 53.2184Z" fill="white"/>
<path fill-rule="evenodd" clip-rule="evenodd" d="M1463.95 28.9589C1464.01 29.0502 1464.07 29.1419 1464.13 29.2333C1464.99 28.6676 1465.86 28.1019 1466.72 27.5362C1466.65 27.4326 1466.58 27.329 1466.51 27.2254C1465.66 27.8033 1464.8 28.381 1463.95 28.9589ZM1490.38 26.9043C1490.41 26.9904 1490.44 27.0764 1490.47 27.1624C1491.54 26.7808 1492.62 26.3996 1493.69 26.0179C1493.66 25.9331 1493.63 25.8486 1493.6 25.7638C1492.53 26.1442 1491.45 26.5243 1490.38 26.9043ZM1512.23 2.37768C1512.04 2.56414 1511.85 2.751 1511.56 3.03938L1512.56 2.96221C1513.37 4.21328 1512.99 5.20343 1512.08 6.11864C1511.29 6.91599 1510.57 7.81028 1509.31 7.86771C1509.18 7.87372 1508.96 7.94351 1508.93 8.03212C1508.54 9.20526 1507.7 9.2223 1506.77 8.88357C1506.76 9.4262 1506.87 9.9691 1506.7 10.4106C1506.53 10.8861 1506.11 11.279 1505.77 11.687C1503.82 14.0458 1503.21 16.9496 1502.36 19.7833C1501.57 22.3889 1500.39 24.8362 1498.07 26.5038C1497.77 26.7215 1497.36 26.7912 1496.77 27.0174C1496.43 27.6867 1495.92 28.5222 1494.68 28.7349C1493.97 28.8588 1493.35 29.5413 1492.63 29.6831C1490.65 30.0729 1488.64 30.561 1486.65 30.535C1484.8 30.5108 1482.92 30.0016 1481.13 29.4791C1477.21 28.3431 1473.31 28.4242 1469.48 29.5782C1467.35 30.2193 1465.43 31.4057 1464.1 33.341C1463.69 33.9267 1463.12 34.3901 1462.64 34.9313C1460.35 37.5665 1458.6 40.5271 1457.48 43.8427C1457.13 44.8659 1456.8 45.8964 1456.46 46.9207C1456.29 47.4024 1456.08 47.6514 1455.5 47.3197C1454.06 46.5033 1453.81 45.9164 1454.07 44.1889C1455.11 37.2529 1458.87 31.9751 1464.19 27.6881C1466.55 25.7884 1469.45 25.2151 1472.37 25.0716C1474.34 24.9752 1476.34 25.197 1478.3 25.4719C1480.13 25.7282 1481.92 26.2765 1483.73 26.6357C1485.94 27.072 1488.07 26.5049 1490.18 25.9771C1495.52 24.6455 1498.62 21.1771 1499.87 15.89C1501.26 10.0272 1504.61 5.60437 1509.87 2.65821C1510.52 2.29354 1511.32 2.19764 1512.05 1.97737C1512.11 2.11065 1512.17 2.24397 1512.23 2.37768Z" fill="white"/>
<path fill-rule="evenodd" clip-rule="evenodd" d="M1523.83 25.7233C1523.44 26.2118 1523.05 26.6948 1522.68 27.1905C1522.52 27.4034 1522.23 27.7876 1522.28 27.847C1522.98 28.6547 1522.37 29.4214 1521.93 29.7845C1520.8 30.7168 1521.28 31.8802 1521.2 32.9535C1521.15 33.5916 1520.44 34.641 1519.87 34.7943C1519.8 34.5102 1519.73 34.2327 1519.66 33.9553C1519.42 34.0993 1519.12 34.1985 1518.94 34.3974C1518.62 34.7402 1518.37 35.1451 1518 35.6365C1518.42 35.6856 1518.71 35.7192 1519.02 35.754C1519.1 36.1114 1519.18 36.4555 1519.27 36.7957C1518.21 37.2802 1517.13 37.5573 1516.37 38.5525C1515.95 39.0939 1515.34 39.3793 1515.77 40.1879C1515.8 40.2565 1515.4 40.6898 1515.33 40.6588C1513.57 39.9112 1512.76 41.5469 1512.31 42.4059C1511.94 43.1137 1511.47 43.5138 1510.94 43.8136C1510.54 44.0434 1509.88 43.8234 1509.33 43.8208C1509.2 43.8201 1509.06 43.886 1508.85 43.939C1508.9 44.2593 1508.95 44.5493 1508.99 44.8323C1508.05 45.3189 1508.05 45.3189 1505.8 44.8789C1505.7 46.1083 1504.74 46.5935 1503.41 46.0315C1503.36 46.2788 1503.31 46.514 1503.3 46.5464C1501.97 46.6195 1500.49 45.3992 1499.5 47.4314C1498.41 46.4068 1497.41 46.9597 1496.32 47.624C1495.81 47.935 1495.08 47.9485 1494.45 48.0019C1491.85 48.2195 1489.31 48.5891 1486.84 49.5353C1485.64 49.9989 1484.64 50.8296 1483.5 51.26C1481.04 52.1899 1480.05 54.5084 1478.41 56.1813C1477.63 56.9661 1477.3 58.1789 1476.75 59.1868C1476.41 59.8012 1476.32 60.7373 1475.17 60.2755C1474.28 59.9184 1473.91 59.4015 1474.23 58.3313C1475.7 53.3595 1478.4 49.3774 1483.17 46.8857C1486.75 45.0105 1490.61 44.692 1494.5 44.2863C1497.02 44.024 1499.52 43.653 1502.02 43.3464C1502.41 43.2993 1503.05 42.8954 1502.94 43.8289L1502.95 43.8108L1502.47 44.0326C1502.47 44.0896 1502.48 44.1465 1502.48 44.2035C1502.72 44.2069 1502.98 44.2519 1503.21 44.2028C1503.48 44.1453 1503.74 43.9251 1504.01 43.9143C1506.18 43.8261 1507.93 42.6385 1509.67 41.5875C1511.53 40.4706 1513.23 39.0982 1514.95 37.7793C1515.48 37.378 1515.86 36.7847 1516.3 36.2792L1516.27 36.3082C1516.6 35.9993 1516.94 35.6902 1517.48 35.1861C1516.82 35.1958 1516.49 35.2008 1515.96 35.2089C1516.61 34.2884 1517.14 33.4202 1517.78 32.6499C1518.21 32.1391 1518.55 32.3217 1518.95 33.1395C1519.48 33.0617 1519.98 32.987 1520.59 32.897C1520.27 32.5237 1520 32.2083 1519.8 31.9868C1519.33 31.9847 1518.76 32.1183 1518.66 31.9524C1518.46 31.6472 1518.46 31.1588 1518.5 30.7592C1518.56 30.1957 1518.69 29.6296 1518.87 29.0914C1518.98 28.7681 1519.24 28.496 1519.53 28.0547C1519.26 27.2112 1519.55 26.2983 1520.93 24.2164C1521.15 24.3037 1521.38 24.3953 1521.66 24.509C1521.42 23.1898 1521.54 22.9653 1522.2 22.9692L1522.3 24.3314L1522.28 24.3026C1522.54 24.7526 1522.81 25.2023 1523.1 25.7046C1523.16 25.6833 1523.38 25.6033 1523.6 25.5228C1523.68 25.5897 1523.75 25.6565 1523.83 25.7233Z" fill="white"/>
<path fill-rule="evenodd" clip-rule="evenodd" d="M1524.16 24.8753C1524.09 24.8092 1524.02 24.7431 1523.94 24.677C1523.97 23.1531 1523.9 23.0906 1522.64 23.4707L1522.66 23.4992C1523.09 23.0194 1523.52 22.5392 1524.01 21.9993C1523.66 21.8133 1523.33 21.6355 1522.83 21.3636C1523.22 21.0921 1523.5 20.8892 1523.79 20.7036C1523.89 20.6421 1524.07 20.662 1524.12 20.5846C1526.2 17.574 1529.12 15.6271 1532.4 14.2069C1533.92 13.55 1535.54 13.1375 1537.12 12.6275C1537.35 12.5546 1537.6 12.5581 1537.84 12.5263L1537.97 12.8577C1535.99 13.6065 1534.02 14.3552 1532.04 15.1039C1532.08 15.2003 1532.11 15.2966 1532.14 15.3933C1534.2 14.6527 1536.25 13.9118 1538.28 13.1783C1539.13 14.7317 1539.04 14.9382 1537.59 15.6982C1535.68 16.696 1533.82 17.7655 1531.93 18.7875C1531.55 18.9907 1531.2 19.2934 1530.7 18.8507C1530.49 18.6714 1529.95 18.8763 1529.46 18.9142L1529.4 18.1875C1528.96 18.5184 1528.58 18.8023 1527.97 19.2575C1528.54 19.2816 1528.82 19.2931 1529.09 19.3046C1529.1 19.4112 1529.14 19.4929 1529.11 19.5341C1528.8 19.9892 1528.31 20.2375 1528.41 21.0329C1528.49 21.5778 1527.76 21.6151 1527.4 21.1249C1527.13 21.4701 1526.87 21.8174 1526.47 22.3361C1526.62 23.3309 1525.94 23.9722 1524.57 23.6788C1524.64 24.0009 1524.79 24.2929 1524.74 24.5517C1524.72 24.6891 1524.37 24.7693 1524.16 24.8753Z" fill="white"/>
<path fill-rule="evenodd" clip-rule="evenodd" d="M1511.81 39.0402C1510.37 39.8272 1508.93 40.6139 1507.49 41.4009C1507.4 41.3058 1507.32 41.2106 1507.24 41.1155C1507.44 40.9671 1507.62 40.8002 1507.83 40.6731C1508.83 40.0714 1509.83 39.4687 1510.85 38.8956C1511.07 38.7726 1511.38 38.7723 1511.65 38.7155C1511.7 38.8236 1511.76 38.9321 1511.81 39.0402Z" fill="white"/>
<path fill-rule="evenodd" clip-rule="evenodd" d="M1502.69 43.3472C1503.3 41.888 1504.63 42.0483 1505.7 41.5387C1505.71 42.3009 1504.81 42.81 1502.7 43.32C1502.69 43.3272 1502.69 43.3472 1502.69 43.3472Z" fill="white"/>
<path fill-rule="evenodd" clip-rule="evenodd" d="M1516.3 35.9113C1515.89 36.0043 1515.45 36.0425 1515.09 36.2059C1514.73 36.3664 1514.44 36.654 1514.02 36.9575C1514.06 36.1383 1514.94 35.1975 1515.57 35.2738C1515.84 35.3064 1516.04 35.7054 1516.27 35.9378C1516.27 35.9374 1516.3 35.9113 1516.3 35.9113Z" fill="white"/>
<path fill-rule="evenodd" clip-rule="evenodd" d="M23.8234 7.99902C21.1714 19.489 11.7563 28.3918 -0.00390625 30.2895C11.632 32.1672 20.972 40.9025 23.737 52.2164C26.0627 41.4756 34.2823 32.9305 44.8406 30.1364V29.6926C34.4092 26.9321 26.2606 18.558 23.8234 7.99902Z" fill="white"/>
</svg>
