<?xml version="1.0" standalone="no"?>
<!DOCTYPE svg PUBLIC "-//W3C//DTD SVG 20010904//EN"
 "http://www.w3.org/TR/2001/REC-SVG-20010904/DTD/svg10.dtd">
<svg version="1.0" xmlns="http://www.w3.org/2000/svg"
 width="490.000000pt" height="510.000000pt" viewBox="0 0 490.000000 510.000000"
 preserveAspectRatio="xMidYMid meet">

<g transform="translate(0.000000,510.000000) scale(0.100000,-0.100000)"
fill="#000000" stroke="none">
<path d="M0 2550 l0 -2550 2450 0 2450 0 0 2550 0 2550 -2450 0 -2450 0 0
-2550z m2802 2380 c967 -141 1760 -852 2003 -1795 61 -237 70 -320 70 -620 -1
-210 -5 -292 -18 -370 -90 -515 -305 -943 -655 -1307 -207 -214 -413 -364
-687 -498 -819 -403 -1785 -312 -2520 238 -552 412 -887 1006 -966 1711 -15
133 -6 450 16 591 151 968 854 1752 1787 1994 327 85 643 103 970 56z"/>
<path d="M3792 3779 c-77 -38 -196 -149 -241 -223 -50 -84 -27 -91 34 -11 92
122 256 237 338 237 53 0 74 -10 96 -45 11 -18 21 -26 21 -18 0 7 -17 31 -39
52 -35 36 -43 39 -93 39 -41 0 -70 -8 -116 -31z"/>
<path d="M4048 3641 c5 -73 -16 -121 -119 -266 -81 -116 -169 -265 -169 -289
0 -22 17 -20 96 11 57 22 86 27 164 27 91 1 99 -1 170 -36 129 -64 194 -142
221 -265 12 -54 12 -56 -10 -74 -54 -44 -201 -11 -416 90 -58 27 -105 46 -105
41 0 -16 40 -36 163 -85 280 -110 427 -112 427 -5 0 46 -57 146 -113 196 -162
147 -315 194 -481 149 -32 -8 -61 -13 -64 -11 -6 6 94 168 160 260 72 99 88
138 88 221 0 39 -4 76 -8 83 -5 7 -6 -14 -4 -47z"/>
<path d="M1866 3612 c-2 -4 -1 -14 5 -22 7 -12 9 -10 9 8 0 23 -5 28 -14 14z"/>
<path d="M1650 3599 c0 -5 5 -7 10 -4 6 3 10 8 10 11 0 2 -4 4 -10 4 -5 0 -10
-5 -10 -11z"/>
<path d="M1652 3488 c-2 -88 0 -98 16 -98 11 0 13 3 5 8 -8 5 -13 42 -16 97
l-3 90 -2 -97z"/>
<path d="M3411 3459 c82 -78 124 -161 206 -409 30 -91 69 -192 87 -225 38 -72
112 -150 193 -202 60 -39 230 -110 239 -100 3 3 -12 11 -33 17 -86 28 -191 90
-260 154 -87 81 -135 172 -186 356 -20 69 -45 150 -56 181 -42 112 -120 208
-201 249 -20 10 -18 6 11 -21z"/>
<path d="M1870 3411 c0 -5 -8 -12 -17 -14 -14 -4 -12 -5 5 -6 13 -1 22 5 22
14 0 8 -2 15 -5 15 -3 0 -5 -4 -5 -9z"/>
<path d="M955 3160 c-49 -16 -91 -29 -93 -29 -3 -1 78 -162 90 -178 7 -9 17
-9 36 -2 15 6 50 11 79 12 92 3 123 -52 123 -222 l0 -91 -68 0 c-280 0 -425
-177 -392 -481 19 -176 61 -251 174 -309 64 -33 74 -35 165 -35 82 1 104 4
153 27 110 51 185 148 208 267 16 88 13 712 -5 795 -27 127 -78 197 -175 240
-91 41 -182 43 -295 6z m235 -862 c0 -73 -5 -150 -10 -170 -13 -46 -52 -78
-96 -78 -47 0 -61 8 -84 45 -18 28 -22 56 -27 184 l-6 151 111 0 112 0 0 -132z"/>
<path d="M3150 3170 c-11 -8 -7 -9 15 -4 37 8 45 14 19 14 -10 0 -26 -5 -34
-10z"/>
<path d="M3338 3153 c7 -3 16 -2 19 1 4 3 -2 6 -13 5 -11 0 -14 -3 -6 -6z"/>
<path d="M1655 2525 c0 -346 1 -487 2 -312 2 175 2 459 0 630 -1 172 -2 29 -2
-318z"/>
<path d="M1848 3143 c6 -2 18 -2 25 0 6 3 1 5 -13 5 -14 0 -19 -2 -12 -5z"/>
<path d="M2250 3131 c13 -26 13 -34 -2 -25 -7 5 -8 3 -3 -5 4 -7 11 -9 16 -4
10 10 0 53 -13 53 -5 0 -4 -8 2 -19z"/>
<path d="M2510 3139 c0 -5 5 -7 10 -4 6 3 10 8 10 11 0 2 -4 4 -10 4 -5 0 -10
-5 -10 -11z"/>
<path d="M2723 3135 c0 -8 4 -15 9 -15 4 0 8 7 8 15 0 8 -4 15 -8 15 -5 0 -9
-7 -9 -15z"/>
<path d="M3030 3129 c0 -5 5 -7 10 -4 6 3 10 8 10 11 0 2 -4 4 -10 4 -5 0 -10
-5 -10 -11z"/>
<path d="M1871 3114 c0 -11 3 -14 6 -6 3 7 2 16 -1 19 -3 4 -6 -2 -5 -13z"/>
<path d="M3005 3120 c3 -5 8 -10 11 -10 2 0 4 5 4 10 0 6 -5 10 -11 10 -5 0
-7 -4 -4 -10z"/>
<path d="M3415 3118 c11 -6 23 -16 27 -22 5 -8 8 -7 8 1 0 7 -9 17 -19 23 -27
14 -41 12 -16 -2z"/>
<path d="M2050 3105 c0 -8 2 -15 4 -15 2 0 6 7 10 15 3 8 1 15 -4 15 -6 0 -10
-7 -10 -15z"/>
<path d="M3128 3113 c7 -3 16 -2 19 1 4 3 -2 6 -13 5 -11 0 -14 -3 -6 -6z"/>
<path d="M2498 3087 c-3 -19 -2 -25 4 -19 6 6 8 18 6 28 -3 14 -5 12 -10 -9z"/>
<path d="M3460 3084 c0 -6 7 -17 15 -24 8 -7 15 -19 15 -26 0 -8 5 -14 10 -14
7 0 7 6 1 18 -17 31 -40 57 -41 46z"/>
<path d="M3455 3040 c3 -5 8 -10 11 -10 2 0 4 5 4 10 0 6 -5 10 -11 10 -5 0
-7 -4 -4 -10z"/>
<path d="M3060 3011 c0 -6 4 -13 10 -16 6 -3 7 1 4 9 -7 18 -14 21 -14 7z"/>
<path d="M2090 2991 c0 -5 5 -13 10 -16 6 -3 10 -2 10 4 0 5 -4 13 -10 16 -5
3 -10 2 -10 -4z"/>
<path d="M3200 2996 c0 -2 7 -7 16 -10 8 -3 12 -2 9 4 -6 10 -25 14 -25 6z"/>
<path d="M3250 2976 c0 -2 8 -10 18 -17 15 -13 16 -12 3 4 -13 16 -21 21 -21
13z"/>
<path d="M3532 2950 c0 -14 2 -19 5 -12 2 6 2 18 0 25 -3 6 -5 1 -5 -13z"/>
<path d="M3542 2900 c0 -14 2 -19 5 -12 2 6 2 18 0 25 -3 6 -5 1 -5 -13z"/>
<path d="M2331 2864 c0 -11 3 -14 6 -6 3 7 2 16 -1 19 -3 4 -6 -2 -5 -13z"/>
<path d="M3555 2485 c0 -198 1 -280 2 -183 2 97 2 259 0 360 -1 101 -2 21 -2
-177z"/>
<path d="M2331 2794 c0 -11 3 -14 6 -6 3 7 2 16 -1 19 -3 4 -6 -2 -5 -13z"/>
<path d="M3332 2735 c0 -16 2 -22 5 -12 2 9 2 23 0 30 -3 6 -5 -1 -5 -18z"/>
<path d="M3315 2639 c-4 -6 -5 -12 -2 -15 2 -3 7 2 10 11 7 17 1 20 -8 4z"/>
<path d="M3190 2630 c8 -5 20 -10 25 -10 6 0 3 5 -5 10 -8 5 -19 10 -25 10 -5
0 -3 -5 5 -10z"/>
<path d="M2230 2609 c0 -5 5 -7 10 -4 6 3 10 8 10 11 0 2 -4 4 -10 4 -5 0 -10
-5 -10 -11z"/>
<path d="M2520 2599 c-7 -11 -10 -23 -7 -25 2 -2 9 7 15 21 14 30 7 33 -8 4z"/>
<path d="M3048 2593 c7 -3 16 -2 19 1 4 3 -2 6 -13 5 -11 0 -14 -3 -6 -6z"/>
<path d="M2246 2577 c3 -10 9 -15 12 -12 3 3 0 11 -7 18 -10 9 -11 8 -5 -6z"/>
<path d="M2989 2563 c-13 -16 -12 -17 4 -4 16 13 21 21 13 21 -2 0 -10 -8 -17
-17z"/>
<path d="M2261 2534 c0 -11 3 -14 6 -6 3 7 2 16 -1 19 -3 4 -6 -2 -5 -13z"/>
<path d="M2501 2530 c0 -8 4 -22 9 -30 12 -18 12 -2 0 25 -6 13 -9 15 -9 5z"/>
<path d="M2521 2475 c1 -19 18 -51 18 -35 0 8 -4 22 -9 30 -5 8 -9 11 -9 5z"/>
<path d="M2227 2443 c-4 -3 -7 -11 -7 -17 0 -6 5 -5 12 2 6 6 9 14 7 17 -3 3
-9 2 -12 -2z"/>
<path d="M3193 2443 c9 -2 23 -2 30 0 6 3 -1 5 -18 5 -16 0 -22 -2 -12 -5z"/>
<path d="M2206 2395 c-3 -9 -6 -22 -5 -28 0 -7 5 -1 10 12 5 13 8 26 5 28 -2
2 -6 -3 -10 -12z"/>
<path d="M2872 2340 c0 -14 2 -19 5 -12 2 6 2 18 0 25 -3 6 -5 1 -5 -13z"/>
<path d="M2571 2340 c0 -8 4 -22 9 -30 12 -18 12 -2 0 25 -6 13 -9 15 -9 5z"/>
<path d="M2183 2325 c-3 -9 -3 -18 -1 -21 3 -3 8 4 11 16 6 23 -1 27 -10 5z"/>
<path d="M3091 2234 c0 -11 3 -14 6 -6 3 7 2 16 -1 19 -3 4 -6 -2 -5 -13z"/>
<path d="M3091 2134 c0 -11 3 -14 6 -6 3 7 2 16 -1 19 -3 4 -6 -2 -5 -13z"/>
<path d="M2106 2115 c-9 -26 -7 -32 5 -12 6 10 9 21 6 23 -2 3 -7 -2 -11 -11z"/>
<path d="M2650 2111 c0 -5 5 -13 10 -16 6 -3 10 -2 10 4 0 5 -4 13 -10 16 -5
3 -10 2 -10 -4z"/>
<path d="M3120 2081 c0 -6 4 -13 10 -16 6 -3 7 1 4 9 -7 18 -14 21 -14 7z"/>
<path d="M3148 2043 c7 -3 16 -2 19 1 4 3 -2 6 -13 5 -11 0 -14 -3 -6 -6z"/>
<path d="M3230 2040 c-23 -7 -23 -8 -3 -9 12 -1 25 4 28 9 3 6 5 10 3 9 -2 -1
-14 -5 -28 -9z"/>
<path d="M3503 2013 c-7 -2 -13 -10 -13 -17 0 -8 -10 -12 -23 -11 -20 3 -23
-1 -23 -30 1 -32 2 -33 18 -18 22 20 23 24 3 17 -8 -4 -15 -1 -15 5 0 6 5 12
10 12 6 1 14 2 20 3 5 0 17 11 25 24 9 12 15 22 13 21 -2 0 -9 -3 -15 -6z"/>
<path d="M2946 1953 c-6 -14 -5 -15 5 -6 7 7 10 15 7 18 -3 3 -9 -2 -12 -12z"/>
<path d="M2500 1951 c0 -6 4 -13 10 -16 6 -3 7 1 4 9 -7 18 -14 21 -14 7z"/>
<path d="M2041 1934 c0 -11 3 -14 6 -6 3 7 2 16 -1 19 -3 4 -6 -2 -5 -13z"/>
<path d="M2721 1924 c0 -11 3 -14 6 -6 3 7 2 16 -1 19 -3 4 -6 -2 -5 -13z"/>
<path d="M1872 1880 c0 -14 2 -19 5 -12 2 6 2 18 0 25 -3 6 -5 1 -5 -13z"/>
<path d="M2220 1890 c-23 -7 -23 -8 -3 -9 12 -1 25 4 28 9 3 6 5 10 3 9 -2 -1
-14 -5 -28 -9z"/>
<path d="M2728 1883 c-3 -12 0 -20 8 -20 16 0 17 6 5 25 -6 11 -9 9 -13 -5z"/>
<path d="M3010 1881 c28 -23 47 -26 70 -11 11 8 8 9 -12 4 -16 -3 -37 1 -55
11 l-28 17 25 -21z"/>
<path d="M3385 1891 c-11 -5 -24 -7 -30 -6 -5 1 -7 0 -2 -2 4 -3 4 -9 1 -15
-5 -8 52 17 65 28 7 6 -13 3 -34 -5z"/>
<path d="M1650 1877 c0 -10 8 -17 18 -17 9 0 13 4 7 8 -5 4 -13 11 -17 16 -5
5 -8 2 -8 -7z"/>
<path d="M2553 1875 c0 -7 8 -10 19 -7 10 2 18 6 18 7 0 1 -8 5 -18 7 -11 3
-19 0 -19 -7z"/>
<path d="M1840 1869 c0 -5 5 -7 10 -4 6 3 10 8 10 11 0 2 -4 4 -10 4 -5 0 -10
-5 -10 -11z"/>
<path d="M2055 1870 c3 -5 8 -10 11 -10 2 0 4 5 4 10 0 6 -5 10 -11 10 -5 0
-7 -4 -4 -10z"/>
<path d="M372 1707 c-62 -66 10 -164 93 -127 14 7 9 8 -18 4 -55 -9 -87 15
-87 65 0 50 26 75 74 69 19 -2 32 0 30 4 -11 18 -71 8 -92 -15z"/>
<path d="M502 1638 l3 -63 38 -1 c37 -1 37 -1 2 3 l-34 4 0 54 c1 53 2 54 33
58 29 4 28 4 -7 5 l-38 2 3 -62z"/>
<path d="M743 1690 c15 -5 39 -5 55 0 22 7 17 8 -28 8 -45 0 -50 -1 -27 -8z"/>
<path d="M850 1689 c0 -5 5 -7 10 -4 6 3 19 3 30 0 25 -8 26 -45 2 -52 -17 -4
-16 -7 7 -33 14 -15 28 -26 30 -24 2 2 -4 13 -14 24 -14 16 -16 23 -7 32 18
18 14 46 -7 58 -25 13 -51 13 -51 -1z"/>
<path d="M961 1674 c-12 -15 -21 -32 -21 -39 0 -24 41 -65 66 -65 30 0 64 33
64 63 0 31 -35 67 -65 67 -14 0 -32 -11 -44 -26z m81 -1 c10 -9 18 -26 18 -39
0 -55 -72 -72 -99 -23 -13 24 -13 29 2 53 20 30 52 34 79 9z"/>
<path d="M1377 1693 c19 -4 23 -12 26 -61 l3 -57 2 57 c2 50 5 57 25 61 12 2
0 4 -28 4 -27 0 -40 -2 -28 -4z"/>
<path d="M1480 1635 l0 -65 38 2 c36 1 36 1 5 5 -29 4 -33 8 -33 33 0 22 5 30
23 33 l22 4 -22 2 c-38 2 -30 39 10 44 31 4 31 4 -5 5 l-38 2 0 -65z"/>
<path d="M1592 1677 c-28 -30 -28 -59 1 -83 22 -19 22 -19 5 2 -34 40 -14 87
42 97 l25 4 -26 2 c-15 0 -34 -8 -47 -22z"/>
<path d="M1730 1693 c0 -5 14 -8 31 -9 20 -1 26 2 17 7 -16 11 -48 12 -48 2z"/>
<path d="M2140 1691 c0 -4 11 -6 25 -3 14 2 25 6 25 8 0 2 -11 4 -25 4 -14 0
-25 -4 -25 -9z"/>
<path d="M2265 1688 c-2 -7 -3 -35 -2 -63 l2 -50 40 -2 40 -1 -35 6 c-29 6
-36 12 -38 35 -3 22 1 27 20 28 l23 0 -23 10 c-31 12 -23 32 14 40 l29 7 -33
1 c-18 0 -34 -4 -37 -11z"/>
<path d="M2440 1635 c0 -65 0 -65 29 -65 16 0 33 6 39 13 10 13 8 94 -3 105
-4 4 -6 0 -5 -8 4 -29 0 -40 -17 -41 -14 0 -12 -3 5 -10 32 -12 25 -43 -10
-47 -26 -3 -27 -2 -27 52 0 48 3 55 22 59 18 4 17 5 -5 6 -28 1 -28 1 -28 -64z"/>
<path d="M2600 1635 l0 -65 38 2 c36 1 36 1 5 5 -29 4 -33 8 -33 33 0 19 6 30
18 33 16 4 16 5 0 6 -11 1 -18 9 -18 20 0 15 8 21 33 24 31 4 31 4 -5 5 l-38
2 0 -65z"/>
<path d="M2830 1692 c0 -5 14 -7 30 -4 17 2 30 6 30 8 0 2 -13 4 -30 4 -16 0
-30 -4 -30 -8z"/>
<path d="M2958 1693 c6 -2 18 -2 25 0 6 3 1 5 -13 5 -14 0 -19 -2 -12 -5z"/>
<path d="M3022 1694 c8 -7 88 -8 95 0 4 3 -18 6 -47 6 -29 0 -51 -3 -48 -6z"/>
<path d="M3240 1693 c0 -5 12 -9 28 -8 22 0 27 -4 27 -25 0 -21 -5 -25 -27
-25 -16 1 -28 -3 -28 -7 0 -4 8 -8 17 -8 9 0 28 -10 42 -22 24 -22 25 -22 8
-1 -16 18 -16 24 -5 42 9 16 10 26 2 39 -11 18 -64 30 -64 15z"/>
<path d="M3420 1694 c0 -6 7 -19 16 -30 14 -18 14 -18 3 6 -14 31 -19 36 -19
24z"/>
<path d="M3610 1635 c0 -65 0 -65 29 -65 37 0 49 16 48 62 -1 31 -3 34 -13 20
-8 -11 -9 -19 -2 -23 20 -12 3 -44 -25 -47 -23 -3 -27 0 -27 22 0 15 7 26 18
29 16 4 16 5 0 6 -28 2 -24 49 5 54 19 4 18 4 -5 6 -28 1 -28 1 -28 -64z"/>
<path d="M3726 1685 c-9 -24 4 -45 28 -44 20 0 20 1 -2 10 -31 12 -23 32 14
40 l29 7 -31 1 c-20 1 -34 -5 -38 -14z"/>
<path d="M4025 1690 c-4 -6 6 -7 27 -3 44 8 48 13 10 13 -17 0 -34 -4 -37 -10z"/>
<path d="M4145 1690 c22 -5 44 -4 50 1 5 5 -11 9 -40 8 l-50 -1 40 -8z"/>
<path d="M602 1635 l1 -60 6 49 6 48 34 -46 c19 -25 36 -46 37 -46 1 0 4 9 7
20 3 13 1 18 -6 13 -5 -3 -27 14 -48 38 l-38 44 1 -60z"/>
<path d="M1193 1635 c0 -33 2 -45 4 -27 2 18 2 45 0 60 -2 15 -4 0 -4 -33z"/>
<path d="M1232 1635 c1 -48 2 -52 5 -17 2 23 7 42 11 42 3 0 23 -19 44 -42
l37 -43 -1 60 c-1 48 -2 52 -5 18 -2 -24 -7 -43 -10 -43 -3 0 -23 19 -44 43
l-38 42 1 -60z"/>
<path d="M1853 1632 c-14 -37 -17 -49 -6 -34 8 12 23 22 33 22 10 0 25 -10 33
-22 14 -20 14 -16 -1 22 -10 27 -18 38 -20 27 -2 -9 -8 -17 -13 -17 -12 0 -12
27 1 35 12 7 13 25 3 25 -5 0 -18 -26 -30 -58z"/>
<path d="M2212 1675 c4 -6 12 -22 17 -36 6 -15 10 -18 10 -8 1 9 -7 25 -16 36
-10 10 -15 14 -11 8z"/>
<path d="M2553 1645 c0 -27 2 -38 4 -22 2 15 2 37 0 50 -2 12 -4 0 -4 -28z"/>
<path d="M2700 1679 c0 -8 10 -20 23 -28 l22 -14 -20 24 c-11 13 -21 26 -22
28 -2 2 -3 -2 -3 -10z"/>
<path d="M3157 1671 c-3 -13 -1 -18 9 -14 7 2 10 11 7 19 -7 19 -10 18 -16 -5z"/>
<path d="M3824 1633 l1 -58 38 -1 c37 -1 37 -1 3 3 -35 4 -35 5 -39 59 l-4 54
1 -57z"/>
<path d="M3922 1633 l-2 -63 43 2 42 1 -37 4 -37 4 -4 57 -3 57 -2 -62z"/>
<path d="M4237 1628 c-15 -35 -20 -54 -12 -43 8 11 18 25 23 30 5 6 7 16 5 22
-2 6 1 14 6 18 6 3 18 -12 28 -36 9 -24 18 -38 20 -33 3 10 -34 104 -41 104
-1 0 -15 -28 -29 -62z"/>
<path d="M3073 1625 c0 -27 2 -38 4 -22 2 15 2 37 0 50 -2 12 -4 0 -4 -28z"/>
<path d="M3468 1651 c-8 -10 -13 -23 -9 -29 4 -7 12 1 18 18 13 35 13 36 -9
11z"/>
<path d="M4022 1625 l3 -50 90 -1 c50 -1 73 1 53 3 -21 2 -38 7 -38 11 0 4 11
24 25 45 14 20 24 37 21 37 -3 0 -19 -20 -36 -45 -28 -41 -35 -45 -71 -45
l-40 0 3 40 c1 22 -2 43 -6 47 -4 4 -6 -15 -4 -42z"/>
<path d="M681 1644 c0 -11 3 -14 6 -6 3 7 2 16 -1 19 -3 4 -6 -2 -5 -13z"/>
<path d="M2830 1645 c0 -8 9 -10 25 -7 14 2 25 6 25 7 0 1 -11 5 -25 7 -16 3
-25 1 -25 -7z"/>
<path d="M1665 1643 c11 -3 23 -10 27 -17 5 -7 8 -5 8 7 0 12 -7 17 -27 16
-22 -1 -23 -2 -8 -6z"/>
<path d="M851 1624 c0 -11 3 -14 6 -6 3 7 2 16 -1 19 -3 4 -6 -2 -5 -13z"/>
<path d="M1730 1623 c0 -7 7 -10 15 -7 8 4 21 1 28 -4 9 -8 13 -7 13 6 0 12
-9 17 -28 17 -15 0 -28 -5 -28 -12z"/>
<path d="M3130 1611 c-6 -13 -9 -26 -6 -28 2 -2 7 5 11 17 5 17 13 21 35 18
17 -3 26 0 24 6 -8 21 -53 12 -64 -13z"/>
<path d="M1669 1593 c-13 -16 -12 -17 4 -4 9 7 17 15 17 17 0 8 -8 3 -21 -13z"/>
<path d="M2205 1594 c-11 -8 -30 -13 -42 -11 -13 2 -23 0 -23 -4 0 -16 48 -9
71 11 28 23 23 26 -6 4z"/>
<path d="M2776 1595 c4 -8 8 -15 10 -15 2 0 4 7 4 15 0 8 -4 15 -10 15 -5 0
-7 -7 -4 -15z"/>
<path d="M1960 1578 c0 -4 16 -8 35 -8 19 0 35 2 35 4 0 2 -16 6 -35 8 -19 2
-35 0 -35 -4z"/>
<path d="M2830 1578 c0 -4 16 -8 35 -8 19 0 35 2 35 4 0 2 -16 6 -35 8 -19 2
-35 0 -35 -4z"/>
<path d="M3730 1578 c0 -4 14 -8 30 -8 17 0 30 2 30 4 0 2 -13 6 -30 8 -16 3
-30 1 -30 -4z"/>
<path d="M1628 1573 c7 -3 16 -2 19 1 4 3 -2 6 -13 5 -11 0 -14 -3 -6 -6z"/>
<path d="M2948 1573 c6 -2 18 -2 25 0 6 3 1 5 -13 5 -14 0 -19 -2 -12 -5z"/>
</g>
</svg>
