<svg width="219" height="193" viewBox="0 0 219 193" fill="none" xmlns="http://www.w3.org/2000/svg">
<path fill-rule="evenodd" clip-rule="evenodd" d="M8.16808 56.2017C13.1315 46.2537 20.8332 37.9212 30.2465 32.1395C33.7551 30.0138 37.4348 28.3984 41.2857 27.208C54.8067 22.9567 69.7823 23.807 82.6186 29.5037C88.3526 31.8844 93.6581 35.4554 98.1937 39.6217C104.013 44.9784 108.805 51.7803 111.029 59.4326C111.8 61.8134 110.687 61.7283 109.061 60.1979C108.206 59.4326 107.265 58.2423 106.409 56.8819C105.296 55.5215 104.269 53.906 103.157 52.1204C99.2199 45.8286 93.7432 40.472 87.4109 36.4758C80.9927 32.4796 73.7188 29.9288 66.1026 28.7385C64.9901 28.4834 63.7921 28.4834 62.6796 28.3984C61.4815 28.3133 60.3691 28.1433 59.171 28.2283C56.8605 28.3133 54.4643 28.3133 52.1538 28.7385C47.4472 29.2486 42.9117 30.7791 38.4618 32.3946C36.0656 33.4149 33.7551 34.5202 31.6157 35.8806C30.5032 36.5608 29.4764 37.326 28.4494 38.0912L26.7379 39.1116L25.2831 40.387C21.3466 43.788 17.838 47.6991 15.0141 52.0355C13.217 54.6713 11.7622 57.5621 10.4786 60.453C9.28054 63.4288 8.25358 66.4898 7.48344 69.5506C5.25852 78.9885 5.60074 89.1065 8.68151 98.2893C11.1631 105.432 15.0997 111.808 20.2341 116.995C20.7476 117.59 21.3466 118.1 21.9456 118.696C22.5447 119.205 23.1437 119.801 23.7427 120.311C28.3638 124.222 29.9898 125.327 30.5032 126.943C30.5888 127.283 30.8455 127.708 30.8455 128.049C30.9311 128.558 30.3321 128.558 29.134 128.219C28.535 128.049 27.8504 127.708 27.0802 127.283C26.31 126.858 25.3687 126.263 24.4274 125.582C18.6939 121.586 13.5593 116.145 9.79397 109.767C7.91126 106.622 6.37098 103.221 5.08731 99.6497C3.88924 96.0786 3.0335 92.4225 2.60567 88.6814C1.92103 83.1548 2.00664 77.5431 2.94789 72.0164C3.88924 66.4898 5.60074 61.1331 8.08248 56.1167L8.16808 56.2017Z" fill="white"/>
<path fill-rule="evenodd" clip-rule="evenodd" d="M58.6577 139.186C55.8336 142.503 52.4106 144.968 48.8164 147.009C47.5328 147.689 46.2492 148.539 44.88 149.049C43.853 149.56 42.7406 149.9 41.6281 150.324L40.0022 150.92L39.1465 151.175L38.1195 151.515C36.408 152.026 34.6965 152.535 33.0705 152.79C31.6158 153.046 29.4764 153.726 29.4764 153.131C30.161 152.111 30.9312 150.92 31.5303 149.985L32.386 148.539L32.8994 147.264C33.0705 146.838 33.2418 146.414 33.3273 146.074L33.4985 145.308C33.7552 144.288 33.9263 143.267 33.9263 142.162C34.1831 139.441 33.8408 136.721 33.9263 133.915C33.9263 133.065 34.9532 132.98 35.9801 133.659C37.0071 134.34 38.1195 135.7 38.2051 137.486C38.2906 139.867 38.1195 142.248 37.6917 144.629C37.5205 145.223 37.4349 145.819 37.2638 146.414L37.0071 147.179C37.0071 147.179 37.0071 147.179 36.9215 147.179C36.8358 147.264 36.7503 147.349 36.5791 147.519L36.408 147.774C36.408 147.859 36.408 147.859 36.408 147.859C36.4936 147.944 36.4936 147.944 36.6647 147.944C36.8358 147.944 37.0927 147.944 37.3494 147.859L37.6061 147.774L37.9484 147.689C38.1195 147.604 38.3762 147.519 38.5474 147.434L39.7455 147.009C41.3714 146.329 42.9973 145.648 44.5377 144.883C47.9607 143.182 51.2125 141.142 53.951 138.506C54.3788 138.166 54.7211 137.656 55.1491 137.23C55.4914 136.806 55.9192 136.381 56.2615 135.955L57.5451 134.085L57.8874 133.489L57.973 133.405H58.1441H58.4865L59.7701 133.489L61.396 133.574C61.8239 133.574 62.3374 133.659 62.7653 133.659C63.7065 133.659 64.5623 133.659 65.5036 133.659C67.3007 133.574 69.0978 133.489 70.8949 133.15C73.6333 132.725 76.2861 131.874 78.8534 130.939C79.4524 130.684 79.9659 130.514 80.565 130.259C82.7043 129.494 83.3889 129.409 84.2447 130.173C84.4158 130.344 84.6726 130.514 84.8437 130.684C85.3571 131.279 84.7581 132.299 83.2178 133.15C78.5967 135.615 73.0343 136.976 67.4718 137.401C65.418 137.571 63.2787 137.571 61.2249 137.486H60.5403H60.3692C60.2835 137.486 60.1124 137.486 60.1124 137.486L60.0268 137.571L59.7701 137.911C59.4278 138.421 59.0855 138.847 58.6577 139.186Z" fill="white"/>
<path fill-rule="evenodd" clip-rule="evenodd" d="M117.191 68.3599C113.768 69.8053 110.516 71.761 107.521 73.8866C104.525 76.1823 101.787 78.648 99.3911 81.5389C97.0813 84.4297 94.9416 87.4907 93.3156 90.8917C91.7748 94.2077 90.4912 97.7787 89.7212 101.434C88.6089 106.792 88.5228 112.318 89.2076 117.675C90.5773 127.113 95.0267 136.295 102.044 143.012C108.891 149.9 118.218 154.235 127.888 155.426C132.167 155.936 136.617 155.851 140.896 155.256C142.008 155.086 143.035 154.916 144.147 154.661C145.174 154.405 146.286 154.235 147.314 153.895L148.854 153.471L150.052 153.13L150.651 152.96L150.993 152.875C151.079 152.875 151.164 152.96 151.25 153.045L152.962 154.491C153.304 154.831 153.818 155.086 154.245 155.341C157.326 157.297 161.006 158.062 164.771 158.402C166.653 158.487 168.537 158.487 170.419 158.317L171.275 158.232L171.874 158.147L172.473 158.062L172.73 157.976C172.815 157.976 172.815 157.976 172.901 157.976L172.815 157.891C172.559 157.636 172.387 157.382 172.13 157.127L171.788 156.701L171.446 156.191C171.275 156.021 171.189 155.766 171.018 155.596C169.992 153.98 169.221 152.195 168.707 150.324C168.279 148.709 168.451 147.859 168.707 147.689C169.049 147.519 169.478 148.029 170.162 148.964C170.847 149.9 171.703 151.175 172.901 152.62C173.157 152.96 173.5 153.386 173.842 153.726C174.013 153.895 174.185 154.065 174.356 154.32L174.612 154.576C174.697 154.746 174.955 155.001 175.126 155.171C176.494 156.786 178.72 158.742 180.688 160.783C180.26 160.953 179.661 161.038 179.062 161.208C178.463 161.377 177.864 161.462 177.265 161.633C176.666 161.803 175.982 161.888 175.297 162.058C174.612 162.143 173.842 162.313 173.157 162.398L172.13 162.568L171.104 162.653C170.761 162.653 170.333 162.738 169.992 162.738C169.221 162.738 168.451 162.823 167.681 162.823C166.14 162.823 164.6 162.738 162.974 162.568C159.893 162.228 156.727 161.462 153.732 159.932C152.962 159.592 152.277 159.082 151.592 158.657C151.25 158.402 150.908 158.232 150.566 157.976L150.052 157.552C150.052 157.552 150.052 157.552 149.966 157.467L147.912 158.062C146.458 158.402 144.918 158.742 143.463 158.997C141.922 159.167 140.467 159.423 138.927 159.592C132.851 160.102 126.604 159.677 120.699 158.062C114.795 156.446 109.147 153.726 104.355 149.985C101.446 147.774 98.7923 145.223 96.3964 142.418C94.0005 139.611 91.946 136.466 90.2349 133.15C86.7262 126.517 85.0147 119.035 84.9291 111.638C84.9291 107.556 85.4425 103.475 86.2983 99.5643C87.2396 95.6531 88.6089 91.7419 90.4912 88.1708C91.3472 86.3003 92.5457 84.6848 93.572 82.8993C94.7704 81.2838 95.9679 79.5833 97.3376 78.1379C99.9908 75.0769 103.071 72.4411 106.409 70.0605C114.539 64.3637 124.38 60.9628 134.392 60.5376C136.274 60.3676 138.157 60.5376 140.04 60.6226C140.981 60.6226 141.922 60.7927 142.863 60.9628C143.805 61.1328 144.747 61.1328 145.688 61.3878C147.485 61.813 149.367 62.1531 151.164 62.8333C152.021 63.1734 152.962 63.4284 153.818 63.7686L156.385 64.8739L157.668 65.4691L158.866 66.1493L161.348 67.5097L163.659 69.0402C164.429 69.5503 165.199 70.0605 165.969 70.6556L168.194 72.4411C168.878 73.0363 169.563 73.7166 170.248 74.3968C171.618 75.6721 172.815 77.1175 174.013 78.478C177.693 82.9843 180.516 88.0859 182.4 93.5275C184.282 98.9691 185.052 104.751 184.711 110.533C184.539 113.083 184.282 115.549 183.683 118.1C182.571 122.776 181.201 125.668 180.089 127.538C178.977 129.409 178.035 130.343 177.094 130.939C176.666 131.194 176.152 131.619 175.811 131.704C175.211 131.874 175.297 131.024 175.896 129.493C176.494 127.962 177.437 125.582 178.549 122.521C180.089 118.015 180.945 113.168 180.945 108.322C180.859 103.475 180.089 98.629 178.463 93.9526C176.837 89.3612 174.441 84.9399 171.275 81.0288C168.194 77.1175 164.343 73.8016 160.149 71.1658C156.984 69.2102 153.647 67.5097 150.052 66.4894C148.34 65.8092 146.458 65.5541 144.661 65.1289C143.719 64.9589 142.778 64.8739 141.922 64.7889L140.553 64.6188C140.125 64.6188 139.611 64.6188 139.184 64.5339C131.739 63.9387 124.122 65.4691 117.191 68.3599Z" fill="white"/>
<path fill-rule="evenodd" clip-rule="evenodd" d="M66.2737 74.3118C67.8996 72.3561 68.7554 69.2953 68.4987 66.4044C68.4131 65.384 68.0708 64.3638 67.6429 63.4285C66.3592 60.1124 62.1661 58.3269 58.2296 59.0922C56.5181 59.4323 54.8066 60.2826 53.4374 61.3879C51.6403 62.8333 50.4423 64.7888 49.5865 66.9145C49.3298 67.5948 48.8164 67.4246 48.474 66.6595C48.1317 65.8943 47.9605 64.3638 48.7308 63.0033C51.3836 57.9018 57.6306 55.011 63.4497 56.5415C65.1613 56.9665 66.7872 57.7318 68.2419 58.9221C69.6967 60.1124 70.7236 61.728 71.3226 63.3434C72.6919 66.9996 72.5207 70.9107 71.0659 74.4818C70.1246 76.6924 68.4987 78.4779 66.7872 79.9234C64.2199 82.1341 61.3959 83.6645 59.2565 85.7051C58.4008 86.4704 57.6306 87.4057 57.1171 88.2559C56.6037 89.1911 56.2614 90.1264 55.9191 91.2317C55.748 91.742 55.6623 92.2521 55.4056 92.7622C54.6355 94.7178 53.9508 95.143 52.7528 95.0579C52.4961 95.0579 52.1538 95.0579 51.897 94.9729C51.0413 94.7178 50.7846 93.6975 51.0413 92.3372C51.298 91.3168 51.4691 90.2965 51.8114 89.1911C52.1537 88.0858 52.7528 86.7255 53.5229 85.5351C55.1489 83.2394 57.1171 81.7089 58.9998 80.2635C61.8238 78.2229 64.4766 76.4373 66.017 74.3118H66.2737Z" fill="white"/>
<path fill-rule="evenodd" clip-rule="evenodd" d="M52.4963 103.73C52.4963 103.815 52.4963 103.9 52.4963 103.985C52.3252 105.771 50.956 106.366 49.3301 106.196C47.1051 105.941 46.2494 103.476 47.4474 101.775C49.159 99.3094 52.4963 101.095 52.4963 103.73Z" fill="white"/>
<path fill-rule="evenodd" clip-rule="evenodd" d="M118.132 156.616C122.754 158.232 127.632 159.166 132.595 159.251C134.392 159.251 136.189 159.251 137.986 158.996L140.382 158.741C141.152 158.656 141.922 158.487 142.692 158.317L145.003 157.891C145.773 157.721 146.544 157.466 147.314 157.296L149.966 156.531C150.308 156.276 150.48 156.7 150.822 156.871L151.421 157.381L152.277 158.147C152.876 158.571 153.56 158.996 154.245 159.422C154.93 159.762 155.7 160.102 156.385 160.441C158.952 161.462 161.775 161.888 164.6 161.973C168.194 162.058 171.788 161.547 175.297 160.867C176.409 160.612 176.409 161.207 175.553 161.888C174.698 162.567 172.986 163.503 170.847 163.758C166.996 164.183 163.059 164.183 159.208 163.333C157.24 162.908 155.444 162.228 153.647 161.292C152.791 160.782 151.934 160.272 151.079 159.677L149.966 158.741C149.796 158.656 149.881 158.656 149.881 158.656L149.796 158.571C149.796 158.571 149.71 158.571 149.625 158.571C145.345 159.847 140.554 160.867 135.932 161.122C130.798 161.377 125.577 160.782 120.614 159.422C119.844 159.166 119.074 158.996 118.303 158.741L116.079 157.891C114.539 157.381 113.169 156.616 111.714 155.936C107.436 153.725 103.584 150.92 100.162 147.603C97.5939 144.968 95.1129 142.246 93.2296 139.186C92.8021 138.505 92.3746 137.826 91.946 137.145C90.4912 134.509 90.2349 133.574 90.4912 132.808C90.5774 132.638 90.5774 132.383 90.6625 132.298C90.9198 131.874 91.7748 132.808 92.8021 134.679C95.9679 140.121 100.076 145.393 105.296 149.473C109.061 152.535 113.425 155 118.132 156.616Z" fill="white"/>
<path fill-rule="evenodd" clip-rule="evenodd" d="M61.5673 138.591L60.626 138.506H60.5404L59.4279 140.036C58.4865 141.056 57.4597 142.162 56.3472 143.097C55.577 143.778 54.7212 144.458 53.9511 145.053C50.9559 147.178 47.704 148.709 44.3666 150.07C42.9119 150.664 41.3715 151.26 39.9167 151.855C38.034 152.535 36.1514 153.301 34.0976 153.556C32.8139 153.726 34.012 151.515 36.0658 150.92C39.9167 149.73 43.682 148.368 47.3617 146.753C49.5867 145.733 51.7261 144.373 53.6088 142.842C54.1222 142.417 54.6356 141.992 55.1492 141.567C55.6626 141.141 56.176 140.717 56.6039 140.207C57.0318 139.696 57.5452 139.271 57.9731 138.761L59.3423 136.891L59.5135 136.721H59.7702H60.2836H61.0538L62.3374 136.806C63.1932 136.806 64.0489 136.891 64.9047 136.891C67.4719 136.891 70.0393 136.806 72.5209 136.38C74.4891 136.04 76.2862 135.36 77.9977 134.595L79.1103 133.999C80.4795 133.32 80.9929 133.15 81.5919 133.404C81.6775 133.489 81.8486 133.489 81.9342 133.574C82.2766 133.829 81.8486 134.51 80.8218 135.105C77.741 137.061 73.8901 138.251 70.0393 138.591C67.2152 138.761 64.3913 138.761 61.5673 138.591Z" fill="white"/>
<path d="M141.102 132.633C152.114 131.201 159.912 121.472 158.52 110.903C157.127 100.334 147.071 92.9275 136.059 94.3599C125.046 95.7922 117.248 105.521 118.641 116.091C120.034 126.659 130.09 134.065 141.102 132.633Z" fill="#161616"/>
<path d="M144.575 89.9569C144.66 89.7018 143.206 88.8516 140.211 88.4265C138.756 88.2564 136.873 88.1713 134.734 88.5965C132.595 89.0217 130.199 89.7869 127.802 91.2323C125.492 92.6777 123.181 94.8034 121.299 97.4392C119.415 100.075 117.961 103.391 117.191 106.962C116.421 110.618 116.506 114.614 117.789 118.611C118.474 120.566 119.33 122.522 120.528 124.308C121.726 126.093 123.181 127.793 124.892 129.154C126.262 130.344 127.802 131.194 129.343 132.045C130.969 132.81 132.595 133.405 134.306 133.83C138.67 134.85 143.12 134.425 146.971 133.065C150.822 131.62 154.245 129.324 156.641 126.433C157.925 125.072 158.781 123.457 159.637 121.927C159.978 121.161 160.321 120.311 160.663 119.546C160.92 118.696 161.263 117.93 161.348 117.165C162.118 113.934 162.033 110.873 161.519 108.152C161.005 105.432 160.064 103.136 159.037 101.265C158.011 99.3947 156.812 97.9493 155.785 96.844C153.731 94.7183 152.277 93.9531 152.105 94.1232C151.934 94.3782 153.047 95.3986 154.759 97.6942C156.385 99.9899 158.523 103.561 159.208 108.492C159.551 110.958 159.465 113.679 158.695 116.485C158.523 117.165 158.267 117.845 158.011 118.611C157.753 119.29 157.411 119.971 157.069 120.651C156.299 122.012 155.443 123.372 154.33 124.563C152.192 127.028 149.282 128.983 145.944 130.174C142.607 131.279 138.756 131.62 135.076 130.684C133.536 130.344 132.166 129.834 130.797 129.154C129.514 128.473 128.144 127.708 127.032 126.688C125.577 125.498 124.293 124.052 123.267 122.607C122.24 121.076 121.47 119.461 120.87 117.76C119.758 114.359 119.587 110.873 120.186 107.643C120.785 104.411 121.983 101.521 123.609 99.0546C125.235 96.5889 127.203 94.7183 129.171 93.2729C131.225 91.8275 133.279 91.0623 135.162 90.5521C137.044 90.0419 138.756 89.8719 140.125 89.8719C142.949 89.8719 144.489 90.297 144.575 89.9569Z" fill="white"/>
<path d="M146.885 106.537C146.8 106.282 146.458 106.111 145.773 106.197C145.089 106.282 144.147 106.622 143.121 107.388C142.18 108.152 141.237 109.173 140.382 110.363C139.526 111.553 138.67 112.914 137.815 114.274C137.644 114.529 137.473 114.87 137.302 115.125C137.13 115.379 136.959 115.719 136.788 115.975C136.103 117.08 136.361 116.74 136.274 116.825C136.274 116.825 136.274 116.825 136.189 116.825L136.018 116.74C135.418 116.4 134.906 116.145 134.392 115.89C133.365 115.379 132.424 115.04 131.568 114.785C129.942 114.274 128.915 114.359 128.744 114.785C128.573 115.209 129.343 115.805 130.713 116.74C131.396 117.165 132.167 117.76 133.109 118.356C133.536 118.696 134.05 118.95 134.477 119.29C134.906 119.546 135.333 119.886 135.761 120.226C136.274 120.566 136.788 120.991 137.387 121.331C138.157 120.141 138.928 118.95 139.698 117.675C139.869 117.42 140.04 117.08 140.211 116.825C140.382 116.57 140.554 116.23 140.725 115.975C141.58 114.529 142.351 113.169 143.035 111.978C143.72 110.788 144.318 109.853 144.918 109.088C145.859 107.642 146.972 107.132 146.885 106.537Z" fill="white"/>
<path d="M74.4891 155.937C74.4891 155.256 75.0026 154.746 75.6016 154.746C78.7679 154.661 74.5747 159.253 74.4891 155.937Z" stroke="white" stroke-width="0.6"/>
<path fill-rule="evenodd" clip-rule="evenodd" d="M154.673 35.1148C155.186 35.2848 155.529 35.7951 155.357 36.3052C154.759 38.941 151.934 34.4346 154.673 35.1148Z" fill="white"/>
<path d="M1.83545 43.4482C2.09216 43.6182 2.43448 43.5333 2.86231 43.3632C3.29023 43.1932 3.97477 43.023 4.5738 43.023C5.17283 43.023 5.68626 43.3632 6.02858 43.8733C6.11419 44.1284 6.19979 44.3835 6.11419 44.8086C6.02858 45.2338 5.85747 45.7439 5.60076 46.254C5.51515 46.4241 5.34404 46.6792 5.25844 46.8492C5.08723 47.0193 5.00172 47.1893 4.83051 47.4444C4.5738 47.6995 4.40269 47.9545 4.23148 48.1246L4.14598 48.2096C4.14598 48.2096 4.14598 48.2096 4.06037 48.2096C3.97477 48.2096 4.06037 48.2946 3.88926 48.0396C3.71805 47.8696 3.54694 47.6995 3.37573 47.4444C3.20462 47.2744 3.03352 47.0193 2.86231 46.8492C2.60559 46.5091 2.43448 46.169 2.26327 45.829C2.00656 45.2338 1.92095 44.7235 1.92095 44.2134C2.09216 43.9583 2.09216 43.6182 1.83545 43.4482C1.66424 43.2781 1.23642 43.3632 0.808492 43.7883C0.295063 44.2134 -0.132861 45.2338 0.0383497 46.5091C0.123854 47.1043 0.295064 47.7845 0.551778 48.3797C0.722887 48.7198 0.808491 48.9749 0.979701 49.2299C1.15081 49.485 1.32192 49.8251 1.57873 50.1652C1.74984 50.4203 2.34888 51.0155 2.86231 51.2705C3.46134 51.6107 4.06037 51.6956 4.74501 51.5256C5.08723 51.4406 5.34404 51.3556 5.68626 51.1005C5.85747 51.0155 5.94308 50.9304 6.11419 50.7604L6.28529 50.5903L6.45651 50.5054C6.79882 50.1652 7.05554 49.8251 7.31225 49.5701C7.48336 49.315 7.74008 48.9749 7.91129 48.7198C8.0824 48.3797 8.2536 48.1246 8.42471 47.7845C8.85264 46.9343 9.10935 46.084 9.19486 45.1487C9.28046 44.2134 9.02375 43.1081 8.42471 42.2579C7.82568 41.4076 7.05554 40.9824 6.28529 40.7274C5.42955 40.4723 4.65941 40.5574 4.06037 40.7274C2.86231 41.0675 2.17767 41.8327 1.83545 42.3429C1.57874 42.853 1.66424 43.2781 1.83545 43.4482Z" fill="white"/>
<path d="M165.199 183.995C165.456 184.165 165.797 184.08 166.226 183.91C166.653 183.74 167.338 183.57 167.937 183.57C168.537 183.57 169.049 183.91 169.392 184.42C169.478 184.675 169.563 184.93 169.478 185.355C169.392 185.781 169.221 186.29 168.964 186.801C168.878 186.971 168.707 187.226 168.622 187.396C168.451 187.566 168.366 187.736 168.194 187.992C167.937 188.246 167.766 188.501 167.595 188.671L167.51 188.756C167.51 188.756 167.51 188.756 167.423 188.756C167.338 188.756 167.423 188.841 167.252 188.586C167.082 188.416 166.911 188.246 166.74 187.992C166.568 187.821 166.397 187.566 166.226 187.396C165.969 187.056 165.797 186.716 165.627 186.375C165.37 185.781 165.285 185.27 165.285 184.76C165.37 184.59 165.37 184.165 165.199 183.995C165.027 183.825 164.6 183.91 164.172 184.336C163.659 184.76 163.23 185.781 163.401 187.056C163.488 187.651 163.659 188.331 163.915 188.926C164.086 189.267 164.172 189.522 164.343 189.777C164.514 190.031 164.685 190.372 164.942 190.712C165.114 190.967 165.712 191.563 166.226 191.818C166.825 192.157 167.423 192.242 168.108 192.072C168.451 191.987 168.707 191.902 169.049 191.648C169.221 191.563 169.307 191.478 169.478 191.307L169.649 191.137L169.82 191.052C170.162 190.712 170.419 190.372 170.675 190.116C170.847 189.862 171.104 189.522 171.275 189.267C171.446 188.926 171.617 188.671 171.788 188.331C172.216 187.481 172.473 186.63 172.559 185.696C172.644 184.76 172.387 183.655 171.788 182.804C171.189 181.955 170.419 181.529 169.649 181.274C168.793 181.019 168.023 181.104 167.423 181.274C166.226 181.614 165.541 182.38 165.199 182.889C164.942 183.485 164.942 183.91 165.199 183.995Z" fill="white"/>
<path d="M210.897 117.76C211.153 117.93 211.495 117.845 211.923 117.675C212.352 117.505 213.035 117.336 213.635 117.336C214.234 117.336 214.747 117.675 215.09 118.185C215.175 118.441 215.261 118.696 215.175 119.121C215.09 119.546 214.919 120.056 214.661 120.566C214.576 120.737 214.405 120.992 214.319 121.161C214.148 121.331 214.063 121.501 213.891 121.756C213.635 122.012 213.464 122.267 213.293 122.437L213.207 122.522C213.207 122.522 213.207 122.522 213.121 122.522C213.035 122.522 213.121 122.607 212.95 122.352C212.779 122.182 212.608 122.012 212.437 121.756C212.265 121.586 212.094 121.331 211.923 121.161C211.667 120.822 211.495 120.481 211.324 120.141C211.068 119.546 210.982 119.036 210.982 118.526C211.153 118.27 211.153 117.93 210.897 117.76C210.726 117.59 210.297 117.675 209.869 118.1C209.356 118.526 208.928 119.546 209.1 120.822C209.185 121.416 209.356 122.097 209.613 122.692C209.783 123.031 209.869 123.287 210.041 123.542C210.212 123.797 210.383 124.137 210.639 124.478C210.811 124.733 211.409 125.327 211.923 125.583C212.523 125.923 213.121 126.008 213.806 125.838C214.148 125.753 214.405 125.668 214.747 125.412C214.919 125.327 215.004 125.242 215.175 125.072L215.346 124.902L215.517 124.818C215.86 124.478 216.116 124.137 216.373 123.882C216.545 123.627 216.801 123.287 216.972 123.031C217.143 122.692 217.315 122.437 217.486 122.097C217.913 121.246 218.171 120.396 218.256 119.46C218.342 118.526 218.085 117.42 217.486 116.57C216.887 115.719 216.116 115.295 215.346 115.04C214.49 114.785 213.72 114.87 213.121 115.04C211.923 115.38 211.238 116.145 210.897 116.655C210.726 117.251 210.726 117.59 210.897 117.76Z" fill="white"/>
<path d="M103.157 176.343C102.13 175.917 101.446 176.427 100.932 177.278C100.932 177.363 100.932 177.363 100.846 177.448C100.846 177.533 100.846 177.533 100.761 177.618C100.419 178.553 100.59 179.403 101.617 179.829C102.558 180.253 103.328 179.744 103.842 178.893C103.842 178.808 103.842 178.808 103.927 178.723C103.927 178.638 104.013 178.638 104.013 178.553C104.269 177.618 104.098 176.682 103.157 176.343Z" fill="white"/>
<path d="M19.4639 145.393C18.6938 146.159 18.8649 147.008 19.4639 147.689L19.5495 147.774L19.6351 147.859C20.3197 148.454 21.0899 148.624 21.9457 147.859C22.6302 147.179 22.5447 146.244 21.9457 145.563L21.86 145.478L21.7744 145.393C21.0899 144.798 20.2341 144.627 19.4639 145.393Z" fill="#A8A8A8"/>
<path d="M60.7971 0C60.2836 0 59.8557 0.595178 59.7701 1.44543C59.6846 2.29569 59.7701 3.57106 60.2836 4.93148C60.3691 5.10153 60.3691 5.18655 60.4547 5.3566C60.5403 5.44163 60.5403 5.61168 60.6258 5.78172C61.2249 7.05711 61.9951 8.07742 62.6797 8.58757C63.3643 9.18275 64.0489 9.26777 64.4768 8.92767C65.247 8.24747 64.4768 6.54696 63.621 4.50635L63.4499 4.08122L63.3643 3.74112C62.4229 1.70051 61.8239 0 60.7971 0Z" fill="white"/>
<path d="M114.538 32.2247C113.768 31.4595 112.57 31.9697 111.372 33.075C111.286 33.16 111.286 33.16 111.2 33.2451C111.115 33.33 111.115 33.33 111.029 33.4151C109.917 34.6054 109.403 35.7958 110.174 36.561C110.858 37.2412 112.142 36.8161 113.34 35.7108C113.425 35.6258 113.425 35.6258 113.511 35.5407C113.596 35.4557 113.596 35.4557 113.682 35.3706C114.795 34.1803 115.308 32.905 114.538 32.2247Z" fill="white"/>
<path d="M186.507 45.9137C185.737 45.1485 185.309 44.8935 185.138 44.9785C185.052 45.1485 185.309 45.5737 186.079 46.3389C186.764 47.0191 187.278 47.3592 187.449 47.2742C187.534 47.1041 187.278 46.594 186.507 45.9137Z" fill="#A8A8A8"/>
<path d="M165.969 18.4502C165.713 18.4502 165.456 19.5555 165.028 21.5112C164.856 22.4464 164.6 23.6367 164.258 24.9972C163.915 26.3576 163.488 27.8881 162.718 29.3335C162.375 30.0987 161.862 30.7789 161.263 31.3741C160.663 31.9693 159.979 32.4794 159.209 32.9045C157.669 33.6698 155.529 33.9248 153.476 33.3297C151.421 32.8195 149.454 31.5441 148.17 29.6736C147.57 28.7383 147.143 27.7179 147.143 26.6977C147.057 25.6773 147.314 24.487 147.913 23.6367C148.34 22.9566 148.94 22.3614 149.71 22.0213C150.052 21.8512 150.395 21.8512 150.651 21.8512C150.908 21.8512 151.08 21.9362 151.421 22.1063C151.763 22.3614 152.106 22.7865 152.448 23.2117C152.705 23.6367 152.962 24.147 153.133 24.6571C153.476 25.6773 153.476 26.8677 153.304 27.973C153.047 29.0784 152.705 30.0136 152.021 30.8639C151.421 31.7142 150.566 32.4794 149.71 33.1596C147.913 34.435 145.859 35.3703 143.891 36.1355C141.922 36.9007 140.125 37.4959 138.414 38.0061C134.991 38.9414 132.167 39.3664 130.199 39.7066C128.231 40.0467 127.118 40.2167 127.118 40.4717C127.118 40.7269 128.231 40.982 130.284 41.0669C132.338 41.152 135.333 41.0669 139.013 40.3017C140.81 39.9616 142.864 39.4515 144.918 38.6863C146.972 37.921 149.282 37.1558 151.507 35.6253C152.62 34.8601 153.732 33.9248 154.588 32.7345C155.015 32.1393 155.444 31.4591 155.785 30.7789C156.128 30.0987 156.299 29.3335 156.47 28.5682C156.813 27.0378 156.813 25.4223 156.299 23.8068C156.043 23.0415 155.7 22.1913 155.273 21.5112C154.759 20.8309 154.245 20.0657 153.389 19.4706C152.705 18.9603 151.763 18.6202 150.908 18.6202C150.052 18.6202 149.196 18.7903 148.511 19.0454C147.143 19.6406 145.944 20.6608 145.174 21.9362C144.233 23.4667 143.891 25.2523 143.976 26.9528C144.062 28.6532 144.747 30.2687 145.602 31.5441C147.399 34.1799 150.137 35.6253 152.791 36.3056C154.159 36.6457 155.529 36.6457 156.813 36.4756C158.096 36.3056 159.38 35.9654 160.492 35.2852C161.605 34.6051 162.547 33.8398 163.23 32.9895C163.915 32.0542 164.514 31.204 164.856 30.2687C165.627 28.4832 165.969 26.7826 166.14 25.2523C166.311 23.8068 166.397 22.5314 166.311 21.5112C166.397 19.5555 166.226 18.4502 165.969 18.4502Z" fill="white"/>
</svg>
