<svg width="1411" height="757" viewBox="0 0 1411 757" fill="none" xmlns="http://www.w3.org/2000/svg">
<path fill-rule="evenodd" clip-rule="evenodd" d="M641.508 457.61L620.534 489.782L479.23 417.766L456.323 470.741L608.484 566.686C629.742 580.101 657.309 573.962 671.52 552.647L717.276 484.155L641.508 457.61Z" fill="#F5E900"/>
<path fill-rule="evenodd" clip-rule="evenodd" d="M791.964 485.178L899.221 685.937L954.583 671.045L859.149 447.266L791.964 485.178Z" fill="#F5E900"/>
<path fill-rule="evenodd" clip-rule="evenodd" d="M884.414 660.017L899.192 685.936L955.635 671.044L943.016 644.613L884.414 660.017Z" fill="white"/>
<path d="M899.193 687.186C898.795 687.186 898.397 686.959 898.17 686.561L883.391 660.642C883.221 660.301 883.164 659.903 883.334 659.505C883.505 659.164 883.789 658.88 884.13 658.766L942.732 643.363C943.244 643.249 943.812 643.476 944.096 643.988L956.715 670.419C956.885 670.76 956.885 671.157 956.715 671.498C956.544 671.84 956.26 672.067 955.919 672.181L899.477 687.129C899.42 687.129 899.306 687.186 899.193 687.186ZM886.233 660.813L899.761 684.515L953.93 670.191L942.391 646.034L886.233 660.813Z" fill="#00004B"/>
<path fill-rule="evenodd" clip-rule="evenodd" d="M954.612 671.043L962.456 685.935C1005.26 684.457 1029.41 699.292 1034.98 730.498L922.27 755.28L899.25 685.935L954.612 671.043Z" fill="#F96A00"/>
<path d="M925.055 745.731C924.486 745.731 924.031 745.333 923.918 744.765C923.804 744.083 924.202 743.458 924.827 743.287L1026.51 719.585C1027.14 719.414 1027.76 719.869 1027.94 720.551C1028.05 721.233 1027.65 721.858 1027.03 722.029L925.339 745.731C925.225 745.731 925.168 745.731 925.055 745.731Z" fill="#00004B"/>
<path d="M934.774 734.476C928.806 734.476 923.918 729.361 923.918 723.108C923.918 716.856 928.806 711.74 934.774 711.74C940.743 711.74 945.631 716.856 945.631 723.108C945.631 729.361 940.743 734.476 934.774 734.476ZM934.774 714.184C930.114 714.184 926.248 718.163 926.248 723.108C926.248 727.996 930.057 732.032 934.774 732.032C939.492 732.032 943.3 728.053 943.3 723.108C943.244 718.163 939.435 714.184 934.774 714.184Z" fill="#00004B"/>
<path d="M950.235 709.581C950.008 709.581 949.781 709.524 949.61 709.353C949.042 708.956 948.928 708.217 949.269 707.648L960.125 690.255C960.466 689.687 961.205 689.516 961.774 689.914C962.342 690.312 962.456 691.051 962.115 691.619L951.258 709.012C950.974 709.41 950.633 709.581 950.235 709.581Z" fill="#00004B"/>
<path d="M965.354 709.581C965.127 709.581 964.9 709.524 964.729 709.353C964.161 708.956 964.047 708.217 964.388 707.648L975.245 690.255C975.586 689.687 976.325 689.516 976.893 689.914C977.461 690.312 977.575 691.051 977.234 691.619L966.378 709.012C966.093 709.41 965.695 709.581 965.354 709.581Z" fill="#00004B"/>
<path d="M922.27 756.532C921.758 756.532 921.303 756.191 921.133 755.679L898.113 686.335C897.999 685.994 898.056 685.652 898.17 685.368C898.34 685.084 898.624 684.857 898.909 684.743L954.271 669.851C954.782 669.737 955.351 669.965 955.578 670.476L963.081 684.686C984.282 684.061 1001.11 687.471 1013.21 694.917C1025.55 702.477 1033.22 714.414 1036.06 730.272C1036.18 730.954 1035.78 731.579 1035.15 731.693L922.497 756.475C922.44 756.532 922.327 756.532 922.27 756.532ZM900.727 686.789L923.009 753.86L1033.56 729.533C1027.71 699.976 1003.84 685.709 962.456 687.187C962.001 687.187 961.603 686.96 961.376 686.562L953.93 672.522L900.727 686.789Z" fill="#00004B"/>
<path d="M632.755 575.041C624.059 575.041 615.476 572.54 607.859 567.766L455.699 471.82C455.187 471.479 454.96 470.797 455.244 470.228L478.15 417.253C478.264 416.969 478.548 416.742 478.833 416.628C479.117 416.514 479.458 416.514 479.742 416.685L620.137 488.19L640.542 456.871C640.827 456.416 641.395 456.246 641.906 456.416L717.674 483.017C718.015 483.131 718.299 483.415 718.413 483.813C718.527 484.211 718.47 484.609 718.243 484.893L672.486 553.385C665.438 563.957 654.923 571.233 642.873 573.904C639.519 574.643 636.166 575.041 632.755 575.041ZM457.859 470.285L609.11 565.663C629.743 578.679 656.742 572.654 670.554 551.964L715.401 484.836L642.02 459.031L621.558 490.463C621.217 490.975 620.591 491.145 620.08 490.861L479.799 419.47L457.859 470.285Z" fill="#00004B"/>
<path fill-rule="evenodd" clip-rule="evenodd" d="M522.215 436.607L495.036 426.765L460.896 476.187L486.823 487.896L522.215 436.607Z" fill="white"/>
<path d="M486.834 489.148C486.674 489.134 486.514 489.12 486.361 489.025L460.434 477.316C460.084 477.165 459.829 476.86 459.777 476.533C459.688 476.162 459.76 475.805 459.948 475.499L494.007 426.07C494.289 425.61 494.871 425.419 495.337 425.621L522.553 435.506C522.903 435.658 523.202 435.926 523.29 436.297C523.379 436.668 523.344 437.068 523.112 437.411L487.764 488.664C487.532 489.007 487.154 489.176 486.834 489.148ZM462.757 475.664L486.388 486.405L520.346 437.21L495.477 428.175L462.757 475.664Z" fill="#00004B"/>
<path fill-rule="evenodd" clip-rule="evenodd" d="M461.724 475.493L446.565 469.366C414.733 499.341 387.109 504.267 363.694 484.144L434.86 389.184L495.036 426.765L461.724 475.493Z" fill="#F96A00"/>
<path d="M375.931 487.232C375.691 487.211 375.414 487.146 375.188 486.965C374.699 486.559 374.565 485.781 374.978 485.212L438.356 398.567C438.726 398.035 439.504 397.901 440.029 398.35C440.518 398.756 440.652 399.534 440.239 400.104L376.897 486.792C376.673 487.054 376.295 487.223 375.931 487.232Z" fill="#00004B"/>
<path d="M445.01 433.644C444.69 433.616 444.406 433.632 444.005 433.597C441.123 433.344 438.505 431.905 436.612 429.561C434.719 427.217 433.887 424.279 434.11 421.273C434.376 418.23 435.706 415.482 437.933 413.538C440.161 411.595 442.989 410.632 445.871 410.884C448.754 411.136 451.372 412.576 453.265 414.92C455.158 417.264 455.99 420.201 455.767 423.208C455.501 426.251 454.171 428.999 451.944 430.942C450.014 432.71 447.557 433.585 445.01 433.644ZM445.014 413.31C442.998 413.295 441.115 414.059 439.548 415.374C437.799 416.915 436.766 419.044 436.556 421.446C436.389 423.812 437.074 426.131 438.528 427.953C439.982 429.775 442.024 430.882 444.303 431.121C446.545 431.317 448.747 430.582 450.453 429.077C452.201 427.536 453.235 425.407 453.445 423.005C453.612 420.639 452.927 418.32 451.472 416.498C450.018 414.676 447.977 413.57 445.698 413.33C445.458 413.309 445.217 413.288 445.014 413.31Z" fill="#00004B"/>
<path d="M444.573 465.841C443.969 465.829 443.444 465.379 443.42 464.732L441.028 444.108C440.968 443.417 441.424 442.811 442.035 442.743C442.69 442.639 443.252 443.132 443.356 443.787L445.748 464.411C445.808 465.102 445.352 465.708 444.741 465.775C444.697 465.812 444.617 465.805 444.573 465.841Z" fill="#00004B"/>
<path d="M432.993 476.005C432.389 475.993 431.863 475.544 431.839 474.896L429.448 454.272C429.387 453.581 429.844 452.975 430.455 452.908C431.109 452.803 431.671 453.296 431.775 453.951L434.167 474.575C434.228 475.266 433.771 475.872 433.16 475.939C433.073 476.013 433.073 476.013 432.993 476.005Z" fill="#00004B"/>
<path d="M394.036 497.49C382.981 497.491 372.574 493.312 362.969 485.049C362.48 484.643 362.39 483.828 362.796 483.339L433.918 388.415C434.281 387.963 434.942 387.779 435.438 388.104L495.614 425.686C495.92 425.874 496.096 426.172 496.148 426.499C496.2 426.826 496.128 427.183 495.94 427.49L462.628 476.217C462.346 476.677 461.764 476.868 461.218 476.659L446.723 470.791C430.908 485.546 415.858 494.315 402.046 496.779C399.421 497.275 396.699 497.481 394.036 497.49ZM365.367 483.927C387.976 502.648 414.981 497.426 445.798 468.451C446.146 468.159 446.597 468.077 447.027 468.236L461.326 474.046L493.305 427.178L435.164 390.783L365.367 483.927Z" fill="#00004B"/>
<path d="M899.221 687.186C898.823 687.186 898.425 686.959 898.198 686.561L790.941 485.802C790.77 485.518 790.77 485.177 790.827 484.836C790.941 484.495 791.111 484.268 791.395 484.097L858.58 446.185C858.864 446.014 859.205 446.014 859.547 446.128C859.831 446.242 860.115 446.469 860.229 446.81L955.72 670.589C955.833 670.93 955.833 671.328 955.72 671.612C955.549 671.953 955.265 672.181 954.924 672.294L899.562 687.186C899.391 687.13 899.335 687.186 899.221 687.186ZM793.555 485.632L899.789 684.458L952.935 670.134L858.58 448.913L793.555 485.632Z" fill="#00004B"/>
<path fill-rule="evenodd" clip-rule="evenodd" d="M786.45 495.692C824.192 493.476 852.612 478.356 871.71 450.163L784.574 308.916L705.51 354.615L786.45 495.692Z" fill="white"/>
<path fill-rule="evenodd" clip-rule="evenodd" d="M764.964 383.889L776.617 478.357L738.647 412.65L764.964 383.889Z" fill="#00004B"/>
<path d="M786.451 496.943C786.053 496.943 785.655 496.715 785.427 496.317L704.487 355.241C704.317 354.956 704.26 354.615 704.374 354.274C704.43 353.933 704.658 353.649 704.942 353.535L784.006 307.836C784.575 307.495 785.257 307.722 785.541 308.234L872.677 449.481C872.961 449.879 872.904 450.448 872.62 450.845C863.014 464.999 850.85 476.082 836.527 483.699C822.26 491.315 805.378 495.749 786.451 496.829C786.507 496.886 786.451 496.943 786.451 496.943ZM707.102 355.07L787.076 494.385C823.567 492.111 851.589 477.219 870.233 450.107L784.12 310.507L707.102 355.07Z" fill="#00004B"/>
<path fill-rule="evenodd" clip-rule="evenodd" d="M782.244 331.028L728.189 495.693L625.649 457.611L673.281 320.285L782.244 331.028Z" fill="white"/>
<path d="M728.189 496.943C728.076 496.943 727.905 496.943 727.791 496.886L625.252 458.803C624.968 458.689 624.74 458.462 624.57 458.178C624.456 457.893 624.399 457.552 624.513 457.211L672.145 319.886C672.316 319.374 672.827 319.033 673.339 319.09L782.244 329.833C782.585 329.89 782.926 330.06 783.154 330.401C783.324 330.742 783.381 331.14 783.267 331.481L729.269 496.147C729.156 496.431 728.928 496.715 728.644 496.886C728.53 496.886 728.36 496.943 728.189 496.943ZM627.185 456.814L727.45 494.101L780.596 332.107L674.078 321.591L627.185 456.814Z" fill="#00004B"/>
<path fill-rule="evenodd" clip-rule="evenodd" d="M816.499 148.91L1009.98 95.4805L1023.85 142.544L837.075 216.265L816.499 148.91Z" fill="#06B8FF"/>
<path fill-rule="evenodd" clip-rule="evenodd" d="M931.713 122.765L942.797 131.575L995.374 114.296L996.738 102.814L931.713 122.765Z" fill="#06B8FF"/>
<path d="M942.797 132.825C942.57 132.825 942.286 132.712 942.058 132.598L930.974 123.844C930.463 123.447 930.349 122.651 930.747 122.082C931.145 121.514 931.884 121.457 932.395 121.855L942.968 130.267L994.237 113.443L995.545 102.7C995.602 102.018 996.227 101.563 996.852 101.62C997.477 101.734 997.932 102.302 997.875 102.984L996.511 114.523C996.454 114.977 996.113 115.432 995.715 115.546L943.138 132.825C943.025 132.768 942.911 132.825 942.797 132.825Z" fill="#00004B"/>
<path d="M888.459 154.871C888.288 154.871 888.118 154.814 888.004 154.757L878.626 150.437C878 150.153 877.773 149.414 878 148.789C878.285 148.164 878.967 147.88 879.535 148.164L888.345 152.256L905.681 142.082L907.33 132.703C907.444 132.021 908.069 131.567 908.694 131.737C909.319 131.851 909.774 132.533 909.66 133.158L907.898 143.105C907.841 143.446 907.614 143.787 907.33 143.958L888.971 154.757C888.857 154.814 888.686 154.871 888.459 154.871Z" fill="#00004B"/>
<path d="M897.553 183.576C897.496 183.576 897.439 183.576 897.439 183.576C896.814 183.519 896.302 182.894 896.416 182.212L897.553 171.526C897.61 171.128 897.78 170.787 898.121 170.617L916.196 159.362C916.481 159.192 916.878 159.135 917.22 159.249L926.314 162.659C926.939 162.886 927.223 163.568 927.053 164.251C926.825 164.876 926.143 165.217 925.518 164.989L916.935 161.806L899.826 172.435L898.747 182.496C898.633 183.065 898.121 183.576 897.553 183.576Z" fill="#00004B"/>
<path d="M901.475 190.291C884.138 190.291 870.042 175.513 870.042 157.381C870.042 139.249 884.138 124.471 901.475 124.471C918.811 124.471 932.907 139.249 932.907 157.381C932.907 175.513 918.754 190.291 901.475 190.291ZM901.475 126.915C885.446 126.915 872.429 140.556 872.429 157.381C872.429 174.206 885.446 187.847 901.475 187.847C917.503 187.847 930.52 174.206 930.52 157.381C930.52 140.556 917.503 126.915 901.475 126.915Z" fill="#00004B"/>
<path d="M837.075 217.517C836.904 217.517 836.734 217.46 836.563 217.403C836.279 217.233 836.052 217.005 835.938 216.664L815.362 149.252C815.248 148.911 815.305 148.57 815.476 148.286C815.646 148.002 815.873 147.774 816.214 147.661L1009.7 94.231C1010.32 94.0604 1010.95 94.4015 1011.12 95.0836L1024.99 142.147C1025.16 142.772 1024.87 143.454 1024.25 143.682L837.529 217.46C837.359 217.517 837.245 217.517 837.075 217.517ZM817.977 149.764L837.814 214.675L1022.37 141.806L1009.19 97.0161L817.977 149.764Z" fill="#00004B"/>
<path fill-rule="evenodd" clip-rule="evenodd" d="M1007.78 96.5672C1029.02 85.0078 1042.5 78.9412 1048.16 78.3389C1056.62 77.4459 1083.35 85.2638 1084.48 90.1194C1085.23 93.3728 1077.58 94.7982 1061.54 94.3954C1064.58 98.3218 1064.32 101.846 1060.72 105.016C1063.2 108.221 1062.38 111.686 1058.31 115.44C1061.32 118.753 1060.66 122.635 1056.27 126.93C1051.89 131.225 1044.65 134.661 1034.55 137.162L1015.83 144.009C1010.37 138.231 1006.72 131.468 1004.95 123.62C1003.08 115.843 1004.03 106.809 1007.78 96.5672Z" fill="#06B8FF"/>
<path fill-rule="evenodd" clip-rule="evenodd" d="M1030.23 97.1237C1036.92 93.0432 1042.39 91.7421 1046.71 93.1221C1053.23 95.245 1049.08 104.596 1037.93 106.626C1036.87 113.235 1034.02 117.036 1029.28 117.974L1030.23 97.1237Z" fill="#06B8FF"/>
<path d="M1029.33 119.251C1028.8 119.27 1028.26 118.83 1028.19 118.266C1028.06 117.596 1028.5 116.935 1029.1 116.818C1033.35 115.927 1035.82 112.561 1036.8 106.432C1036.91 105.904 1037.26 105.517 1037.78 105.421C1045.04 104.1 1048.5 99.8005 1048.66 97.1362C1048.79 95.4377 1047.49 94.6211 1046.41 94.3272C1042.44 93.0194 1037.22 94.3357 1030.85 98.2061C1030.27 98.5278 1029.57 98.3837 1029.22 97.7265C1028.9 97.1469 1029.07 96.3933 1029.68 96.0224C1036.61 91.7526 1042.45 90.3967 1047.09 91.898C1049.69 92.7415 1051.15 94.7643 1051.03 97.2525C1050.77 101.108 1046.5 105.996 1038.99 107.633C1037.73 114.255 1034.57 118.139 1029.57 119.189C1029.49 119.21 1029.41 119.23 1029.33 119.251Z" fill="#00004B"/>
<path d="M1049.58 107.709C1049.17 107.735 1048.73 107.48 1048.53 107.035C1048.21 106.455 1048.46 105.681 1049.04 105.359C1053.38 102.946 1057.5 102.302 1061.24 103.545C1061.84 103.759 1062.23 104.445 1062.04 105.121C1061.84 105.797 1061.19 106.139 1060.59 105.925C1057.44 104.896 1053.97 105.451 1050.17 107.592C1049.94 107.654 1049.74 107.667 1049.58 107.709Z" fill="#00004B"/>
<path d="M1051.44 96.7696C1051.03 96.796 1050.58 96.5402 1050.38 96.0951C1050.06 95.5156 1050.31 94.7412 1050.89 94.4195C1055.24 92.0065 1059.35 91.3621 1063.09 92.6055C1063.69 92.8197 1064.08 93.5053 1063.89 94.1812C1063.7 94.8572 1063.04 95.1997 1062.44 94.9856C1059.3 93.9563 1055.82 94.5119 1052.03 96.6524C1051.84 96.7432 1051.61 96.8056 1051.44 96.7696Z" fill="#00004B"/>
<path d="M1047.66 118.086C1047.25 118.112 1046.81 117.857 1046.61 117.412C1046.29 116.832 1046.54 116.058 1047.11 115.736C1051.46 113.323 1055.57 112.678 1059.32 113.922C1059.92 114.136 1060.31 114.822 1060.12 115.498C1059.92 116.174 1059.27 116.516 1058.67 116.302C1055.52 115.273 1052.05 115.828 1048.25 117.969C1048.07 118.06 1047.87 118.073 1047.66 118.086Z" fill="#00004B"/>
<path d="M1017.45 146.194C1016.99 146.192 1016.55 145.937 1016.35 145.492C1016.06 144.863 1016.33 144.166 1016.91 143.844L1034.12 135.404C1034.2 135.383 1034.27 135.363 1034.35 135.342C1044.18 132.876 1051.28 129.558 1055.48 125.354C1057.48 123.361 1058.66 121.547 1058.93 119.934C1059.2 118.447 1058.73 116.993 1057.49 115.62C1057.25 115.351 1057.16 115.04 1057.16 114.709C1057.15 114.377 1057.32 114.082 1057.54 113.815C1062.26 109.514 1061.07 106.795 1059.8 105.139C1059.37 104.63 1059.49 103.848 1059.95 103.391C1063.09 100.677 1063.31 97.9143 1060.61 94.5182C1060.3 94.1432 1060.26 93.6565 1060.46 93.1851C1060.64 92.7628 1061.06 92.4827 1061.52 92.4848C1079.07 92.9013 1082.5 90.9425 1083.11 90.1133C1083.19 89.9656 1083.25 89.8672 1083.21 89.7119C1082.97 88.6533 1078.81 85.7301 1068.69 82.5759C1060.46 79.9941 1052.07 78.4974 1048.31 78.8825C1042.85 79.4715 1028.93 85.6138 1006.95 97.2051C1006.37 97.5268 1005.67 97.2558 1005.35 96.6763C1005.06 96.0475 1005.28 95.3223 1005.86 95.0006C1028.39 83.1367 1042.2 77.0645 1048.02 76.4207C1052.76 75.9412 1062.12 77.9287 1069.29 80.1674C1074.97 81.9341 1084.61 85.4669 1085.46 89.1085C1085.66 90.0119 1085.48 90.8923 1084.93 91.6231C1083.63 93.3023 1080 95.1474 1063.69 94.9831C1065.47 98.3752 1064.97 101.63 1062.15 104.466C1063.61 106.947 1064.01 110.46 1059.8 114.791C1061 116.467 1061.42 118.352 1061.1 120.268C1060.69 122.459 1059.33 124.694 1056.98 127.074C1052.51 131.517 1045.09 135.044 1034.88 137.614L1017.77 145.984C1017.81 146.14 1017.66 146.181 1017.45 146.194Z" fill="#00004B"/>
<path fill-rule="evenodd" clip-rule="evenodd" d="M769.255 95.4354L755.106 136.136C756.425 142.483 762.664 147.778 773.822 152.021C784.98 156.264 793.27 155.591 798.764 149.969L805.167 109.111L769.255 95.4354Z" fill="#F5E900"/>
<path fill-rule="evenodd" clip-rule="evenodd" d="M802.107 124.33L800.195 136.397L781.358 119.016L802.107 124.33Z" fill="#00004B"/>
<path d="M786.64 156.022C782.775 156.006 778.322 155.112 773.447 153.216C761.968 148.857 755.434 143.212 753.964 136.447C753.935 136.194 753.96 135.961 754.037 135.748L768.186 95.0474C768.302 94.7269 768.506 94.4988 768.798 94.3629C769.089 94.227 769.395 94.2174 769.715 94.334L805.628 108.01C806.162 108.204 806.487 108.807 806.399 109.38L799.997 150.237C799.953 150.524 799.822 150.718 799.637 150.893C796.217 154.306 791.89 156.058 786.64 156.022ZM756.324 136.278C757.75 141.999 763.766 146.91 774.21 150.953C784.621 154.924 792.493 154.402 797.627 149.435L803.811 110.01L769.928 97.073L756.324 136.278Z" fill="#00004B"/>
<path fill-rule="evenodd" clip-rule="evenodd" d="M827.418 76.5029C834.181 66.5643 836.874 55.5076 835.465 43.2599C833.324 24.8787 811.508 16.5148 804.871 28.4347C791.164 21.3892 781.65 23.4309 776.349 34.5062C760.595 34.5793 752.648 43.7842 752.399 62.0822C752.151 80.3802 759.625 95.7424 774.768 108.15L827.418 76.5029Z" fill="#00004B"/>
<path fill-rule="evenodd" clip-rule="evenodd" d="M832.321 65.525C829.81 85.0558 825.906 100.269 820.556 111.145C812.558 127.469 782.113 132.841 767.234 98.2704C758.232 92.0907 754.913 85.2571 757.401 77.7551C761.071 66.5092 774.216 69.7813 776.729 78.4989L779.097 68.1705C791.668 73.3509 799.885 71.3817 803.841 62.1756C815.159 65.8113 823.721 64.391 829.507 57.968L832.303 62.252L832.321 65.525Z" fill="#F5E900"/>
<path d="M774.802 89.1078C774.443 89.098 774.123 88.9814 773.88 88.6511L767.535 80.656C767.118 80.1411 767.157 79.369 767.691 78.8981C768.206 78.4806 768.925 78.5002 769.323 79.0685L775.667 87.0637C776.085 87.5785 776.046 88.3507 775.511 88.8215C775.38 89.0157 775.108 89.0982 774.802 89.1078Z" fill="#00004B"/>
<path d="M798.83 125.133C798.597 125.109 798.345 125.138 798.165 125.133C784.976 124.808 773.421 115.34 766.331 99.0894C757.067 92.6328 753.689 85.2941 756.299 77.2919C757.986 72.1595 761.789 69.1886 766.534 69.2823C770.433 69.3708 774.186 71.5232 776.38 74.8018L777.956 67.8142C778.019 67.4743 778.243 67.1927 778.553 67.0034C778.864 66.8141 779.224 66.8239 779.544 66.9406C791.528 71.9071 799.128 70.1369 802.797 61.5522C803.064 60.9842 803.647 60.7124 804.201 60.8534C815.145 64.353 823.163 63.0976 828.672 56.9368C828.896 56.6552 829.24 56.5388 829.6 56.5486C829.959 56.5584 830.294 56.8013 830.503 57.0587L833.299 61.3427C833.454 61.5807 833.503 61.7798 833.512 62.0858L833.511 65.4122C833.492 65.4657 833.526 65.5385 833.506 65.5919C830.975 85.1761 827.027 100.676 821.658 111.605C817.659 119.768 808.577 125.111 798.83 125.133ZM766.305 71.7394C762.672 71.7481 759.841 74.0442 758.543 78.1084C756.249 85.0764 759.35 91.3466 767.929 97.1911C768.123 97.3223 768.244 97.4874 768.346 97.706C775.043 113.209 785.943 122.317 798.234 122.617C807.344 122.848 815.873 118.028 819.565 110.541C824.784 99.8593 828.688 84.6461 831.156 65.4018L831.181 62.5076L829.404 59.7439C823.512 65.4627 815.135 66.7083 804.506 63.5049C800.24 72.2351 791.983 74.3111 779.937 69.6844L777.894 78.6192C777.753 79.1727 777.311 79.5563 776.772 79.5415C776.233 79.5268 775.758 79.1722 775.593 78.6282C774.443 74.641 770.622 71.6776 766.47 71.6181C766.412 71.7783 766.358 71.7589 766.305 71.7394Z" fill="#00004B"/>
<path d="M817.432 82.9209C816.948 84.4798 817.479 86.0302 818.618 86.3839C819.758 86.7375 821.073 85.7605 821.557 84.2016C822.041 82.6427 821.51 81.0922 820.371 80.7386C819.232 80.3849 817.916 81.362 817.432 82.9209Z" fill="#00004B"/>
<path d="M801.342 79.9697C800.858 81.5286 801.389 83.0791 802.529 83.4327C803.668 83.7864 804.984 82.8093 805.467 81.2504C805.951 79.6915 805.42 78.141 804.281 77.7874C803.142 77.4337 801.826 78.4108 801.342 79.9697Z" fill="#00004B"/>
<path d="M812.406 99.4673C809.745 99.4665 806.545 98.1204 802.894 94.1907C802.457 93.7292 802.443 92.9377 802.924 92.4473C803.405 91.957 804.123 91.9767 804.594 92.511C809.012 97.3247 812.94 98.3311 816.525 95.4622C817.04 95.0447 817.792 95.1372 818.191 95.7055C818.589 96.2738 818.496 97.0264 817.928 97.4245C816.495 98.5361 814.635 99.4922 812.406 99.4673Z" fill="#00004B"/>
<path fill-rule="evenodd" clip-rule="evenodd" d="M798.04 29.7814L825.886 27.6417L850.66 25.7552C856.412 25.3181 861.535 29.4939 862.525 35.4372C863.486 41.2127 859.827 46.6483 854.351 47.6716L854.295 47.6815L799.728 57.3609L798.04 29.7814Z" fill="#00B082"/>
<path d="M799.778 58.621C799.488 58.6143 799.244 58.5419 799.037 58.3476C798.763 58.1072 798.592 57.7911 798.589 57.4453L796.9 29.8658C796.838 29.1842 797.365 28.5719 798 28.5753L850.667 24.4832C857.045 23.9935 862.704 28.5941 863.813 35.2092C864.882 41.6004 860.772 47.7505 854.681 48.8824L854.625 48.8922L800.057 58.5716C799.889 58.6012 799.833 58.6111 799.778 58.621ZM799.284 30.9462L800.864 55.9475L854.2 46.4852C859.004 45.5804 862.248 40.7374 861.416 35.6896C860.534 30.362 855.948 26.611 850.765 27.0054L799.284 30.9462Z" fill="#00004B"/>
<path fill-rule="evenodd" clip-rule="evenodd" d="M826.1 27.5461C816.382 16.6197 801.76 10.9444 786.722 13.7115C763.073 18.0545 747.279 41.733 751.473 66.5043L837.045 50.6653L826.1 27.5461Z" fill="#00B082"/>
<path d="M751.512 67.709C750.933 67.6957 750.452 67.2611 750.353 66.7013C748.294 54.3667 750.897 41.9604 757.754 31.7475C764.6 21.4787 774.825 14.6544 786.57 12.5257C801.552 9.76857 816.628 15.0751 826.999 26.7523C827.433 27.2529 827.404 28.0661 826.959 28.4908C826.468 28.9814 825.711 28.9418 825.276 28.4412C815.472 17.3568 801.147 12.3796 786.949 14.9986C775.829 17.0747 766.115 23.5203 759.627 33.2064C753.37 42.5633 750.859 53.8567 752.441 65.1211L836.847 49.5454C837.519 49.427 838.121 49.8979 838.24 50.5697C838.358 51.2414 837.953 51.89 837.281 52.0084L751.71 67.8473C751.634 67.7452 751.578 67.7551 751.512 67.709Z" fill="#00004B"/>
<path fill-rule="evenodd" clip-rule="evenodd" d="M800.539 25.2993L811.211 23.3022C817.638 22.1111 823.745 26.6328 824.874 33.3598C826.002 40.0869 821.708 46.5004 815.28 47.6914L804.609 49.6886C798.181 50.8796 792.074 46.358 790.946 39.6309C789.827 32.9598 794.112 26.4904 800.539 25.2993Z" fill="white"/>
<path d="M802.557 51.1477C799.903 51.1539 797.325 50.281 795.142 48.7035C792.291 46.609 790.411 43.4774 789.78 39.8949C789.204 36.3026 789.955 32.7071 791.908 29.7077C793.917 26.6985 796.861 24.7365 800.275 24.1344L810.947 22.1373C814.352 21.4792 817.789 22.316 820.64 24.4106C823.492 26.5051 825.371 29.6367 826.003 33.2192C827.25 40.6179 822.494 47.6899 815.451 48.9895L804.779 50.9867C804.098 51.0491 803.36 51.1215 802.557 51.1477ZM813.304 24.3766C812.669 24.3732 812.043 24.4258 811.428 24.5344L800.756 26.5316C795 27.6042 791.111 33.3691 792.121 39.4244C792.634 42.3352 794.181 44.8905 796.506 46.6162C798.83 48.3418 801.658 48.9975 804.447 48.448L815.119 46.4508C820.875 45.3782 824.764 39.6133 823.754 33.558C823.241 30.6472 821.694 28.0919 819.369 26.3662C817.582 25.0654 815.501 24.3934 813.304 24.3766Z" fill="#00004B"/>
<path fill-rule="evenodd" clip-rule="evenodd" d="M688.685 156.244L665.665 324.548L812.028 346.488L855.397 187.336C859.83 171.023 850.85 154.028 835.276 149.367C834.309 149.082 833.343 148.855 832.32 148.628L724.949 128.677C708.011 125.551 691.811 137.373 688.799 155.164C688.799 155.505 688.742 155.846 688.685 156.244Z" fill="#F5E900"/>
<path fill-rule="evenodd" clip-rule="evenodd" d="M688.685 156.244L665.665 324.548L812.028 346.488L855.397 187.336C859.83 171.023 850.85 154.028 835.276 149.367C834.309 149.082 833.343 148.855 832.32 148.628L799.807 142.603C802.82 157.267 798.386 163.122 786.393 160.223C774.4 157.324 764.169 148.685 755.586 134.361L724.892 128.677C707.954 125.551 691.755 137.373 688.742 155.164C688.799 155.505 688.742 155.846 688.685 156.244Z" fill="#F96A00"/>
<path fill-rule="evenodd" clip-rule="evenodd" d="M758.314 203.534L788.041 193.701L803.047 196.316L788.041 266.115L797.42 268.162L793.441 284.816L755.415 277.654L759.167 259.863L769.796 262.364L779.402 215.982L761.042 222.292L758.314 203.534Z" fill="white"/>
<path d="M793.442 286.067C793.385 286.067 793.328 286.067 793.215 286.067L755.245 278.905C754.904 278.848 754.677 278.677 754.45 278.393C754.279 278.109 754.222 277.768 754.279 277.427L757.974 259.636C758.031 259.295 758.201 259.011 758.485 258.84C758.77 258.67 759.054 258.613 759.395 258.67L768.887 260.887L777.811 217.859L761.384 223.486C761.043 223.6 760.702 223.543 760.418 223.372C760.134 223.202 759.906 222.861 759.849 222.52L757.121 203.705C757.007 203.08 757.405 202.512 757.917 202.341L787.644 192.508C787.815 192.451 787.985 192.451 788.213 192.451L803.218 195.066C803.559 195.123 803.844 195.293 804.014 195.577C804.185 195.862 804.241 196.203 804.185 196.544L789.463 265.15L797.705 266.912C798.046 266.968 798.273 267.196 798.444 267.48C798.614 267.764 798.671 268.105 798.614 268.446L794.579 285.1C794.465 285.669 793.953 286.067 793.442 286.067ZM756.837 276.631L792.532 283.395L795.943 269.128L787.758 267.366C787.474 267.309 787.19 267.082 787.019 266.798C786.848 266.514 786.792 266.173 786.848 265.832L801.57 197.283L788.099 194.952L759.622 204.388L762.009 220.701L779.061 214.846C779.459 214.732 779.914 214.789 780.198 215.13C780.539 215.415 780.653 215.869 780.539 216.324L770.933 262.705C770.876 263.046 770.706 263.331 770.422 263.501C770.138 263.672 769.853 263.729 769.512 263.672L760.077 261.341L756.837 276.631Z" fill="#00004B"/>
<path d="M812.028 347.738C811.972 347.738 811.915 347.738 811.858 347.738L665.495 325.798C665.211 325.741 664.927 325.571 664.699 325.343C664.529 325.059 664.415 324.775 664.472 324.434L687.492 156.131C687.549 155.79 687.606 155.392 687.663 155.051C690.789 136.635 707.613 124.3 725.177 127.54L755.871 133.224C756.212 133.281 756.496 133.508 756.666 133.793C765.022 147.775 775.139 156.301 786.735 159.086C791.793 160.337 795.431 159.882 797.421 157.836C799.808 155.335 800.263 150.333 798.728 142.944C798.671 142.546 798.785 142.148 799.012 141.807C799.296 141.523 799.694 141.352 800.092 141.466L832.605 147.491C833.628 147.662 834.651 147.946 835.674 148.23C851.816 153.061 861.195 170.795 856.591 187.734L813.222 346.886C812.995 347.34 812.54 347.738 812.028 347.738ZM666.973 323.468L811.176 345.124L854.317 186.995C858.58 171.364 849.941 155.051 834.992 150.56C834.082 150.276 833.116 150.049 832.15 149.878L801.343 144.137C802.65 151.527 801.854 156.585 799.069 159.484C796.454 162.213 792.134 162.838 786.166 161.417C774.059 158.461 763.544 149.765 754.904 135.498L724.722 129.871C708.409 126.858 692.835 138.283 689.936 155.335C689.879 155.676 689.822 156.017 689.766 156.358L666.973 323.468Z" fill="#00004B"/>
<path fill-rule="evenodd" clip-rule="evenodd" d="M597.105 174.741L696.405 132.85C714.025 125.404 734.033 134.384 741.081 152.801C741.479 153.824 741.82 154.847 742.104 155.927C748.129 177.071 737.159 199.409 717.265 206.628L632.971 237.094L652.354 328.664L615.123 344.863L571.47 240.505C561.012 215.438 571.868 186.223 595.741 175.252C596.253 175.082 596.65 174.911 597.105 174.741Z" fill="#06B8FF"/>
<path d="M634.79 173.661C634.62 173.661 634.506 173.604 634.335 173.547L623.706 168.886C623.081 168.602 622.797 167.92 623.081 167.295C623.308 166.669 624.047 166.385 624.616 166.612L634.79 171.046L681.74 151.379V141.375C681.74 140.693 682.252 140.125 682.934 140.125C683.559 140.125 684.127 140.693 684.127 141.375V152.232C684.127 152.743 683.843 153.198 683.388 153.369L635.245 173.547C635.074 173.604 634.961 173.661 634.79 173.661Z" fill="#00004B"/>
<path d="M646.727 227.488C646.67 227.488 646.613 227.488 646.613 227.488C645.988 227.431 645.476 226.806 645.59 226.124L647.068 211.971C647.125 211.516 647.409 211.061 647.864 210.948L699.19 193.1C699.588 192.986 700.043 193.043 700.327 193.327L710.672 202.649C711.183 203.104 711.24 203.899 710.786 204.411C710.388 204.923 709.592 204.979 709.137 204.525L699.304 195.658L649.342 212.994L647.921 226.408C647.864 227.033 647.352 227.488 646.727 227.488Z" fill="#00004B"/>
<path d="M645.42 312.749C645.306 312.749 645.249 312.749 645.135 312.692L634.961 310.078C634.563 309.964 634.222 309.623 634.108 309.168L623.025 265.685C622.911 265.344 622.968 264.947 623.195 264.662L630.13 253.806C630.471 253.238 631.21 253.067 631.778 253.465C632.346 253.863 632.46 254.602 632.119 255.17L625.469 265.515L636.211 307.747L645.704 310.191C646.329 310.362 646.727 311.044 646.556 311.669C646.443 312.351 645.988 312.749 645.42 312.749Z" fill="#00004B"/>
<path d="M612.225 212.278C611.997 212.278 611.827 212.222 611.656 212.108L593.297 201.308C593.013 201.138 592.785 200.797 592.729 200.456L590.967 190.509C590.853 189.827 591.251 189.201 591.933 189.088C592.558 188.974 593.183 189.429 593.297 190.054L594.945 199.433L612.282 209.607L621.092 205.515C621.66 205.23 622.399 205.515 622.626 206.14C622.911 206.765 622.626 207.504 622.001 207.788L612.623 212.108C612.566 212.279 612.395 212.278 612.225 212.278Z" fill="#00004B"/>
<path d="M603.187 240.982C602.618 240.982 602.107 240.528 601.993 239.902L600.913 229.842L583.804 219.213L575.222 222.396C574.596 222.623 573.914 222.282 573.687 221.657C573.46 221.031 573.801 220.293 574.426 220.065L583.52 216.655C583.861 216.541 584.202 216.541 584.543 216.768L602.618 228.023C602.959 228.193 603.13 228.591 603.187 228.932L604.324 239.618C604.38 240.3 603.926 240.925 603.301 240.982C603.244 240.982 603.187 240.982 603.187 240.982Z" fill="#00004B"/>
<path d="M598.186 245.221C581.929 245.221 568.686 231.352 568.686 214.243C568.686 197.135 581.929 183.266 598.186 183.266C614.442 183.266 627.685 197.135 627.685 214.243C627.685 231.352 614.499 245.221 598.186 245.221ZM598.186 185.823C583.237 185.823 571.016 198.612 571.016 214.3C571.016 229.988 583.18 242.777 598.186 242.777C613.191 242.777 625.355 229.988 625.355 214.3C625.355 198.612 613.191 185.823 598.186 185.823Z" fill="#00004B"/>
<path d="M615.124 346.113C614.669 346.113 614.214 345.829 614.044 345.374L570.391 241.016C559.648 215.381 570.845 185.37 595.286 174.172C595.741 173.945 596.196 173.774 596.651 173.547L695.95 131.713C714.139 124.039 734.886 133.304 742.161 152.346C742.559 153.426 742.957 154.505 743.241 155.585C749.493 177.412 738.239 200.375 717.663 207.821L634.392 237.947L653.547 328.436C653.661 329.004 653.377 329.629 652.865 329.857L615.578 345.999C615.408 346.056 615.294 346.113 615.124 346.113ZM709.137 131.485C705.045 131.485 700.838 132.281 696.803 133.986L597.56 175.877C597.105 176.048 596.707 176.275 596.253 176.446C573.005 187.132 562.376 215.665 572.55 240.05L615.692 343.271L650.99 327.981L631.778 237.378C631.664 236.753 632.005 236.128 632.574 235.957L716.867 205.491C736.25 198.5 746.822 176.9 740.911 156.324C740.626 155.301 740.285 154.278 739.887 153.312C734.772 139.727 722.324 131.485 709.137 131.485Z" fill="#00004B"/>
<path fill-rule="evenodd" clip-rule="evenodd" d="M651.915 327.224C662.425 338.731 668.391 347.435 669.846 353.409C672.048 362.316 675.088 363.604 674.266 366.027C673.445 368.45 667.418 370.55 661.899 361.283C667.693 376.276 669.254 384.284 666.651 385.454C663.994 386.604 661.508 386.122 659.173 384.063C658.812 390.041 656.344 392.167 651.736 390.369C648.598 393.34 645.136 393.713 641.276 391.521C638.143 392.982 635.555 391.617 633.551 387.319C630.634 380.874 615.456 357.263 614.359 340.169L651.915 327.224Z" fill="#06B8FF"/>
<path d="M659.091 385.122C658.605 385.127 658.164 384.845 657.979 384.354L648.896 360.119C648.643 359.483 648.969 358.755 649.552 358.483C650.188 358.231 650.863 358.537 651.115 359.173L660.199 383.408C660.451 384.044 660.126 384.773 659.543 385.044C659.416 385.059 659.217 385.107 659.091 385.122Z" fill="#00004B"/>
<path d="M650.794 390.632C650.309 390.637 649.867 390.355 649.682 389.864L640.599 365.629C640.346 364.993 640.672 364.265 641.255 363.993C641.838 363.721 642.566 364.047 642.818 364.683L651.902 388.918C652.154 389.554 651.829 390.282 651.246 390.554C651.047 390.603 650.92 390.617 650.794 390.632Z" fill="#00004B"/>
<path d="M641.504 392.392C641.019 392.396 640.577 392.114 640.392 391.624L631.328 367.336C631.076 366.699 631.401 365.971 631.984 365.699C632.62 365.447 633.295 365.753 633.548 366.389L642.612 390.678C642.864 391.314 642.539 392.042 641.956 392.314C641.757 392.362 641.63 392.377 641.504 392.392Z" fill="#00004B"/>
<path d="M646.005 394.15C644.442 394.126 642.834 393.722 641.203 392.886C638.605 393.876 635.176 393.657 632.512 387.848C631.901 386.537 630.77 384.492 629.314 381.845C623.611 371.422 614.035 354.024 613.116 340.261C613.063 339.577 613.582 338.98 614.194 338.96C614.879 338.907 615.423 339.407 615.476 340.092C616.356 353.296 626.155 371.078 631.397 380.607C632.853 383.254 634.018 385.372 634.664 386.756C636.818 391.472 639.111 391.157 640.786 390.376C641.15 390.206 641.51 390.216 641.864 390.405C645.263 392.368 648.24 392 650.936 389.412C651.286 389.116 651.737 389.038 652.111 389.175C653.854 389.87 655.185 389.87 656.064 389.283C657.128 388.52 657.789 386.704 657.955 383.922C658.003 383.456 658.266 383.067 658.649 382.844C659.067 382.694 659.533 382.742 659.849 383.039C661.815 384.783 663.855 385.162 666.074 384.216C666.365 384.08 668.731 382.4 660.632 361.609C660.414 361.045 660.613 360.331 661.196 360.06C661.725 359.768 662.386 359.948 662.73 360.497C666.342 366.53 669.678 366.837 670.94 366.691C672.203 366.546 672.868 365.881 673.024 365.453C673.238 364.866 673.034 364.429 672.16 362.841C671.238 361.053 669.782 358.406 668.584 353.555C667.158 347.834 661.26 339.275 650.925 327.952C650.488 327.491 650.493 326.646 650.954 326.209C651.435 325.719 652.154 325.738 652.625 326.273C663.344 338.038 669.31 346.742 670.847 352.987C671.929 357.494 673.317 359.995 674.225 361.656C675.132 363.317 675.797 364.648 675.248 366.323C674.703 367.819 673.144 368.945 671.177 369.197C670.094 369.347 667.832 369.249 665.244 367.219C670.601 382.415 669.201 385.596 666.981 386.542C664.543 387.59 662.227 387.473 660.032 386.19C659.604 388.696 658.696 390.361 657.321 391.313C655.947 392.264 654.091 392.375 651.916 391.705C650.163 393.365 648.108 394.19 646.005 394.15Z" fill="#00004B"/>
<path fill-rule="evenodd" clip-rule="evenodd" d="M788.688 273.824C929.423 240.516 1012.75 229.375 1038.73 240.459C1077.66 257.056 1056.69 329.414 1087.38 331.631C1107.84 333.108 1204.93 303.608 1378.57 243.074L1409.66 331.631C1215.9 394.95 1095.51 424.28 1048.45 419.562C977.908 412.514 1004.11 318.728 975.236 318.728C956.024 318.728 898.048 331.574 801.363 357.265L829.499 302.642L788.688 273.824Z" fill="#00B082"/>
<path d="M1059.13 421.266C1055.15 421.266 1051.57 421.096 1048.33 420.755C1028.95 418.822 1014.97 410.296 1005.7 394.779C997.745 381.478 994.619 365.506 991.834 351.353C988.366 333.79 985.638 319.921 975.293 319.921C956.252 319.921 897.82 332.88 801.704 358.458C801.249 358.572 800.794 358.401 800.51 358.003C800.226 357.605 800.169 357.094 800.397 356.639L828.021 302.982L788.062 274.79C787.664 274.505 787.494 273.994 787.551 273.539C787.664 273.028 788.005 272.687 788.46 272.573C858.544 255.976 915.1 244.778 956.65 239.208C998.313 233.637 1026.11 233.637 1039.24 239.265C1060.16 248.188 1064.25 272.459 1067.83 293.888C1071.01 312.929 1073.8 329.356 1087.5 330.379C1107.73 331.857 1205.55 302.073 1378.23 241.879C1378.86 241.652 1379.48 241.993 1379.71 242.618L1410.8 331.175C1410.91 331.516 1410.91 331.857 1410.74 332.141C1410.57 332.425 1410.35 332.653 1410.06 332.766C1313.6 364.313 1234.31 387.731 1174.35 402.282C1122.51 414.9 1083.91 421.266 1059.13 421.266ZM975.293 317.476C987.571 317.476 990.64 332.937 994.164 350.898C999.734 379.034 1006.61 414.104 1048.62 418.311C1095.17 422.972 1216.12 393.528 1408.13 330.777L1377.83 244.551C1207.37 303.949 1112.73 332.88 1088.92 332.88C1088.29 332.88 1087.78 332.88 1087.27 332.823C1071.69 331.686 1068.62 313.554 1065.38 294.343C1061.92 273.596 1057.94 250.007 1038.22 241.595C1012.75 230.739 929.764 241.766 791.586 274.392L830.181 301.618C830.692 301.959 830.863 302.698 830.579 303.21L803.693 355.389C898.502 330.265 956.195 317.476 975.293 317.476Z" fill="#00004B"/>
<path fill-rule="evenodd" clip-rule="evenodd" d="M1114.49 690.176H1195.26C1212.37 690.176 1226.18 704.67 1226.18 722.631C1226.18 740.536 1212.31 755.087 1195.26 755.087H1114.49C1097.38 755.03 1083.57 740.536 1083.57 722.631C1083.57 704.67 1097.38 690.176 1114.49 690.176Z" fill="#06B8FF"/>
<path d="M1195.26 756.281H1114.49C1096.76 756.281 1082.38 741.162 1082.38 722.632C1082.38 704.102 1096.81 688.982 1114.49 688.982H1195.26C1212.99 688.982 1227.37 704.102 1227.37 722.632C1227.37 741.162 1212.99 756.281 1195.26 756.281ZM1114.49 691.427C1098.06 691.427 1084.71 705.409 1084.71 722.632C1084.71 739.854 1098.06 753.837 1114.49 753.837H1195.26C1211.69 753.837 1225.04 739.854 1225.04 722.632C1225.04 705.409 1211.69 691.427 1195.26 691.427H1114.49Z" fill="#00004B"/>
<path d="M1190.88 733.034H1118.87C1113.41 733.034 1108.92 728.373 1108.92 722.632C1108.92 716.891 1113.35 712.23 1118.87 712.23H1190.83C1196.28 712.23 1200.77 716.891 1200.77 722.632C1200.77 728.373 1196.34 733.034 1190.88 733.034ZM1118.87 714.675C1114.72 714.675 1111.31 718.256 1111.31 722.575C1111.31 726.895 1114.72 730.476 1118.87 730.476H1190.83C1194.97 730.476 1198.39 726.895 1198.39 722.575C1198.39 718.256 1194.97 714.675 1190.83 714.675H1118.87Z" fill="#00004B"/>
<path d="M1163.18 588.375L1179.81 574.418L1140.02 527.004L1123.39 540.961L1163.18 588.375Z" fill="#F5E900"/>
<path d="M1162.46 589.909H1140.75C1140.13 589.909 1139.56 589.341 1139.56 588.659V526.76C1139.56 526.078 1140.07 525.51 1140.75 525.51H1162.46C1163.09 525.51 1163.66 526.078 1163.66 526.76V588.659C1163.6 589.341 1163.09 589.909 1162.46 589.909ZM1141.89 587.409H1161.27V528.011H1141.89V587.409Z" fill="#00004B"/>
<path fill-rule="evenodd" clip-rule="evenodd" d="M1140.98 487.654V499.989C1140.98 504.252 1144.27 507.662 1148.31 507.662H1152.52C1156.55 507.662 1159.85 504.195 1159.85 499.989V487.654H1181.85V499.989C1181.85 516.984 1168.72 530.739 1152.52 530.739H1148.31C1132.11 530.739 1118.98 516.984 1118.98 499.989V487.654H1140.98Z" fill="#F5E900"/>
<path d="M1152.52 531.933H1148.31C1131.49 531.933 1117.84 517.553 1117.84 499.932V487.655C1117.84 486.973 1118.36 486.404 1119.04 486.404H1140.98C1141.6 486.404 1142.17 486.973 1142.17 487.655V499.989C1142.17 503.57 1144.9 506.469 1148.31 506.469H1152.52C1155.93 506.469 1158.65 503.57 1158.65 499.989V487.655C1158.65 486.973 1159.17 486.404 1159.85 486.404H1181.85C1182.47 486.404 1183.04 486.973 1183.04 487.655V499.989C1182.98 517.609 1169.34 531.933 1152.52 531.933ZM1120.17 488.848V499.932C1120.17 516.245 1132.79 529.489 1148.31 529.489H1152.52C1168.03 529.489 1180.65 516.245 1180.65 499.932V488.848H1160.99V499.932C1160.99 504.877 1157.18 508.856 1152.46 508.856H1148.25C1143.54 508.856 1139.73 504.877 1139.73 499.932V488.848H1120.17Z" fill="#00004B"/>
<path fill-rule="evenodd" clip-rule="evenodd" d="M1141.2 569.355H1222.43C1243.8 569.355 1261.13 587.544 1261.13 609.939V649.557C1261.13 672.009 1243.8 690.14 1222.43 690.14H1141.2C1119.83 690.14 1102.49 671.952 1102.49 649.557V609.939C1102.44 587.544 1119.77 569.355 1141.2 569.355Z" fill="#F96A00"/>
<path fill-rule="evenodd" clip-rule="evenodd" d="M1217.71 569.355H1222.43C1243.8 569.355 1261.13 587.544 1261.13 609.939V649.557C1261.13 672.009 1243.8 690.14 1222.43 690.14H1217.71C1196.34 690.14 1179 671.952 1179 649.557V609.939C1179 587.544 1196.34 569.355 1217.71 569.355Z" fill="#F96A00"/>
<path d="M1222.43 691.389H1141.2C1119.2 691.389 1101.3 672.632 1101.3 649.555V609.938C1101.3 586.861 1119.2 568.104 1141.2 568.104H1222.43C1244.42 568.104 1262.33 586.861 1262.33 609.938V649.555C1262.33 672.632 1244.42 691.389 1222.43 691.389ZM1141.2 570.604C1120.51 570.604 1103.63 588.282 1103.63 609.995V649.612C1103.63 671.325 1120.45 689.002 1141.2 689.002H1222.43C1243.12 689.002 1260 671.325 1260 649.612V609.995C1260 588.282 1243.17 570.604 1222.43 570.604H1141.2Z" fill="#00004B"/>
<path d="M1222.43 691.389H1217.71C1195.71 691.389 1177.81 672.632 1177.81 649.555V609.938C1177.81 586.861 1195.71 568.104 1217.71 568.104H1222.43C1244.42 568.104 1262.33 586.861 1262.33 609.938V649.555C1262.33 672.632 1244.42 691.389 1222.43 691.389ZM1217.71 570.604C1197.02 570.604 1180.14 588.282 1180.14 609.995V649.612C1180.14 671.325 1196.96 689.002 1217.71 689.002H1222.43C1243.12 689.002 1260 671.325 1260 649.612V609.995C1260 588.282 1243.17 570.604 1222.43 570.604H1217.71Z" fill="#00004B"/>
<path d="M1118.2 606.74C1116.1 608.496 1116.55 612.472 1119.19 615.622C1121.84 618.773 1125.68 619.903 1127.77 618.147C1129.86 616.392 1129.41 612.415 1126.77 609.265C1124.13 606.115 1120.29 604.985 1118.2 606.74Z" fill="#00004B"/>
<path d="M1144.67 606.726C1142.57 608.482 1143.02 612.459 1145.67 615.609C1148.31 618.759 1152.15 619.889 1154.24 618.134C1156.33 616.378 1155.88 612.401 1153.24 609.251C1150.6 606.101 1146.76 604.971 1144.67 606.726Z" fill="#00004B"/>
<path d="M1144.5 637.335H1127.96C1127.33 637.335 1126.76 636.767 1126.76 636.084C1126.76 635.402 1127.28 634.834 1127.96 634.834H1144.5C1145.12 634.834 1145.69 635.402 1145.69 636.084C1145.69 636.767 1145.12 637.335 1144.5 637.335Z" fill="#00004B"/>
<path fill-rule="evenodd" clip-rule="evenodd" d="M1146.94 445.67L1175.36 434.842L1214.29 546.97L1185.87 557.798L1146.94 445.67Z" fill="#F5E900"/>
<path fill-rule="evenodd" clip-rule="evenodd" d="M1146.94 445.671L1175.36 434.843L1194.95 491.164L1166.55 502.045L1146.94 445.671Z" fill="#00004B"/>
<path d="M1185.91 559.056C1185.42 559.051 1184.94 558.74 1184.82 558.24L1145.89 446.113C1145.77 445.792 1145.78 445.486 1145.92 445.195C1146.05 444.904 1146.28 444.7 1146.58 444.53L1175 433.702C1175.64 433.468 1176.3 433.774 1176.53 434.415L1215.47 546.542C1215.58 546.863 1215.57 547.169 1215.44 547.46C1215.3 547.751 1215.07 547.955 1214.77 548.125L1186.35 558.953C1186.19 559.012 1186.01 559.017 1185.91 559.056ZM1148.47 446.384L1186.62 556.195L1212.8 546.184L1174.64 436.373L1148.47 446.384Z" fill="#00004B"/>
<path d="M1224.32 342.38C1229.21 339.208 1235.64 341.585 1237.53 347.252C1250.61 386.039 1242.85 415.237 1213.88 431.348C1208.85 434.147 1202.64 431.386 1201.04 425.675L1186.84 374.835C1185.72 370.766 1187.27 366.39 1190.75 364.155L1224.32 342.38ZM1223.8 364.889L1206.03 376.379L1214.82 407.839L1214.96 407.728C1225.17 397.901 1228.17 384.045 1223.8 364.889Z" fill="#00004B"/>
<path d="M1053.51 413.866C1048.02 415.742 1045.67 422.406 1048.6 427.63C1068.54 463.137 1094.86 475.634 1125.24 462.703C1130.54 460.472 1132.49 453.712 1129.35 448.745L1101.34 404.684C1099.09 401.149 1094.84 399.611 1091.03 400.938L1053.51 413.866ZM1070.31 427.954L1090.14 421.101L1107.44 448.373L1107.26 448.378C1093.56 450.28 1081.52 443.777 1070.31 427.954Z" fill="#00004B"/>
<path fill-rule="evenodd" clip-rule="evenodd" d="M1088 408.751L1201.72 365.367L1214.46 402.042C1225.9 434.958 1209.7 471.399 1178.31 483.369C1146.92 495.339 1112.18 478.343 1100.75 445.426L1088 408.751Z" fill="#F5E900"/>
<path d="M1157.54 488.451C1148.66 488.478 1139.81 486.436 1131.5 482.383C1116.55 475.06 1105.25 462.116 1099.59 445.908L1086.85 409.233C1086.73 408.913 1086.74 408.607 1086.88 408.316C1087.01 408.024 1087.24 407.82 1087.54 407.65L1201.26 364.266C1201.58 364.149 1201.88 364.158 1202.17 364.294C1202.46 364.43 1202.67 364.658 1202.79 364.979L1215.53 401.654C1227.18 435.158 1210.59 472.347 1178.69 484.564C1171.81 487.126 1164.68 488.453 1157.54 488.451ZM1089.5 409.539L1101.81 445.038C1113 477.261 1147.13 493.931 1177.88 482.195C1192.76 476.538 1204.67 465.064 1211.37 450.047C1218.04 434.976 1218.78 418.072 1213.36 402.504L1201.04 367.004L1089.5 409.539Z" fill="#00004B"/>
<path fill-rule="evenodd" clip-rule="evenodd" d="M1139.87 435.421L1154.78 418.381L1164.83 414.42L1177.39 456.422L1183.82 454.143L1186.98 465.816L1161.3 475.526L1157.62 463.256L1164.96 460.826L1157.04 435.221L1147.9 445.864L1139.87 435.421Z" fill="#FDEDE0"/>
<path d="M1161.32 476.732C1161.14 476.737 1160.94 476.688 1160.79 476.62C1160.5 476.484 1160.28 476.203 1160.16 475.882L1156.43 463.631C1156.31 463.311 1156.37 462.985 1156.51 462.694C1156.65 462.403 1156.93 462.179 1157.19 462.082L1163.4 460.007L1156.45 437.612L1148.68 446.671C1148.47 446.928 1148.12 447.118 1147.74 447.074C1147.38 447.084 1147.07 446.895 1146.85 446.613L1138.84 436.097C1138.49 435.621 1138.49 434.956 1138.93 434.495L1153.78 417.474C1153.9 417.309 1154.04 417.197 1154.2 417.139L1164.26 413.178C1164.58 413.062 1164.88 413.071 1165.17 413.207C1165.46 413.343 1165.69 413.625 1165.8 413.945L1178 454.753L1183.3 452.882C1183.62 452.765 1183.95 452.828 1184.24 452.964C1184.53 453.1 1184.76 453.381 1184.82 453.721L1187.98 465.394C1188.14 466.001 1187.83 466.657 1187.25 466.871L1161.73 476.703C1161.62 476.741 1161.44 476.746 1161.32 476.732ZM1159.06 464.063L1162.05 473.925L1185.56 465.065L1183.02 455.766L1177.75 457.564C1177.43 457.681 1177.12 457.672 1176.81 457.482C1176.52 457.346 1176.3 457.065 1176.23 456.725L1164.06 415.971L1155.43 419.353L1141.43 435.397L1147.92 443.923L1156.11 434.349C1156.41 433.999 1156.84 433.843 1157.23 433.94C1157.63 434.037 1157.98 434.334 1158.14 434.761L1166.12 460.346C1166.24 460.666 1166.17 460.992 1166.04 461.283C1165.9 461.574 1165.62 461.798 1165.35 461.895L1159.06 464.063Z" fill="#00004B"/>
<path d="M1128.31 379.921C1112.06 409.353 1106.71 437.529 1116.35 442.855C1126 448.181 1146.99 428.639 1163.24 399.207C1179.49 369.775 1184.85 341.599 1175.2 336.273C1165.56 330.947 1144.56 350.489 1128.31 379.921Z" fill="#F96A00"/>
<path d="M1107.12 419.575C1096.35 419.563 1089.55 416.836 1087.81 411.723C1085.9 406.129 1090.32 398.654 1100.22 390.634C1109.81 382.91 1123.54 375.432 1138.83 369.566C1154.13 363.754 1169.23 360.194 1181.31 359.666C1193.87 359.09 1201.84 361.875 1203.75 367.469C1205.67 373.062 1201.25 380.537 1191.35 388.558C1181.76 396.282 1168.03 403.759 1152.74 409.625C1137.44 415.438 1122.34 418.997 1110.25 419.525C1109.17 419.555 1108.15 419.565 1107.12 419.575ZM1139.61 371.882C1124.52 377.617 1111.05 384.997 1101.64 392.537C1092.7 399.722 1088.48 406.4 1090.02 410.8C1091.56 415.199 1098.92 417.479 1110.16 416.956C1122.02 416.453 1136.85 412.991 1151.92 407.202C1167.01 401.468 1180.47 394.087 1189.89 386.548C1198.83 379.363 1203.05 372.684 1201.51 368.285C1198.6 359.788 1172.98 359.193 1139.61 371.882Z" fill="#00004B"/>
<path fill-rule="evenodd" clip-rule="evenodd" d="M1177.52 532.047L1205.03 521.55C1221.44 515.276 1239.61 524.147 1245.58 541.39L1158.63 574.549C1152.6 557.326 1161.09 538.268 1177.52 532.047Z" fill="#F5E900"/>
<path d="M1158.62 575.772C1158.14 575.767 1157.66 575.456 1157.54 574.956C1154.52 566.318 1154.93 556.975 1158.62 548.674C1162.31 540.374 1168.9 534.045 1177.12 530.871L1204.64 520.374C1221.63 513.886 1240.53 523.097 1246.72 540.927C1246.83 541.248 1246.82 541.553 1246.69 541.845C1246.55 542.136 1246.32 542.34 1246.02 542.51L1159.02 575.689C1158.86 575.747 1158.75 575.786 1158.62 575.772ZM1177.91 533.187C1162.49 539.039 1154.35 556.703 1159.3 572.984L1244.01 540.641C1237.84 524.861 1220.83 516.838 1205.36 522.709L1177.91 533.187Z" fill="#00004B"/>
<path d="M1232.6 588.389L1249.23 574.432L1209.44 527.017L1192.81 540.974L1232.6 588.389Z" fill="#F5E900"/>
<path d="M1231.86 589.909H1210.15C1209.53 589.909 1208.96 589.341 1208.96 588.659V526.76C1208.96 526.078 1209.47 525.51 1210.15 525.51H1231.86C1232.49 525.51 1233.06 526.078 1233.06 526.76V588.659C1233.06 589.341 1232.55 589.909 1231.86 589.909ZM1211.35 587.409H1230.73V528.011H1211.35V587.409Z" fill="#00004B"/>
<path fill-rule="evenodd" clip-rule="evenodd" d="M1210.38 487.654V499.989C1210.38 504.252 1213.68 507.662 1217.71 507.662H1221.92C1225.95 507.662 1229.25 504.195 1229.25 499.989V487.654H1251.25V499.989C1251.25 516.984 1238.12 530.739 1221.92 530.739H1217.71C1201.51 530.739 1188.38 516.984 1188.38 499.989V487.654H1210.38Z" fill="#F5E900"/>
<path d="M1221.92 531.933H1217.71C1200.89 531.933 1187.25 517.553 1187.25 499.932V487.655C1187.25 486.973 1187.76 486.404 1188.44 486.404H1210.44C1211.06 486.404 1211.63 486.973 1211.63 487.655V499.989C1211.63 503.57 1214.36 506.469 1217.77 506.469H1221.97C1225.38 506.469 1228.11 503.57 1228.11 499.989V487.655C1228.11 486.973 1228.62 486.404 1229.31 486.404H1251.25C1251.87 486.404 1252.44 486.973 1252.44 487.655V499.989C1252.44 517.609 1238.74 531.933 1221.92 531.933ZM1189.58 488.848V499.932C1189.58 516.245 1202.19 529.489 1217.71 529.489H1221.92C1237.43 529.489 1250.05 516.245 1250.05 499.932V488.848H1230.44V499.932C1230.44 504.877 1226.64 508.856 1221.92 508.856H1217.71C1212.99 508.856 1209.19 504.877 1209.19 499.932V488.848H1189.58Z" fill="#00004B"/>
<path fill-rule="evenodd" clip-rule="evenodd" d="M1175.88 690.176H1256.65C1273.76 690.176 1287.57 704.67 1287.57 722.631C1287.57 740.536 1273.7 755.087 1256.65 755.087H1175.88C1158.77 755.087 1144.96 740.593 1144.96 722.631C1144.96 704.67 1158.83 690.176 1175.88 690.176Z" fill="#06B8FF"/>
<path d="M1256.7 756.281H1175.88C1158.14 756.281 1143.76 741.162 1143.76 722.632C1143.76 704.102 1158.2 688.982 1175.88 688.982H1256.65C1274.38 688.982 1288.76 704.102 1288.76 722.632C1288.76 741.162 1274.38 756.281 1256.7 756.281ZM1175.88 691.427C1159.45 691.427 1146.09 705.409 1146.09 722.632C1146.09 739.854 1159.45 753.837 1175.88 753.837H1256.65C1273.07 753.837 1286.43 739.854 1286.43 722.632C1286.43 705.409 1273.07 691.427 1256.65 691.427H1175.88Z" fill="#00004B"/>
<path d="M1252.27 733.034H1180.31C1174.85 733.034 1170.36 728.373 1170.36 722.632C1170.36 716.891 1174.8 712.23 1180.31 712.23H1252.27C1257.73 712.23 1262.22 716.891 1262.22 722.632C1262.22 728.373 1257.73 733.034 1252.27 733.034ZM1180.31 714.675C1176.16 714.675 1172.75 718.256 1172.75 722.575C1172.75 726.895 1176.16 730.476 1180.31 730.476H1252.27C1256.42 730.476 1259.83 726.895 1259.83 722.575C1259.83 718.256 1256.42 714.675 1252.27 714.675H1180.31Z" fill="#00004B"/>
<path d="M682.505 69.655C682.051 69.655 681.539 69.5413 681.084 69.3708C680.061 68.9161 679.209 68.0635 678.811 66.9835L676.594 61.0153C673.638 53.0009 667.556 46.6348 659.883 43.5086L654.199 41.1782C652.153 40.3256 651.13 37.8814 651.925 35.7215C652.323 34.6416 653.176 33.7321 654.199 33.3342L659.883 31.0038C667.5 27.8776 673.581 21.5115 676.594 13.4971L678.811 7.52889C679.606 5.36897 681.937 4.28901 683.983 5.14161C685.006 5.59633 685.859 6.44893 686.257 7.52889L688.473 13.4971C691.429 21.5115 697.511 27.8776 705.184 31.0038L710.868 33.3342C712.915 34.1868 713.938 36.631 713.142 38.7909C712.744 39.8708 711.892 40.7803 710.868 41.1782L705.184 43.5086C697.568 46.6348 691.486 53.0009 688.473 61.0153L686.257 66.9835C685.631 68.6319 684.097 69.655 682.505 69.655ZM682.505 7.35837C681.823 7.35837 681.198 7.75625 680.971 8.43833L678.754 14.4065C675.571 23.0462 668.977 29.9807 660.736 33.3342L655.052 35.6647C654.597 35.8352 654.256 36.1763 654.085 36.631C653.744 37.5404 654.199 38.5067 655.052 38.8477L660.736 41.1782C668.977 44.5317 675.571 51.4094 678.754 60.1059L680.971 66.0741C681.141 66.5288 681.482 66.8699 681.937 67.0404C682.789 67.3814 683.756 66.9267 684.097 66.0741L686.314 60.1059C689.497 51.4662 696.09 44.5317 704.332 41.1782L710.016 38.8477C710.471 38.6772 710.812 38.3362 710.982 37.8815C711.323 36.972 710.868 36.0057 710.016 35.6647L704.332 33.3342C696.09 29.9807 689.497 23.103 686.314 14.4065L684.097 8.43833C683.926 7.98361 683.585 7.64257 683.131 7.47205C682.903 7.41521 682.733 7.35837 682.505 7.35837Z" fill="#56324C"/>
<path d="M264.85 631.208C264.395 631.208 263.884 631.094 263.429 630.924C262.406 630.469 261.553 629.616 261.155 628.536L258.939 622.568C255.983 614.554 249.901 608.188 242.228 605.061L236.544 602.731C234.497 601.878 233.474 599.434 234.27 597.274C234.668 596.194 235.521 595.285 236.544 594.887L242.228 592.557C249.844 589.43 255.926 583.064 258.939 575.05L261.155 569.082C261.951 566.922 264.282 565.842 266.328 566.694C267.351 567.149 268.204 568.002 268.601 569.082L270.818 575.05C273.774 583.064 279.856 589.43 287.529 592.557L293.213 594.887C295.259 595.74 296.283 598.184 295.487 600.344C295.089 601.424 294.236 602.333 293.213 602.731L287.529 605.061C279.913 608.188 273.831 614.554 270.818 622.568L268.601 628.536C267.976 630.185 266.442 631.208 264.85 631.208ZM264.85 568.911C264.168 568.911 263.543 569.309 263.315 569.991L261.099 575.959C257.916 584.599 251.322 591.533 243.08 594.887L237.396 597.217C236.942 597.388 236.601 597.729 236.43 598.184C236.089 599.093 236.544 600.059 237.396 600.4L243.08 602.731C251.322 606.084 257.916 612.962 261.099 621.659L263.315 627.627C263.486 628.082 263.827 628.423 264.282 628.593C265.134 628.934 266.1 628.479 266.442 627.627L268.658 621.659C271.841 613.019 278.435 606.084 286.677 602.731L292.361 600.4C292.815 600.23 293.156 599.889 293.327 599.434C293.668 598.525 293.213 597.558 292.361 597.217L286.677 594.887C278.435 591.533 271.841 584.656 268.658 575.959L266.442 569.991C266.271 569.536 265.93 569.195 265.475 569.025C265.248 568.968 265.077 568.911 264.85 568.911Z" fill="#56324C"/>
<path d="M918.221 401.941C917.71 401.941 917.255 401.828 916.744 401.657C915.72 401.259 914.868 400.35 914.47 399.27L913.39 396.314C911.116 390.232 906.512 385.401 900.715 383.014L897.93 381.877C896.906 381.479 896.167 380.683 895.713 379.66C895.258 378.637 895.258 377.5 895.656 376.42C896.054 375.34 896.906 374.431 897.93 374.033L900.715 372.896C906.512 370.566 911.116 365.677 913.39 359.596L914.47 356.64C914.868 355.617 915.607 354.764 916.573 354.309C917.539 353.855 918.619 353.855 919.642 354.253C920.666 354.65 921.518 355.56 921.916 356.64L922.996 359.596C925.27 365.677 929.874 370.509 935.671 372.896L938.456 374.033C939.48 374.431 940.218 375.227 940.673 376.25C941.128 377.273 941.128 378.41 940.73 379.49C940.332 380.57 939.48 381.479 938.456 381.877L935.671 383.014C929.874 385.344 925.27 390.232 922.996 396.314L921.916 399.27C921.518 400.293 920.779 401.146 919.813 401.6C919.358 401.771 918.79 401.941 918.221 401.941ZM918.221 356.469C917.994 356.469 917.767 356.526 917.539 356.64C917.141 356.81 916.8 357.151 916.687 357.606L915.607 360.562C913.106 367.269 907.99 372.669 901.567 375.283L898.782 376.42C898.327 376.591 897.986 376.932 897.816 377.386C897.645 377.841 897.645 378.296 897.873 378.694C898.043 379.092 898.384 379.433 898.782 379.603L901.567 380.74C907.99 383.355 913.106 388.698 915.607 395.462L916.687 398.417C916.857 398.872 917.198 399.213 917.653 399.384C918.051 399.554 918.506 399.554 918.903 399.327C919.301 399.156 919.642 398.815 919.756 398.36L920.836 395.405C923.337 388.698 928.453 383.298 934.876 380.683L937.661 379.546C938.115 379.376 938.456 379.035 938.627 378.58C938.797 378.125 938.797 377.671 938.57 377.273C938.4 376.875 938.059 376.534 937.661 376.363L934.876 375.227C928.453 372.612 923.337 367.269 920.836 360.505L919.756 357.549C919.586 357.095 919.245 356.754 918.79 356.583C918.619 356.526 918.449 356.469 918.221 356.469Z" fill="#56324C"/>
<path d="M507.211 282.748C501.755 282.748 497.321 278.088 497.321 272.404C497.321 266.72 501.755 262.059 507.211 262.059C512.668 262.059 517.102 266.72 517.102 272.404C517.102 278.144 512.668 282.748 507.211 282.748ZM507.211 264.56C503.062 264.56 499.709 268.084 499.709 272.404C499.709 276.723 503.062 280.247 507.211 280.247C511.361 280.247 514.714 276.723 514.714 272.404C514.714 268.084 511.361 264.56 507.211 264.56Z" fill="#56324C"/>
<path d="M1393.89 498.092C1388.43 498.092 1384 493.431 1384 487.747C1384 482.063 1388.43 477.402 1393.89 477.402C1399.35 477.402 1403.78 482.063 1403.78 487.747C1403.78 493.431 1399.29 498.092 1393.89 498.092ZM1393.89 479.846C1389.74 479.846 1386.39 483.371 1386.39 487.69C1386.39 492.01 1389.74 495.534 1393.89 495.534C1398.04 495.534 1401.39 492.01 1401.39 487.69C1401.39 483.371 1397.98 479.846 1393.89 479.846Z" fill="#56324C"/>
<path d="M106.89 173.843C111.693 173.843 115.587 169.771 115.587 164.749C115.587 159.726 111.693 155.654 106.89 155.654C102.087 155.654 98.1938 159.726 98.1938 164.749C98.1938 169.771 102.087 173.843 106.89 173.843Z" fill="#56324C"/>
<path fill-rule="evenodd" clip-rule="evenodd" d="M622.192 368.617C481.457 401.925 398.129 413.066 372.153 401.982C333.218 385.385 354.192 313.028 323.498 310.811C303.036 309.333 205.953 338.833 32.3069 399.368L1.21539 310.811C194.983 247.491 315.37 218.162 362.377 222.879C432.915 229.984 406.712 323.714 435.587 323.714C454.799 323.714 512.775 310.868 609.46 285.176L581.324 339.799L622.192 368.617Z" fill="#00B082"/>
<path d="M402.393 407.383C388.524 407.383 378.292 405.962 371.699 403.177C350.782 394.253 346.689 369.982 343.108 348.553C339.925 329.512 337.14 313.085 323.385 312.062C303.207 310.584 205.385 340.368 32.6483 400.562C32.023 400.789 31.3978 400.448 31.1704 399.823L0.0789795 311.266C-0.034729 310.925 -0.034729 310.584 0.135803 310.3C0.306335 310.016 0.53363 309.789 0.817871 309.675C97.2753 278.129 176.567 254.711 236.533 240.16C296.556 225.552 338.959 219.299 362.434 221.687C381.816 223.619 395.799 232.145 405.064 247.662C413.022 260.963 416.148 276.935 418.933 291.088C422.4 308.652 425.128 322.521 435.473 322.521C454.515 322.521 512.946 309.561 609.063 283.983C609.517 283.869 609.972 284.04 610.256 284.438C610.541 284.836 610.597 285.347 610.37 285.802L582.746 339.459L622.704 367.652C623.102 367.936 623.273 368.447 623.216 368.902C623.102 369.414 622.761 369.755 622.306 369.868C552.393 386.466 495.781 397.663 454.287 403.233C433.484 405.962 416.148 407.383 402.393 407.383ZM321.907 309.561C322.532 309.561 323.044 309.561 323.555 309.618C339.13 310.755 342.199 328.887 345.439 348.099C348.906 368.845 352.885 392.434 372.608 400.846C398.073 411.759 481.059 400.676 619.237 368.05L580.643 340.823C580.131 340.482 579.961 339.743 580.245 339.232L607.13 287.053C512.378 312.233 454.628 324.965 435.587 324.965C423.31 324.965 420.24 309.504 416.716 291.543C411.146 263.407 404.268 228.337 362.263 224.131C315.711 219.47 194.756 248.913 2.75043 311.664L33.0461 397.891C203.452 338.493 298.091 309.561 321.907 309.561Z" fill="#00004B"/>
<path fill-rule="evenodd" clip-rule="evenodd" d="M1076.58 174.922H1213.16C1219.93 174.922 1225.44 180.663 1225.44 187.825C1225.44 188.961 1225.27 190.155 1224.99 191.292L1200.37 284.112C1197.93 293.32 1189.92 299.686 1180.82 299.686H1044.24C1037.47 299.686 1031.96 293.945 1031.96 286.783C1031.96 285.646 1032.13 284.453 1032.41 283.316L1057.02 190.439C1059.41 181.288 1067.43 174.922 1076.58 174.922Z" fill="white"/>
<path d="M1079.25 284.964H1053.5C1052.88 284.964 1052.31 284.395 1052.31 283.713C1052.31 283.031 1052.82 282.463 1053.5 282.463H1079.25C1079.87 282.463 1080.44 283.031 1080.44 283.713C1080.44 284.395 1079.93 284.964 1079.25 284.964Z" fill="#00004B"/>
<path d="M1062.76 259.281C1062.42 259.281 1062.02 259.11 1061.79 258.769C1061.39 258.201 1061.51 257.462 1062.02 257.064L1110.33 219.493C1110.84 219.095 1111.53 219.208 1111.92 219.663L1134.72 247.117L1206.68 191.868C1207.19 191.47 1207.93 191.584 1208.32 192.153C1208.72 192.721 1208.61 193.46 1208.1 193.858L1135.29 249.788C1134.77 250.186 1134.09 250.073 1133.69 249.618L1110.9 222.221L1063.5 259.053C1063.27 259.167 1062.98 259.281 1062.76 259.281Z" fill="#00004B"/>
<path fill-rule="evenodd" clip-rule="evenodd" d="M1186.95 202.953C1189.85 202.953 1192.18 205.397 1192.18 208.41C1192.18 208.921 1192.13 209.376 1192.01 209.888C1190.93 213.98 1187.35 216.822 1183.32 216.822C1180.42 216.822 1178.09 214.378 1178.09 211.365C1178.09 210.854 1178.14 210.399 1178.26 209.888C1179.34 205.795 1182.92 202.953 1186.95 202.953Z" fill="#F5E900"/>
<path d="M1183.26 218.071C1179.73 218.071 1176.89 215.059 1176.89 211.364C1176.89 210.739 1176.95 210.17 1177.12 209.545C1178.37 204.941 1182.41 201.701 1186.95 201.701C1190.48 201.701 1193.32 204.714 1193.32 208.408C1193.32 209.034 1193.26 209.602 1193.09 210.227C1191.9 214.831 1187.86 218.071 1183.26 218.071ZM1186.95 204.202C1183.43 204.202 1180.36 206.703 1179.39 210.227C1179.28 210.625 1179.22 210.966 1179.22 211.364C1179.22 213.694 1181.04 215.57 1183.26 215.57C1186.78 215.57 1189.85 213.069 1190.82 209.545C1190.93 209.147 1190.99 208.806 1190.99 208.408C1190.99 206.078 1189.17 204.202 1186.95 204.202Z" fill="#00004B"/>
<path d="M1180.77 300.936H1044.24C1036.79 300.936 1030.76 294.627 1030.76 286.84C1030.76 285.59 1030.94 284.282 1031.28 283.089L1055.89 190.212C1058.45 180.492 1066.97 173.729 1076.58 173.729H1213.16C1220.61 173.729 1226.64 180.038 1226.64 187.825C1226.64 189.075 1226.46 190.383 1226.12 191.576L1201.51 284.453C1198.9 294.172 1190.37 300.936 1180.77 300.936ZM1076.58 176.173C1067.99 176.173 1060.44 182.198 1058.16 190.837L1033.49 283.714C1033.21 284.737 1033.1 285.76 1033.1 286.84C1033.1 293.263 1038.1 298.492 1044.18 298.492H1180.77C1189.35 298.492 1196.91 292.467 1199.18 283.828L1223.79 190.951C1224.08 189.928 1224.19 188.905 1224.19 187.825C1224.19 181.402 1219.19 176.173 1213.11 176.173H1076.58Z" fill="#00004B"/>
<path fill-rule="evenodd" clip-rule="evenodd" d="M420.644 49.3613H516.419C525.627 49.3613 533.699 55.8411 536.029 65.2197L551.888 128.028C553.479 134.394 549.898 140.874 543.816 142.579C542.85 142.863 541.884 142.977 540.917 142.977H445.199C435.991 142.977 427.919 136.497 425.589 127.118L409.731 64.3102C408.139 57.9442 411.72 51.4644 417.802 49.7592C418.711 49.5319 419.678 49.3613 420.644 49.3613Z" fill="white"/>
<path d="M515.624 122.288H454.521C453.896 122.288 453.327 121.72 453.327 121.038C453.327 120.356 453.839 119.787 454.521 119.787H515.624C516.249 119.787 516.817 120.356 516.817 121.038C516.761 121.72 516.249 122.288 515.624 122.288Z" fill="#00004B"/>
<path d="M483.793 109.328H477.2C466.855 109.328 457.931 101.257 456.396 90.5713L455.998 87.7293C455.885 86.8199 455.828 85.8536 455.828 84.9441C455.828 74.3719 464.013 65.7891 474.13 65.7891H480.724C481.349 65.7891 481.918 66.3575 481.918 67.0395C481.918 67.7216 481.406 68.29 480.724 68.29H474.13C465.32 68.29 458.215 75.7929 458.215 85.001C458.215 85.7967 458.272 86.6493 458.386 87.4451L458.784 90.2871C460.148 99.7794 468.049 106.941 477.257 106.941H483.85C492.66 106.941 499.765 99.4383 499.765 90.2303C499.765 89.4345 499.708 88.5819 499.595 87.7861L499.197 84.9441C499.083 84.2621 499.538 83.6368 500.163 83.5231C500.788 83.4095 501.414 83.8642 501.527 84.5463L501.925 87.3883C502.039 88.2977 502.096 89.264 502.096 90.1734C502.096 100.689 493.854 109.328 483.793 109.328Z" fill="#00004B"/>
<path d="M478.848 93.4692C478.507 93.4692 478.223 93.3555 477.995 93.1281L468.389 83.0106C467.935 82.4991 467.935 81.7601 468.389 81.2486C468.844 80.7938 469.583 80.7938 470.038 81.2486L478.791 90.4566L503.801 64.0829C504.255 63.5713 504.994 63.5713 505.449 64.0829C505.904 64.5376 505.904 65.3334 505.449 65.8449L479.587 93.0713C479.416 93.3555 479.132 93.4692 478.848 93.4692Z" fill="#00004B"/>
<path d="M540.974 144.228H445.199C435.479 144.228 426.896 137.35 424.395 127.46L408.594 64.6516C407.741 61.2412 408.196 57.7171 409.901 54.7046C411.606 51.692 414.278 49.5321 417.518 48.6227C418.541 48.3385 419.621 48.168 420.701 48.168H516.476C526.196 48.168 534.779 55.0456 537.28 64.9358L553.138 127.744C553.991 131.154 553.536 134.678 551.831 137.691C550.125 140.703 547.454 142.863 544.214 143.773C543.134 144.057 542.054 144.228 540.974 144.228ZM420.644 50.6121C419.791 50.6121 418.882 50.7258 418.029 50.9531C415.415 51.692 413.198 53.4541 411.834 55.8982C410.47 58.3423 410.129 61.2412 410.811 63.9695L426.669 126.778C428.886 135.588 436.502 141.727 445.142 141.727H540.917C541.77 141.727 542.679 141.613 543.532 141.386C546.147 140.647 548.363 138.885 549.728 136.44C551.092 133.996 551.433 131.098 550.751 128.369L534.892 65.561C532.676 56.7508 525.059 50.6121 516.419 50.6121H420.644Z" fill="#00004B"/>
<path d="M733.044 641.154C732.403 641.154 731.898 640.65 731.898 640.008V628.548C731.898 627.907 732.403 627.402 733.044 627.402C733.686 627.402 734.19 627.907 734.19 628.548V640.008C734.19 640.65 733.686 641.154 733.044 641.154Z" fill="#56324C"/>
<path d="M733.044 658.574C732.403 658.574 731.898 658.07 731.898 657.428V645.968C731.898 645.327 732.403 644.822 733.044 644.822C733.686 644.822 734.19 645.327 734.19 645.968V657.428C734.19 658.07 733.686 658.574 733.044 658.574Z" fill="#56324C"/>
<path d="M729.606 643.675H718.146C717.504 643.675 717 643.171 717 642.529C717 641.887 717.504 641.383 718.146 641.383H729.606C730.248 641.383 730.752 641.887 730.752 642.529C730.752 643.171 730.248 643.675 729.606 643.675Z" fill="#56324C"/>
<path d="M747.942 643.675H736.482C735.84 643.675 735.336 643.171 735.336 642.529C735.336 641.887 735.84 641.383 736.482 641.383H747.942C748.584 641.383 749.088 641.887 749.088 642.529C749.088 643.171 748.584 643.675 747.942 643.675Z" fill="#56324C"/>
<path d="M1394.04 150.154C1393.4 150.154 1392.9 149.65 1392.9 149.008V137.548C1392.9 136.907 1393.4 136.402 1394.04 136.402C1394.69 136.402 1395.19 136.907 1395.19 137.548V149.008C1395.19 149.65 1394.69 150.154 1394.04 150.154Z" fill="#56324C"/>
<path d="M1394.04 167.574C1393.4 167.574 1392.9 167.07 1392.9 166.428V154.968C1392.9 154.327 1393.4 153.822 1394.04 153.822C1394.69 153.822 1395.19 154.327 1395.19 154.968V166.428C1395.19 167.07 1394.69 167.574 1394.04 167.574Z" fill="#56324C"/>
<path d="M1390.61 152.675H1379.15C1378.5 152.675 1378 152.171 1378 151.529C1378 150.887 1378.5 150.383 1379.15 150.383H1390.61C1391.25 150.383 1391.75 150.887 1391.75 151.529C1391.75 152.171 1391.25 152.675 1390.61 152.675Z" fill="#56324C"/>
<path d="M1408.94 152.675H1397.48C1396.84 152.675 1396.34 152.171 1396.34 151.529C1396.34 150.887 1396.84 150.383 1397.48 150.383H1408.94C1409.58 150.383 1410.09 150.887 1410.09 151.529C1410.09 152.171 1409.58 152.675 1408.94 152.675Z" fill="#56324C"/>
</svg>
