<svg width="296" height="231" viewBox="0 0 296 231" fill="none" xmlns="http://www.w3.org/2000/svg">
<mask id="mask0_2220_616" style="mask-type:luminance" maskUnits="userSpaceOnUse" x="0" y="0" width="296" height="231">
<path d="M295.778 0H0V231H295.778V0Z" fill="white"/>
</mask>
<g mask="url(#mask0_2220_616)">
<path d="M133.222 149.722V107.556L54.3889 127.722L133.222 149.722Z" fill="#161616"/>
<path d="M146.323 79.9443C146.592 80.1227 146.86 80.1227 147.218 80.0335C147.576 79.9443 148.023 79.8551 148.471 79.9443C148.829 80.0335 149.097 80.212 149.187 80.4796C149.187 80.5688 149.187 80.658 149.187 80.9258C149.097 81.1935 149.008 81.5503 148.829 81.9072C148.739 82.0856 148.65 82.175 148.56 82.3534C148.471 82.5318 148.382 82.621 148.292 82.7995L148.202 82.9779L148.113 83.0671L148.023 82.9779C147.933 82.7995 147.755 82.7103 147.665 82.5318C147.486 82.2642 147.308 82.0856 147.218 81.9072C146.949 81.5503 146.86 81.1935 146.86 80.8366C146.592 80.4796 146.592 80.1227 146.323 79.9443C146.144 79.7659 145.786 79.7659 145.338 80.1227C144.891 80.4796 144.444 81.3719 144.622 82.3534C144.622 82.8887 144.801 83.424 145.07 83.9594C145.249 84.2271 145.338 84.4055 145.428 84.6731L145.518 84.8516L145.697 85.1193C145.786 85.2978 145.965 85.4762 146.144 85.6546C146.771 86.3684 147.666 86.8146 148.65 86.6361C149.097 86.5468 149.545 86.3684 149.993 86.0115C150.171 85.8331 150.44 85.6546 150.619 85.4762L150.887 85.2085L151.066 85.03C151.245 84.8516 151.424 84.5839 151.603 84.3163C151.783 84.0486 151.871 83.781 152.051 83.5132C152.408 82.7995 152.588 82.0856 152.677 81.2827C152.767 80.4796 152.498 79.4982 152.051 78.7844C151.066 77.3568 149.276 77.0892 148.292 77.446C147.218 77.8029 146.771 78.4275 146.502 78.8736C146.055 79.409 146.144 79.7659 146.323 79.9443Z" fill="white"/>
<path d="M92.0001 100.466C92.2685 100.644 92.537 100.644 92.895 100.555C93.2529 100.466 93.7004 100.377 94.1479 100.466C94.5058 100.555 94.7744 100.733 94.8639 101.001C94.8639 101.09 94.8639 101.18 94.8639 101.447C94.7744 101.715 94.6848 102.072 94.5058 102.429C94.4164 102.607 94.3269 102.697 94.2374 102.875C94.1479 103.053 94.0584 103.142 93.9689 103.321L93.8794 103.499L93.7899 103.589L93.7004 103.499C93.611 103.321 93.432 103.231 93.3425 103.053C93.1635 102.786 92.9845 102.607 92.895 102.429C92.6265 102.072 92.537 101.715 92.537 101.358C92.2685 101.001 92.1791 100.644 92.0001 100.466C91.821 100.287 91.463 100.287 91.0156 100.644C90.5682 101.001 90.1207 101.893 90.2997 102.875C90.2997 103.41 90.4786 103.946 90.7471 104.481C90.9261 104.749 91.0156 104.926 91.1051 105.194L91.1946 105.373L91.3736 105.641C91.463 105.82 91.642 105.997 91.821 106.176C92.4475 106.889 93.3425 107.336 94.3269 107.157C94.7744 107.068 95.2219 106.889 95.6693 106.533C95.8483 106.355 96.1167 106.176 96.2957 105.997L96.5642 105.73L96.7432 105.552C96.9222 105.373 97.1011 105.105 97.2802 104.838C97.4592 104.57 97.5486 104.302 97.7276 104.034C98.0857 103.321 98.2646 102.607 98.3541 101.804C98.4436 101.001 98.1751 100.02 97.7276 99.3059C96.7432 97.8783 94.9533 97.6106 93.9689 97.9675C92.895 98.3244 92.4475 98.949 92.1791 99.3951C91.7316 99.9304 91.7316 100.287 92.0001 100.466Z" fill="white"/>
<path d="M193.844 81.372C194.113 81.5505 194.381 81.5505 194.739 81.4613C195.097 81.372 195.544 81.2828 195.992 81.372C196.35 81.4613 196.618 81.6397 196.708 81.9074C196.708 81.9966 196.708 82.0858 196.708 82.3534C196.618 82.6212 196.529 82.9781 196.35 83.3349C196.261 83.5134 196.171 83.6026 196.081 83.781C195.992 83.9596 195.903 84.0488 195.813 84.2272L195.724 84.4056L195.634 84.4949L195.544 84.4056C195.455 84.2272 195.276 84.138 195.187 83.9596C195.007 83.6918 194.829 83.5134 194.739 83.3349C194.47 82.9781 194.381 82.6212 194.381 82.2642C194.113 81.9073 194.023 81.5505 193.844 81.372C193.666 81.1936 193.307 81.1936 192.86 81.5505C192.412 81.9074 191.965 82.7996 192.143 83.781C192.143 84.3164 192.323 84.8517 192.592 85.3871C192.77 85.6548 192.86 85.8332 192.949 86.1009L193.039 86.2793L193.217 86.547C193.307 86.7254 193.486 86.9039 193.666 87.0824C194.292 87.7961 195.187 88.2422 196.171 88.0638C196.618 87.9745 197.067 87.7961 197.514 87.4392C197.692 87.2608 197.961 87.0824 198.14 86.9039L198.408 86.6362L198.588 86.4577C198.766 86.2793 198.945 86.0117 199.125 85.744C199.303 85.4764 199.393 85.2086 199.572 84.9409C199.929 84.2272 200.109 83.5134 200.198 82.7104C200.288 81.9074 200.019 80.9259 199.572 80.2121C198.588 78.7845 196.798 78.5169 195.813 78.8738C194.739 79.2306 194.292 79.8553 194.023 80.3013C193.576 80.8366 193.576 81.1936 193.844 81.372Z" fill="white"/>
<path d="M231.611 60.5833C230.806 59.7802 229.016 60.8509 227.046 62.7246C226.958 62.8138 226.868 62.903 226.778 62.9922C226.689 63.0815 226.599 63.1708 226.509 63.26C224.72 65.2229 223.557 66.9181 224.362 67.8104C225.078 68.5241 226.958 67.5427 228.926 65.6689C229.016 65.5797 229.105 65.4905 229.194 65.4013C229.284 65.3121 229.373 65.2229 229.463 65.1336C231.253 63.1708 232.327 61.297 231.611 60.5833Z" fill="white"/>
<path d="M125.113 106.176C124.039 105.73 123.413 105.997 122.966 106.712V106.801C122.966 106.801 122.966 106.889 122.876 106.889C122.607 107.604 122.876 108.318 123.95 108.764C124.934 109.21 125.65 108.852 126.097 108.228V108.139C126.097 108.139 126.097 108.05 126.187 108.05C126.365 107.336 126.097 106.622 125.113 106.176Z" fill="white"/>
<path d="M67.21 97.5218C66.4046 98.3248 66.4046 99.0386 66.8521 99.5739L66.9416 99.6631L67.0311 99.7524C67.5681 100.199 68.284 100.199 69.0894 99.3955C69.8053 98.6818 69.8949 97.8787 69.4474 97.3434L69.3579 97.2542L69.2684 97.165C68.8209 96.7188 68.0155 96.7188 67.21 97.5218Z" fill="white"/>
<path d="M77.5913 9.72492C77.0544 9.72492 76.6069 10.171 76.4279 10.8848C76.2489 11.5986 76.3384 12.5801 76.6963 13.6508L76.7859 13.9184L76.8754 14.1861C77.3228 15.1676 78.0388 15.9705 78.6653 16.4167C79.2917 16.8628 79.8287 16.8628 80.2762 16.5059C81.0816 15.7921 80.6341 14.4537 80.0076 12.8477L79.9182 12.5801V12.4908C79.2917 10.9741 78.6653 9.6357 77.5913 9.72492Z" fill="white"/>
<path d="M139.253 25.9643C138.448 25.1614 137.374 25.5182 136.478 26.3212C136.478 26.3212 136.389 26.4104 136.389 26.4997C136.299 26.4997 136.299 26.589 136.21 26.589C135.404 27.5703 135.047 28.5518 135.852 29.3549C136.568 30.0686 137.642 29.801 138.626 28.9979C138.626 28.9087 138.716 28.9087 138.716 28.8195C138.805 28.8195 138.805 28.7303 138.895 28.7303C139.7 27.7488 139.969 26.6782 139.253 25.9643Z" fill="white"/>
<path d="M245.93 102.429C245.125 101.626 244.139 101.894 243.335 102.608L243.245 102.697L243.155 102.786C242.439 103.589 242.171 104.571 242.976 105.373C243.692 106.087 244.766 105.909 245.572 105.195L245.662 105.105L245.75 105.016C246.466 104.124 246.735 103.143 245.93 102.429Z" fill="white"/>
<path d="M174.872 25.5179C174.066 24.7149 173.618 24.4473 173.439 24.4473C173.35 24.6257 173.618 24.9826 174.513 25.8748C175.229 26.5886 175.766 26.9455 175.946 26.9455C175.946 26.767 175.677 26.3209 174.872 25.5179Z" fill="white"/>
<path d="M189.638 0.357055C188.832 -0.445957 187.221 0.44628 185.61 1.96308C185.521 2.05231 185.432 2.14153 185.342 2.23076C185.253 2.31997 185.163 2.4092 185.073 2.49843C183.552 4.10445 182.658 5.62125 183.463 6.51348C184.179 7.22727 185.79 6.42427 187.49 4.90746C187.58 4.81824 187.67 4.72901 187.758 4.63979C187.848 4.55057 187.937 4.46134 188.027 4.37212C189.548 2.67687 190.444 1.07085 189.638 0.357055Z" fill="white"/>
<path d="M120.191 43.1848C120.012 42.9172 118.222 43.8987 115.269 45.9508C113.747 47.0215 111.958 48.3599 109.988 50.1443C108.02 51.9288 105.961 54.1594 104.082 57.0146C102.203 59.8697 100.86 63.7063 100.95 67.8998C101.039 72.0933 102.65 76.4653 105.693 80.1235C107.214 81.9079 109.094 83.6032 111.242 84.8523C113.389 86.1015 115.984 86.9936 118.669 87.0828C121.355 87.1721 124.307 86.4583 126.634 84.8523C128.961 83.2463 130.84 80.9264 131.914 78.1605C132.72 75.93 132.988 73.5209 132.541 71.2011C132.273 70.0412 131.825 68.7921 131.02 67.7213C130.214 66.6506 128.961 65.8477 127.798 65.4016C124.844 64.4201 121.712 64.6878 119.117 65.7585C116.521 66.8291 114.284 68.6136 112.673 70.6657C111.868 71.6472 111.062 72.8071 110.525 73.967C109.988 75.1269 109.541 76.2868 109.183 77.4468C108.467 79.8557 108.198 82.1756 108.109 84.4954C108.02 89.0458 108.647 93.2394 109.272 97.0759C109.988 100.913 110.794 104.481 111.779 107.604C113.657 113.939 115.806 118.757 117.505 122.059C119.206 125.27 120.369 126.877 120.638 126.788C120.906 126.698 120.102 124.825 118.848 121.434C117.595 118.133 115.716 113.225 114.194 106.98C113.389 103.857 112.673 100.377 112.136 96.6298C111.599 92.8824 111.152 88.7782 111.331 84.5847C111.42 82.5325 111.689 80.3911 112.315 78.3389C112.942 76.2868 113.837 74.3239 115.269 72.7179C116.611 71.0226 118.401 69.6842 120.459 68.8813C122.429 68.0782 124.755 67.8998 126.634 68.6136C127.351 68.8813 127.977 69.2381 128.335 69.7736C128.782 70.3089 129.051 71.0226 129.229 71.8257C129.588 73.4317 129.409 75.2161 128.782 76.9114C127.977 78.9636 126.545 80.8372 124.844 81.9972C123.054 83.2463 120.996 83.7816 118.938 83.6924C116.88 83.6032 114.821 82.9786 112.942 81.9972C111.152 81.0157 109.541 79.5881 108.198 78.0713C105.603 75.0377 104.172 71.2011 103.903 67.7213C103.723 64.1525 104.797 60.9403 106.319 58.2637C107.841 55.587 109.72 53.3563 111.51 51.5719C113.3 49.7874 114.91 48.2706 116.253 47.1107C118.848 44.7016 120.369 43.3633 120.191 43.1848Z" fill="white"/>
<path d="M135.405 147.843C135.762 149.003 151.245 145.077 171.292 139.456C172.276 139.189 173.261 138.921 174.245 138.564C175.229 138.296 176.214 138.029 177.198 137.761C197.245 132.05 212.459 127.232 212.19 126.072C211.922 125.091 196.35 128.838 176.303 134.459C175.319 134.727 174.335 134.995 173.35 135.352C172.365 135.619 171.381 135.887 170.397 136.155C150.35 141.955 135.047 146.861 135.405 147.843Z" fill="white"/>
<path d="M212.19 147.843C211.653 147.843 211.296 153.375 211.027 162.744C210.938 167.383 210.848 173.004 210.759 179.339C210.759 185.228 210.669 191.83 210.669 198.879C208.879 199.325 207.089 199.861 205.21 200.396C203.599 200.842 201.988 201.288 200.378 201.735C198.767 202.18 197.155 202.627 195.544 203.072C179.347 207.624 165.116 211.638 154.914 214.761C144.712 217.884 138.626 220.025 138.805 220.561C138.985 221.095 145.249 219.758 155.631 217.169C166.012 214.582 180.331 210.835 196.529 206.374C198.14 205.927 199.751 205.482 201.362 205.035C202.973 204.59 204.583 204.143 206.194 203.698C208.879 202.983 211.564 202.18 214.16 201.467C214.16 197.273 214.07 193.169 214.07 189.332C213.98 185.852 213.98 182.551 213.891 179.339C213.801 173.004 213.623 167.473 213.443 162.744C213.086 153.375 212.637 147.843 212.19 147.843Z" fill="white"/>
<path d="M133.347 222.524C133.525 221.988 126.992 219.758 116.074 216.545C105.156 213.333 89.8522 209.051 72.5799 204.322C70.7899 203.875 69.0896 203.43 67.3892 202.894C65.6889 202.448 63.9884 202.002 62.1986 201.467C59.3348 200.753 56.6499 199.95 53.9651 199.236C53.7861 192.009 53.6071 185.228 53.5177 179.16C53.3386 172.736 53.1596 167.026 52.8912 162.208C52.4437 152.661 51.9962 147.04 51.4593 147.04C51.0118 147.04 50.6539 152.661 50.5643 162.208C50.4749 166.937 50.4749 172.647 50.4749 179.16C50.4749 182.373 50.4749 185.852 50.4749 189.422C50.4749 193.436 50.5643 197.541 50.5643 201.824C54.0546 202.806 57.5449 203.786 61.2142 204.767C63.004 205.214 64.7043 205.661 66.4048 206.196C68.1052 206.641 69.8055 207.088 71.5954 207.623C88.9573 212.263 104.26 216.277 115.358 218.955C126.455 221.632 133.167 223.059 133.347 222.524Z" fill="white"/>
<path d="M51.4592 127.68C51.2802 128.214 58.7977 130.624 71.2373 134.282C83.677 137.851 101.128 142.669 120.817 148.022C122.786 148.558 124.754 149.093 126.724 149.629L128.961 150.253L129.946 150.521V150.61C130.303 170.952 130.662 188.976 131.199 201.914C131.646 214.851 132.183 222.613 132.81 222.613C133.346 222.613 133.614 214.761 133.704 201.824C133.794 188.886 133.704 170.863 133.436 150.521V147.843L127.618 146.327C125.65 145.792 123.681 145.256 121.712 144.721C101.934 139.456 84.4824 134.996 71.8638 131.962C59.2451 128.928 51.5486 127.144 51.4592 127.68Z" fill="white"/>
<path d="M208.521 125.449C208.701 124.914 201.272 122.594 189.011 119.203C176.751 115.812 159.568 111.352 140.148 106.355C138.089 105.82 136.031 105.284 134.063 104.838L133.794 104.749L127.708 106.355C108.288 111.441 91.1946 116.08 78.9338 119.56C66.6732 123.04 59.3347 125.359 59.5137 125.984C59.6926 126.519 67.2101 124.914 79.5603 121.969C91.9105 119.025 109.094 114.652 128.514 109.656L133.794 108.318C135.584 108.764 137.463 109.21 139.253 109.746C158.673 114.652 175.946 118.846 188.295 121.612C200.825 124.467 208.432 125.984 208.521 125.449Z" fill="white"/>
<path d="M229.194 138.118C229.284 138.564 233.669 137.761 241.276 136.066C248.883 134.371 259.622 131.693 272.509 128.482L272.689 128.393C272.778 128.393 272.778 128.393 272.778 128.393V128.75C272.778 129.998 272.778 131.159 272.778 132.408C272.778 134.906 272.778 137.404 272.778 139.992C272.778 145.166 272.778 150.61 272.689 156.141C272.689 158.283 272.689 160.424 272.689 162.476C272.689 164.618 272.689 166.67 272.689 168.811C272.689 171.488 272.689 174.075 272.689 176.662V177.644C272.689 177.912 272.689 178.091 272.599 178.358C272.509 178.804 272.42 179.25 272.241 179.696C271.883 180.588 271.256 181.302 270.451 181.749C270.272 181.838 270.093 182.017 269.825 182.105L269.735 182.194C269.735 182.194 269.735 182.194 269.645 182.194L269.198 182.283C268.572 182.462 268.035 182.641 267.408 182.819C266.244 183.176 265.082 183.444 263.918 183.801C261.591 184.425 259.354 185.049 257.206 185.675C248.436 188.172 240.65 190.314 234.206 192.277C221.23 196.114 213.443 198.612 213.533 199.236C213.711 199.772 221.677 197.987 234.832 194.686C241.365 193.08 249.241 191.028 258.011 188.708C260.248 188.172 262.486 187.548 264.723 186.923C265.887 186.656 267.05 186.299 268.214 186.031C268.84 185.853 269.377 185.675 270.004 185.585L270.451 185.496C270.451 185.496 270.719 185.407 270.809 185.407L271.078 185.317C271.435 185.139 271.793 184.96 272.152 184.782C273.494 183.979 274.567 182.73 275.284 181.302C275.641 180.588 275.821 179.786 276 178.983C276.09 178.625 276.09 178.18 276.09 177.823V176.841C276.09 174.254 276.09 171.666 276.09 168.989C276.09 166.849 276.09 164.707 276.09 162.655C276.09 160.513 276.09 158.461 276.09 156.32C276.09 150.698 276.09 145.345 276 140.171C276 137.582 276 134.995 275.91 132.587C275.91 131.337 275.91 130.088 275.91 128.928C275.91 128.75 275.91 127.946 275.731 127.501C275.553 126.965 275.194 126.519 274.747 126.162C273.852 125.448 272.599 125.27 271.525 125.716L271.704 125.627C258.907 129.106 248.257 132.051 240.74 134.282C233.221 136.512 229.105 137.761 229.194 138.118Z" fill="white"/>
<path d="M269.108 125.27C269.467 124.11 248.257 117.418 220.603 109.12C219.171 108.675 217.829 108.317 216.486 107.871C215.144 107.425 213.711 107.068 212.37 106.622C208.701 105.552 205.21 104.57 201.809 103.589C198.229 102.607 194.918 101.626 191.696 100.733C189.37 101.447 187.221 102.161 185.073 102.786C183.105 103.41 181.225 104.034 179.525 104.57C176.035 105.73 172.992 106.712 170.487 107.604C165.475 109.299 162.701 110.548 162.79 110.905C162.879 111.262 165.922 110.726 171.024 109.478C173.619 108.852 176.661 108.05 180.241 107.157C183.642 106.265 187.49 105.194 191.696 104.034C194.56 104.927 197.692 105.909 200.915 106.889C204.315 107.871 207.805 108.942 211.385 110.013C212.817 110.459 214.16 110.815 215.502 111.262C216.844 111.708 218.276 112.065 219.619 112.511C247.362 120.541 268.84 126.251 269.108 125.27Z" fill="white"/>
<path d="M132.362 145.524C133.526 145.524 134.063 137.494 134.331 127.055C134.331 126.52 134.331 125.984 134.331 125.449C134.331 124.913 134.331 124.378 134.331 123.843C134.331 113.404 133.973 105.373 132.809 105.284C131.736 105.284 131.109 113.315 130.93 123.754C130.93 124.289 130.93 124.825 130.93 125.36C130.93 125.895 130.93 126.43 130.93 126.965C130.84 137.494 131.288 145.524 132.362 145.524Z" fill="white"/>
<path d="M191.606 121.165C192.77 121.165 193.218 117.418 193.307 112.51C193.307 112.244 193.307 112.065 193.307 111.797C193.307 111.529 193.307 111.351 193.307 111.083C193.218 106.176 192.77 102.429 191.606 102.429C190.532 102.429 189.995 106.176 189.907 111.083C189.907 111.351 189.907 111.529 189.907 111.797C189.907 112.065 189.907 112.244 189.907 112.51C189.995 117.418 190.532 121.165 191.606 121.165Z" fill="white"/>
<path d="M133.794 149.54C133.794 149.718 134.241 149.896 135.047 150.254C135.852 150.61 137.015 151.324 138.268 152.395C139.522 153.554 140.774 155.161 141.759 157.302C142.296 158.373 142.654 159.622 143.101 160.961C143.28 161.585 143.46 162.298 143.638 163.012C143.907 164.172 144.264 165.422 144.533 166.671C149.545 165.243 155.362 163.548 161.627 161.764C167.443 160.068 173.708 158.194 180.331 156.232C181.852 155.785 183.373 155.339 184.895 154.893C186.416 154.447 187.938 154.001 189.459 153.554C197.066 151.235 204.315 149.004 210.759 146.952C213.98 145.97 217.023 144.989 219.887 144.007C220.603 143.74 221.319 143.562 221.946 143.294C222.571 143.115 223.108 142.938 223.735 142.759C224.004 142.67 224.361 142.58 224.63 142.491L224.809 142.402C224.898 142.402 224.898 142.402 224.809 142.312V142.223L224.72 141.777C224.541 141.152 224.361 140.617 224.272 139.993C224.183 139.636 224.004 139.189 223.914 138.833C223.735 138.208 223.557 137.584 223.288 136.959C222.393 134.46 221.409 132.32 220.066 130.624C218.813 128.929 217.292 127.769 216.038 127.055C214.697 126.342 213.623 126.074 212.817 125.984C212.012 125.895 211.653 125.984 211.653 126.163C211.564 126.52 213.174 126.699 215.234 128.305C216.307 129.107 217.381 130.268 218.455 131.873C219.439 133.479 220.334 135.442 220.961 137.852C221.14 138.476 221.319 139.012 221.409 139.725L221.497 140.171L221.587 140.349V140.439V140.707C221.677 140.796 221.497 140.796 221.409 140.796H221.319H221.23C221.23 140.796 221.23 140.796 221.14 140.796C220.424 140.975 219.708 141.152 218.992 141.42C216.128 142.223 212.996 143.115 209.775 144.097C203.241 145.97 195.992 148.112 188.385 150.432C186.864 150.878 185.343 151.324 183.821 151.859C182.299 152.306 180.778 152.752 179.257 153.198C172.634 155.25 166.369 157.212 160.641 158.908C157.778 159.801 155.004 160.693 152.408 161.496C151.066 161.942 149.813 162.298 148.65 162.745C148.023 162.923 147.396 163.101 146.859 163.369C146.681 163.459 146.592 163.459 146.412 163.548L146.323 163.28C146.233 163.191 146.233 163.101 146.144 162.656C145.965 161.942 145.696 161.228 145.428 160.514C144.891 159.087 144.354 157.838 143.728 156.677C142.474 154.358 140.864 152.573 139.342 151.503C137.821 150.343 136.389 149.896 135.405 149.718C134.331 149.272 133.883 149.451 133.794 149.54Z" fill="white"/>
<path d="M130.303 150.074C130.303 149.895 129.766 149.806 128.782 149.985C127.798 150.163 126.365 150.61 124.844 151.769C123.323 152.84 121.622 154.624 120.369 156.945C119.743 158.105 119.206 159.442 118.669 160.781C118.401 161.495 118.222 162.208 117.954 162.923L117.774 163.458L117.685 163.547L117.595 163.726L117.417 163.636H117.327C117.327 163.636 117.327 163.636 117.237 163.636C116.611 163.458 115.984 163.279 115.447 163.1C114.194 162.744 112.942 162.387 111.599 161.941C109.004 161.138 106.14 160.424 103.276 159.532C97.4591 157.926 91.105 156.142 84.4825 154.268C82.9612 153.821 81.4397 153.465 79.8288 153.019C78.3074 152.573 76.786 152.216 75.2646 151.769C67.5681 149.628 60.3191 147.665 53.6966 145.969C50.3853 145.077 47.2529 144.274 44.3892 143.561C43.6732 143.382 42.9573 143.204 42.2413 143.026C42.1519 143.026 42.1519 143.026 42.1519 143.026H42.0623H41.9728C41.8834 143.026 41.7938 143.026 41.7938 142.937C41.7044 143.114 42.1519 141.241 42.5098 140.171C43.2257 137.851 44.0312 135.798 45.0156 134.193C46.0001 132.587 47.1635 131.427 48.1479 130.624C50.2063 129.017 51.8172 128.75 51.7277 128.393C51.7277 128.304 51.2803 128.214 50.5643 128.304C49.7588 128.393 48.6849 128.661 47.3425 129.374C46.0896 130.088 44.5682 131.248 43.3153 132.943C41.9728 134.638 40.9884 136.78 40.0935 139.279C39.646 140.616 39.3775 141.33 38.6616 144.185L38.572 144.632V144.721C38.572 144.721 38.6616 144.721 38.6616 144.81L38.8406 144.9C39.1091 144.988 39.467 145.077 39.7354 145.167C40.3619 145.345 40.8989 145.524 41.5254 145.703C42.2413 145.881 42.9573 146.148 43.6732 146.327C46.537 147.13 49.6694 148.111 52.8911 149.003C59.4241 150.877 66.6732 152.929 74.3697 155.071C75.891 155.516 77.4125 155.874 78.9338 156.32C80.4553 156.766 81.9766 157.123 83.4981 157.569C90.2101 159.353 96.5642 161.049 102.381 162.655C108.735 164.261 114.553 165.778 119.564 167.116C119.832 165.867 120.191 164.707 120.459 163.547C120.638 162.833 120.817 162.119 120.996 161.495C121.355 160.157 121.802 158.908 122.339 157.837C123.323 155.606 124.576 154 125.828 152.84C127.082 151.68 128.245 151.056 129.051 150.698C129.856 150.431 130.393 150.253 130.303 150.074Z" fill="white"/>
<path d="M68.0157 193.259C68.1051 192.902 66.3153 192.188 63.8989 191.563L63.541 191.474L63.1829 191.385C60.6772 190.939 58.7978 190.939 58.7083 191.296C58.7083 191.652 60.5876 191.92 62.9145 192.455L63.2725 192.544L63.6304 192.634C66.1363 193.08 67.9261 193.615 68.0157 193.259Z" fill="white"/>
<path d="M76.9648 199.236C77.0544 198.969 73.8326 197.452 69.3579 196.381C69.0894 196.292 68.9104 196.292 68.6419 196.203C68.4629 196.113 68.1944 196.114 67.926 196.025C63.3617 195.044 59.8715 194.954 59.782 195.31C59.782 195.668 63.2723 196.025 67.6575 197.095C67.8364 197.184 68.105 197.184 68.2839 197.273C68.4629 197.363 68.7314 197.363 68.9104 197.452C73.5641 198.434 76.8754 199.594 76.9648 199.236Z" fill="white"/>
<path d="M159.031 128.036C159.12 127.68 156.078 126.341 151.871 125.091C151.693 125.002 151.424 125.002 151.245 124.914C151.066 124.824 150.797 124.824 150.619 124.735C146.323 123.664 143.011 123.307 142.922 123.664C142.833 124.022 146.144 124.646 150.35 125.717C150.529 125.806 150.797 125.806 150.977 125.895C151.156 125.984 151.424 125.984 151.603 126.073C155.719 127.233 158.941 128.304 159.031 128.036Z" fill="white"/>
<path d="M146.771 128.661C146.949 128.303 146.322 127.946 145.607 127.5C145.607 127.5 145.518 127.5 145.518 127.411C145.518 127.411 145.428 127.411 145.428 127.322C144.622 126.965 143.907 126.786 143.817 127.054C143.638 127.322 144.264 127.767 144.981 128.214C144.981 128.214 145.07 128.214 145.07 128.303C145.07 128.303 145.159 128.303 145.159 128.393C145.965 128.838 146.591 128.927 146.771 128.661Z" fill="white"/>
<path d="M238.949 164.885C239.217 165.064 240.47 163.012 241.813 160.157C241.902 159.979 241.902 159.89 241.992 159.711C242.081 159.532 242.081 159.443 242.171 159.264C243.424 156.409 244.051 154.09 243.782 154.001C243.514 153.911 242.529 156.053 241.276 158.819C241.187 158.998 241.187 159.087 241.097 159.264C241.007 159.443 241.007 159.532 240.918 159.711C239.576 162.566 238.591 164.708 238.949 164.885Z" fill="white"/>
<path d="M241.902 166.045C242.261 166.135 242.618 165.421 242.977 164.35C242.977 164.261 242.977 164.261 243.066 164.172C243.066 164.082 243.066 164.082 243.155 163.993C243.424 162.923 243.514 162.119 243.245 162.031C242.976 161.942 242.529 162.655 242.171 163.726C242.171 163.815 242.171 163.815 242.081 163.905C242.081 163.993 242.081 163.993 241.992 164.082C241.634 165.153 241.545 165.956 241.902 166.045Z" fill="white"/>
<path d="M195.366 61.0294C194.113 66.2937 189.906 70.7548 185.521 72.2716C181.047 73.8776 176.035 72.3608 174.066 67.8997C171.202 61.3863 175.319 51.3932 184.179 48.9843C192.592 46.6644 197.066 53.6239 195.366 61.0294Z" fill="#161616"/>
<path d="M191.339 46.9324C191.428 46.6647 190.712 45.9509 188.922 45.3264C188.027 45.0587 186.864 44.8803 185.521 44.9695C185.163 44.9695 184.806 45.0587 184.447 45.0587C184.089 45.1479 183.732 45.2371 183.373 45.3264C183.016 45.4156 182.658 45.5048 182.21 45.594C181.852 45.7725 181.494 45.8617 181.047 46.0402C180.241 46.3079 179.525 46.7539 178.63 47.2C178.273 47.4678 177.824 47.7354 177.467 48.0031C177.288 48.1815 177.109 48.2707 176.84 48.4492C176.661 48.6276 176.483 48.806 176.303 48.9846C174.782 50.3229 173.529 52.1074 172.455 54.0703C171.471 56.1224 170.755 58.4422 170.575 60.9405C170.397 63.4388 170.665 66.1154 172.008 68.703C172.545 69.7737 173.261 70.6658 174.156 71.4689C175.05 72.272 175.946 72.8965 177.02 73.3426C179.704 74.5025 182.479 74.5917 184.984 74.0564C187.49 73.521 189.728 72.272 191.428 70.8444C195.007 67.9892 197.067 64.331 197.692 61.0297C198.319 57.7285 197.782 54.9626 197.067 53.3565C196.35 51.6612 195.544 51.0367 195.276 51.1259C195.007 51.3043 195.366 52.1966 195.634 53.8026C195.903 55.4086 196.081 57.7285 195.276 60.4944C194.471 63.1711 192.592 66.2047 189.459 68.4353C187.938 69.506 186.147 70.4874 184.179 70.8444C182.21 71.2012 180.152 71.112 178.273 70.309C177.557 69.9521 176.84 69.506 176.303 69.0598C175.766 68.5245 175.229 67.9 174.872 67.1862C173.887 65.4017 173.619 63.2603 173.798 61.2082C173.888 59.1561 174.425 57.1931 175.229 55.4979C176.035 53.8026 177.02 52.2858 178.183 51.1259C178.361 50.9475 178.451 50.8583 178.63 50.6798L179.078 50.3229C179.347 50.0552 179.704 49.7875 179.973 49.6091C180.599 49.163 181.225 48.7168 181.852 48.4492C182.21 48.2707 182.479 48.0923 182.747 48.0031C183.105 47.9139 183.373 47.8247 183.642 47.6462C184.269 47.3785 184.806 47.2 185.343 47.1108C186.416 46.8432 187.401 46.8432 188.207 46.9324C190.354 46.9324 191.249 47.2 191.339 46.9324Z" fill="white"/>
<path d="M185.879 54.8733C184.716 54.9625 184.537 57.6392 184.358 60.9404C184.358 61.1189 184.358 61.2973 184.358 61.4758C184.358 61.6542 184.358 61.8327 184.358 62.0112C184.358 65.3124 184.358 67.8999 185.521 68.1676C186.596 68.346 187.67 65.7585 187.848 62.1004C187.848 61.9219 187.848 61.7435 187.848 61.565C187.848 61.3865 187.848 61.2081 187.848 61.0297C187.758 57.4608 186.953 54.784 185.879 54.8733Z" fill="white"/>
<path d="M191.606 60.1372C191.338 58.9774 188.922 59.0666 185.879 59.6912C185.7 59.6912 185.61 59.7804 185.432 59.7804C185.253 59.7804 185.163 59.8696 184.984 59.8696C182.031 60.6726 179.794 61.654 180.062 62.814C180.331 63.8847 182.748 63.8847 185.79 63.2602C185.969 63.2602 186.059 63.1709 186.237 63.1709C186.416 63.1709 186.506 63.0816 186.684 63.0816C189.638 62.2787 191.786 61.2079 191.606 60.1372Z" fill="white"/>
</g>
</svg>
