<svg width="973" height="886" viewBox="0 0 973 886" fill="none" xmlns="http://www.w3.org/2000/svg">
<path d="M257.437 160.043C272.374 160.043 284.483 147.935 284.483 132.998C284.483 118.061 272.374 105.952 257.437 105.952C242.5 105.952 230.392 118.061 230.392 132.998C230.392 147.935 242.5 160.043 257.437 160.043Z" fill="#581B46"/>
<path d="M257.391 72.764C256.749 72.764 256.245 72.2597 256.245 71.618V-134.983C256.245 -135.625 256.749 -136.129 257.391 -136.129C258.033 -136.129 258.537 -135.625 258.537 -134.983V71.618C258.537 72.2597 258.033 72.764 257.391 72.764Z" fill="#581B46"/>
<path fill-rule="evenodd" clip-rule="evenodd" d="M191.427 72.0303H323.446C338.803 72.0303 352.417 81.7942 357.322 96.3255L367.132 125.342C369.057 131.118 365.986 137.352 360.21 139.278C359.064 139.644 357.872 139.873 356.68 139.873H158.147C152.05 139.873 147.146 134.969 147.146 128.872C147.146 127.68 147.329 126.488 147.741 125.342L157.551 96.3255C162.456 81.7942 176.071 72.0303 191.427 72.0303Z" fill="#F96A00"/>
<path d="M356.726 141.02H158.148C151.455 141.02 146 135.565 146 128.872C146 127.543 146.229 126.259 146.642 124.976L156.452 95.9593C161.54 80.9696 175.567 70.8848 191.427 70.8848H323.447C339.307 70.8848 353.334 80.9696 358.423 95.9593L368.232 124.976C369.287 128.047 369.057 131.348 367.591 134.236C366.17 137.124 363.648 139.324 360.577 140.378C359.339 140.791 358.01 141.02 356.726 141.02ZM191.427 73.1768C176.575 73.1768 163.373 82.6198 158.652 96.6927L148.842 125.709C148.475 126.718 148.338 127.772 148.338 128.872C148.338 134.327 152.738 138.728 158.193 138.728H356.726C357.781 138.728 358.881 138.545 359.889 138.224C365.024 136.482 367.82 130.889 366.078 125.755L356.268 96.7385C351.501 82.6656 338.345 73.2226 323.492 73.2226H191.427V73.1768Z" fill="#F96A00"/>
<path d="M190.511 188.189C190.328 188.189 190.098 188.143 189.915 188.006C189.365 187.685 189.228 186.951 189.548 186.447L213.385 147.941C213.706 147.391 214.44 147.254 214.944 147.575C215.448 147.896 215.631 148.629 215.31 149.133L191.474 187.639C191.29 188.006 190.878 188.189 190.511 188.189Z" fill="#F96A00"/>
<path d="M315.287 222.385C314.829 222.385 314.416 222.11 314.233 221.698L288.929 160.501C288.7 159.905 288.975 159.264 289.571 158.989C290.167 158.759 290.808 159.034 291.084 159.63L316.433 220.827C316.662 221.423 316.387 222.064 315.791 222.34C315.608 222.34 315.47 222.385 315.287 222.385Z" fill="#F96A00"/>
<path d="M319.962 173.933C319.641 173.933 319.321 173.796 319.091 173.521L302.818 153.901C302.406 153.397 302.497 152.709 302.956 152.297C303.46 151.884 304.148 151.976 304.56 152.434L320.787 172.054C321.2 172.558 321.108 173.246 320.65 173.658C320.467 173.841 320.237 173.933 319.962 173.933Z" fill="#F96A00"/>
<path fill-rule="evenodd" clip-rule="evenodd" d="M814.135 579.662H705.586L725.893 645.443H814.135V579.662Z" fill="#FDEDE0"/>
<path d="M814.135 646.589H725.893C725.389 646.589 724.93 646.268 724.793 645.764L704.44 579.983C704.348 579.617 704.394 579.25 704.623 578.975C704.852 578.7 705.173 578.517 705.54 578.517H814.089C814.731 578.517 815.235 579.021 815.235 579.663V645.443C815.281 646.085 814.777 646.589 814.135 646.589ZM726.764 644.297H812.989V580.809H707.098L726.764 644.297Z" fill="#00004B"/>
<path fill-rule="evenodd" clip-rule="evenodd" d="M48.5161 467.492L157.249 708.198H746.247L661.397 442.189C655.896 424.907 639.806 413.126 621.654 413.126H83.5837C62.314 413.126 45.0781 430.362 45.0781 451.632C45.0781 457.087 46.27 462.496 48.5161 467.492Z" fill="#FDEDE0"/>
<path d="M409.782 520.208C405.978 520.208 402.906 523.233 402.86 527.038C402.86 530.843 405.886 533.914 409.691 533.96C429.585 534.052 440.037 536.985 445.217 543.036C450.076 548.72 451.909 558.393 451.909 577.921C451.909 592.085 455.256 602.72 462.361 609.504C469.695 616.472 480.147 618.626 493.211 616.426C496.97 615.784 499.491 612.255 498.849 608.496C498.208 604.737 494.678 602.216 490.919 602.858C481.797 604.416 475.609 603.133 471.85 599.557C467.862 595.752 465.661 588.647 465.661 577.921C465.661 567.24 465.157 559.493 463.919 552.984C462.452 545.145 459.84 539.002 455.622 534.098C447.234 524.196 433.298 520.3 409.782 520.208Z" fill="#F96A00"/>
<path d="M483.951 618.398C474.737 618.398 467.22 615.693 461.581 610.33C454.293 603.408 450.763 592.773 450.763 577.921C450.763 558.76 448.975 549.179 444.345 543.816C439.257 537.903 428.576 535.244 409.645 535.107C405.244 535.061 401.623 531.485 401.668 527.039C401.714 522.638 405.29 519.062 409.69 519.062H409.736C434.031 519.2 448.013 523.463 456.493 533.365C460.71 538.269 463.507 544.595 465.065 552.755C466.303 559.218 466.807 566.736 466.807 577.921C466.807 588.052 468.778 595.065 472.629 598.732C476.25 602.216 482.209 603.179 490.735 601.758C492.844 601.391 494.953 601.895 496.741 603.133C498.528 604.371 499.628 606.204 499.995 608.313C500.362 610.422 499.858 612.53 498.62 614.318C497.382 616.106 495.549 617.206 493.44 617.573C490.094 618.123 486.931 618.398 483.951 618.398ZM409.736 521.355C406.573 521.355 404.006 523.922 404.006 527.039C404.006 530.202 406.527 532.769 409.69 532.815C429.585 532.906 440.495 535.748 446.087 542.303C451.176 548.217 453.055 557.889 453.055 577.921C453.055 592.131 456.356 602.216 463.14 608.68C470.062 615.281 480.101 617.481 493.027 615.281C494.54 615.006 495.87 614.181 496.741 612.943C497.611 611.705 497.978 610.192 497.703 608.68C497.428 607.167 496.603 605.838 495.365 604.967C494.128 604.096 492.615 603.729 491.102 604.004C481.797 605.563 475.242 604.417 471.07 600.383C466.715 596.257 464.515 588.693 464.515 577.921C464.515 566.874 464.011 559.493 462.819 553.167C461.352 545.329 458.785 539.507 454.797 534.831C446.821 525.48 433.344 521.446 409.736 521.355Z" fill="#00004B"/>
<path fill-rule="evenodd" clip-rule="evenodd" d="M606.298 549.133L609.736 619.314C620.279 626.098 622.342 634.349 615.924 644.113L581.636 644.022V604.232C581.636 601.62 579.527 599.511 576.914 599.511C574.301 599.511 572.193 601.62 572.193 604.232V621.652C579.252 626.602 580.994 634.074 577.464 644.022L542.855 644.388H477.533V607.579C477.533 591.122 486.334 575.949 500.636 567.79L533.183 549.133H606.298Z" fill="#F96A00"/>
<path d="M477.441 645.535C476.8 645.535 476.295 645.031 476.295 644.389V607.579C476.295 590.756 485.372 575.125 499.995 566.782L532.633 548.171C532.816 548.079 532.999 548.033 533.183 548.033H606.298C606.894 548.033 607.398 548.492 607.444 549.133L610.836 618.718C616.199 622.294 619.408 626.374 620.37 630.82C621.287 635.129 620.095 639.805 616.841 644.801C616.612 645.122 616.291 645.306 615.878 645.306L581.59 645.214C580.948 645.214 580.444 644.71 580.444 644.068V604.233C580.444 602.262 578.839 600.658 576.868 600.658C574.897 600.658 573.293 602.262 573.293 604.233V621.056C580.352 626.328 582.14 634.167 578.519 644.389C578.381 644.847 577.923 645.168 577.464 645.168L542.855 645.535H477.441ZM478.587 643.243H542.763L576.547 642.922C579.573 633.8 577.877 627.153 571.413 622.615C571.092 622.386 570.909 622.065 570.909 621.698V604.279C570.909 601.024 573.568 598.411 576.777 598.411C579.985 598.411 582.644 601.07 582.644 604.279V642.922L615.191 642.968C617.849 638.751 618.812 634.808 618.033 631.279C617.208 627.291 614.136 623.623 609.002 620.323C608.681 620.14 608.498 619.773 608.498 619.406L605.106 550.325H533.366L501.003 568.799C487.114 576.729 478.45 591.627 478.45 607.625V643.243H478.587Z" fill="#00004B"/>
<path d="M555.369 624.769C555.049 624.769 554.773 624.632 554.544 624.403C554.132 623.944 554.132 623.211 554.59 622.798C559.77 617.985 565.683 617.297 572.193 620.644C572.743 620.919 572.972 621.606 572.697 622.202C572.422 622.752 571.734 622.982 571.138 622.707C565.5 619.773 560.595 620.369 556.149 624.494C555.919 624.678 555.644 624.769 555.369 624.769Z" fill="#00004B"/>
<path d="M593.875 622.477C593.554 622.477 593.279 622.34 593.05 622.111C592.638 621.652 592.638 620.919 593.096 620.506C598.276 615.693 604.189 615.005 610.699 618.352C611.249 618.627 611.478 619.314 611.203 619.91C610.928 620.46 610.24 620.69 609.644 620.415C604.006 617.481 599.101 618.077 594.655 622.202C594.425 622.386 594.15 622.477 593.875 622.477Z" fill="#00004B"/>
<path fill-rule="evenodd" clip-rule="evenodd" d="M608.04 556.696C605.29 569.807 597.222 577.416 583.882 579.616L588.925 561.234L608.04 556.696Z" fill="#00004B"/>
<path fill-rule="evenodd" clip-rule="evenodd" d="M573.477 581.359C544.827 582.551 525.62 575.079 515.902 558.897L571.23 564.719L573.477 581.359Z" fill="#00004B"/>
<path fill-rule="evenodd" clip-rule="evenodd" d="M546.66 479.961C528.874 466.713 517.277 462.175 511.822 466.438C503.662 472.809 511.822 500.864 511.822 500.864C511.822 500.864 523.419 493.85 546.66 479.961Z" fill="#F5E900"/>
<path fill-rule="evenodd" clip-rule="evenodd" d="M577.373 479.961C595.205 466.713 606.802 462.175 612.257 466.438C620.417 472.809 612.257 500.864 612.257 500.864C612.257 500.864 600.66 493.85 577.373 479.961Z" fill="#F5E900"/>
<path d="M511.821 501.964C511.684 501.964 511.546 501.918 511.409 501.872C511.088 501.735 510.813 501.46 510.721 501.139C510.4 499.947 502.424 472.259 511.134 465.521C517.093 460.891 528.965 465.292 547.393 479.044C547.714 479.273 547.852 479.64 547.852 480.006C547.852 480.373 547.622 480.74 547.301 480.923L512.417 501.826C512.234 501.918 512.005 501.964 511.821 501.964ZM516.818 466.025C514.847 466.025 513.472 466.529 512.509 467.309C506.641 471.847 510.217 490.55 512.509 499.076L544.597 479.823C530.066 469.188 521.677 466.025 516.818 466.025Z" fill="#00004B"/>
<path d="M612.258 501.964C612.074 501.964 611.845 501.918 611.662 501.78L576.823 480.923C576.502 480.74 576.273 480.373 576.273 480.006C576.273 479.64 576.411 479.273 576.732 479.044C595.159 465.292 606.986 460.891 612.945 465.521C621.655 472.259 613.679 499.993 613.358 501.139C613.266 501.46 612.991 501.735 612.67 501.872C612.533 501.964 612.395 501.964 612.258 501.964ZM579.436 479.823L611.524 499.076C613.816 490.595 617.346 471.847 611.524 467.309C608.224 464.742 599.927 464.833 579.436 479.823Z" fill="#00004B"/>
<path d="M560.458 476.34C526.407 476.34 498.804 498.3 498.804 525.389C498.804 552.478 526.407 574.437 560.458 574.437C594.509 574.437 622.113 552.478 622.113 525.389C622.113 498.3 594.509 476.34 560.458 476.34Z" fill="#F96A00"/>
<path d="M560.458 575.583C525.849 575.583 497.657 553.076 497.657 525.388C497.657 497.701 525.849 475.193 560.458 475.193C595.067 475.193 623.259 497.701 623.259 525.388C623.259 553.076 595.067 575.583 560.458 575.583ZM560.458 477.485C527.086 477.485 499.949 498.984 499.949 525.388C499.949 551.792 527.086 573.291 560.458 573.291C593.83 573.291 620.967 551.792 620.967 525.388C620.967 498.984 593.83 477.485 560.458 477.485Z" fill="#00004B"/>
<path d="M571.459 530.064C569.305 530.064 567.242 529.376 565.225 528.001C564.721 527.634 564.583 526.947 564.904 526.396C565.271 525.892 565.959 525.755 566.509 526.076C569.763 528.276 573.11 528.276 576.777 526.03C577.327 525.709 578.015 525.892 578.335 526.396C578.656 526.947 578.473 527.634 577.969 527.955C575.768 529.376 573.568 530.064 571.459 530.064Z" fill="#00004B"/>
<path fill-rule="evenodd" clip-rule="evenodd" d="M580.124 509.894C578.107 506.868 565.363 506.639 563.209 509.894C561.054 513.149 567.426 520.254 571.643 520.254C575.861 520.254 582.141 512.919 580.124 509.894Z" fill="#00004B"/>
<path d="M551.065 516.705C550.973 516.705 550.881 516.705 550.835 516.659L532.912 512.809C532.316 512.671 531.904 512.075 532.041 511.434C532.179 510.838 532.775 510.425 533.416 510.563L551.294 514.459C551.89 514.597 552.302 515.193 552.165 515.834C552.073 516.339 551.615 516.705 551.065 516.705Z" fill="#00004B"/>
<path d="M533.141 525.919C532.545 525.919 532.041 525.461 531.995 524.865C531.949 524.223 532.408 523.673 533.05 523.627L550.973 522.206C551.615 522.16 552.165 522.619 552.211 523.261C552.257 523.902 551.798 524.452 551.156 524.498L533.233 525.919C533.233 525.919 533.187 525.919 533.141 525.919Z" fill="#00004B"/>
<path d="M597.34 516.705C596.79 516.705 596.331 516.339 596.239 515.788C596.102 515.193 596.514 514.551 597.11 514.413L615.034 510.563C615.676 510.425 616.272 510.838 616.409 511.434C616.547 512.03 616.134 512.671 615.538 512.809L597.569 516.705C597.477 516.705 597.431 516.705 597.34 516.705Z" fill="#00004B"/>
<path d="M615.263 525.919C615.217 525.919 615.217 525.919 615.171 525.919L597.248 524.498C596.606 524.452 596.148 523.902 596.194 523.261C596.239 522.619 596.79 522.16 597.431 522.206L615.309 523.627C615.951 523.673 616.409 524.223 616.363 524.865C616.317 525.461 615.813 525.919 615.263 525.919Z" fill="#00004B"/>
<path d="M578.335 587.735C570.36 587.735 563.895 581.27 563.895 573.295C563.895 565.32 570.36 558.855 578.335 558.855C586.31 558.855 592.774 565.32 592.774 573.295C592.774 581.27 586.31 587.735 578.335 587.735Z" fill="#F5E900"/>
<path d="M578.335 588.88C569.763 588.88 562.75 581.867 562.75 573.295C562.75 564.723 569.763 557.709 578.335 557.709C586.907 557.709 593.921 564.723 593.921 573.295C593.921 581.867 586.907 588.88 578.335 588.88ZM578.335 560.001C571.001 560.001 565.042 565.96 565.042 573.295C565.042 580.629 571.001 586.588 578.335 586.588C585.67 586.588 591.629 580.629 591.629 573.295C591.629 565.96 585.67 560.001 578.335 560.001Z" fill="#00004B"/>
<path d="M538.455 645.351C538.363 645.351 538.225 645.351 538.134 645.305C537.538 645.122 537.171 644.48 537.4 643.884C539.051 638.612 538.867 634.441 536.942 631.461C534.787 628.207 530.341 626.19 523.694 625.502C523.098 625.456 522.64 624.906 522.686 624.31C523.282 606.479 514.297 597.081 495.136 595.614C494.494 595.569 494.036 595.019 494.081 594.377C494.127 593.735 494.677 593.277 495.319 593.322C515.305 594.835 525.299 604.92 525.023 623.302C531.808 624.173 536.483 626.511 538.913 630.178C541.251 633.753 541.526 638.567 539.646 644.526C539.371 645.076 538.959 645.351 538.455 645.351Z" fill="#00004B"/>
<path d="M746.247 709.344H157.249C156.791 709.344 156.378 709.069 156.195 708.656L47.4623 467.95C45.1245 462.77 43.9326 457.315 43.9326 451.631C43.9326 429.765 61.7185 411.979 83.5842 411.979H621.654C640.403 411.979 656.813 423.99 662.498 441.821L747.347 707.831C747.439 708.198 747.393 708.564 747.164 708.839C746.935 709.16 746.614 709.344 746.247 709.344ZM157.983 707.052H744.689L660.343 442.555C654.934 425.64 639.44 414.317 621.7 414.317H83.5842C63.0021 414.317 46.2246 431.095 46.2246 451.677C46.2246 456.994 47.3248 462.174 49.5251 467.079L157.983 707.052Z" fill="#00004B"/>
<path d="M209.873 703.981C209.46 703.981 209.048 703.752 208.818 703.339L76.2034 421.377C75.9283 420.827 76.1575 420.14 76.7534 419.864C77.3494 419.589 77.9911 419.819 78.2662 420.415L210.927 702.331C211.202 702.881 210.973 703.568 210.377 703.843C210.194 703.935 210.056 703.981 209.873 703.981Z" fill="#00004B"/>
<path fill-rule="evenodd" clip-rule="evenodd" d="M47.416 579.662H212.944C229.08 579.662 243.703 589.288 250.029 604.141L289.818 697.196H731.624L750.648 603.178C753.398 589.518 765.454 579.662 779.389 579.662H801.484C821.47 579.662 837.698 595.889 837.698 615.876C837.698 617.48 837.606 619.039 837.377 620.643L820.462 748.491C818.399 764.214 804.968 775.949 789.107 775.949H97.6567C80.6959 775.949 65.7062 764.81 60.8013 748.583L20.6455 615.692C16.199 600.932 24.5419 585.3 39.3024 580.854C41.9152 580.075 44.6656 579.662 47.416 579.662Z" fill="#FDEDE0"/>
<path d="M789.153 777.095H97.6568C89.0847 777.095 80.9252 774.391 74.0033 769.303C67.0815 764.214 62.1766 757.155 59.7012 748.95L19.5454 616.06C14.9156 600.703 23.6252 584.43 38.9816 579.754C41.732 578.929 44.5282 578.517 47.4161 578.517H212.944C229.584 578.517 244.574 588.418 251.083 603.683L290.551 696.05H730.661L749.502 602.949C752.389 588.785 764.95 578.517 779.389 578.517H801.484C822.066 578.517 838.844 595.294 838.844 615.876C838.844 617.526 838.752 619.177 838.523 620.781L821.608 748.629C819.499 764.856 805.518 777.095 789.153 777.095ZM47.4161 580.809C44.8032 580.809 42.1904 581.175 39.6692 581.955C25.5046 586.218 17.4826 601.207 21.7457 615.372L61.9016 748.216C66.7148 764.077 81.0627 774.758 97.6568 774.758H789.153C804.372 774.758 817.391 763.389 819.362 748.262L836.277 620.414C836.46 618.902 836.598 617.343 836.598 615.83C836.598 596.486 820.874 580.763 801.53 580.763H779.389C766.05 580.763 754.406 590.252 751.748 603.362L732.724 697.38C732.632 697.93 732.128 698.297 731.578 698.297H289.818C289.36 698.297 288.947 698.021 288.764 697.609L248.975 604.554C242.786 590.114 228.667 580.763 212.944 580.763H47.4161V580.809Z" fill="#00004B"/>
<path fill-rule="evenodd" clip-rule="evenodd" d="M122.594 775.949V835.45C122.594 837.971 124.657 840.034 127.178 840.034C129.011 840.034 130.616 838.979 131.349 837.283L158.441 775.949H122.594Z" fill="#FDEDE0"/>
<path fill-rule="evenodd" clip-rule="evenodd" d="M228.025 775.949V835.45C228.025 837.971 230.088 840.034 232.609 840.034C234.443 840.034 236.047 838.979 236.781 837.283L263.872 775.949H228.025Z" fill="#FDEDE0"/>
<path fill-rule="evenodd" clip-rule="evenodd" d="M777.327 775.949V835.45C777.327 837.971 775.265 840.034 772.743 840.034C770.91 840.034 769.305 838.979 768.572 837.283L741.48 775.949H777.327Z" fill="#FDEDE0"/>
<path d="M127.177 841.18C124.014 841.18 121.447 838.613 121.447 835.45V775.95C121.447 775.308 121.952 774.804 122.593 774.804H158.486C158.853 774.804 159.219 774.987 159.449 775.308C159.678 775.629 159.678 776.041 159.54 776.408L132.449 837.742C131.486 839.805 129.469 841.18 127.177 841.18ZM123.739 777.096V835.45C123.739 837.329 125.298 838.888 127.177 838.888C128.552 838.888 129.79 838.063 130.34 836.825L156.744 777.096H123.739Z" fill="#00004B"/>
<path d="M232.61 841.18C229.447 841.18 226.88 838.613 226.88 835.45V775.95C226.88 775.308 227.384 774.804 228.026 774.804H263.919C264.285 774.804 264.652 774.987 264.881 775.308C265.11 775.629 265.11 776.041 264.973 776.408L237.881 837.742C236.919 839.805 234.902 841.18 232.61 841.18ZM229.172 777.096V835.45C229.172 837.329 230.73 838.888 232.61 838.888C233.985 838.888 235.223 838.063 235.773 836.825L262.177 777.096H229.172Z" fill="#00004B"/>
<path d="M772.743 841.18C770.497 841.18 768.434 839.851 767.517 837.742L740.426 776.408C740.288 776.041 740.288 775.629 740.518 775.308C740.747 774.987 741.068 774.804 741.48 774.804H777.373C778.015 774.804 778.519 775.308 778.519 775.95V835.45C778.473 838.613 775.906 841.18 772.743 841.18ZM743.176 777.096L769.58 836.825C770.13 838.063 771.368 838.888 772.743 838.888C774.623 838.888 776.181 837.329 776.181 835.45V777.096H743.176Z" fill="#00004B"/>
<path fill-rule="evenodd" clip-rule="evenodd" d="M267.311 645.443H741.434L731.624 697.197H289.818L267.311 645.443Z" fill="#FDEDE0"/>
<path d="M731.624 698.342H289.818C289.359 698.342 288.947 698.067 288.763 697.655L266.302 645.901C266.164 645.535 266.164 645.122 266.394 644.801C266.623 644.48 266.944 644.297 267.356 644.297H741.479C741.8 644.297 742.167 644.434 742.35 644.709C742.579 644.984 742.671 645.305 742.579 645.672L732.77 697.425C732.632 697.975 732.174 698.342 731.624 698.342ZM290.551 696.05H730.661L740.058 646.589H269.052L290.551 696.05Z" fill="#00004B"/>
<path fill-rule="evenodd" clip-rule="evenodd" d="M202.964 514.891C210.528 531.485 221.85 556.422 236.978 589.61L365.513 584.155L361.983 411.384L312.339 422.477C263.152 425.915 238.536 427.611 238.536 427.611C238.536 427.611 202.414 434.671 175.781 455.253L202.964 514.891Z" fill="#06B8FF"/>
<path d="M236.978 590.756C236.52 590.756 236.107 590.481 235.924 590.069L202.69 515.991C202.415 515.395 202.69 514.754 203.286 514.478C203.882 514.203 204.523 514.478 204.798 515.074L237.711 588.418L364.322 583.009L360.838 412.76L312.568 423.532C312.522 423.532 312.476 423.532 312.385 423.578L238.674 428.712C236.886 429.079 202.873 436.367 177.34 456.124C176.836 456.491 176.102 456.399 175.736 455.895C175.369 455.391 175.461 454.657 175.965 454.291C202.506 433.8 237.941 426.512 238.307 426.466C238.353 426.466 238.399 426.466 238.445 426.466L312.156 421.332L361.709 410.284C362.03 410.192 362.396 410.284 362.671 410.513C362.946 410.743 363.084 411.063 363.13 411.384L366.659 584.155C366.659 584.797 366.201 585.301 365.559 585.301L237.07 590.756C237.024 590.756 237.024 590.756 236.978 590.756Z" fill="#581B46"/>
<path fill-rule="evenodd" clip-rule="evenodd" d="M251.509 382.367V422.477L238.49 427.611C249.446 436.183 261.777 440.446 275.391 440.446C289.006 440.446 301.291 434.441 312.293 422.477L295.653 420.002L288.593 382.367H251.509Z" fill="#FEF3F4"/>
<path d="M275.391 441.547C261.593 441.547 248.941 437.146 237.802 428.483C237.481 428.208 237.298 427.841 237.39 427.428C237.436 427.016 237.711 426.695 238.123 426.512L250.408 421.653V382.368C250.408 381.726 250.913 381.222 251.554 381.222H288.639C289.189 381.222 289.647 381.634 289.785 382.138L296.707 418.994L312.522 421.332C312.934 421.378 313.301 421.698 313.438 422.065C313.576 422.478 313.484 422.89 313.209 423.211C302.024 435.405 289.327 441.547 275.391 441.547ZM240.828 427.887C251.142 435.45 262.785 439.255 275.391 439.255C287.997 439.255 299.641 433.892 309.955 423.257L295.515 421.102C295.011 421.011 294.644 420.644 294.552 420.186L287.63 383.468H252.609V422.432C252.609 422.89 252.334 423.303 251.875 423.486L240.828 427.887Z" fill="#581B46"/>
<path fill-rule="evenodd" clip-rule="evenodd" d="M290.473 396.577L292.536 407.67L269.937 398.823L290.473 396.577Z" fill="#581B46"/>
<path d="M516.43 358.319C519.852 353.608 513.412 343.094 502.045 334.835C490.678 326.576 478.688 323.699 475.266 328.41C471.843 333.121 478.283 343.635 489.65 351.894C501.017 360.153 513.007 363.029 516.43 358.319Z" fill="#581B46"/>
<path fill-rule="evenodd" clip-rule="evenodd" d="M474.827 340.651C482.299 325.799 487.479 316.677 490.459 313.285C494.859 308.196 522.913 301.091 527.727 303.704C532.54 306.317 521.355 315.164 509.391 316.769C515.029 316.906 517.504 319.427 516.817 324.24C521.263 326.67 522.547 329.97 520.621 334.05C524.197 336.296 524.334 339.368 521.034 343.264C517.733 347.16 511.132 352.707 501.323 359.858C494.768 357.52 489.954 355.228 486.883 352.982C483.812 350.736 479.824 346.656 474.827 340.651Z" fill="#FEF3F4"/>
<path d="M505.723 332.492C504.44 332.492 503.248 331.897 502.423 330.888C501.322 329.513 501.002 327.404 501.552 325.066C501.689 324.47 502.331 324.058 502.927 324.195C503.523 324.333 503.935 324.975 503.798 325.571C503.385 327.221 503.569 328.596 504.21 329.421C504.577 329.88 505.127 330.155 505.723 330.155C505.998 330.155 507.786 329.834 515.258 323.049C515.716 322.637 516.45 322.683 516.862 323.141C517.275 323.599 517.229 324.333 516.77 324.745C509.299 331.576 507.007 332.492 505.723 332.492Z" fill="#581B46"/>
<path d="M510.307 342.576C509.024 342.576 507.832 341.981 507.007 340.972C505.906 339.597 505.586 337.488 506.136 335.15C506.273 334.554 506.915 334.142 507.511 334.279C508.107 334.417 508.519 335.059 508.382 335.655C507.969 337.305 508.153 338.68 508.794 339.505C509.161 339.964 509.711 340.239 510.307 340.239C510.582 340.239 512.37 339.918 519.842 333.133C520.3 332.721 521.034 332.767 521.446 333.225C521.859 333.683 521.813 334.417 521.354 334.829C513.883 341.66 511.591 342.576 510.307 342.576Z" fill="#581B46"/>
<path d="M511.682 349.911C510.399 349.911 509.207 349.315 508.382 348.307C507.281 346.932 506.961 344.823 507.511 342.485C507.648 341.889 508.29 341.477 508.886 341.614C509.482 341.752 509.894 342.394 509.757 342.99C509.344 344.64 509.528 346.015 510.169 346.84C510.536 347.299 511.086 347.574 511.682 347.574C511.957 347.574 513.745 347.253 521.217 340.468C521.675 340.056 522.409 340.102 522.821 340.56C523.234 341.018 523.188 341.752 522.729 342.164C515.258 348.995 512.966 349.911 511.682 349.911Z" fill="#581B46"/>
<path d="M501.368 361.05C501.231 361.05 501.093 361.05 501.002 361.005C494.401 358.621 489.404 356.283 486.287 353.991C483.078 351.653 478.952 347.436 473.956 341.385C473.681 341.018 473.589 340.56 473.818 340.147C481.382 325.066 486.562 316.036 489.587 312.552C494.309 307.051 522.867 299.808 528.276 302.696C529.606 303.43 530.202 304.621 529.972 306.042C529.285 309.801 522.271 314.523 514.708 316.815C515.487 317.227 516.129 317.732 516.633 318.328C517.779 319.657 518.237 321.445 518.054 323.645C523.142 326.716 523.188 330.658 522.088 333.684C523.509 334.784 524.334 336.022 524.563 337.489C524.884 339.46 524.013 341.706 521.95 344.09C518.604 348.032 511.911 353.716 502.056 360.913C501.827 360.959 501.597 361.05 501.368 361.05ZM476.202 340.514C480.878 346.107 484.728 350.003 487.616 352.112C490.504 354.22 495.088 356.421 501.185 358.621C510.628 351.699 517 346.29 520.163 342.531C521.767 340.652 522.455 339.047 522.225 337.764C522.088 336.755 521.354 335.838 519.979 335.013C519.475 334.692 519.292 334.096 519.567 333.546C521.217 330.017 520.163 327.358 516.22 325.204C515.808 324.974 515.579 324.516 515.624 324.058C515.9 322.178 515.624 320.711 514.799 319.749C513.837 318.603 511.957 317.961 509.299 317.915C508.703 317.915 508.198 317.411 508.198 316.815C508.198 316.219 508.611 315.715 509.207 315.623C518.467 314.339 527.13 308.564 527.68 305.584C527.726 305.309 527.726 304.988 527.176 304.667C523.234 302.559 495.684 308.976 491.283 313.973C488.487 317.273 483.399 326.212 476.202 340.514Z" fill="#581B46"/>
<path fill-rule="evenodd" clip-rule="evenodd" d="M493.438 324.836C500.039 322.406 505.128 322.131 508.795 324.011C514.296 326.853 509.207 334.142 498.939 334.142C497.014 339.596 493.897 342.393 489.496 342.484L493.438 324.836Z" fill="#FEF3F4"/>
<path d="M489.496 343.631C488.854 343.631 488.35 343.127 488.35 342.531C488.35 341.889 488.854 341.385 489.45 341.385C493.346 341.293 496.051 338.818 497.838 333.821C498.022 333.363 498.434 333.042 498.939 333.042C505.585 333.042 509.298 329.971 509.849 327.77C510.124 326.67 509.619 325.753 508.29 325.066C504.944 323.324 500.085 323.645 493.85 325.937C493.254 326.166 492.613 325.845 492.384 325.249C492.154 324.653 492.475 324.012 493.071 323.782C499.947 321.261 505.402 320.986 509.344 323.003C511.59 324.149 512.599 326.12 512.095 328.275C511.315 331.575 506.731 335.059 499.764 335.288C497.609 340.743 494.171 343.539 489.496 343.631Z" fill="#581B46"/>
<path fill-rule="evenodd" clip-rule="evenodd" d="M301.185 343.403C308.566 328.001 309.482 314.845 303.936 303.935C295.639 287.57 265.293 293.208 262.863 306.64C247.094 304.943 238.522 310.215 237.101 322.454C217.757 331.76 211.064 344.962 217.023 362.106C222.982 379.25 237.514 389.014 260.571 391.535L301.185 343.403Z" fill="#581B46"/>
<path fill-rule="evenodd" clip-rule="evenodd" d="M299.535 335.336C303.431 353.167 304.669 367.699 303.294 378.929C301.185 395.753 275.148 410.559 250.578 385.393C240.401 383.009 235.222 378.15 235.084 370.816C234.855 359.814 247.919 358.301 252.916 365.04L251.816 355.276C264.926 355.643 271.802 351.15 272.489 341.845C283.995 341.249 291.33 337.215 294.584 329.651L298.527 332.448L299.535 335.336Z" fill="#FEF3F4"/>
<path d="M254.2 375.033C254.016 375.033 253.787 374.987 253.604 374.895L245.307 370.082C244.757 369.761 244.573 369.074 244.894 368.524C245.215 367.974 245.903 367.79 246.453 368.111L254.796 372.924C255.346 373.245 255.529 373.933 255.208 374.483C254.979 374.85 254.612 375.033 254.2 375.033Z" fill="#581B46"/>
<path d="M278.174 400.016C268.639 400.016 258.737 395.34 249.982 386.447C239.485 383.926 234.075 378.654 233.938 370.816C233.846 365.819 236.367 361.923 240.722 360.456C244.344 359.218 248.423 359.906 251.403 362.014L250.67 355.413C250.624 355.092 250.761 354.772 250.945 354.497C251.174 354.267 251.495 354.13 251.816 354.13C264.284 354.451 270.702 350.417 271.343 341.753C271.389 341.157 271.848 340.745 272.444 340.699C283.583 340.149 290.459 336.39 293.53 329.193C293.667 328.872 293.943 328.643 294.263 328.551C294.584 328.459 294.951 328.505 295.226 328.734L299.168 331.531C299.352 331.668 299.489 331.852 299.581 332.081L300.635 334.969C300.635 335.015 300.681 335.06 300.681 335.106C304.577 352.984 305.861 367.79 304.44 379.113C303.386 387.639 296.464 395.478 287.296 398.549C284.316 399.557 281.245 400.016 278.174 400.016ZM244.527 362.152C243.519 362.152 242.464 362.335 241.456 362.656C238.064 363.802 236.138 366.782 236.23 370.816C236.367 377.646 241.135 382.046 250.853 384.293C251.082 384.338 251.265 384.43 251.403 384.613C262.405 395.89 275.24 400.153 286.562 396.348C294.951 393.552 301.185 386.493 302.194 378.792C303.569 367.744 302.331 353.259 298.481 335.656L297.61 333.135L295.089 331.347C291.513 338.269 284.316 342.166 273.59 342.899C272.489 351.884 265.659 356.422 253.237 356.422C253.191 356.422 253.191 356.422 253.145 356.422L254.108 364.902C254.153 365.406 253.878 365.911 253.374 366.094C252.916 366.277 252.366 366.14 252.045 365.727C250.303 363.435 247.415 362.152 244.527 362.152Z" fill="#581B46"/>
<path fill-rule="evenodd" clip-rule="evenodd" d="M359.05 413.126L412.453 401.299L475.116 329.01C476.308 337.811 481.076 345.42 489.51 351.838C497.945 358.256 506.563 360.823 515.501 359.448L452.426 436C446.329 443.426 438.078 448.698 428.772 451.173L358.041 469.922L359.05 413.126Z" fill="#06B8FF"/>
<path d="M361.937 469.785C361.433 469.785 360.975 469.464 360.837 468.914C360.7 468.318 361.02 467.676 361.662 467.493L428.405 450.027C437.573 447.644 445.595 442.51 451.6 435.221L512.797 360.915C504.591 361.419 496.523 358.714 488.777 352.801C480.938 346.796 476.079 339.691 474.383 331.623L413.37 402.033C413.186 402.216 412.957 402.354 412.728 402.4L362.166 412.485C361.525 412.622 360.929 412.209 360.837 411.568C360.7 410.926 361.112 410.33 361.754 410.238L411.903 400.245L474.245 328.276C474.52 327.956 475.025 327.818 475.437 327.91C475.85 328.047 476.171 328.414 476.262 328.872C477.408 337.307 482.084 344.733 490.198 350.967C498.311 357.156 506.746 359.677 515.318 358.347C515.776 358.256 516.235 358.485 516.51 358.898C516.739 359.31 516.693 359.814 516.418 360.181L453.388 436.642C447.062 444.343 438.628 449.707 429.001 452.228L362.258 469.693C362.166 469.739 362.029 469.785 361.937 469.785Z" fill="#581B46"/>
<path fill-rule="evenodd" clip-rule="evenodd" d="M551.731 784.532V803.556L548.614 840.457H650.425C646.758 823.771 639.377 813.457 628.192 809.469C617.008 805.527 607.473 801.035 599.497 795.992V784.532H551.731Z" fill="#581B46"/>
<path fill-rule="evenodd" clip-rule="evenodd" d="M446.3 784.532V803.556L443.183 840.457H544.993C541.326 823.771 533.946 813.457 522.761 809.469C511.576 805.527 502.041 801.035 494.065 795.992V784.532H446.3Z" fill="#581B46"/>
<path fill-rule="evenodd" clip-rule="evenodd" d="M299.474 582.836L305.066 620.241C308.412 642.703 327.711 659.297 350.402 659.297H463.764L519.414 787.878H604.447L539.996 612.815C533.349 594.8 516.205 582.836 496.998 582.836H299.474Z" fill="white"/>
<path d="M604.493 789.025H519.46C519.002 789.025 518.589 788.75 518.406 788.337L463.077 660.444H350.402C339.171 660.444 328.261 656.41 319.735 649.075C311.209 641.741 305.616 631.564 303.92 620.425L298.328 583.02C298.282 582.699 298.374 582.332 298.603 582.103C298.832 581.828 299.153 581.69 299.474 581.69H496.998C516.572 581.69 534.312 594.067 541.096 612.449L605.593 787.512C605.731 787.879 605.685 788.245 605.456 788.566C605.227 788.841 604.86 789.025 604.493 789.025ZM520.193 786.733H602.843L538.942 613.228C532.479 595.717 515.655 583.982 496.998 583.982H300.803L306.212 620.104C309.513 642.153 328.124 658.152 350.402 658.152H463.764C464.223 658.152 464.635 658.427 464.819 658.839L520.193 786.733Z" fill="#581B46"/>
<path fill-rule="evenodd" clip-rule="evenodd" d="M230.714 582.836L236.306 620.241C239.653 642.703 258.951 659.297 281.642 659.297H395.004L423.15 787.878H508.183L468.486 618.224C463.627 597.505 445.153 582.836 423.838 582.836H230.714Z" fill="white"/>
<path d="M508.229 789.025H423.196C422.646 789.025 422.188 788.658 422.096 788.108L394.18 660.444H281.642C270.412 660.444 259.502 656.41 250.975 649.075C242.449 641.741 236.857 631.564 235.161 620.425L229.568 583.02C229.522 582.699 229.614 582.332 229.843 582.103C230.072 581.828 230.393 581.69 230.714 581.69H423.838C434.381 581.69 444.741 585.312 453.038 591.867C461.289 598.422 467.203 607.682 469.586 617.95L509.33 787.604C509.421 787.925 509.33 788.291 509.1 788.566C508.917 788.887 508.596 789.025 508.229 789.025ZM424.113 786.733H506.808L467.386 618.5C462.619 598.193 444.741 583.982 423.884 583.982H232.043L237.453 620.104C240.753 642.153 259.364 658.152 281.642 658.152H395.005C395.555 658.152 396.013 658.518 396.105 659.068L424.113 786.733Z" fill="#581B46"/>
<path d="M269.479 590.481C277.074 590.481 283.231 578.578 283.231 563.894C283.231 549.21 277.074 537.307 269.479 537.307C261.884 537.307 255.727 549.21 255.727 563.894C255.727 578.578 261.884 590.481 269.479 590.481Z" fill="#581B46"/>
<path fill-rule="evenodd" clip-rule="evenodd" d="M261.984 541.655C283.315 538.836 296.465 538.034 301.4 539.279C308.784 541.162 328.994 555.62 328.556 559.876C328.243 562.712 321.384 561.526 307.949 556.284C309.383 560.346 308.131 563.133 304.133 564.572C305.271 567.926 303.583 570.479 299.07 572.231C300.608 575.847 298.928 578.694 293.952 580.894C288.977 583.094 281.841 583.576 272.629 582.51L254.815 582.318C251.918 576.013 250.833 569.443 251.661 562.585C252.359 555.715 255.863 548.766 261.984 541.655Z" fill="#FEF3F4"/>
<path d="M304.125 565.776C303.896 565.788 303.644 565.701 303.432 565.52C301.049 563.75 297.918 563.085 294.134 563.568C293.507 563.676 292.93 563.202 292.822 562.574C292.714 561.947 293.188 561.37 293.815 561.262C298.227 560.672 301.928 561.516 304.828 563.69C305.317 564.058 305.448 564.785 305.045 565.303C304.823 565.609 304.483 565.775 304.125 565.776Z" fill="#581B46"/>
<path d="M308.435 557.791C308.206 557.803 307.953 557.716 307.741 557.535C305.364 555.7 302.234 555.035 298.444 555.582C297.816 555.69 297.239 555.217 297.132 554.589C297.024 553.961 297.497 553.385 298.125 553.277C302.537 552.687 306.237 553.531 309.138 555.705C309.626 556.073 309.758 556.8 309.355 557.318C309.098 557.653 308.763 557.754 308.435 557.791Z" fill="#581B46"/>
<path d="M299.549 573.444C299.32 573.456 299.068 573.369 298.856 573.188C296.478 571.353 293.348 570.689 289.558 571.236C288.93 571.344 288.354 570.87 288.246 570.242C288.138 569.615 288.612 569.038 289.239 568.93C293.68 568.375 297.381 569.22 300.282 571.393C300.77 571.761 300.902 572.488 300.498 573.006C300.277 573.312 299.907 573.443 299.549 573.444Z" fill="#581B46"/>
<path d="M255.57 585.215C255.212 585.216 254.9 585.059 254.665 584.778C249.548 578.181 247.679 570.533 249.165 562.106C250.609 553.773 254.206 546.506 259.867 540.559C260.049 540.347 260.318 540.24 260.582 540.198C283.135 537.551 296.632 536.877 301.725 538.169C305.86 539.247 313.206 543.794 318.614 547.813C323.839 551.687 330.049 556.948 329.713 560.043C329.61 560.847 329.19 561.559 328.469 561.984C326.888 562.952 323.274 563.351 309.604 558.186C310.038 561.412 308.655 563.829 305.532 565.313C306.033 567.765 305.286 570.725 300.54 572.913C301.038 574.649 300.833 576.257 299.987 577.745C298.994 579.416 297.18 580.819 294.443 581.978C289.338 584.167 281.998 584.761 272.656 583.684L255.734 585.197C255.635 585.221 255.57 585.215 255.57 585.215ZM261.23 542.468C256.06 548.002 252.767 554.775 251.408 562.497C250.095 570.062 251.645 576.9 256.102 582.854L272.501 581.36C272.566 581.366 272.666 581.342 272.73 581.348C281.749 582.397 288.726 581.868 293.491 579.845C295.723 578.869 297.252 577.766 297.975 576.561C298.658 575.449 298.636 574.211 298.015 572.757C297.879 572.452 297.872 572.159 297.995 571.877C298.117 571.595 298.333 571.353 298.632 571.282C303.82 569.263 303.647 566.775 303.048 565.063C302.841 564.459 303.156 563.836 303.73 563.594C307.124 562.361 308.091 560.233 306.865 556.775C306.705 556.37 306.844 555.894 307.166 555.565C307.487 555.235 307.951 555.145 308.392 555.314C323.055 561.022 326.516 560.511 327.306 560.027C327.412 559.939 327.447 559.909 327.458 559.78C327.777 556.88 309.093 542.458 301.169 540.43C296.393 539.232 282.961 539.911 261.23 542.468Z" fill="#581B46"/>
<path fill-rule="evenodd" clip-rule="evenodd" d="M177.568 455.207C139.109 505.998 119.031 540.378 120.864 558.393C123.615 585.393 120.864 601.116 265.49 589.977C259.943 583.926 257.147 575.216 257.147 563.894C257.147 552.571 260.86 543.77 268.24 537.49H193.521L204.522 513.745L177.568 455.207Z" fill="#06B8FF"/>
<path d="M189.487 594.698C167.117 594.698 151.486 593.14 141.172 590.068C122.194 584.384 121.14 573.429 119.948 560.777C119.856 560.043 119.811 559.264 119.719 558.531C118.756 549.271 123.019 536.206 132.646 518.512C141.951 501.46 156.024 480.511 175.735 454.474C176.102 453.97 176.835 453.878 177.34 454.245C177.844 454.611 177.936 455.345 177.569 455.849C138.422 507.602 120.269 541.066 121.965 558.256C122.057 559.035 122.103 559.768 122.194 560.548C123.432 573.383 124.303 582.642 141.814 587.868C160.746 593.552 198.197 593.919 263.106 588.968C258.385 582.826 255.955 574.391 255.955 563.894C255.955 553.442 259.072 544.962 265.307 538.636H193.475C193.109 538.636 192.742 538.453 192.513 538.132C192.284 537.811 192.284 537.398 192.421 537.032L202.231 514.112C202.46 513.516 203.148 513.241 203.744 513.516C204.339 513.745 204.615 514.432 204.339 515.028L195.217 536.344H268.24C268.699 536.344 269.157 536.665 269.295 537.077C269.432 537.49 269.341 538.04 268.974 538.361C261.869 544.366 258.247 552.984 258.247 563.894C258.247 574.85 260.952 583.376 266.269 589.198C266.544 589.518 266.636 589.977 266.499 590.389C266.315 590.802 265.948 591.077 265.536 591.123C234.273 593.506 209.244 594.698 189.487 594.698Z" fill="#581B46"/>
<path fill-rule="evenodd" clip-rule="evenodd" d="M215.066 734.694L174.223 624.678C167.805 607.396 176.606 588.189 193.888 581.772C197.601 580.397 201.543 579.663 205.486 579.663H223.18C241.562 579.663 258.156 590.619 265.353 607.534L319.536 734.694H215.066Z" fill="#FDEDE0"/>
<path d="M215.066 735.84C214.607 735.84 214.149 735.564 214.012 735.106L173.168 625.09C169.959 616.426 170.326 607.075 174.177 598.686C178.027 590.298 184.903 583.926 193.567 580.717C197.417 579.296 201.451 578.562 205.577 578.562H223.271C242.111 578.562 259.118 589.793 266.498 607.121L320.681 734.281C320.91 734.877 320.681 735.519 320.085 735.794C319.489 736.023 318.848 735.794 318.573 735.198L264.39 607.992C257.376 591.489 241.195 580.809 223.271 580.809H205.577C201.726 580.809 197.968 581.496 194.346 582.826C186.278 585.805 179.861 591.764 176.239 599.603C172.618 607.442 172.343 616.197 175.323 624.265L216.166 734.281C216.395 734.877 216.074 735.519 215.478 735.748C215.341 735.794 215.203 735.84 215.066 735.84Z" fill="#00004B"/>
<path fill-rule="evenodd" clip-rule="evenodd" d="M191.536 783.467H360.227C381.726 783.467 399.191 800.932 399.191 822.431V840.308H152.572V822.431C152.572 800.932 170.037 783.467 191.536 783.467Z" fill="#F96A00"/>
<path d="M400.337 841.455H151.426V822.431C151.426 800.336 169.441 782.321 191.536 782.321H360.227C382.322 782.321 400.337 800.336 400.337 822.431V841.455ZM153.718 839.163H398.045V822.431C398.045 801.574 381.084 784.613 360.227 784.613H191.536C170.679 784.613 153.718 801.574 153.718 822.431V839.163Z" fill="#00004B"/>
<path fill-rule="evenodd" clip-rule="evenodd" d="M152.572 811.888H243.335C259.013 811.888 271.756 824.631 271.756 840.308H152.572V811.888Z" fill="#F5E900"/>
<path d="M272.902 841.455H151.426V810.742H243.335C259.654 810.742 272.902 823.99 272.902 840.309V841.455ZM153.718 839.163H270.564C269.968 824.632 257.958 813.034 243.335 813.034H153.718V839.163Z" fill="#00004B"/>
<path fill-rule="evenodd" clip-rule="evenodd" d="M208.039 772.466H343.267C348.584 772.466 352.893 776.775 352.893 782.092V783.467H198.412V782.092C198.412 776.775 202.721 772.466 208.039 772.466Z" fill="#F5E900"/>
<path d="M354.038 784.613H197.266V782.092C197.266 776.133 202.079 771.319 208.038 771.319H343.266C349.225 771.319 354.038 776.133 354.038 782.092V784.613ZM199.558 782.321H351.746V782.092C351.746 777.416 347.942 773.611 343.266 773.611H208.038C203.362 773.611 199.558 777.416 199.558 782.092V782.321Z" fill="#00004B"/>
<path fill-rule="evenodd" clip-rule="evenodd" d="M357.706 816.472H379.709C382.368 816.472 384.522 818.626 384.522 821.285C384.522 823.944 382.368 826.098 379.709 826.098H357.706C355.047 826.098 352.893 823.944 352.893 821.285C352.893 818.626 355.047 816.472 357.706 816.472Z" fill="white"/>
<path d="M379.709 827.245H357.706C354.406 827.245 351.747 824.586 351.747 821.285C351.747 817.985 354.406 815.326 357.706 815.326H379.709C383.01 815.326 385.669 817.985 385.669 821.285C385.669 824.586 383.01 827.245 379.709 827.245ZM357.706 817.618C355.689 817.618 354.039 819.268 354.039 821.285C354.039 823.302 355.689 824.953 357.706 824.953H379.709C381.726 824.953 383.377 823.302 383.377 821.285C383.377 819.268 381.726 817.618 379.709 817.618H357.706Z" fill="#00004B"/>
<path d="M584.156 359.21H436.23C427.52 359.21 420.415 352.105 420.415 343.396C420.415 341.424 420.782 339.499 421.469 337.666L452.686 257.4C456.262 248.232 464.88 242.318 474.69 242.318H622.615C631.325 242.318 638.43 249.424 638.43 258.133C638.43 260.104 638.063 262.03 637.376 263.863L606.159 344.175C602.583 353.297 593.965 359.21 584.156 359.21ZM474.69 244.61C465.842 244.61 458.05 249.928 454.841 258.225L423.624 338.491C423.028 340.049 422.707 341.699 422.707 343.396C422.707 350.867 428.758 356.918 436.23 356.918H584.156C593.003 356.918 600.795 351.601 604.004 343.304L635.221 262.992C635.817 261.434 636.138 259.783 636.138 258.087C636.138 250.615 630.087 244.565 622.615 244.565H474.69V244.61Z" fill="#581B46"/>
<path fill-rule="evenodd" clip-rule="evenodd" d="M546.475 282.244H550.509C557.843 282.244 563.757 288.158 563.757 295.492C563.757 297.326 563.39 299.159 562.657 300.809C557.706 312.086 546.567 319.375 534.236 319.375H530.156C522.867 319.375 516.908 313.461 516.908 306.127C516.908 304.293 517.275 302.46 518.054 300.809C522.959 289.533 534.098 282.244 546.475 282.244Z" fill="#00C592"/>
<path d="M534.19 320.521H530.111C522.18 320.521 515.717 314.058 515.717 306.127C515.717 304.11 516.129 302.185 516.954 300.306C522.089 288.616 533.686 281.053 546.475 281.053H550.509C558.44 281.053 564.903 287.516 564.903 295.446C564.903 297.463 564.491 299.389 563.711 301.222C558.531 312.957 546.934 320.521 534.19 320.521ZM546.475 283.391C534.603 283.391 523.83 290.404 519.017 301.268C518.33 302.827 518.009 304.477 518.009 306.127C518.009 312.774 523.418 318.229 530.111 318.229H534.19C546.063 318.229 556.789 311.215 561.557 300.351C562.244 298.793 562.565 297.188 562.565 295.492C562.565 288.8 557.156 283.391 550.464 283.391H546.475Z" fill="#00004B"/>
<path fill-rule="evenodd" clip-rule="evenodd" d="M479.687 260.275H520.668C522.455 260.275 523.922 261.742 523.922 263.53C523.922 263.988 523.83 264.447 523.647 264.859C522.364 267.656 519.567 269.489 516.496 269.489H473.498C471.848 269.489 470.519 268.16 470.519 266.51C470.519 265.914 470.702 265.364 471.023 264.859C472.948 262.017 476.203 260.275 479.687 260.275Z" fill="#00B082"/>
<path d="M516.45 270.681H473.498C471.206 270.681 469.372 268.847 469.372 266.555C469.372 265.73 469.601 264.951 470.06 264.263C472.214 261.054 475.79 259.129 479.64 259.129H520.621C523.051 259.129 525.022 261.1 525.022 263.53C525.022 264.171 524.884 264.767 524.609 265.363C523.234 268.572 519.979 270.681 516.45 270.681ZM479.686 261.421C476.569 261.421 473.727 262.979 471.985 265.547C471.802 265.867 471.664 266.188 471.664 266.555C471.664 267.563 472.489 268.389 473.498 268.389H516.45C519.063 268.389 521.492 266.83 522.592 264.446C522.73 264.171 522.776 263.85 522.776 263.575C522.776 262.384 521.813 261.467 520.667 261.467H479.686V261.421Z" fill="black"/>
<path fill-rule="evenodd" clip-rule="evenodd" d="M470.977 277.695H479.87C481.657 277.695 483.124 279.162 483.124 280.95C483.124 281.408 483.033 281.867 482.849 282.279C481.566 285.076 478.769 286.909 475.698 286.909H464.788C463.138 286.909 461.809 285.58 461.809 283.93C461.809 283.334 461.992 282.784 462.313 282.279C464.238 279.437 467.493 277.695 470.977 277.695Z" fill="#F96A00"/>
<path d="M475.652 288.101H464.788C462.496 288.101 460.662 286.267 460.662 283.975C460.662 283.15 460.891 282.371 461.35 281.683C463.504 278.474 467.08 276.549 470.93 276.549H479.823C482.253 276.549 484.224 278.52 484.224 280.949C484.224 281.591 484.086 282.187 483.811 282.783C482.436 285.992 479.181 288.101 475.652 288.101ZM470.976 278.841C467.859 278.841 465.017 280.399 463.275 282.966C463.092 283.287 462.954 283.608 462.954 283.975C462.954 284.983 463.779 285.809 464.788 285.809H475.652C478.265 285.809 480.694 284.25 481.794 281.866C481.932 281.591 481.978 281.27 481.978 280.995C481.978 279.803 481.015 278.887 479.869 278.887H470.976V278.841Z" fill="black"/>
<path fill-rule="evenodd" clip-rule="evenodd" d="M754.783 531.535C715.315 582.83 693.907 664.792 690.607 777.558C666.77 789.064 653.843 805.567 651.918 827.066C649.993 848.565 694.87 852.644 786.642 839.351L788.2 560.735L754.783 531.535Z" fill="white"/>
<path d="M701.792 848.153C677.497 848.153 662.003 844.852 654.989 838.205C651.781 835.134 650.314 831.375 650.726 826.929C652.697 805.292 665.716 788.423 689.461 776.78C691.157 720.901 697.391 671.898 707.98 631.192C718.661 590.211 734.109 556.473 753.82 530.848C754.004 530.619 754.279 530.436 754.6 530.39C754.921 530.344 755.242 530.481 755.471 530.665L788.888 559.819C789.117 560.048 789.301 560.369 789.301 560.69L787.742 839.306C787.742 839.856 787.329 840.36 786.779 840.452C751.437 845.586 723.199 848.153 701.792 848.153ZM754.921 533.186C716.232 584.114 695.008 666.305 691.707 777.559C691.707 777.972 691.432 778.384 691.066 778.568C667.733 789.798 654.898 806.163 653.018 827.158C652.697 830.871 653.843 833.942 656.594 836.555C669.016 848.29 712.335 848.886 785.496 838.343L787.054 561.194L754.921 533.186Z" fill="#581B46"/>
<path d="M783.8 838.434C783.341 838.434 782.929 838.159 782.746 837.701C768.352 801.258 738.464 781.685 693.816 779.393C693.174 779.347 692.716 778.842 692.716 778.201C692.716 777.559 693.266 777.101 693.908 777.101C716.69 778.247 735.851 783.839 750.933 793.74C766.06 803.642 777.428 818.173 784.808 836.83C785.038 837.426 784.763 838.068 784.167 838.297C784.075 838.389 783.937 838.434 783.8 838.434Z" fill="#581B46"/>
<path d="M783.799 686.292C783.616 686.292 783.387 686.246 783.203 686.109L756.341 669.606C752.216 667.039 749.374 662.868 748.594 658.054L747.861 653.516C746.852 647.236 741.672 642.423 735.347 641.827L731.725 641.506C725.537 640.91 719.761 645.036 718.34 651.087V651.178C716.598 658.467 710.135 663.555 702.663 663.555C702.021 663.555 701.517 663.051 701.517 662.409C701.517 661.767 702.021 661.263 702.663 661.263C709.08 661.263 714.627 656.908 716.14 650.674V650.583C717.836 643.431 724.666 638.572 732 639.26L735.622 639.581C743.002 640.269 749.007 645.861 750.199 653.195L750.932 657.734C751.62 661.859 754.049 665.526 757.625 667.681L784.487 684.229C785.037 684.55 785.175 685.283 784.854 685.788C784.533 686.109 784.166 686.292 783.799 686.292Z" fill="#581B46"/>
<path d="M731.405 687.163C739.633 687.163 746.303 678.748 746.303 668.369C746.303 657.989 739.633 649.574 731.405 649.574C723.177 649.574 716.507 657.989 716.507 668.369C716.507 678.748 723.177 687.163 731.405 687.163Z" fill="#581B46"/>
<path d="M761.888 833.85C765.939 833.85 769.223 830.567 769.223 826.516C769.223 822.465 765.939 819.182 761.888 819.182C757.837 819.182 754.554 822.465 754.554 826.516C754.554 830.567 757.837 833.85 761.888 833.85Z" fill="#581B46"/>
<path fill-rule="evenodd" clip-rule="evenodd" d="M868.588 531.535C908.057 582.83 929.464 664.792 932.764 777.558C956.601 789.064 969.528 805.567 971.453 827.066C973.379 848.565 928.501 852.644 836.73 839.351L835.171 560.735L868.588 531.535Z" fill="white"/>
<path d="M921.579 848.152C900.172 848.152 871.934 845.585 836.592 840.451C836.042 840.359 835.629 839.901 835.629 839.305L834.025 560.69C834.025 560.369 834.162 560.048 834.437 559.819L867.855 530.664C868.084 530.435 868.405 530.344 868.726 530.389C869.046 530.435 869.321 530.573 869.505 530.848C889.262 556.472 904.664 590.256 915.345 631.192C925.98 671.897 932.214 720.9 933.864 776.779C957.655 788.423 970.674 805.292 972.645 826.928C973.012 831.329 971.59 835.134 968.336 838.205C961.368 844.852 945.874 848.152 921.579 848.152ZM837.875 838.342C911.036 848.886 954.4 848.29 966.777 836.555C969.528 833.988 970.674 830.916 970.353 827.158C968.473 806.163 955.638 789.844 932.306 778.567C931.939 778.384 931.664 778.017 931.664 777.559C928.409 666.305 907.139 584.114 868.45 533.186L836.362 561.194L837.875 838.342Z" fill="#581B46"/>
<path d="M839.571 838.435C839.434 838.435 839.296 838.389 839.159 838.343C838.563 838.114 838.288 837.426 838.517 836.876C845.897 818.219 857.265 803.734 872.393 793.786C887.474 783.885 906.681 778.292 929.418 777.146C930.059 777.101 930.609 777.605 930.609 778.247C930.655 778.888 930.151 779.438 929.509 779.438C884.861 781.685 854.973 801.304 840.625 837.701C840.488 838.16 840.03 838.435 839.571 838.435Z" fill="#581B46"/>
<path d="M839.571 686.291C839.204 686.291 838.792 686.107 838.608 685.741C838.287 685.191 838.425 684.503 838.975 684.182L865.837 667.634C869.413 665.434 871.842 661.812 872.53 657.687L873.263 653.149C874.455 645.814 880.46 640.222 887.84 639.534L891.462 639.213C898.796 638.526 905.58 643.385 907.322 650.536V650.627C908.835 656.862 914.382 661.216 920.799 661.216C921.441 661.216 921.945 661.721 921.945 662.362C921.945 663.004 921.441 663.508 920.799 663.508C913.327 663.508 906.864 658.42 905.122 651.132V651.04C903.655 644.989 897.925 640.863 891.737 641.459L888.115 641.78C881.789 642.376 876.61 647.189 875.601 653.469L874.868 658.008C874.088 662.821 871.246 666.992 867.121 669.559L840.258 686.107C839.983 686.245 839.8 686.291 839.571 686.291Z" fill="#581B46"/>
<path d="M891.966 649.573C883.738 649.573 877.068 657.988 877.068 668.368C877.068 678.748 883.738 687.162 891.966 687.162C900.194 687.162 906.864 678.748 906.864 668.368C906.864 657.988 900.194 649.573 891.966 649.573Z" fill="#581B46"/>
<path d="M861.483 833.85C857.432 833.85 854.149 830.567 854.149 826.516C854.149 822.465 857.432 819.182 861.483 819.182C865.534 819.182 868.817 822.465 868.817 826.516C868.817 830.567 865.534 833.85 861.483 833.85Z" fill="#581B46"/>
<path d="M731.629 428.461L731.63 428.458C733.792 424.502 738.77 423.069 742.735 425.277L742.742 425.28C746.697 427.442 748.13 432.42 745.923 436.385L745.921 436.389C738.574 449.721 729.432 458.316 718.812 462.198C714.522 463.762 710.009 464.567 705.266 464.567C698.146 464.567 690.54 462.776 682.576 459.156C678.451 457.277 676.651 452.458 678.492 448.326C680.323 444.215 685.177 442.406 689.315 444.246C698.481 448.433 706.375 449.347 713.218 446.841C720.185 444.295 726.345 438.055 731.629 428.461Z" fill="white" stroke="#581B46" stroke-width="2"/>
<path fill-rule="evenodd" clip-rule="evenodd" d="M717.785 295.638C737.863 243.976 751.478 218.673 758.674 219.864C765.871 221.056 767.842 248.835 764.679 303.247L717.785 295.638Z" fill="#F5E900"/>
<path d="M764.679 304.348C764.633 304.348 764.541 304.348 764.495 304.348L717.601 296.784C717.28 296.738 716.959 296.509 716.776 296.234C716.593 295.959 716.593 295.592 716.684 295.271C744.005 224.953 753.86 217.893 758.857 218.719C763.899 219.544 770.134 229.17 765.825 303.293C765.825 303.614 765.641 303.935 765.412 304.119C765.183 304.256 764.954 304.348 764.679 304.348ZM719.389 294.721L763.624 301.872C765.137 275.469 765.366 255.207 764.404 241.639C763.166 224.311 760.141 221.24 758.49 220.965C756.748 220.69 752.623 222.615 744.097 238.476C737.45 250.807 729.153 269.693 719.389 294.721Z" fill="#581B46"/>
<path d="M804.973 376.362C856.872 376.362 898.945 347.322 898.945 311.498C898.945 275.675 856.872 246.635 804.973 246.635C753.074 246.635 711.001 275.675 711.001 311.498C711.001 347.322 753.074 376.362 804.973 376.362Z" fill="white"/>
<path d="M804.972 377.508C779.623 377.508 755.832 370.678 737.863 358.301C719.802 345.833 709.854 329.193 709.854 311.499C709.854 293.805 719.802 277.165 737.863 264.696C755.786 252.319 779.623 245.489 804.972 245.489C830.322 245.489 854.113 252.319 872.082 264.696C890.143 277.165 900.09 293.805 900.09 311.499C900.09 329.193 890.143 345.833 872.082 358.301C854.113 370.724 830.276 377.508 804.972 377.508ZM804.972 247.781C753.769 247.781 712.146 276.385 712.146 311.499C712.146 346.612 753.769 375.216 804.972 375.216C856.176 375.216 897.798 346.612 897.798 311.499C897.798 276.385 856.13 247.781 804.972 247.781Z" fill="#581B46"/>
<path fill-rule="evenodd" clip-rule="evenodd" d="M830.46 285.324C866.994 243.609 888.448 224.54 894.773 228.07C901.099 231.599 893.49 258.416 871.899 308.473L830.46 285.324Z" fill="#F5E900"/>
<path d="M871.899 309.619C871.761 309.619 871.578 309.573 871.44 309.527C870.844 309.298 870.569 308.61 870.844 308.015C881.571 283.123 888.905 263.779 892.664 250.485C897.432 233.754 895.644 229.857 894.177 229.032C892.664 228.207 888.126 228.574 874.649 240.538C864.014 249.981 849.437 265.292 831.239 286.011C830.826 286.47 830.093 286.516 829.634 286.103C829.176 285.69 829.13 284.957 829.543 284.499C879.279 227.886 890.922 224.586 895.323 227.061C899.769 229.536 902.336 240.767 872.953 308.931C872.77 309.344 872.357 309.619 871.899 309.619Z" fill="#581B46"/>
<path fill-rule="evenodd" clip-rule="evenodd" d="M741.485 281.474H839.353C844.945 281.474 849.438 285.966 849.438 291.558V332.356C849.438 337.949 844.945 342.441 839.353 342.441H741.485C724.661 342.441 711.001 328.781 711.001 311.957C711.001 295.134 724.615 281.474 741.485 281.474Z" fill="#F5E900"/>
<path d="M839.352 343.586H741.484C724.065 343.586 709.854 329.376 709.854 311.957C709.854 294.538 724.065 280.327 741.484 280.327H839.352C845.541 280.327 850.583 285.37 850.583 291.558V332.356C850.583 338.59 845.541 343.586 839.352 343.586ZM741.484 282.619C725.303 282.619 712.146 295.775 712.146 311.957C712.146 328.138 725.303 341.294 741.484 341.294H839.352C844.303 341.294 848.291 337.306 848.291 332.356V291.558C848.291 286.607 844.303 282.619 839.352 282.619H741.484Z" fill="#581B46"/>
<path fill-rule="evenodd" clip-rule="evenodd" d="M724.655 434.854C724.655 387.318 901.231 383.147 899.076 439.026C896.922 494.904 866.988 575.537 813.035 575.537C759.081 575.537 724.655 482.39 724.655 434.854Z" fill="#F96A00"/>
<path d="M813.035 576.729C800.063 576.729 787.502 571.503 775.722 561.143C765.408 552.113 755.964 539.461 747.622 523.6C733.182 496.142 723.51 460.479 723.51 434.9C723.51 426.007 729.469 417.939 740.791 411.613C756.881 402.583 783.514 397.174 811.981 397.082C812.21 397.082 812.394 397.082 812.623 397.082C841.777 397.082 867.447 402.583 883.125 412.163C894.86 419.36 900.59 428.437 900.177 439.163C899.031 469.693 890.138 503.247 876.432 528.872C864.834 550.646 844.344 576.729 813.035 576.729ZM812.669 399.328C812.439 399.328 812.256 399.328 812.027 399.328C783.927 399.42 757.706 404.737 741.937 413.584C731.257 419.589 725.802 426.741 725.802 434.9C725.802 460.204 735.382 495.409 749.639 522.546C767.241 555.963 789.749 574.437 813.035 574.437C843.198 574.437 863.093 549.042 874.461 527.726C887.984 502.377 896.785 469.234 897.931 439.026C898.298 429.17 892.934 420.781 881.933 414.089C866.622 404.646 841.41 399.328 812.669 399.328Z" fill="#581B46"/>
<path fill-rule="evenodd" clip-rule="evenodd" d="M752.618 440.584H817.711C824.541 440.584 830.088 446.131 830.088 452.961V485.049C830.088 491.879 824.541 497.426 817.711 497.426H752.618C745.788 497.426 740.241 491.879 740.241 485.049V452.961C740.241 446.131 745.788 440.584 752.618 440.584Z" fill="white"/>
<path d="M817.71 498.571H752.618C745.146 498.571 739.095 492.52 739.095 485.048V452.96C739.095 445.488 745.146 439.438 752.618 439.438H817.71C825.182 439.438 831.233 445.488 831.233 452.96V485.048C831.233 492.52 825.182 498.571 817.71 498.571ZM752.618 441.729C746.429 441.729 741.387 446.772 741.387 452.96V485.048C741.387 491.237 746.429 496.279 752.618 496.279H817.71C823.899 496.279 828.941 491.237 828.941 485.048V452.96C828.941 446.772 823.899 441.729 817.71 441.729H752.618Z" fill="#581B46"/>
<path d="M811.843 424.035C829.312 424.035 843.473 419.623 843.473 414.18C843.473 408.737 829.312 404.324 811.843 404.324C794.375 404.324 780.214 408.737 780.214 414.18C780.214 419.623 794.375 424.035 811.843 424.035Z" fill="#581B46"/>
<path d="M841.96 479.411C838.247 479.411 834.763 477.119 833.388 473.452C831.6 468.73 834.03 463.413 838.751 461.625C854.291 455.803 866.943 445.123 877.349 429.079C880.099 424.815 885.783 423.624 890.046 426.374C894.309 429.124 895.501 434.809 892.751 439.072C880.328 458.279 864.33 471.664 845.215 478.861C844.115 479.227 843.014 479.411 841.96 479.411Z" fill="#F5E900"/>
<path fill-rule="evenodd" clip-rule="evenodd" d="M830.454 440.58C850.257 459.879 860.158 476.656 860.158 490.867C823.349 526.988 792.865 540.465 768.57 531.343C744.275 522.221 764.948 491.921 830.454 440.58Z" fill="white"/>
<path d="M784.018 535.239C778.472 535.239 773.154 534.276 768.158 532.397C762.015 530.059 758.485 526.392 757.752 521.395C755.414 506.177 778.976 479.452 829.721 439.663C830.179 439.296 830.821 439.342 831.233 439.754C851.174 459.191 861.259 476.381 861.259 490.866C861.259 491.187 861.121 491.462 860.938 491.691C842.51 509.752 825.412 522.358 810.101 529.142C800.887 533.176 792.178 535.239 784.018 535.239ZM830.362 442.092C781.543 480.46 757.844 507.002 759.998 521.075C760.64 525.246 763.574 528.226 768.937 530.243C780.718 534.689 794.241 533.589 809.139 526.988C824.128 520.387 840.86 508.056 858.921 490.362C858.783 476.839 849.157 460.566 830.362 442.092Z" fill="#581B46"/>
<path fill-rule="evenodd" clip-rule="evenodd" d="M755.964 508.514C749.547 509.66 744.137 511.814 738.912 513.877C726.902 518.69 733.503 527.354 744.367 524.145C733.503 531.388 729.377 536.385 732.036 539.181C734.694 541.977 739.874 541.152 747.575 536.66C739.599 542.344 736.253 546.378 737.491 548.807C739.37 552.429 748.813 550.824 756.01 543.765C752.068 547.065 750.418 550.32 750.968 553.483C751.793 558.205 773.062 548.899 776.18 531.434C779.251 513.877 762.565 507.368 755.964 508.514Z" fill="#581B46"/>
<path d="M824.174 520.804C823.67 520.804 823.211 520.483 823.074 519.979L819.406 506.869C819.315 506.548 819.361 506.227 819.544 505.952L824.999 497.013C827.291 493.3 827.062 488.67 824.403 485.186C821.836 481.794 817.298 480.327 813.218 481.565L802.125 484.911C801.85 485.003 801.62 484.957 801.345 484.865L787.731 479.227C787.135 478.998 786.86 478.31 787.089 477.714C787.318 477.118 788.006 476.843 788.602 477.073L801.85 482.528L812.53 479.319C817.527 477.806 823.028 479.594 826.191 483.765C829.4 487.983 829.675 493.667 826.924 498.159L821.698 506.639L825.228 519.245C825.411 519.841 825.045 520.483 824.449 520.666C824.357 520.758 824.265 520.804 824.174 520.804Z" fill="#581B46"/>
<path d="M816.708 501.476C820.877 497.977 821.883 492.311 818.953 488.82C816.024 485.329 810.27 485.336 806.1 488.835C801.931 492.334 800.925 498 803.855 501.49C806.784 504.981 812.539 504.974 816.708 501.476Z" fill="#581B46"/>
<path fill-rule="evenodd" clip-rule="evenodd" d="M707.411 440.92C684.967 457.071 666.725 463.908 652.731 461.441C623.549 418.918 615.571 386.557 628.773 364.215C641.975 341.873 668.225 367.494 707.411 440.92Z" fill="white"/>
<path d="M658.451 463.054C656.401 463.065 654.428 462.903 652.532 462.569C652.216 462.513 651.969 462.33 651.775 462.109C637.188 440.825 627.743 421.798 623.72 405.542C619.684 389.097 621.045 375.047 627.753 363.662C631.122 358.019 635.347 355.18 640.395 355.325C655.788 355.666 678.016 383.51 708.389 440.393C708.67 440.908 708.514 441.532 708.036 441.867C688.475 455.92 671.813 463.036 658.451 463.054ZM653.434 460.354C666.837 462.484 684.489 455.822 705.938 440.566C676.63 385.826 654.607 357.878 640.374 357.556C636.154 357.463 632.711 359.835 629.793 364.767C623.368 375.596 622.104 389.105 626.017 404.923C629.907 420.876 639.145 439.495 653.434 460.354Z" fill="#581B46"/>
<path fill-rule="evenodd" clip-rule="evenodd" d="M653.444 355.765C653.43 349.246 652.247 343.545 651.123 338.04C648.469 325.377 638.791 330.373 640.064 341.629C634.818 329.673 630.614 324.742 627.398 326.875C624.183 329.007 624.096 334.252 627.183 342.616C622.97 333.774 619.578 329.778 616.971 330.575C613.078 331.797 613.018 341.375 618.721 349.689C616.155 345.233 613.236 343.043 610.026 343.035C605.233 343.028 610.704 365.591 627.362 371.693C644.119 377.767 653.426 362.465 653.444 355.765Z" fill="#581B46"/>
<path fill-rule="evenodd" clip-rule="evenodd" d="M105.146 333.535L101.919 332.291C100.49 331.737 99.7983 330.124 100.351 328.695C100.628 327.958 101.227 327.404 101.919 327.128L105.146 325.883C111.461 323.44 116.439 318.462 118.882 312.147L120.127 308.92C120.68 307.491 122.293 306.799 123.722 307.352C124.46 307.629 125.013 308.228 125.29 308.92L126.534 312.147C128.977 318.462 133.956 323.44 140.271 325.883L143.498 327.128C144.927 327.681 145.618 329.294 145.065 330.723C144.788 331.461 144.189 332.014 143.498 332.291L140.271 333.535C133.956 335.978 128.977 340.957 126.534 347.272L125.29 350.499C124.736 351.928 123.123 352.619 121.694 352.066C120.957 351.789 120.403 351.19 120.127 350.499L118.882 347.272C116.439 340.957 111.461 335.978 105.146 333.535Z" fill="black"/>
<path d="M122.709 353.403C122.248 353.403 121.741 353.311 121.28 353.126C120.266 352.711 119.436 351.928 119.022 350.867L117.777 347.641C115.472 341.648 110.724 336.9 104.732 334.595L101.505 333.351C99.4766 332.567 98.5086 330.308 99.2462 328.28C99.661 327.266 100.445 326.436 101.505 326.022L104.732 324.777C110.724 322.472 115.472 317.724 117.777 311.732L119.022 308.505C119.805 306.477 122.064 305.509 124.092 306.246C125.106 306.661 125.936 307.445 126.351 308.505L127.595 311.732C129.9 317.724 134.648 322.472 140.641 324.777L143.867 326.022C145.896 326.805 146.864 329.064 146.126 331.092C145.711 332.106 144.928 332.936 143.867 333.351L140.641 334.595C134.648 336.9 129.9 341.648 127.595 347.641L126.351 350.867C125.752 352.435 124.277 353.403 122.709 353.403ZM122.709 308.321C122.064 308.321 121.465 308.735 121.188 309.335L119.943 312.561C117.408 319.153 112.153 324.408 105.561 326.943L102.335 328.188C101.92 328.372 101.597 328.695 101.413 329.11C101.09 329.94 101.505 330.862 102.335 331.184L105.561 332.429C112.153 335.01 117.408 340.265 119.943 346.857L121.188 350.084C121.372 350.499 121.695 350.821 122.11 351.006C122.94 351.328 123.862 350.914 124.184 350.084L125.429 346.857C128.01 340.265 133.265 335.01 139.857 332.475L143.084 331.23C143.499 331.046 143.821 330.723 144.006 330.308C144.328 329.479 143.914 328.557 143.084 328.234L139.857 326.99C133.265 324.408 128.01 319.153 125.475 312.561L124.23 309.335C124.046 308.92 123.723 308.597 123.308 308.413C123.078 308.367 122.894 308.321 122.709 308.321Z" fill="#00004B"/>
<path fill-rule="evenodd" clip-rule="evenodd" d="M106.703 333.193L103.763 332.059C102.461 331.555 101.831 330.085 102.335 328.783C102.587 328.111 103.133 327.607 103.763 327.355L106.703 326.221C112.457 323.995 116.994 319.458 119.22 313.704L120.354 310.764C120.858 309.462 122.328 308.832 123.63 309.336C124.302 309.588 124.806 310.134 125.058 310.764L126.192 313.704C128.419 319.458 132.955 323.995 138.709 326.221L141.65 327.355C142.952 327.859 143.582 329.329 143.078 330.631C142.826 331.303 142.28 331.807 141.65 332.059L138.709 333.193C132.955 335.42 128.419 339.956 126.192 345.71L125.058 348.651C124.554 349.953 123.084 350.583 121.782 350.079C121.11 349.827 120.606 349.281 120.354 348.651L119.22 345.71C116.994 339.956 112.457 335.42 106.703 333.193Z" fill="#F5E900"/>
<path fill-rule="evenodd" clip-rule="evenodd" d="M514.728 166.819L513.903 166.498C512.482 165.948 511.795 164.344 512.345 162.923C512.62 162.189 513.216 161.639 513.903 161.364L514.728 161.043C519.45 159.21 523.209 155.451 525.042 150.729L525.363 149.904C525.913 148.483 527.518 147.795 528.939 148.346C529.672 148.621 530.222 149.217 530.497 149.904L530.818 150.729C532.652 155.451 536.411 159.21 541.132 161.043L541.957 161.364C543.378 161.914 544.066 163.519 543.516 164.94C543.241 165.673 542.645 166.223 541.957 166.498L541.132 166.819C536.411 168.653 532.652 172.412 530.818 177.133L530.497 177.958C529.947 179.379 528.343 180.067 526.922 179.517C526.188 179.242 525.638 178.646 525.363 177.958L525.042 177.133C523.209 172.366 519.496 168.653 514.728 166.819Z" fill="white"/>
<path d="M527.931 180.846C527.472 180.846 526.968 180.754 526.51 180.57C525.501 180.158 524.676 179.379 524.263 178.324L523.942 177.499C522.292 173.099 518.763 169.569 514.316 167.873L513.491 167.552C511.474 166.773 510.511 164.526 511.245 162.51C511.657 161.501 512.437 160.676 513.491 160.263L514.316 159.942C518.763 158.292 522.292 154.763 523.988 150.316L524.309 149.491C525.088 147.474 527.335 146.511 529.352 147.245C530.36 147.657 531.185 148.437 531.598 149.491L531.919 150.316C533.569 154.763 537.099 158.292 541.545 159.988L542.37 160.309C544.387 161.088 545.35 163.335 544.616 165.352C544.204 166.36 543.424 167.185 542.37 167.598L541.545 167.919C537.099 169.569 533.569 173.099 531.873 177.545L531.552 178.37C530.956 179.883 529.489 180.846 527.931 180.846ZM527.931 149.308C527.289 149.308 526.693 149.72 526.418 150.316L526.097 151.141C524.172 156.184 520.138 160.172 515.141 162.097L514.316 162.418C513.904 162.601 513.583 162.922 513.399 163.335C513.078 164.16 513.491 165.077 514.316 165.397L515.141 165.718C520.184 167.644 524.172 171.678 526.097 176.674L526.418 177.499C526.601 177.912 526.922 178.233 527.335 178.416C528.16 178.737 529.077 178.324 529.397 177.499L529.718 176.674C531.644 171.632 535.678 167.644 540.674 165.718L541.499 165.397C541.912 165.214 542.233 164.893 542.416 164.481C542.737 163.656 542.324 162.739 541.499 162.418L540.674 162.097C535.632 160.172 531.644 156.138 529.718 151.141L529.397 150.316C529.214 149.904 528.893 149.583 528.481 149.399C528.297 149.353 528.114 149.308 527.931 149.308Z" fill="#00004B"/>
<path fill-rule="evenodd" clip-rule="evenodd" d="M920.025 549.821L919.2 549.5C917.779 548.95 917.091 547.346 917.641 545.925C917.916 545.191 918.512 544.641 919.2 544.366L920.025 544.045C924.747 542.212 928.506 538.453 930.339 533.731L930.66 532.906C931.21 531.485 932.814 530.797 934.236 531.348C934.969 531.623 935.519 532.218 935.794 532.906L936.115 533.731C937.949 538.453 941.707 542.212 946.429 544.045L947.254 544.366C948.675 544.916 949.363 546.521 948.813 547.942C948.538 548.675 947.942 549.225 947.254 549.5L946.429 549.821C941.707 551.655 937.949 555.414 936.115 560.135L935.794 560.96C935.244 562.381 933.64 563.069 932.219 562.519C931.485 562.244 930.935 561.648 930.66 560.96L930.339 560.135C928.506 555.368 924.792 551.655 920.025 549.821Z" fill="#F5E900"/>
<path d="M933.227 563.847C932.769 563.847 932.265 563.756 931.806 563.572C930.798 563.16 929.973 562.381 929.56 561.326L929.239 560.501C927.589 556.1 924.059 552.571 919.613 550.875L918.788 550.554C916.771 549.775 915.808 547.528 916.542 545.511C916.954 544.503 917.734 543.678 918.788 543.265L919.613 542.944C924.059 541.294 927.589 537.764 929.285 533.318L929.606 532.493C929.973 531.53 930.706 530.751 931.669 530.338C932.632 529.926 933.686 529.88 934.648 530.247C935.657 530.659 936.482 531.439 936.895 532.493L937.216 533.318C938.866 537.764 942.395 541.294 946.842 542.99L947.667 543.311C949.684 544.09 950.647 546.337 949.913 548.354C949.501 549.362 948.721 550.187 947.667 550.6L946.842 550.921C942.395 552.571 938.866 556.1 937.17 560.547L936.849 561.372C936.482 562.335 935.749 563.114 934.786 563.527C934.282 563.71 933.778 563.847 933.227 563.847ZM920.438 548.72C925.48 550.646 929.469 554.679 931.394 559.676L931.715 560.501C931.898 560.914 932.219 561.235 932.632 561.418C933.044 561.555 933.457 561.555 933.869 561.372C934.282 561.189 934.557 560.868 934.694 560.501L935.015 559.676C936.94 554.634 940.974 550.646 945.971 548.72L946.796 548.399C947.209 548.216 947.53 547.895 947.713 547.483C947.85 547.07 947.85 546.657 947.667 546.245C947.484 545.832 947.163 545.557 946.796 545.42L945.971 545.099C940.929 543.174 936.94 539.14 935.015 534.143L934.694 533.318C934.511 532.905 934.19 532.585 933.778 532.401C933.365 532.264 932.952 532.264 932.54 532.447C932.127 532.63 931.852 532.951 931.715 533.318L931.394 534.143C929.469 539.186 925.435 543.174 920.438 545.099L919.613 545.42C919.2 545.603 918.88 545.924 918.696 546.337C918.559 546.749 918.559 547.162 918.742 547.574C918.925 547.987 919.246 548.262 919.613 548.399L920.438 548.72Z" fill="#00004B"/>
<path d="M380.044 250.752C379.403 250.752 378.898 250.248 378.898 249.606V238.146C378.898 237.504 379.403 237 380.044 237C380.686 237 381.19 237.504 381.19 238.146V249.606C381.19 250.248 380.686 250.752 380.044 250.752Z" fill="white"/>
<path d="M380.044 268.171C379.403 268.171 378.898 267.667 378.898 267.025V255.565C378.898 254.923 379.403 254.419 380.044 254.419C380.686 254.419 381.19 254.923 381.19 255.565V267.025C381.19 267.667 380.686 268.171 380.044 268.171Z" fill="white"/>
<path d="M376.606 253.273H365.146C364.504 253.273 364 252.769 364 252.127C364 251.486 364.504 250.981 365.146 250.981H376.606C377.248 250.981 377.752 251.486 377.752 252.127C377.752 252.769 377.248 253.273 376.606 253.273Z" fill="white"/>
<path d="M394.942 253.273H383.482C382.84 253.273 382.336 252.769 382.336 252.127C382.336 251.486 382.84 250.981 383.482 250.981H394.942C395.584 250.981 396.088 251.486 396.088 252.127C396.088 252.769 395.584 253.273 394.942 253.273Z" fill="white"/>
<path d="M24.4497 510.031C23.808 510.031 23.3037 509.527 23.3037 508.885V497.425C23.3037 496.784 23.808 496.279 24.4497 496.279C25.0915 496.279 25.5957 496.784 25.5957 497.425V508.885C25.5957 509.527 25.0915 510.031 24.4497 510.031Z" fill="white"/>
<path d="M24.4497 527.45C23.808 527.45 23.3037 526.946 23.3037 526.304V514.844C23.3037 514.202 23.808 513.698 24.4497 513.698C25.0915 513.698 25.5957 514.202 25.5957 514.844V526.304C25.5957 526.946 25.0915 527.45 24.4497 527.45Z" fill="white"/>
<path d="M21.0113 512.553H9.55127C8.90951 512.553 8.40527 512.049 8.40527 511.407C8.40527 510.765 8.90951 510.261 9.55127 510.261H21.0113C21.653 510.261 22.1573 510.765 22.1573 511.407C22.1573 512.049 21.653 512.553 21.0113 512.553Z" fill="white"/>
<path d="M39.3472 512.553H27.8872C27.2455 512.553 26.7412 512.049 26.7412 511.407C26.7412 510.765 27.2455 510.261 27.8872 510.261H39.3472C39.989 510.261 40.4932 510.765 40.4932 511.407C40.4932 512.049 39.989 512.553 39.3472 512.553Z" fill="white"/>
<path d="M9.35478 823.31C14.0061 823.052 17.5679 819.073 17.3102 814.422C17.0526 809.77 13.0732 806.209 8.42191 806.466C3.77061 806.724 0.208831 810.703 0.466435 815.355C0.72404 820.006 4.70348 823.568 9.35478 823.31Z" fill="white"/>
<path d="M819.171 199.195C823.424 199.195 826.872 195.747 826.872 191.494C826.872 187.241 823.424 183.793 819.171 183.793C814.918 183.793 811.47 187.241 811.47 191.494C811.47 195.747 814.918 199.195 819.171 199.195Z" fill="white"/>
<path d="M798.864 181.042C798.68 181.042 798.451 180.996 798.268 180.859C797.718 180.538 797.534 179.85 797.855 179.3C802.347 171.828 810.507 167.198 819.171 167.198C827.88 167.198 835.765 171.645 840.303 179.071C840.624 179.621 840.441 180.308 839.936 180.629C839.386 180.95 838.699 180.767 838.378 180.263C834.252 173.524 827.101 169.49 819.171 169.49C811.286 169.49 803.906 173.708 799.872 180.492C799.643 180.859 799.276 181.042 798.864 181.042Z" fill="white"/>
<path d="M786.166 169.49C785.983 169.49 785.754 169.445 785.57 169.307C785.02 168.986 784.837 168.299 785.158 167.749C792.034 156.197 804.686 149 818.117 149C831.594 149 843.787 155.876 850.847 167.382C851.168 167.932 850.984 168.62 850.48 168.94C849.93 169.261 849.242 169.124 848.921 168.574C842.275 157.755 830.769 151.292 818.117 151.292C805.511 151.292 793.638 158.03 787.129 168.895C786.946 169.261 786.533 169.49 786.166 169.49Z" fill="white"/>
<path d="M264.171 750.005C268.424 750.005 271.872 746.557 271.872 742.304C271.872 738.05 268.424 734.603 264.171 734.603C259.918 734.603 256.47 738.05 256.47 742.304C256.47 746.557 259.918 750.005 264.171 750.005Z" fill="black"/>
<path d="M243.864 731.851C243.68 731.851 243.451 731.806 243.268 731.668C242.718 731.347 242.534 730.66 242.855 730.11C247.347 722.638 255.507 718.008 264.171 718.008C272.88 718.008 280.765 722.454 285.303 729.88C285.624 730.43 285.441 731.118 284.936 731.439C284.386 731.76 283.699 731.576 283.378 731.072C279.252 724.334 272.101 720.3 264.171 720.3C256.286 720.3 248.906 724.517 244.872 731.301C244.643 731.668 244.276 731.851 243.864 731.851Z" fill="#00004B"/>
<path d="M231.166 720.3C230.983 720.3 230.754 720.254 230.57 720.117C230.02 719.796 229.837 719.108 230.158 718.558C237.034 707.006 249.686 699.81 263.117 699.81C276.594 699.81 288.787 706.686 295.847 718.191C296.168 718.741 295.984 719.429 295.48 719.75C294.93 720.071 294.242 719.887 293.921 719.383C287.275 708.565 275.769 702.102 263.117 702.102C250.511 702.102 238.638 708.84 232.129 719.704C231.946 720.071 231.533 720.3 231.166 720.3Z" fill="#00004B"/>
<path d="M264.171 751.15C259.221 751.15 255.232 747.162 255.232 742.211C255.232 737.261 259.221 733.272 264.171 733.272C269.122 733.272 273.11 737.261 273.11 742.211C273.11 747.162 269.122 751.15 264.171 751.15ZM264.171 735.564C260.504 735.564 257.524 738.544 257.524 742.211C257.524 745.878 260.504 748.858 264.171 748.858C267.838 748.858 270.818 745.878 270.818 742.211C270.818 738.544 267.838 735.564 264.171 735.564Z" fill="#00004B"/>
</svg>
