<svg width="28" height="36" viewBox="0 0 28 36" fill="none" xmlns="http://www.w3.org/2000/svg">
<path d="M9.73726 35.3796C4.90052 35.35 0.899658 24.8685 0.899658 19.5305C0.899658 10.8108 7.06134 8.90187 9.43601 8.90187C10.5062 8.90187 11.6489 9.34801 12.6568 9.74281C13.3616 10.0182 14.0905 10.3025 14.4959 10.3025C14.7386 10.3025 15.3104 10.0607 15.8153 9.84846C16.892 9.39343 18.2318 8.82788 19.792 8.82788C19.7948 8.82788 19.7985 8.82788 19.8012 8.82788C20.9662 8.82788 24.4985 9.0993 26.6222 12.4849L27.1196 13.2785L26.4037 13.852C25.3809 14.6712 23.5148 16.1656 23.5148 19.1258C23.5148 22.6318 25.6282 23.9802 26.6435 24.6286C27.0917 24.9149 27.5557 25.21 27.5557 25.8556C27.5557 26.277 24.3869 35.3273 19.7854 35.3273C18.6595 35.3273 17.8636 34.968 17.1616 34.6512C16.4512 34.3304 15.8385 34.054 14.8259 34.054C14.3127 34.054 13.6637 34.3116 12.9766 34.5851C12.0376 34.9571 10.9748 35.3796 9.76887 35.3796H9.73726Z" fill="white"/>
<path d="M19.7779 0.379395C19.8869 4.76232 17.0777 7.80299 14.2717 7.61228C13.8094 4.11456 17.0773 0.379395 19.7779 0.379395Z" fill="white"/>
</svg>
