<svg width="20" height="20" viewBox="0 0 20 20" fill="none" xmlns="http://www.w3.org/2000/svg">
<g clip-path="url(#clip0_430_31232)">
<path d="M19.1657 0.840943C18.8269 0.497377 18.405 0.247297 17.9409 0.115003C17.4769 -0.0172921 16.9865 -0.0273026 16.5174 0.0859435L3.77741 2.76344C2.96567 2.88356 2.20328 3.22686 1.57528 3.75504C0.947291 4.28321 0.478404 4.97549 0.220938 5.75463C-0.0365271 6.53377 -0.0724441 7.36912 0.117195 8.16748C0.306834 8.96584 0.714569 9.69581 1.29491 10.2759L2.66074 11.6426C2.69239 11.6738 2.71746 11.7111 2.73449 11.7522C2.75153 11.7932 2.76017 11.8373 2.75991 11.8818V14.4018C2.76079 15.1547 3.06029 15.8766 3.5927 16.409C4.12511 16.9414 4.84696 17.2409 5.59991 17.2418H8.11991C8.20988 17.2418 8.29618 17.2774 8.35991 17.3409L9.72574 18.7068C10.1346 19.1184 10.6208 19.4451 11.1564 19.6682C11.692 19.8913 12.2664 20.0064 12.8466 20.0068C13.3303 20.0064 13.8107 19.9273 14.2691 19.7726C15.0446 19.5151 15.7331 19.0467 16.2575 18.42C16.7819 17.7933 17.1215 17.033 17.2382 16.2243L19.9157 3.52428C20.034 3.05036 20.027 2.55386 19.8955 2.08345C19.764 1.61304 19.5126 1.18488 19.1657 0.840943ZM2.59824 6.52928C2.70917 6.18654 2.91558 5.88256 3.19323 5.65302C3.47088 5.42349 3.80826 5.27794 4.16574 5.23344C4.19519 5.22955 4.22435 5.22455 4.25324 5.21844L15.3549 2.88511L5.25991 12.9743V11.8818C5.26081 11.5087 5.18761 11.1391 5.04456 10.7945C4.90151 10.4498 4.69145 10.1371 4.42657 9.87428L3.06241 8.50844C2.80503 8.25671 2.62468 7.93687 2.54247 7.58637C2.46027 7.23586 2.47962 6.86919 2.59824 6.52928ZM14.7832 15.7526C14.7766 15.7818 14.7724 15.8109 14.7682 15.8401C14.7195 16.1959 14.5723 16.5311 14.3434 16.8078C14.1145 17.0845 13.8128 17.2918 13.4724 17.4064C13.1321 17.521 12.7665 17.5383 12.4168 17.4564C12.0671 17.3744 11.7473 17.1965 11.4932 16.9426L10.1282 15.5776C9.86532 15.3127 9.5524 15.1026 9.20765 14.9595C8.86289 14.8165 8.49316 14.7433 8.11991 14.7443H7.02741L17.1199 4.64928L14.7832 15.7526Z" fill="black"/>
</g>
<defs>
<clipPath id="clip0_430_31232">
<rect width="20" height="20" fill="white"/>
</clipPath>
</defs>
</svg>
