<svg width="42" height="42" viewBox="0 0 42 42" fill="none" xmlns="http://www.w3.org/2000/svg">
<circle cx="21" cy="21" r="19.5" fill="#FFD600" stroke="black" stroke-width="3"/>
<path d="M26.8923 23.62C26.8923 24.72 26.4923 25.68 25.6923 26.54C24.8923 27.4 23.7923 27.9 22.4123 28.06L22.4323 30.04H20.8323L20.8123 28.06C18.4723 27.82 16.7123 26.52 15.9323 24.38L17.9923 23.3C18.5323 24.72 19.4923 25.54 20.8523 25.8V21.14C19.3923 20.68 18.3323 20.12 17.6323 19.48C16.8323 18.8 16.4323 17.86 16.4323 16.66C16.4323 15.54 16.8523 14.56 17.6723 13.74C18.4923 12.9 19.5523 12.4 20.8123 12.24L20.8323 10.18H22.4323L22.4123 12.24C24.5723 12.5 26.0323 13.8 26.6723 15.48L24.6523 16.58C24.1923 15.42 23.4323 14.72 22.3923 14.5V19.08C23.9523 19.56 25.0923 20.16 25.7923 20.86C26.5323 21.56 26.8923 22.48 26.8923 23.62ZM18.9323 16.52C18.9323 17.48 19.5723 18.08 20.8523 18.58V14.46C19.7123 14.68 18.9323 15.48 18.9323 16.52ZM22.3723 21.66V25.82C23.5723 25.6 24.3723 24.82 24.3723 23.76C24.3723 22.82 23.7923 22.22 22.3723 21.66Z" fill="black"/>
</svg>
