<svg width="34" height="35" viewBox="0 0 34 35" fill="none" xmlns="http://www.w3.org/2000/svg">
<path d="M24.5 4.41005C22.2936 3.13378 19.7321 2.40332 17 2.40332C8.71572 2.40332 2 9.11905 2 17.4033C2 19.8029 2.56343 22.0707 3.56519 24.0821C3.83141 24.6165 3.92001 25.2275 3.76568 25.8042L2.87227 29.1434C2.48443 30.5928 3.81051 31.9188 5.26002 31.5311L8.59909 30.6377C9.1759 30.4833 9.78682 30.572 10.3213 30.8381C12.3326 31.8399 14.6005 32.4033 17 32.4033C25.2842 32.4033 32 25.6875 32 17.4033C32 14.6712 31.2695 12.1096 29.9933 9.90332" stroke="#FF3216" stroke-width="4" stroke-linecap="round"/>
<path d="M11 17.4033H11.0135M16.9865 17.4033H17M22.9865 17.4033H23" stroke="#FF3216" stroke-width="4" stroke-linecap="round" stroke-linejoin="round"/>
</svg>
