<svg width="70" height="87" viewBox="0 0 70 87" fill="none" xmlns="http://www.w3.org/2000/svg">
<g opacity="0.9">
<path d="M65.2642 1.70215H15.3229V72.6415C20.2413 72.8307 33.8239 73.0956 48.8063 72.6415C63.7887 72.1875 67.5343 62.2371 67.5343 57.3186L65.2642 1.70215Z" fill="#FFDB58" stroke="#FFDB58"/>
<path fill-rule="evenodd" clip-rule="evenodd" d="M67.7618 19.0004C67.6027 14.2082 67.5138 7.73321 67.5619 2.93813C67.5637 2.72406 67.5286 2.53526 67.4805 2.35801C67.575 1.31366 66.9558 0.209559 65.6038 0.245297C54.7753 0.526644 43.9484 0.362535 33.1211 0.198421C26.8955 0.104056 20.6697 0.0096886 14.4435 1.97678e-06C13.0249 -0.00180299 12.403 1.2328 12.5785 2.31668C12.5216 2.50548 12.4828 2.7071 12.4855 2.93813C12.5767 10.0683 12.7231 18.3004 12.8753 26.855C13.1534 42.4836 13.4505 59.1887 13.4647 72.2177C13.4647 72.6706 13.5946 73.037 13.8011 73.3285C13.9261 74.1826 14.5461 74.938 15.6681 74.9106C17.2267 74.8722 18.7855 74.8367 20.3443 74.8012H20.3443C26.1579 74.6687 31.9721 74.5362 37.7803 74.2543C39.298 74.1807 40.9022 74.1469 42.5492 74.1123H42.5493C48.0262 73.9969 53.9773 73.8716 58.8016 72.2398C61.0235 71.4891 63.0113 70.3774 64.7148 68.7695C67.8298 65.8292 68.893 61.8807 69.1612 57.7213C69.3344 55.0322 69.176 52.2545 69.0247 49.6035C68.9513 48.3158 68.8795 47.058 68.8483 45.8547C68.7127 40.5771 68.4902 35.8146 68.2651 30.996L68.265 30.9957L68.265 30.9955C68.0845 27.1315 67.9023 23.2313 67.7618 19.0004ZM56.9707 54.9533C55.7705 54.9607 54.6102 55.8883 55.1469 57.3144C56.2259 60.1825 56.7199 63.7431 55.0598 66.4872C53.3136 69.3735 50.3763 69.6803 47.4006 69.9912C46.9575 70.0375 46.5135 70.0838 46.0724 70.1389C44.6771 70.3132 43.2229 70.3086 41.7837 70.3039C41.0761 70.3017 40.3722 70.2994 39.6807 70.3184C39.3579 70.3275 38.2918 70.3542 36.7886 70.3919L36.7859 70.392C30.6805 70.5451 17.3733 70.8788 17.3733 70.9435C17.341 58.1783 17.0499 41.6027 16.7798 26.2308V26.2308L16.7798 26.2305C16.6394 18.2356 16.5047 10.5662 16.4151 3.92786C21.9228 3.9516 27.4302 4.03247 32.9374 4.11335C43.1742 4.26367 53.4106 4.41399 63.6484 4.19734C63.6146 13.183 64.0538 24.4268 64.4583 34.7821L64.4583 34.7823C64.7709 42.7864 65.0628 50.2596 65.0995 55.7487C62.6565 54.9852 60.132 54.6625 57.5252 54.8358C57.3215 54.8499 57.1402 54.8948 56.9707 54.9533ZM59.6622 58.7226C60.4848 62.2724 60.0906 65.5464 58.5091 68.2155C61.9802 66.7599 64.6665 64.1806 65.2431 59.9738C65.2393 59.9624 65.2359 59.9504 65.2326 59.9385C65.2295 59.9275 65.2264 59.9165 65.2229 59.9059C63.4441 59.1599 61.5674 58.7959 59.6622 58.7226Z" fill="#FFDB58"/>
<path d="M48.7543 76.5665C47.4892 76.5665 46.4327 77.6441 46.4327 78.9366V80.6143C32.9434 81.9974 19.3897 81.4142 5.85097 81.3197C5.51664 61.0883 4.73871 40.8661 4.65709 20.6311H8.51267C11.5076 20.6311 11.5076 15.8906 8.51267 15.8906H2.94084C2.72189 15.8906 2.52366 15.9231 2.33649 15.9694C1.16977 15.9619 -0.00196202 16.7238 2.46676e-06 18.2608C0.026791 39.8625 0.910097 61.4475 1.23888 83.0445C1.24156 83.2584 1.27246 83.4528 1.31692 83.6362C1.3021 84.8324 2.04879 86.0423 3.56055 86.0461C18.6369 86.0822 33.7387 86.9007 48.7547 85.098C49.6851 84.9861 50.3227 84.4326 50.6672 83.7399C50.924 83.3594 51.0764 82.901 51.0764 82.4124V78.9358C51.076 77.6441 50.0195 76.5665 48.7543 76.5665Z" fill="white"/>
<path d="M54.43 25.8104C57.5105 25.4839 57.5398 20.1157 54.43 20.4452C44.657 21.4805 34.8582 21.853 25.0435 21.8757C21.9199 21.8829 21.919 27.2483 25.0435 27.2408C34.8582 27.2181 44.6568 26.8469 54.43 25.8104Z" fill="white"/>
<path d="M52.2409 30.6651C43.9235 31.7475 35.598 32.0936 27.2359 31.7783C24.2109 31.6646 24.2205 37.2305 27.2359 37.344C35.5971 37.6593 43.9235 37.3129 52.2409 36.2308C55.2124 35.8444 55.2445 30.2744 52.2409 30.6651Z" fill="white"/>
<path d="M54.8492 38.6296C45.3498 40.275 35.778 40.9615 26.1702 41.318C23.0625 41.4336 23.0517 46.6493 26.1702 46.5342C36.2141 46.1604 46.2052 45.3777 56.1342 43.6592C59.2048 43.1265 57.8974 38.1018 54.8492 38.6296Z" fill="white"/>
</g>
</svg>
