<svg width="80" height="89" viewBox="0 0 80 89" fill="none" xmlns="http://www.w3.org/2000/svg">
<path d="M71.3542 16.8373L43.0196 4.69403C41.0914 3.86762 38.9087 3.86762 36.9804 4.69403L8.64608 16.8373C5.50625 18.183 3.63579 21.4439 4.05953 24.8336L6.99618 48.3268C7.9906 56.2823 11.97 63.5629 18.1291 68.6957L35.0928 82.8319C37.9357 85.2009 42.0644 85.2009 44.9072 82.8319L61.8709 68.6957C68.0299 63.5629 72.0096 56.2823 73.0037 48.3268L75.9404 24.8336C76.3644 21.4439 74.4936 18.183 71.3542 16.8373Z" stroke="#00C592" stroke-width="7" stroke-linecap="round"/>
<path d="M25.6279 44.8528L37.934 57.1589C39.0028 58.2277 40.7826 58.0519 41.621 56.7938L59.1634 30.4805" stroke="white" stroke-width="7" stroke-linecap="round"/>
</svg>
