<svg width="70" height="75" viewBox="0 0 70 75" fill="none" xmlns="http://www.w3.org/2000/svg">
<circle cx="35.5" cy="40.5" r="34.5" fill="#F96A00"/>
<circle cx="34.5" cy="34.5" r="33.5" fill="#250E1E" stroke="#F96A00" stroke-width="2"/>
<path d="M48.7629 22.0714L37.5043 17.2463C36.7381 16.9179 35.8708 16.9179 35.1046 17.2463L23.8461 22.0714C22.5985 22.6061 21.8553 23.9018 22.0237 25.2486L23.1905 34.5836C23.5856 37.7447 25.1668 40.6376 27.6141 42.6771L34.3546 48.294C35.4842 49.2353 37.1247 49.2353 38.2543 48.294L44.9947 42.6771C47.442 40.6376 49.0233 37.7447 49.4183 34.5836L50.5852 25.2486C50.7537 23.9018 50.0103 22.6061 48.7629 22.0714Z" stroke="#F96A00" stroke-width="3" stroke-linecap="round"/>
<path d="M30.5938 33.203L35.4835 38.0927C35.9082 38.5174 36.6154 38.4476 36.9485 37.9477L43.9189 27.4922" stroke="#F96A00" stroke-width="3" stroke-linecap="round"/>
</svg>
