<svg width="34" height="33" viewBox="0 0 34 33" fill="none" xmlns="http://www.w3.org/2000/svg">
<path d="M17.5903 1.56087L17.5911 1.56246L21.341 9.09808L21.341 9.09809L21.344 9.10408C21.7668 9.93954 22.5733 10.5213 23.5068 10.6519C23.5081 10.6521 23.5094 10.6523 23.5107 10.6525L31.9267 11.8782L31.9317 11.8789C32.1648 11.9117 32.3744 12.0344 32.515 12.2191L32.5155 12.2197C32.6502 12.3963 32.7079 12.6201 32.6753 12.8394L32.6749 12.8423C32.6477 13.0288 32.5599 13.2026 32.4246 13.3364C32.424 13.3371 32.4233 13.3377 32.4226 13.3384L26.3319 19.2425C25.6392 19.8892 25.3285 20.8411 25.4956 21.7679L25.4956 21.7683L26.9961 30.0737C27.0654 30.5364 26.7624 30.9696 26.3069 31.0645C26.115 31.092 25.9147 31.0593 25.7341 30.9683L18.2258 27.0564L18.2258 27.0563L18.2143 27.0505C17.3733 26.6261 16.3803 26.6261 15.5393 27.0505L15.5393 27.0504L15.5278 27.0564L8.01462 30.9708L8.01461 30.9708L8.00757 30.9745C7.56728 31.2084 7.02467 31.0532 6.77427 30.6259C6.69124 30.4612 6.66075 30.2743 6.68722 30.0897L8.18719 21.7852C8.1872 21.7852 8.18721 21.7852 8.18721 21.7851C8.35468 20.8584 8.04094 19.9038 7.35143 19.2582L1.25501 13.3518L1.25377 13.3506C0.925615 13.0338 0.915222 12.5158 1.22551 12.1876L1.26639 12.1467L1.26642 12.1467L1.27248 12.1405C1.40292 12.0078 1.57371 11.9239 1.75874 11.9019L1.77189 11.9003L1.785 11.8984L10.2038 10.6706C10.2045 10.6705 10.2052 10.6704 10.2059 10.6703C11.1341 10.5381 11.9418 9.96219 12.3675 9.12091L12.3725 9.11109L12.3772 9.10117L15.9884 1.55675C16.1383 1.26069 16.4453 1.07594 16.7803 1.08373L16.7919 1.08401H16.8035H16.9577C17.2289 1.13234 17.465 1.30787 17.5903 1.56087Z" fill="#FFCE4C" stroke="black" stroke-width="2"/>
</svg>
