<svg width="36" height="28" viewBox="0 0 36 28" fill="none" xmlns="http://www.w3.org/2000/svg">
<path d="M34 7.54618L27.6697 10.9374C24.1404 12.8281 22.3758 13.7735 20.507 14.1441C18.853 14.4721 17.147 14.4721 15.493 14.1441C13.6242 13.7735 11.8596 12.8281 8.33031 10.9374L2 7.54618M7.68889 26.4033H28.3111C30.3024 26.4033 31.2981 26.4033 32.0587 26.0296C32.7276 25.701 33.2716 25.1764 33.6124 24.5313C34 23.798 34 22.8378 34 20.9176V7.88903C34 5.96886 34 5.00876 33.6124 4.27535C33.2716 3.63022 32.7276 3.10571 32.0587 2.77702C31.2981 2.40332 30.3024 2.40332 28.3111 2.40332H7.68889C5.6976 2.40332 4.70194 2.40332 3.94137 2.77702C3.27234 3.10571 2.72841 3.63022 2.38754 4.27535C2 5.00876 2 5.96885 2 7.88903V20.9176C2 22.8378 2 23.798 2.38754 24.5313C2.72841 25.1764 3.27234 25.701 3.94137 26.0296C4.70194 26.4033 5.69758 26.4033 7.68889 26.4033Z" stroke="#00C142" stroke-width="3" stroke-linecap="round" stroke-linejoin="round"/>
</svg>
