<svg width="18" height="18" viewBox="0 0 18 18" fill="none" xmlns="http://www.w3.org/2000/svg">
<path d="M17.9872 8.99987C17.9885 10.7679 17.4686 12.4972 16.4925 13.9714C15.5164 15.4456 14.1275 16.5994 12.4993 17.2886C10.8711 17.9778 9.07585 18.1718 7.338 17.8463C5.60015 17.5208 3.99679 16.6903 2.72834 15.4586C1.45989 14.2269 0.58262 12.6487 0.206195 10.9212C-0.17023 9.19363 -0.0291105 7.39347 0.611913 5.7457C1.25294 4.09794 2.36542 2.67567 3.81031 1.65668C5.2552 0.637691 6.96839 0.0671926 8.73573 0.0164974C8.9058 -0.00549912 9.07799 -0.00549912 9.24806 0.0164974C11.5873 0.08156 13.809 1.05633 15.441 2.73364C17.0729 4.41095 17.9863 6.65968 17.9872 8.99987ZM5.98324 16.1202C6.1756 16.2013 6.37061 16.2743 6.56827 16.3395C5.39003 14.2946 4.77392 11.9744 4.7825 9.61444H1.28366C1.39781 11.0247 1.89622 12.3768 2.72475 13.5238C3.55327 14.6707 4.68024 15.5687 5.98324 16.1202ZM1.86642 5.99178C1.54774 6.74406 1.35176 7.54257 1.28594 8.3569H4.7825C4.7754 6.01113 5.38244 3.70437 6.54328 1.66595C6.3547 1.72881 6.16802 1.79924 5.98324 1.87724C4.1293 2.66297 2.65318 4.13828 1.86642 5.99178ZM11.9426 8.3569C11.9146 7.47563 11.8155 6.59807 11.6461 5.73278C11.4805 4.84751 11.2085 3.9855 10.8362 3.16545C10.3284 2.08399 9.68996 1.37854 9.1356 1.27176C9.0398 1.27033 8.94399 1.27033 8.84819 1.27176C8.29383 1.37854 7.65541 2.08399 7.14762 3.16659C6.77566 3.98669 6.50409 4.8487 6.3388 5.73391C6.16949 6.59883 6.07034 7.47601 6.04231 8.3569H11.9426ZM10.8362 14.8048C11.2086 13.9847 11.4805 13.1227 11.6461 12.2374C11.815 11.3725 11.9138 10.4953 11.9415 9.61444H6.04344C6.07145 10.4957 6.1706 11.3733 6.33994 12.2386C6.50528 13.1234 6.77685 13.985 7.14876 14.8048C7.70198 15.9816 8.40856 16.7132 8.9936 16.7132C9.57863 16.7132 10.2852 15.9816 10.8373 14.8048H10.8362ZM16.1208 12.008C16.443 11.2468 16.6398 10.4385 16.7035 9.61444H13.2024C13.2115 11.9752 12.5954 14.2963 11.4167 16.3417C11.6143 16.2766 11.8101 16.2032 12.004 16.1214C13.8577 15.3359 15.3338 13.861 16.1208 12.008ZM12.004 1.87724C11.819 1.79916 11.631 1.72829 11.4405 1.66481C12.6014 3.70319 13.2085 6.00998 13.2013 8.35577H16.7013C16.5826 6.95048 16.0824 5.60428 15.2546 4.46253C14.4267 3.32077 13.3027 2.42684 12.004 1.87724Z" fill="white"/>
</svg>
