<svg width="166" height="144" viewBox="0 0 166 144" fill="none" xmlns="http://www.w3.org/2000/svg">
<path fill-rule="evenodd" clip-rule="evenodd" d="M6.18046 42.0423C9.93515 34.6006 15.7613 28.3674 22.8823 24.0423C25.5365 22.4522 28.3201 21.2437 31.2333 20.3532C41.4616 17.173 52.7904 17.8091 62.5008 22.0706C66.8384 23.8515 70.8519 26.5228 74.283 29.6395C78.685 33.6466 82.31 38.7349 83.9929 44.4593C84.5761 46.2403 83.7339 46.1766 82.5039 45.0318C81.857 44.4593 81.1451 43.5688 80.4975 42.5512C79.656 41.5336 78.8789 40.325 78.0374 38.9893C75.0593 34.2826 70.9163 30.2755 66.126 27.2861C61.2708 24.2967 55.7682 22.3885 50.0067 21.4981C49.1652 21.3073 48.2589 21.3073 47.4173 21.2437C46.511 21.1801 45.6694 21.0529 44.7631 21.1165C43.0153 21.1801 41.2026 21.1801 39.4548 21.4981C35.8943 21.8797 32.4633 23.0246 29.097 24.2331C27.2844 24.9964 25.5365 25.8232 23.9181 26.8409C23.0765 27.3497 22.2997 27.9222 21.5229 28.4946L20.2282 29.2579L19.1276 30.212C16.1497 32.7561 13.4956 35.6819 11.3593 38.9258C9.99983 40.8975 8.89932 43.0601 7.92832 45.2226C7.02201 47.4487 6.24514 49.7385 5.66254 52.0282C3.97943 59.0884 4.23831 66.6573 6.56885 73.5266C8.44616 78.8696 11.4241 83.6397 15.3082 87.5193C15.6966 87.9649 16.1497 88.3462 16.6029 88.7918C17.0561 89.1731 17.5092 89.6188 17.9624 90.0001C21.4581 92.9257 22.6881 93.7526 23.0765 94.9616C23.1413 95.2158 23.3355 95.5335 23.3355 95.7885C23.4002 96.1698 22.9471 96.1698 22.0408 95.9156C21.5876 95.7885 21.0697 95.5335 20.4871 95.2158C19.9044 94.898 19.1924 94.4524 18.4803 93.9432C14.143 90.9541 10.2588 86.8838 7.41041 82.1129C5.98618 79.76 4.82099 77.2157 3.84991 74.5442C2.9436 71.8728 2.29625 69.1379 1.97261 66.3393C1.45469 62.205 1.51945 58.0071 2.23149 53.8728C2.9436 49.7385 4.23831 45.7314 6.1157 41.9788L6.18046 42.0423Z" fill="#1B1B1B"/>
<path fill-rule="evenodd" clip-rule="evenodd" d="M44.368 104.121C42.2316 106.602 39.6422 108.446 36.9233 109.973C35.9523 110.481 34.9812 111.118 33.9454 111.499C33.1686 111.881 32.327 112.135 31.4855 112.453L30.2555 112.898L29.6082 113.089L28.8313 113.343C27.5366 113.725 26.2419 114.107 25.0118 114.297C23.9113 114.489 22.293 114.997 22.293 114.552C22.8108 113.789 23.3935 112.898 23.8466 112.199L24.494 111.118L24.8824 110.163C25.0118 109.845 25.1413 109.527 25.206 109.273L25.3355 108.7C25.5297 107.937 25.6592 107.174 25.6592 106.347C25.8535 104.312 25.5945 102.276 25.6592 100.178C25.6592 99.5414 26.4361 99.4779 27.2129 99.9863C27.9897 100.495 28.8313 101.513 28.896 102.849C28.9607 104.63 28.8313 106.411 28.5076 108.192C28.3781 108.637 28.3134 109.082 28.1839 109.527L27.9897 110.1C27.9897 110.1 27.9897 110.1 27.925 110.1C27.8602 110.163 27.7955 110.227 27.666 110.354L27.5366 110.545C27.5366 110.608 27.5366 110.608 27.5366 110.608C27.6013 110.672 27.6013 110.672 27.7308 110.672C27.8602 110.672 28.0545 110.672 28.2487 110.608L28.4429 110.545L28.7018 110.481C28.8313 110.418 29.0255 110.354 29.155 110.291L30.0613 109.973C31.2913 109.464 32.5212 108.955 33.6865 108.383C36.2759 107.11 38.7359 105.584 40.8075 103.612C41.1311 103.358 41.3901 102.976 41.7138 102.658C41.9727 102.34 42.2964 102.022 42.5553 101.704L43.5263 100.305L43.7853 99.8592L43.8501 99.7956H43.9795H44.2384L45.2095 99.8592L46.4395 99.9227C46.7632 99.9227 47.1516 99.9863 47.4753 99.9863C48.1873 99.9863 48.8347 99.9863 49.5468 99.9863C50.9063 99.9227 52.2657 99.8592 53.6252 99.605C55.6967 99.2872 57.7036 98.6509 59.6456 97.9511C60.0988 97.7605 60.4872 97.6334 60.9404 97.4427C62.5588 96.87 63.0767 96.8065 63.724 97.3784C63.8535 97.5063 64.0477 97.6334 64.1772 97.7605C64.5656 98.2053 64.1124 98.9687 62.9472 99.605C59.4514 101.449 55.2436 102.467 51.0357 102.786C49.482 102.913 47.8637 102.913 46.31 102.849H45.7921H45.6627C45.5979 102.849 45.4685 102.849 45.4685 102.849L45.4037 102.913L45.2095 103.167C44.9506 103.548 44.6916 103.867 44.368 104.121Z" fill="#1B1B1B"/>
<path fill-rule="evenodd" clip-rule="evenodd" d="M88.6554 51.1379C86.0658 52.2192 83.6058 53.6822 81.3404 55.2722C79.0742 56.9896 77.0027 58.8341 75.1902 60.9967C73.4429 63.1592 71.8243 65.449 70.5943 67.9932C69.4286 70.4738 68.4576 73.1451 67.8752 75.8798C67.0337 79.8873 66.9686 84.0212 67.4866 88.0287C68.5228 95.0889 71.8887 101.958 77.1973 106.983C82.3765 112.135 89.4325 115.378 96.7475 116.269C99.9847 116.651 103.351 116.587 106.588 116.142C107.429 116.015 108.206 115.887 109.047 115.697C109.824 115.505 110.666 115.378 111.443 115.124L112.608 114.806L113.514 114.551L113.967 114.424L114.226 114.361C114.291 114.361 114.356 114.424 114.42 114.488L115.715 115.57C115.974 115.824 116.363 116.015 116.686 116.205C119.017 117.668 121.8 118.241 124.649 118.495C126.073 118.559 127.497 118.559 128.921 118.432L129.569 118.368L130.022 118.305L130.475 118.241L130.669 118.177C130.734 118.177 130.734 118.177 130.799 118.177L130.734 118.113C130.54 117.923 130.41 117.732 130.216 117.541L129.957 117.223L129.699 116.841C129.569 116.714 129.504 116.524 129.374 116.396C128.598 115.188 128.015 113.852 127.626 112.453C127.303 111.244 127.432 110.608 127.626 110.481C127.885 110.354 128.209 110.735 128.727 111.435C129.245 112.135 129.892 113.089 130.799 114.17C130.993 114.424 131.252 114.743 131.511 114.997C131.64 115.124 131.77 115.251 131.9 115.442L132.093 115.633C132.158 115.76 132.352 115.951 132.482 116.078C133.517 117.286 135.201 118.749 136.689 120.276C136.366 120.403 135.913 120.467 135.459 120.594C135.006 120.721 134.553 120.785 134.101 120.912C133.647 121.04 133.13 121.103 132.611 121.23C132.093 121.294 131.511 121.421 130.993 121.484L130.216 121.612L129.439 121.675C129.18 121.675 128.856 121.739 128.598 121.739C128.015 121.739 127.432 121.802 126.85 121.802C125.684 121.802 124.519 121.739 123.289 121.612C120.959 121.357 118.564 120.785 116.298 119.64C115.715 119.386 115.197 119.004 114.679 118.686C114.42 118.495 114.162 118.368 113.903 118.177L113.514 117.859C113.514 117.859 113.514 117.859 113.449 117.795L111.896 118.241C110.795 118.495 109.63 118.749 108.53 118.94C107.364 119.067 106.264 119.259 105.099 119.386C100.502 119.767 95.7765 119.449 91.3093 118.241C86.8429 117.032 82.5704 114.997 78.9454 112.198C76.7444 110.545 74.7373 108.637 72.9248 106.538C71.1123 104.438 69.5581 102.086 68.2637 99.6048C65.6095 94.6432 64.3148 89.0462 64.25 83.5128C64.25 80.4593 64.6384 77.4066 65.2858 74.4808C65.9979 71.555 67.0337 68.6292 68.4576 65.9578C69.1052 64.5585 70.0118 63.35 70.7882 62.0143C71.6948 60.8059 72.6006 59.5338 73.6368 58.4525C75.6439 56.1627 77.9737 54.191 80.4989 52.4101C86.649 48.1486 94.0936 45.6044 101.668 45.2863C103.092 45.1592 104.515 45.2864 105.94 45.35C106.652 45.35 107.364 45.4772 108.076 45.6044C108.789 45.7316 109.501 45.7316 110.213 45.9224C111.572 46.2404 112.996 46.4949 114.356 47.0037C115.003 47.2581 115.715 47.4489 116.363 47.7033L118.305 48.5302L119.276 48.9754L120.182 49.4843L122.059 50.5019L123.807 51.6468C124.39 52.0284 124.972 52.4101 125.555 52.8553L127.238 54.191C127.756 54.6362 128.274 55.1451 128.792 55.6539C129.828 56.6079 130.734 57.6892 131.64 58.7069C134.424 62.0779 136.56 65.8942 137.985 69.9649C139.408 74.0356 139.991 78.3606 139.733 82.6858C139.603 84.5939 139.408 86.4384 138.956 88.3464C138.114 91.8447 137.078 94.0077 136.236 95.4066C135.395 96.8063 134.683 97.5053 133.971 97.9509C133.647 98.1416 133.258 98.4601 133 98.5236C132.546 98.6507 132.611 98.0145 133.064 96.8698C133.517 95.7244 134.23 93.9434 135.072 91.6541C136.236 88.2829 136.884 84.6574 136.884 81.032C136.819 77.4066 136.236 73.7811 135.006 70.2829C133.776 66.8483 131.964 63.5408 129.569 60.6151C127.238 57.6892 124.325 55.2087 121.153 53.2369C118.758 51.774 116.233 50.5019 113.514 49.7387C112.219 49.2298 110.795 49.039 109.436 48.721C108.724 48.5938 108.012 48.5302 107.364 48.4666L106.329 48.3394C106.005 48.3394 105.616 48.3394 105.293 48.2758C99.6605 47.8306 93.8989 48.9754 88.6554 51.1379Z" fill="#1B1B1B"/>
<ellipse cx="45.1475" cy="50.6813" rx="15.9327" ry="15.7286" fill="#ADFFD8"/>
<path fill-rule="evenodd" clip-rule="evenodd" d="M50.1372 55.59C51.3672 54.127 52.0145 51.8373 51.8203 49.6748C51.7556 48.9115 51.4967 48.1483 51.173 47.4486C50.2019 44.968 47.0299 43.6323 44.052 44.2048C42.7573 44.4592 41.4626 45.0952 40.4268 45.9221C39.0673 47.0034 38.161 48.4662 37.5137 50.0564C37.3195 50.5652 36.9311 50.438 36.6721 49.8656C36.4131 49.2932 36.2836 48.1483 36.8663 47.1305C38.8731 43.3143 43.5988 41.1518 48.0009 42.2967C49.2957 42.6146 50.5256 43.1871 51.6261 44.0775C52.7266 44.968 53.5034 46.1765 53.9566 47.385C54.9924 50.12 54.8629 53.0458 53.7624 55.7172C53.0503 57.3709 51.8203 58.7066 50.5256 59.7878C48.5835 61.4416 46.4472 62.5864 44.8288 64.1129C44.1815 64.6854 43.5988 65.3851 43.2104 66.0211C42.822 66.7207 42.5631 67.4204 42.3041 68.2472C42.1747 68.6289 42.1099 69.0105 41.9157 69.3921C41.3331 70.855 40.8152 71.1731 39.9089 71.1094C39.7147 71.1094 39.4557 71.1094 39.2615 71.0459C38.6142 70.855 38.42 70.0918 38.6142 69.0741C38.8084 68.3109 38.9378 67.5476 39.1968 66.7207C39.4557 65.8939 39.9089 64.8762 40.4915 63.9858C41.7215 62.2684 43.2104 61.1235 44.6347 60.0423C46.7709 58.5158 48.7777 57.1801 49.943 55.59H50.1372Z" fill="#1B1B1B"/>
<path fill-rule="evenodd" clip-rule="evenodd" d="M39.7142 77.5972C39.7142 77.6607 39.7142 77.7243 39.7142 77.7878C39.5847 79.1239 38.5489 79.5688 37.319 79.4417C35.6358 79.251 34.9885 77.4065 35.8947 76.1348C37.1895 74.29 39.7142 75.6257 39.7142 77.5972Z" fill="#1B1B1B"/>
<path fill-rule="evenodd" clip-rule="evenodd" d="M89.3587 117.159C92.8549 118.368 96.545 119.067 100.299 119.131C101.659 119.131 103.019 119.131 104.378 118.94L106.191 118.749C106.773 118.686 107.355 118.559 107.938 118.432L109.686 118.113C110.268 117.986 110.852 117.795 111.434 117.668L113.44 117.095C113.699 116.905 113.829 117.223 114.088 117.35L114.541 117.732L115.189 118.304C115.641 118.622 116.16 118.94 116.678 119.258C117.196 119.513 117.778 119.767 118.296 120.021C120.238 120.784 122.374 121.103 124.511 121.166C127.23 121.23 129.948 120.848 132.603 120.34C133.444 120.149 133.444 120.594 132.797 121.103C132.15 121.611 130.855 122.311 129.236 122.502C126.323 122.82 123.345 122.82 120.432 122.184C118.943 121.866 117.584 121.357 116.225 120.657C115.577 120.276 114.929 119.894 114.283 119.449L113.44 118.749C113.312 118.686 113.376 118.686 113.376 118.686L113.312 118.622C113.312 118.622 113.247 118.622 113.182 118.622C109.945 119.576 106.32 120.34 102.824 120.53C98.9399 120.721 94.9908 120.276 91.2363 119.258C90.6538 119.067 90.0714 118.94 89.4882 118.749L87.8052 118.113C86.6404 117.732 85.6042 117.159 84.5037 116.651C81.2673 114.997 78.3536 112.898 75.7648 110.417C73.822 108.446 71.9451 106.41 70.5205 104.12C70.197 103.611 69.8736 103.103 69.5495 102.594C68.449 100.622 68.2551 99.9223 68.449 99.3496C68.5141 99.2225 68.5141 99.0319 68.5785 98.9683C68.7731 98.6505 69.4199 99.3496 70.1971 100.749C72.592 104.82 75.6996 108.763 79.6487 111.816C82.4966 114.106 85.7981 115.951 89.3587 117.159Z" fill="#1B1B1B"/>
<path fill-rule="evenodd" clip-rule="evenodd" d="M46.5761 103.675L45.864 103.612H45.7992L44.9577 104.756C44.2455 105.52 43.4688 106.347 42.6272 107.046C42.0445 107.556 41.3972 108.064 40.8146 108.51C38.5488 110.099 36.0888 111.245 33.5641 112.262C32.4636 112.707 31.2984 113.153 30.1978 113.597C28.7736 114.107 27.3495 114.679 25.7958 114.87C24.8247 114.997 25.731 113.343 27.2847 112.898C30.1978 112.008 33.0462 110.99 35.8298 109.781C37.513 109.018 39.1314 108 40.5556 106.856C40.944 106.537 41.3324 106.22 41.7209 105.902C42.1093 105.583 42.4977 105.265 42.8214 104.884C43.145 104.502 43.5334 104.184 43.8571 103.802L44.8929 102.403L45.0224 102.276H45.2166H45.605H46.1876L47.1587 102.34C47.806 102.34 48.4534 102.403 49.1007 102.403C51.0428 102.403 52.985 102.34 54.8623 102.021C56.3512 101.767 57.7106 101.259 59.0054 100.686L59.847 100.24C60.8827 99.732 61.2711 99.6049 61.7243 99.7956C61.789 99.8591 61.9185 99.8591 61.9832 99.9227C62.2422 100.113 61.9185 100.622 61.1417 101.067C58.8112 102.531 55.898 103.421 52.985 103.675C50.8486 103.802 48.7123 103.802 46.5761 103.675Z" fill="#1B1B1B"/>
<path d="M94.1523 33.3289C94.1523 32.8201 94.5409 32.4385 94.9938 32.4385C97.3895 32.3112 94.2175 35.8095 94.1523 33.3289Z" stroke="#1B1B1B" stroke-width="0.6"/>
<path d="M56.3477 116.651C56.3477 116.141 56.7361 115.76 57.1892 115.76C59.5844 115.697 56.4124 119.131 56.3477 116.651Z" stroke="#1B1B1B" stroke-width="0.6"/>
<path fill-rule="evenodd" clip-rule="evenodd" d="M117.006 26.2688C117.395 26.396 117.654 26.7777 117.524 27.1593C117.071 29.1311 114.935 25.76 117.006 26.2688Z" fill="#1B1B1B"/>
<path d="M106.738 99.2182C115.069 98.1469 120.967 90.8688 119.914 82.9627C118.861 75.0563 111.254 69.5157 102.923 70.5872C94.5926 71.6587 88.6931 78.9363 89.7468 86.8431C90.8006 94.7492 98.4076 100.289 106.738 99.2182Z" fill="#FFF7B1"/>
<path d="M109.369 67.2935C109.434 67.1027 108.333 66.4667 106.068 66.1487C104.967 66.0214 103.543 65.9578 101.925 66.2759C100.306 66.5939 98.4939 67.1663 96.6806 68.2476C94.9333 69.3289 93.1852 70.919 91.7613 72.8908C90.3366 74.8625 89.2361 77.343 88.6536 80.0144C88.0712 82.7493 88.1356 85.7385 89.1066 88.7284C89.6246 90.1909 90.2722 91.654 91.1781 92.9901C92.0847 94.3254 93.1852 95.5972 94.4796 96.6156C95.5157 97.506 96.6806 98.1415 97.8463 98.7778C99.0763 99.3505 100.306 99.7954 101.601 100.113C104.902 100.876 108.269 100.559 111.182 99.5412C114.095 98.46 116.684 96.7427 118.497 94.5797C119.468 93.5621 120.116 92.3539 120.763 91.2092C121.021 90.6365 121.28 90.0002 121.539 89.4282C121.734 88.792 121.993 88.2193 122.058 87.6473C122.64 85.2301 122.576 82.94 122.187 80.9049C121.799 78.8697 121.087 77.1523 120.309 75.7527C119.533 74.3537 118.626 73.2724 117.849 72.4455C116.296 70.8554 115.195 70.283 115.066 70.4102C114.936 70.601 115.778 71.3643 117.073 73.0816C118.303 74.7989 119.921 77.4701 120.439 81.1591C120.698 83.0035 120.634 85.0394 120.05 87.1381C119.921 87.6473 119.727 88.1557 119.533 88.7284C119.338 89.2368 119.079 89.746 118.82 90.2544C118.238 91.2727 117.59 92.2903 116.749 93.1808C115.131 95.0253 112.93 96.4877 110.405 97.3782C107.88 98.2051 104.967 98.46 102.183 97.7602C101.018 97.506 99.9822 97.124 98.9468 96.6156C97.9758 96.1064 96.9397 95.5337 96.0982 94.7711C94.9977 93.8806 94.0267 92.7987 93.2503 91.7176C92.4732 90.5729 91.8908 89.3647 91.4371 88.0922C90.5956 85.5479 90.4661 82.94 90.9198 80.5235C91.3727 78.1063 92.2786 75.9441 93.5086 74.0992C94.7386 72.2547 96.2277 70.8554 97.7168 69.7741C99.2702 68.6929 100.824 68.1204 102.248 67.7388C103.672 67.3572 104.967 67.23 106.003 67.23C108.139 67.23 109.304 67.548 109.369 67.2935Z" fill="#1B1B1B"/>
<path d="M111.12 79.6968C111.056 79.5061 110.797 79.3783 110.279 79.4426C109.761 79.5061 109.049 79.7603 108.272 80.3331C107.56 80.905 106.848 81.6684 106.201 82.5589C105.553 83.4493 104.906 84.4669 104.259 85.4845C104.129 85.6751 104 85.9301 103.87 86.1207C103.741 86.3114 103.611 86.5656 103.482 86.757C102.964 87.5839 103.158 87.329 103.093 87.3925C103.093 87.3925 103.093 87.3925 103.029 87.3925L102.899 87.329C102.446 87.0748 102.058 86.8841 101.669 86.6934C100.892 86.3114 100.18 86.0572 99.5326 85.8665C98.3026 85.4845 97.5263 85.548 97.3968 85.8665C97.2673 86.1843 97.8497 86.6299 98.8858 87.329C99.4031 87.6475 99.9864 88.0923 100.698 88.5379C101.022 88.7921 101.41 88.9828 101.734 89.237C102.058 89.4284 102.381 89.6826 102.705 89.9368C103.093 90.191 103.482 90.5095 103.935 90.7637C104.517 89.8733 105.1 88.9828 105.683 88.0288C105.812 87.8381 105.942 87.5839 106.071 87.3925C106.201 87.2019 106.33 86.9476 106.46 86.757C107.107 85.6751 107.69 84.6575 108.207 83.7671C108.725 82.8766 109.178 82.1775 109.632 81.6048C110.344 80.5237 111.185 80.1416 111.12 79.6968Z" fill="#1B1B1B"/>
<path d="M1.38848 32.502C1.58268 32.6292 1.84164 32.5656 2.16528 32.4383C2.48899 32.3112 3.00683 32.1839 3.45999 32.1839C3.91314 32.1839 4.30154 32.4383 4.5605 32.82C4.62526 33.0108 4.69001 33.2016 4.62526 33.5196C4.5605 33.8377 4.43106 34.2193 4.23686 34.6009C4.1721 34.7281 4.04266 34.919 3.9779 35.0461C3.84838 35.1734 3.7837 35.3006 3.65419 35.4914C3.45999 35.6822 3.33055 35.873 3.20103 36.0002L3.13635 36.0638C3.13635 36.0638 3.13635 36.0638 3.07159 36.0638C3.00683 36.0638 3.07159 36.1274 2.94215 35.9366C2.81263 35.8094 2.68319 35.6822 2.55367 35.4914C2.42423 35.3642 2.29479 35.1734 2.16528 35.0461C1.97108 34.7917 1.84164 34.5373 1.71212 34.2829C1.51792 33.8377 1.45316 33.456 1.45316 33.0744C1.58268 32.8836 1.58268 32.6292 1.38848 32.502C1.25896 32.3747 0.935323 32.4383 0.611607 32.7564C0.223209 33.0744 -0.100506 33.8377 0.0290108 34.7917C0.0936927 35.2369 0.22321 35.7458 0.417408 36.191C0.546849 36.4455 0.611607 36.6363 0.741124 36.8271C0.870565 37.0179 1 37.2723 1.19428 37.5267C1.32372 37.7175 1.77688 38.1628 2.16528 38.3536C2.61843 38.608 3.07159 38.6716 3.5895 38.5444C3.84838 38.4808 4.04266 38.4172 4.30154 38.2264C4.43106 38.1628 4.49582 38.0991 4.62526 37.972L4.7547 37.8447L4.88421 37.7812C5.14317 37.5267 5.33737 37.2723 5.53157 37.0815C5.66101 36.8907 5.85521 36.6363 5.98473 36.4455C6.11417 36.191 6.24368 36.0002 6.37312 35.7458C6.69684 35.1098 6.89104 34.4737 6.95572 33.7741C7.02048 33.0744 6.82628 32.2475 6.37312 31.6115C5.91997 30.9755 5.33737 30.6574 4.7547 30.4666C4.10734 30.2758 3.52474 30.3394 3.07159 30.4666C2.16528 30.721 1.64736 31.2934 1.38848 31.6751C1.19428 32.0567 1.25896 32.3747 1.38848 32.502Z" fill="#1B1B1B"/>
<path d="M124.974 137.64C125.169 137.767 125.427 137.703 125.752 137.576C126.075 137.449 126.593 137.322 127.046 137.322C127.5 137.322 127.887 137.576 128.146 137.958C128.212 138.149 128.276 138.34 128.212 138.657C128.146 138.976 128.017 139.357 127.823 139.739C127.758 139.866 127.628 140.057 127.564 140.184C127.435 140.311 127.37 140.438 127.241 140.63C127.046 140.82 126.916 141.011 126.787 141.138L126.723 141.202C126.723 141.202 126.723 141.202 126.657 141.202C126.593 141.202 126.657 141.265 126.528 141.075C126.399 140.948 126.27 140.82 126.14 140.63C126.011 140.502 125.881 140.311 125.752 140.184C125.557 139.93 125.427 139.676 125.299 139.421C125.104 138.976 125.04 138.594 125.04 138.213C125.104 138.085 125.104 137.767 124.974 137.64C124.845 137.513 124.522 137.576 124.198 137.895C123.81 138.213 123.485 138.976 123.615 139.93C123.68 140.375 123.81 140.884 124.003 141.329C124.133 141.584 124.198 141.774 124.327 141.965C124.456 142.156 124.586 142.411 124.781 142.665C124.91 142.856 125.363 143.301 125.752 143.492C126.205 143.746 126.657 143.81 127.175 143.682C127.435 143.619 127.628 143.555 127.887 143.365C128.017 143.301 128.082 143.238 128.212 143.11L128.341 142.983L128.471 142.919C128.729 142.665 128.924 142.411 129.117 142.219C129.247 142.029 129.442 141.774 129.571 141.584C129.701 141.329 129.829 141.138 129.959 140.884C130.283 140.248 130.477 139.611 130.542 138.912C130.607 138.213 130.413 137.386 129.959 136.749C129.506 136.114 128.924 135.795 128.341 135.605C127.694 135.414 127.111 135.478 126.657 135.605C125.752 135.859 125.234 136.432 124.974 136.813C124.781 137.259 124.781 137.576 124.974 137.64Z" fill="#A8A8A8"/>
<path d="M159.537 88.092C159.731 88.2191 159.99 88.1555 160.313 88.0284C160.638 87.9013 161.155 87.7742 161.609 87.7742C162.061 87.7742 162.45 88.0284 162.709 88.4097C162.773 88.6012 162.839 88.7918 162.773 89.1096C162.709 89.4281 162.58 89.8094 162.385 90.1907C162.32 90.3185 162.191 90.5092 162.126 90.6363C161.996 90.7634 161.932 90.8905 161.802 91.0812C161.609 91.2726 161.479 91.4632 161.349 91.5903L161.284 91.6539C161.284 91.6539 161.284 91.6539 161.22 91.6539C161.155 91.6539 161.22 91.7174 161.09 91.5268C160.961 91.3997 160.831 91.2726 160.702 91.0812C160.572 90.9541 160.443 90.7634 160.313 90.6363C160.119 90.3821 159.99 90.1271 159.86 89.8729C159.667 89.4281 159.601 89.046 159.601 88.6647C159.731 88.4733 159.731 88.2191 159.537 88.092C159.407 87.9649 159.083 88.0284 158.76 88.3462C158.371 88.6647 158.048 89.4281 158.177 90.3821C158.242 90.8269 158.371 91.3361 158.566 91.781C158.695 92.0352 158.76 92.2266 158.889 92.4172C159.019 92.6079 159.148 92.8621 159.342 93.1171C159.472 93.3077 159.925 93.7526 160.313 93.944C160.767 94.1982 161.22 94.2617 161.738 94.1346C161.996 94.0711 162.191 94.0075 162.45 93.8161C162.58 93.7526 162.644 93.689 162.773 93.5619L162.903 93.4348L163.032 93.3713C163.291 93.1171 163.485 92.8621 163.68 92.6714C163.81 92.4808 164.003 92.2266 164.133 92.0352C164.262 91.781 164.392 91.5903 164.522 91.3361C164.845 90.6998 165.04 90.0636 165.104 89.3638C165.169 88.6647 164.974 87.8378 164.522 87.2015C164.069 86.5653 163.485 86.2475 162.903 86.0569C162.255 85.8662 161.673 85.9297 161.22 86.0569C160.313 86.3111 159.795 86.8838 159.537 87.2651C159.407 87.7107 159.407 87.9649 159.537 88.092Z" fill="#1B1B1B"/>
<path d="M78.0314 131.916C77.2543 131.597 76.737 131.979 76.3484 132.616C76.3484 132.679 76.3484 132.679 76.2833 132.743C76.2833 132.806 76.2833 132.806 76.2189 132.87C75.9599 133.57 76.0894 134.205 76.8665 134.524C77.5784 134.841 78.1609 134.46 78.5494 133.824C78.5494 133.76 78.5494 133.76 78.6138 133.697C78.6138 133.633 78.679 133.633 78.679 133.57C78.8728 132.87 78.7433 132.17 78.0314 131.916Z" fill="#A8A8A8"/>
<path d="M14.7258 108.763C14.1433 109.336 14.2727 109.972 14.7258 110.481L14.7906 110.544L14.8554 110.608C15.3732 111.054 15.9559 111.181 16.6032 110.608C17.1211 110.1 17.0564 109.4 16.6032 108.891L16.5385 108.827L16.4737 108.763C15.9559 108.319 15.3084 108.191 14.7258 108.763Z" fill="#A8A8A8"/>
<path d="M45.9901 0C45.6017 0 45.278 0.445232 45.2133 1.08127C45.1486 1.71732 45.2133 2.67139 45.6017 3.68906C45.6664 3.81627 45.6664 3.87988 45.7312 4.00708C45.7959 4.07069 45.7959 4.1979 45.8606 4.3251C46.3138 5.27918 46.8964 6.04243 47.4143 6.42405C47.9322 6.86929 48.4501 6.93289 48.7738 6.67847C49.3564 6.16964 48.7737 4.89755 48.1264 3.37104L47.997 3.05302L47.9322 2.7986C47.2201 1.27209 46.7669 0 45.9901 0Z" fill="#A8A8A8"/>
<path d="M86.6504 24.1063C86.0672 23.5339 85.1613 23.9155 84.2547 24.7423C84.1903 24.806 84.1903 24.806 84.1252 24.8696C84.0608 24.9331 84.0608 24.9331 83.9957 24.9968C83.1542 25.8872 82.7657 26.7777 83.3489 27.3501C83.8662 27.859 84.8372 27.5409 85.7438 26.7141C85.8082 26.6505 85.8082 26.6505 85.8733 26.5869C85.9377 26.5233 85.9377 26.5233 86.0028 26.4597C86.8443 25.5692 87.2328 24.6152 86.6504 24.1063Z" fill="#A8A8A8"/>
<path d="M141.083 34.3461C140.5 33.7736 140.177 33.5828 140.047 33.6465C139.982 33.7736 140.177 34.0917 140.759 34.6641C141.277 35.173 141.666 35.4273 141.795 35.3638C141.86 35.2365 141.666 34.8549 141.083 34.3461Z" fill="#A8A8A8"/>
<path d="M125.546 13.8022C125.352 13.8022 125.158 14.6291 124.834 16.092C124.704 16.7916 124.511 17.6821 124.251 18.6998C123.992 19.7175 123.669 20.8624 123.087 21.9437C122.828 22.5161 122.439 23.0249 121.986 23.4702C121.532 23.9154 121.014 24.297 120.432 24.615C119.267 25.1875 117.648 25.3783 116.095 24.933C114.541 24.5514 113.052 23.5973 112.081 22.1981C111.628 21.4984 111.304 20.7351 111.304 19.9719C111.239 19.2086 111.434 18.3181 111.887 17.6821C112.21 17.1733 112.664 16.7281 113.246 16.4737C113.505 16.3464 113.764 16.3464 113.958 16.3464C114.153 16.3464 114.283 16.41 114.541 16.5373C114.8 16.7281 115.059 17.0461 115.318 17.3641C115.512 17.6821 115.706 18.0638 115.836 18.4454C116.095 19.2086 116.095 20.0991 115.965 20.9259C115.771 21.7528 115.512 22.4524 114.994 23.0885C114.541 23.7246 113.894 24.297 113.246 24.8059C111.887 25.7599 110.333 26.4595 108.844 27.032C107.355 27.6044 105.996 28.0497 104.701 28.4313C102.112 29.131 99.9759 29.4489 98.4868 29.7034C96.9977 29.9578 96.1562 30.085 96.1562 30.2758C96.1562 30.4667 96.9977 30.6575 98.5512 30.721C100.105 30.7846 102.371 30.721 105.154 30.1486C106.514 29.8942 108.067 29.5126 109.621 28.9402C111.175 28.3677 112.923 27.7953 114.606 26.6504C115.447 26.0779 116.289 25.3783 116.936 24.4878C117.26 24.0426 117.584 23.5337 117.842 23.0249C118.101 22.5161 118.231 21.9437 118.36 21.3712C118.619 20.2263 118.619 19.0178 118.231 17.8094C118.037 17.2369 117.778 16.6008 117.455 16.092C117.066 15.5832 116.677 15.0108 116.03 14.5655C115.512 14.1839 114.8 13.9294 114.153 13.9294C113.505 13.9294 112.858 14.0567 112.34 14.2475C111.304 14.6927 110.398 15.4559 109.815 16.41C109.103 17.5549 108.844 18.8906 108.909 20.1627C108.974 21.4348 109.492 22.6432 110.139 23.5973C111.498 25.5691 113.57 26.6504 115.577 27.1592C116.612 27.4136 117.648 27.4136 118.619 27.2864C119.59 27.1592 120.561 26.9048 121.403 26.3959C122.244 25.8871 122.957 25.3146 123.474 24.6786C123.992 23.9789 124.445 23.3429 124.704 22.6432C125.288 21.3076 125.546 20.0355 125.675 18.8906C125.805 17.8094 125.87 16.8553 125.805 16.092C125.87 14.6291 125.741 13.8022 125.546 13.8022Z" fill="#1B1B1B"/>
</svg>
