<svg width="28" height="28" viewBox="0 0 28 28" fill="none" xmlns="http://www.w3.org/2000/svg">
<path d="M2 5.73665C2 17.1505 11.2528 26.4033 22.6667 26.4033C23.1816 26.4033 23.6921 26.3845 24.1977 26.3475C24.7779 26.3049 25.0679 26.2837 25.332 26.1317C25.5507 26.0059 25.758 25.7827 25.8676 25.5553C26 25.2809 26 24.9608 26 24.3207V20.5643C26 20.0259 26 19.7567 25.9113 19.526C25.8332 19.3221 25.706 19.1407 25.5412 18.9975C25.3547 18.8353 25.1016 18.7433 24.5957 18.5593L20.32 17.0045C19.7313 16.7905 19.4369 16.6835 19.1577 16.7016C18.9115 16.7176 18.6745 16.8017 18.4732 16.9444C18.2449 17.1061 18.0839 17.3747 17.7616 17.9119L16.6667 19.7367C13.1335 18.1365 10.2692 15.2685 8.66667 11.7367L10.4915 10.6417C11.0286 10.3195 11.2971 10.1584 11.4589 9.93007C11.6016 9.72876 11.6857 9.49181 11.7017 9.24559C11.7199 8.96635 11.6128 8.67203 11.3988 8.08339L9.84399 3.8076C9.66 3.30167 9.56801 3.04869 9.40589 2.86212C9.26268 2.69731 9.08119 2.57019 8.87736 2.49192C8.64661 2.40332 8.37744 2.40332 7.83909 2.40332H4.08268C3.44251 2.40332 3.12241 2.40332 2.84797 2.53565C2.62067 2.64527 2.39752 2.85267 2.2716 3.07136C2.11957 3.33541 2.09833 3.62548 2.05585 4.20563C2.01884 4.71113 2 5.22169 2 5.73665Z" stroke="#F5E900" stroke-width="3" stroke-linecap="round" stroke-linejoin="round"/>
</svg>
