<svg width="55" height="55" viewBox="0 0 55 55" fill="none" xmlns="http://www.w3.org/2000/svg">
<circle cx="27.5" cy="27.5" r="26.5" fill="#F96A00" stroke="white" stroke-width="2"/>
<path d="M16.8 19H39.2C41.7564 19 43.8459 20.9983 43.9919 23.518L44 23.8V30.2C44 32.7564 42.0018 34.8459 39.482 34.9919L39.2 35H16.8C14.2437 35 12.1541 33.0018 12.0081 30.482L12 30.2V23.8C12 21.2437 13.9983 19.1541 16.518 19.0081L16.8 19ZM37.6 23.8C36.7163 23.8 36 24.5163 36 25.4C36 26.2837 36.7163 27 37.6 27C38.4837 27 39.2 26.2837 39.2 25.4C39.2 24.5163 38.4837 23.8 37.6 23.8ZM31.2 23.8C30.3163 23.8 29.6 24.5163 29.6 25.4C29.6 26.2837 30.3163 27 31.2 27C32.0837 27 32.8 26.2837 32.8 25.4C32.8 24.5163 32.0837 23.8 31.2 23.8Z" fill="white"/>
</svg>
