<svg width="19" height="20" viewBox="0 0 19 20" fill="none" xmlns="http://www.w3.org/2000/svg">
<path d="M15.4 9.1001H2.8C1.80589 9.1001 1 9.90599 1 10.9001V17.2001C1 18.1942 1.80589 19.0001 2.8 19.0001H15.4C16.3941 19.0001 17.2 18.1942 17.2 17.2001V10.9001C17.2 9.90599 16.3941 9.1001 15.4 9.1001Z" stroke="white" stroke-width="2" stroke-linecap="round" stroke-linejoin="round"/>
<path d="M4.60156 9.1V5.5C4.60156 4.30653 5.07567 3.16193 5.91958 2.31802C6.7635 1.47411 7.90809 1 9.10156 1C10.295 1 11.4396 1.47411 12.2835 2.31802C13.1275 3.16193 13.6016 4.30653 13.6016 5.5V9.1" stroke="white" stroke-width="2" stroke-linecap="round" stroke-linejoin="round"/>
</svg>
