<svg width="32" height="32" viewBox="0 0 32 32" fill="none" xmlns="http://www.w3.org/2000/svg">
<path fill-rule="evenodd" clip-rule="evenodd" d="M12.5 14.1479C16.366 14.1479 19.5 11.0139 19.5 7.14795C19.5 3.28196 16.366 0.147949 12.5 0.147949C8.63401 0.147949 5.5 3.28196 5.5 7.14795C5.5 11.0139 8.63401 14.1479 12.5 14.1479ZM12.5 31.6479C19.2655 31.6479 24.75 28.5139 24.75 24.6479C24.75 20.782 19.2655 17.6479 12.5 17.6479C5.73451 17.6479 0.25 20.782 0.25 24.6479C0.25 28.5139 5.73451 31.6479 12.5 31.6479ZM19.4297 13.8252C21.0969 12.0945 22.1222 9.74114 22.1222 7.14827C22.1222 5.91523 21.8903 4.73634 21.4678 3.65283C24.2649 3.76852 26.4971 6.07273 26.4971 8.89827C26.4971 11.7978 24.1466 14.1483 21.2471 14.1483C20.6082 14.1483 19.996 14.0342 19.4297 13.8252ZM27.3778 24.6476C27.3778 25.5906 27.1682 26.5018 26.7776 27.363C29.7639 26.4373 31.7528 24.7836 31.7528 22.8976C31.7528 20.2618 27.8678 18.0796 22.8047 17.7046C25.6234 19.4561 27.3778 21.9193 27.3778 24.6476Z" fill="#FFCE20"/>
</svg>
