<svg width="68" height="75" viewBox="0 0 68 75" fill="none" xmlns="http://www.w3.org/2000/svg">
<circle cx="33.6039" cy="41.3969" r="33.6039" fill="#F5E900"/>
<circle cx="33.6039" cy="33.6039" r="32.6039" fill="#250E1E" stroke="#F5E900" stroke-width="2"/>
<path fill-rule="evenodd" clip-rule="evenodd" d="M48.2511 37.8282C48.2511 36.7689 47.8303 35.7529 47.0813 35.0039C46.3322 34.2548 45.3163 33.834 44.2569 33.834H44.2525C43.1931 33.834 42.1772 34.2548 41.4281 35.0039C40.6791 35.7529 40.2583 36.7689 40.2583 37.8282C40.2583 39.614 40.2583 41.9468 40.2583 43.7326C40.2583 44.7919 40.6791 45.8079 41.4281 46.557C42.1772 47.306 43.1931 47.7269 44.2525 47.7269H44.2569C45.3163 47.7269 46.3322 47.306 47.0813 46.557C47.8303 45.8079 48.2511 44.7919 48.2511 43.7326V37.8282ZM28.9601 37.8282C28.9602 36.7689 28.5393 35.7529 27.7903 35.0039C27.0412 34.2548 26.0253 33.834 24.966 33.834H24.9615C23.9022 33.834 22.8862 34.2548 22.1371 35.0039C21.3881 35.7529 20.9673 36.7689 20.9673 37.8282C20.9673 39.614 20.9673 41.9468 20.9673 43.7326C20.9673 44.7919 21.3881 45.8079 22.1371 46.557C22.8862 47.306 23.9022 47.7269 24.9615 47.7269H24.966C26.0253 47.7269 27.0412 47.306 27.7903 46.557C28.5393 45.8079 28.9602 44.7919 28.9601 43.7326V37.8282ZM45.6597 37.8282V43.7326C45.6597 44.1047 45.5119 44.4615 45.2488 44.7246C44.9858 44.9876 44.629 45.1354 44.257 45.1355C44.2569 45.1355 44.2525 45.1355 44.2525 45.1355C43.8804 45.1354 43.5236 44.9876 43.2605 44.7246C42.9974 44.4615 42.8497 44.1047 42.8497 43.7326V37.8282C42.8497 37.4562 42.9974 37.0994 43.2605 36.8363C43.5236 36.5732 43.8804 36.4254 44.2524 36.4254C44.2525 36.4254 44.2569 36.4254 44.2569 36.4254C44.629 36.4254 44.9858 36.5732 45.2488 36.8363C45.5119 37.0994 45.6597 37.4562 45.6597 37.8282ZM26.3688 37.8282V43.7326C26.3688 44.1047 26.221 44.4615 25.9579 44.7246C25.6948 44.9876 25.338 45.1354 24.966 45.1355C24.9659 45.1355 24.9615 45.1355 24.9615 45.1355C24.5894 45.1354 24.2326 44.9876 23.9696 44.7246C23.7065 44.4615 23.5587 44.1047 23.5587 43.7326V37.8282C23.5587 37.4562 23.7065 37.0994 23.9696 36.8363C24.2326 36.5732 24.5894 36.4254 24.9614 36.4254C24.9616 36.4254 24.966 36.4254 24.966 36.4254C25.338 36.4254 25.6948 36.5732 25.9579 36.8363C26.221 37.0994 26.3688 37.4562 26.3688 37.8282Z" fill="#F5E900"/>
<path fill-rule="evenodd" clip-rule="evenodd" d="M51.6854 40.8578V31.675C51.6854 23.3265 44.9175 16.5586 36.5689 16.5586C35.2682 16.5586 33.9494 16.5586 32.6487 16.5586C24.3001 16.5586 17.5322 23.3265 17.5322 31.675C17.5322 36.5572 17.5322 40.8578 17.5322 40.8578C17.5322 41.5729 18.1128 42.1535 18.8279 42.1535C19.543 42.1535 20.1236 41.5729 20.1236 40.8578V31.6751C20.1237 24.7576 25.7313 19.15 32.6487 19.15C33.9494 19.15 35.2682 19.15 36.5689 19.15C43.4863 19.15 49.094 24.7576 49.094 31.675C49.094 31.6751 49.094 40.8578 49.094 40.8578C49.094 41.5729 49.6746 42.1535 50.3897 42.1535C51.1048 42.1535 51.6854 41.5729 51.6854 40.8578ZM30.7506 23.0082H37.6954C38.4105 23.0082 38.9911 22.4276 38.9911 21.7125C38.9911 20.9973 38.4105 20.4168 37.6954 20.4168H30.7506C30.0355 20.4168 29.4549 20.9973 29.4549 21.7125C29.4549 22.4276 30.0355 23.0082 30.7506 23.0082Z" fill="#F5E900"/>
</svg>
