<svg width="69" height="75" viewBox="0 0 69 75" fill="none" xmlns="http://www.w3.org/2000/svg">
<circle cx="34.5" cy="40.5" r="34.5" fill="#00C592"/>
<circle cx="34.5" cy="34.5" r="33.5" fill="#250E1E" stroke="#00C592" stroke-width="2"/>
<path d="M51.625 37.75H39.75V40.125H51.625V37.75Z" fill="#00C592"/>
<path d="M46.875 42.5H39.75V44.875H46.875V42.5Z" fill="#00C592"/>
<path d="M51.6246 34.1881V33.0006C51.6215 29.5519 50.5448 26.1896 48.5442 23.3805C46.5435 20.5713 43.718 18.4546 40.4598 17.3241C37.2016 16.1935 33.6723 16.1052 30.3617 17.0714C27.051 18.0376 24.1232 20.0104 21.9846 22.7159C19.8459 25.4215 18.6025 28.7257 18.4268 32.17C18.2512 35.6143 19.152 39.0278 21.0044 41.9369C22.8567 44.846 25.5686 47.1064 28.7638 48.4044C31.959 49.7023 35.479 49.9735 38.8353 49.1803L38.289 46.8691C37.211 47.1232 36.1072 47.2512 34.9996 47.2506C34.774 47.2506 34.5543 47.2285 34.3311 47.2182C31.7544 43.3555 30.3478 38.8309 30.2804 34.1881H51.6246ZM49.2004 31.8131H42.0951C41.963 27.4379 40.8366 23.1501 38.8013 19.2748C41.6063 20.055 44.1058 21.6743 45.9645 23.9153C47.8232 26.1564 48.9523 28.9122 49.2004 31.8131ZM35.6682 18.783C38.2449 22.6458 39.6515 27.1703 39.7189 31.8131H30.2804C30.3478 27.1703 31.7544 22.6458 34.3311 18.783C34.5543 18.7727 34.774 18.7506 34.9996 18.7506C35.2253 18.7506 35.445 18.7727 35.6682 18.783ZM31.198 19.2748C29.1627 23.1501 28.0363 27.4379 27.9042 31.8131H20.7989C21.047 28.9122 22.1761 26.1564 24.0348 23.9153C25.8935 21.6743 28.3929 20.055 31.198 19.2748ZM31.198 46.7264C28.3929 45.9462 25.8935 44.327 24.0348 42.0859C22.1761 39.8448 21.047 37.0891 20.7989 34.1881H27.9042C28.0363 38.5634 29.1627 42.8512 31.198 46.7264Z" fill="#00C592"/>
</svg>
