<svg width="55" height="55" viewBox="0 0 55 55" fill="none" xmlns="http://www.w3.org/2000/svg">
<circle cx="27.5" cy="27.5" r="26.5" fill="#06B4FF" stroke="white" stroke-width="2"/>
<path fill-rule="evenodd" clip-rule="evenodd" d="M32.4307 40.3038L28.7072 30.3632L24.4436 40.3338C22.8307 40.2932 21.8954 39.3209 21.8954 39.3209L15.5407 19.3691C15.5407 19.3691 15.2901 18.3791 13.8713 18.3791H12.9995L13.5783 16.8756H21.6995V18.3791C21.6995 18.3791 20.893 19.0285 21.0819 19.9285C21.2724 20.8285 24.523 33.7921 24.523 33.7921L27.6572 26.855L26.203 22.2668C25.6454 20.8568 25.1866 19.4979 24.8213 19.1379C24.306 18.5785 23.3672 18.3791 23.3672 18.3791V16.8756H33.373V18.3791H31.7177C31.7177 18.3791 30.846 18.5538 30.7701 19.835C30.7542 20.0927 30.9042 20.9891 30.9042 20.9891L34.7866 33.7532C34.7866 33.7532 38.7748 26.4297 38.8313 24.8344C38.8895 23.2427 38.2719 20.6362 36.5301 19.595C33.7436 17.9168 34.4478 14.5779 36.5954 13.3973C37.513 12.8944 38.3301 12.875 39.2601 12.875C42.5389 12.875 42.9077 16.5915 42.9077 16.5915C43.1248 17.8727 42.9713 20.0521 42.3536 21.9738C40.7407 26.9715 36.7489 35.9627 35.203 39.3862C33.9607 40.6197 32.4307 40.3038 32.4307 40.3038" fill="white"/>
</svg>
