<svg width="55" height="55" viewBox="0 0 55 55" fill="none" xmlns="http://www.w3.org/2000/svg">
<circle cx="27.5" cy="27.5" r="26.5" fill="#00C592" stroke="white" stroke-width="2"/>
<path d="M24.2479 16.7994C23.596 18.1485 23.0689 19.5544 22.6729 20.9994H26.4979V14.0244C25.5655 14.7853 24.7996 15.7299 24.2479 16.7994Z" fill="white"/>
<path d="M21.998 27C21.998 27.975 22.073 29.025 22.148 30H26.498V24H22.148C22.073 24.975 21.998 25.95 21.998 27Z" fill="white"/>
<path d="M24.2479 37.199C24.7996 38.2685 25.5655 39.2131 26.4979 39.974V32.999H22.6729C23.0689 34.4441 23.596 35.8499 24.2479 37.199Z" fill="white"/>
<path d="M31.748 37.199C32.3999 35.8499 32.927 34.4441 33.323 32.999H29.498V39.974C30.4304 39.2131 31.1963 38.2685 31.748 37.199Z" fill="white"/>
<path d="M31.748 16.7994C31.1963 15.7299 30.4304 14.7853 29.498 14.0244V20.9994H33.323C32.927 19.5544 32.3999 18.1485 31.748 16.7994Z" fill="white"/>
<path d="M33.998 26.999C33.998 25.949 33.923 24.974 33.848 23.999H29.498V29.999H33.848C33.923 29.024 33.998 27.974 33.998 26.999Z" fill="white"/>
<path d="M19.1477 23.999C19.0727 24.974 18.9977 25.949 18.9977 26.999C18.9977 28.049 19.0727 29.024 19.1477 29.999H11.7977C11.5828 29.0139 11.4821 28.0072 11.4977 26.999C11.4821 25.9908 11.5828 24.9842 11.7977 23.999H19.1477Z" fill="white"/>
<path d="M26.498 10.5742V10.7242C26.4398 10.7242 26.3824 10.7378 26.3303 10.7638C26.2783 10.7898 26.233 10.8276 26.198 10.8742H25.823C25.0601 11.2797 24.3541 11.7841 23.723 12.3742L23.423 12.6742C22.8142 13.3619 22.2858 14.1168 21.848 14.9242C21.6952 15.1326 21.5692 15.3594 21.473 15.5992L20.798 16.9492C20.7306 17.2111 20.6298 17.4631 20.498 17.6992L20.273 18.4492L20.048 19.1242C19.898 19.6492 19.748 20.3242 19.598 20.9242H12.623C12.997 19.9641 13.4485 19.036 13.973 18.1492L14.273 17.7742C14.6582 17.1946 15.0843 16.6432 15.548 16.1242L15.923 15.7492C16.073 15.5992 16.148 15.4492 16.298 15.3742C16.6846 14.9578 17.1117 14.5809 17.573 14.2492C17.6332 14.116 17.7398 14.0093 17.873 13.9492L18.098 13.7992L18.623 13.4242L19.073 13.1242L19.673 12.7492L20.123 12.4492L20.723 12.2242L21.173 11.9992C22.6748 11.3241 24.2663 10.8694 25.898 10.6492H26.498V10.5742Z" fill="white"/>
<path d="M26.498 43.274V43.424H25.898C24.2624 43.18 22.6709 42.7 21.173 41.999L20.723 41.774L20.123 41.474L19.673 41.249L19.073 40.874L18.623 40.574L18.098 40.199L17.873 39.974C17.723 39.974 17.648 39.899 17.573 39.749C17.1117 39.4173 16.6846 39.0405 16.298 38.624C16.148 38.549 16.073 38.399 15.923 38.249C15.773 38.099 15.698 37.949 15.548 37.874C15.0814 37.331 14.6552 36.7545 14.273 36.149C14.1997 35.9828 14.0982 35.8306 13.973 35.699C13.4343 34.8462 12.982 33.9417 12.623 32.999H19.598L20.048 34.799L20.273 35.474L20.498 36.224C20.6298 36.4601 20.7306 36.7122 20.798 36.974L21.473 38.324C21.5692 38.5639 21.6952 38.7907 21.848 38.999C22.2858 39.8065 22.8142 40.5614 23.423 41.249L23.723 41.474C24.3149 42.1104 25.0291 42.6206 25.823 42.974L26.123 43.124L26.498 43.274Z" fill="white"/>
<path d="M43.373 20.9992H36.398L35.948 19.1992L35.723 18.5242L35.498 17.7742C35.3663 17.5381 35.2654 17.2861 35.198 17.0242L34.523 15.6742C34.4269 15.4344 34.3009 15.2076 34.148 14.9992C33.7103 14.1918 33.1819 13.4369 32.573 12.7492L32.273 12.4492C31.642 11.8591 30.936 11.3547 30.173 10.9492H29.798C29.7631 10.9026 29.7178 10.8648 29.6658 10.8388C29.6137 10.8128 29.5563 10.7992 29.498 10.7992V10.5742H30.098C31.7337 10.8182 33.3252 11.2982 34.823 11.9992L35.273 12.2242L35.873 12.4492L36.323 12.7492L36.923 13.1242L37.373 13.4242L37.898 13.7992L38.123 13.9492C38.2562 14.0093 38.3629 14.116 38.423 14.2492C38.8844 14.5809 39.3115 14.9578 39.698 15.3742L40.073 15.7492C40.223 15.8992 40.298 16.0492 40.448 16.1242C40.9147 16.6672 41.3408 17.2438 41.723 17.8492L42.023 18.2242C42.5476 19.111 42.9991 20.0391 43.373 20.9992Z" fill="white"/>
<path d="M43.373 32.9988C43.0141 33.9415 42.5618 34.846 42.023 35.6988C41.8979 35.8304 41.7964 35.9827 41.723 36.1488C41.3408 36.7543 40.9147 37.3308 40.448 37.8738C40.298 37.9488 40.223 38.0988 40.073 38.2488L39.698 38.6238C39.3115 39.0403 38.8844 39.4171 38.423 39.7488C38.348 39.8988 38.273 39.9738 38.123 39.9738L37.898 40.1988L37.373 40.5738L36.923 40.8738L36.323 41.2488L35.873 41.4738L35.273 41.7738L34.823 41.9988C33.3213 42.674 31.7298 43.1287 30.098 43.3488H29.498V43.1988L29.873 43.0488L30.173 42.8988C30.9669 42.5454 31.6812 42.0352 32.273 41.3988L32.573 41.1738C33.1819 40.4862 33.7103 39.7313 34.148 38.9238C34.3009 38.7155 34.4269 38.4887 34.523 38.2488L35.198 36.8988C35.2654 36.637 35.3663 36.3849 35.498 36.1488L35.723 35.3988L35.948 34.7238L36.398 32.9238L43.373 32.9988Z" fill="white"/>
<path d="M44.4967 26.999C44.5122 28.0072 44.4116 29.0139 44.1967 29.999H36.8467C36.9217 29.024 36.9967 28.049 36.9967 26.999C36.9967 25.949 36.9217 24.974 36.8467 23.999H44.1967C44.4116 24.9842 44.5122 25.9908 44.4967 26.999Z" fill="white"/>
</svg>
