<svg width="26" height="36" viewBox="0 0 26 36" fill="none" xmlns="http://www.w3.org/2000/svg">
<path d="M13.4594 2.11194L12.9997 1.87395L12.5399 2.11194L9.55705 3.6561L6.2364 4.1601L5.72446 4.2378L5.49245 4.70071L3.98765 7.70317L1.59821 10.0622L1.22983 10.4259L1.31413 10.9367L1.86101 14.2501L1.31413 17.5636L1.22983 18.0743L1.59821 18.438L3.98765 20.7971L5.49245 23.7996L5.72446 24.2625L6.2364 24.3402L9.55705 24.8442L12.5399 26.3883L12.9997 26.6263L13.4594 26.3883L16.4423 24.8442L19.7629 24.3402L20.2749 24.2625L20.5069 23.7996L22.0117 20.7971L24.4011 18.438L24.7695 18.0743L24.6852 17.5636L24.1383 14.2501L24.6852 10.9367L24.7695 10.4259L24.4011 10.0622L22.0117 7.70317L20.5069 4.70071L20.2749 4.2378L19.7629 4.1601L16.4423 3.6561L13.4594 2.11194Z" fill="#FFCE4C" stroke="black" stroke-width="2"/>
<path d="M5.64992 24.1251L4.5 23.9507V25.1138V33.0001V34.2809L5.74254 33.9703L13.0001 32.1559L20.2576 33.9703L21.5002 34.2809V33.0001V25.1138V23.9507L20.3503 24.1251L16.5665 24.6988L16.4033 24.7236L16.2567 24.7995L13.0001 26.4853L9.74351 24.7995L9.59692 24.7236L9.43372 24.6988L5.64992 24.1251Z" fill="#FFCE4C" stroke="black" stroke-width="2"/>
</svg>
