<svg width="36" height="32" viewBox="0 0 36 32" fill="none" xmlns="http://www.w3.org/2000/svg">
<path fill-rule="evenodd" clip-rule="evenodd" d="M19.75 0.294434H16.25C7.55151 0.294434 0.5 7.34595 0.5 16.0444V24.7944C0.5 28.6604 3.63401 31.7944 7.5 31.7944H19.75C28.4485 31.7944 35.5 24.7429 35.5 16.0444C35.5 7.34595 28.4485 0.294434 19.75 0.294434ZM18 7.73193C18.7249 7.73193 19.3125 8.31956 19.3125 9.04443V10.7944C19.3125 11.5193 18.7249 12.1069 18 12.1069C17.2751 12.1069 16.6875 11.5193 16.6875 10.7944V9.04443C16.6875 8.31956 17.2751 7.73193 18 7.73193ZM19.3125 16.0444C19.3125 15.3196 18.7249 14.7319 18 14.7319C17.2751 14.7319 16.6875 15.3196 16.6875 16.0444V23.0444C16.6875 23.7693 17.2751 24.3569 18 24.3569C18.7249 24.3569 19.3125 23.7693 19.3125 23.0444V16.0444Z" fill="#25E1CB"/>
</svg>
