<svg width="60" height="60" viewBox="0 0 60 60" fill="none" xmlns="http://www.w3.org/2000/svg">
<path d="M42.57 0H17.43C6.51 0 0 6.51 0 17.43V42.54C0 53.49 6.51 60 17.43 60H42.54C53.46 60 59.97 53.49 59.97 42.57V17.43C60 6.51 53.49 0 42.57 0ZM19.92 15.45C20.79 14.58 22.23 14.58 23.1 15.45L36.24 28.59V21.3C36.24 20.07 37.26 19.05 38.49 19.05C39.72 19.05 40.74 20.07 40.74 21.3V34.02C40.74 34.32 40.68 34.59 40.56 34.89C40.32 35.43 39.9 35.88 39.33 36.12C39.06 36.24 38.76 36.3 38.46 36.3H25.74C24.51 36.3 23.49 35.28 23.49 34.05C23.49 32.82 24.51 31.8 25.74 31.8H33.03L19.92 18.63C19.05 17.76 19.05 16.35 19.92 15.45ZM48.72 45.66C42.69 47.67 36.36 48.69 30 48.69C23.64 48.69 17.31 47.67 11.28 45.66C10.11 45.27 9.48 43.98 9.87 42.81C10.26 41.64 11.52 40.98 12.72 41.4C23.88 45.12 36.15 45.12 47.31 41.4C48.48 41.01 49.77 41.64 50.16 42.81C50.52 44.01 49.89 45.27 48.72 45.66Z" fill="#FFEA7B"/>
</svg>
