<svg width="54" height="46" viewBox="0 0 54 46" fill="none" xmlns="http://www.w3.org/2000/svg">
<path d="M-0.000450097 45.576L1.34997 35.9899C4.0508 36.2142 6.24522 35.7657 7.93324 34.6445C9.62126 33.5794 10.8029 32.0097 11.4781 29.9356C12.097 27.9174 12.2096 25.5629 11.8157 22.8721L-0.000448112 22.8721L-0.000446113 -4.67801e-06L22.9566 -2.67104e-06L22.9566 22.8721C22.9566 30.9446 21.0717 37.0551 17.3017 41.2034C13.5318 45.3518 7.76444 46.8093 -0.000450097 45.576ZM30.5527 45.5761L31.9031 35.9899C34.6039 36.2142 36.7984 35.7657 38.4864 34.6445C40.1744 33.5794 41.356 32.0097 42.0312 29.9356C42.6502 27.9174 42.7627 25.563 42.3688 22.8721L30.5527 22.8721L30.5527 -2.00697e-06L53.5098 0L53.5098 22.8721C53.5098 30.9446 51.6248 37.0551 47.8549 41.2034C44.085 45.3518 38.3176 46.8094 30.5527 45.5761Z" fill="#8A42FF"/>
</svg>
