<svg width="65" height="65" viewBox="0 0 65 65" fill="none" xmlns="http://www.w3.org/2000/svg">
<path fill-rule="evenodd" clip-rule="evenodd" d="M32.5 65C14.5498 65 0 50.4502 0 32.5C0 14.5498 14.5498 0 32.5 0C50.4502 0 65 14.5498 65 32.5C65 50.4502 50.4502 65 32.5 65ZM45.7031 38.9066C45.7031 33.7817 42.5019 30.8872 35.0127 29.0834V20.0647C37.3283 20.54 39.5444 21.5373 41.7117 23.1034L44.4722 18.6428C41.7532 16.6512 38.5595 15.4074 35.2097 15.0353V12.1875H30.9237V14.9398C24.765 15.4152 20.5786 18.9272 20.5786 24.052C20.5786 29.4145 23.9281 32.0247 31.1208 33.8284V43.1316C27.9175 42.6562 25.2586 41.2323 22.4494 39.0488L19.2969 43.3672C22.6713 45.9649 26.692 47.5903 30.9237 48.0675V52.8125H35.2097V48.1142C41.4659 47.5922 45.7031 44.1269 45.7031 38.9066ZM31.1187 28.0861C27.3264 26.9953 26.392 25.7136 26.392 23.7189C26.392 21.6328 28.017 19.9713 31.1208 19.7336L31.1187 28.0861ZM39.8897 39.2377C39.8897 41.5167 38.1164 43.0828 35.0127 43.3205V34.7303C38.8558 35.8231 39.8897 37.1028 39.8897 39.2397V39.2377Z" fill="#FFEA7B"/>
</svg>
