<svg width="26" height="32" viewBox="0 0 26 32" fill="none" xmlns="http://www.w3.org/2000/svg">
<path d="M1 26.5201C1 25.6836 1.27362 25.0421 1.76294 24.5131C2.27356 23.9611 3.06117 23.4888 4.13957 23.1122C6.30939 22.3543 9.36739 22.0801 12.7953 22.0801C16.2407 22.0801 19.2975 22.3637 21.4612 23.1301C22.5364 23.5109 23.321 23.9872 23.8296 24.5426C24.3177 25.0755 24.5905 25.721 24.5905 26.5601C24.5905 27.3971 24.3168 28.0388 23.8276 28.5678C23.317 29.1199 22.5294 29.5921 21.451 29.9686C19.2812 30.7263 16.2232 31.0001 12.7953 31.0001C9.35067 31.0001 6.29383 30.7165 4.12988 29.9501C3.05459 29.5693 2.26985 29.093 1.76104 28.5376C1.27286 28.0046 1 27.3591 1 26.5201Z" fill="#FFCE4C" stroke="black" stroke-width="2"/>
<path d="M20.2626 8.46724C20.2626 12.6143 16.9438 15.9345 12.7954 15.9345C8.64843 15.9345 5.32812 12.6142 5.32812 8.46724C5.32812 4.3203 8.64843 1 12.7954 1C16.9438 1 20.2626 4.32018 20.2626 8.46724Z" fill="#FFCE4C" stroke="black" stroke-width="2"/>
</svg>
