<svg width="22" height="28" viewBox="0 0 22 28" fill="none" xmlns="http://www.w3.org/2000/svg">
<path d="M7.07009 28.0002C3.20069 27.9765 0 19.5913 0 15.3209C0 8.34515 4.92935 6.81798 6.82909 6.81798C7.68522 6.81798 8.59939 7.17489 9.40571 7.49073C9.96956 7.71105 10.5527 7.93848 10.877 7.93848C11.0712 7.93848 11.5286 7.74501 11.9325 7.57526C12.7939 7.21123 13.8657 6.75879 15.1139 6.75879C15.1161 6.75879 15.1191 6.75879 15.1213 6.75879C16.0533 6.75879 18.8791 6.97592 20.578 9.6844L20.976 10.3193L20.4032 10.7781C19.585 11.4334 18.0921 12.629 18.0921 14.9971C18.0921 17.802 19.7829 18.8806 20.5951 19.3994C20.9537 19.6284 21.3248 19.8645 21.3248 20.3809C21.3248 20.7181 18.7898 27.9584 15.1086 27.9584C14.2079 27.9584 13.5711 27.6709 13.0095 27.4175C12.4413 27.1608 11.951 26.9397 11.141 26.9397C10.7304 26.9397 10.2112 27.1458 9.66153 27.3646C8.91036 27.6622 8.06012 28.0002 7.09538 28.0002H7.07009Z" fill="black"/>
<path d="M15.1023 0C15.1895 3.50634 12.9421 5.93888 10.6974 5.78632C10.3275 2.98814 12.9418 0 15.1023 0Z" fill="black"/>
</svg>
