<svg width="39" height="28" viewBox="0 0 39 28" fill="none" xmlns="http://www.w3.org/2000/svg">
<path d="M2.04112 25.7962L2.0786 25.8399L2.11934 25.8807C2.53903 26.3004 3.07896 26.5 3.63 26.5H8.25C8.7433 26.5 9.52057 26.405 10.0886 25.7924C10.3158 25.5609 10.5527 25.2648 10.7087 24.9009L10.7239 24.8655L10.7372 24.8293L11.3053 23.29H16.4447L17.0128 24.8293L17.0261 24.8655L17.0413 24.9009C17.2037 25.2798 17.4538 25.5851 17.6893 25.8207C18.2448 26.3761 18.9596 26.5 19.5 26.5H24.12C24.671 26.5 25.211 26.3004 25.6307 25.8807C26.0211 25.4902 26.28 24.9595 26.28 24.34C26.28 24.1395 26.2555 23.9029 26.173 23.6556L26.1678 23.6401L26.1623 23.6247L19.3078 4.46796C19.1585 3.97284 18.8767 3.56535 18.5507 3.23934L18.5507 3.23934C17.9834 2.67206 17.257 2.5 16.62 2.5H11.13C10.4861 2.5 9.7821 2.68659 9.22934 3.23934L9.22934 3.23934C8.90608 3.5626 8.62917 3.95303 8.46031 4.41739L8.46028 4.41737L8.45699 4.42661L1.61699 23.6266L1.61183 23.6411L1.60698 23.6557C1.52454 23.903 1.5 24.1395 1.5 24.34C1.5 24.8875 1.69431 25.3916 2.04112 25.7962ZM28.4499 25.8507L28.4852 25.886L28.5228 25.9189C28.9375 26.2817 29.4631 26.5 30.0505 26.5H35.1505C35.7199 26.5 36.2974 26.3045 36.7512 25.8507C37.1835 25.4183 37.4305 24.8503 37.4305 24.22V4.78C37.4305 4.17679 37.2016 3.60765 36.752 3.17851C36.3229 2.72896 35.7538 2.5 35.1505 2.5H30.0505C29.4176 2.5 28.8821 2.76277 28.4843 3.14557C28.0115 3.57828 27.7705 4.16121 27.7705 4.78V24.22C27.7705 24.8503 28.0176 25.4183 28.4499 25.8507ZM13.7124 15.22L13.8696 14.7421L14.0289 15.22H13.7124Z" fill="#FFD600" stroke="black" stroke-width="3"/>
</svg>
