<svg width="24" height="22" viewBox="0 0 24 22" fill="none" xmlns="http://www.w3.org/2000/svg">
<path fill-rule="evenodd" clip-rule="evenodd" d="M13.2 0C14.1909 0 15.1506 0.135917 16.0622 0.390443C15.3948 1.30556 15 2.43915 15 3.66667C15 6.70423 17.4177 9.16667 20.4 9.16667C21.6052 9.16667 22.7182 8.76454 23.6167 8.08483C23.8666 9.01327 24 9.99076 24 11C24 17.0751 19.1647 22 13.2 22H4.8C2.14903 22 0 19.8112 0 17.1111V11C0 4.92487 4.83532 0 10.8 0H13.2ZM6.3 8.55556C6.3 8.04929 6.70294 7.63889 7.2 7.63889H12C12.4971 7.63889 12.9 8.04929 12.9 8.55556C12.9 9.06182 12.4971 9.47222 12 9.47222H7.2C6.70294 9.47222 6.3 9.06182 6.3 8.55556ZM6.3 13.4444C6.3 12.9382 6.70294 12.5278 7.2 12.5278H16.8C17.2971 12.5278 17.7 12.9382 17.7 13.4444C17.7 13.9507 17.2971 14.3611 16.8 14.3611H7.2C6.70294 14.3611 6.3 13.9507 6.3 13.4444ZM20.4001 7.33333C22.3883 7.33333 24.0001 5.69171 24.0001 3.66667C24.0001 1.64162 22.3883 0 20.4001 0C18.4119 0 16.8001 1.64162 16.8001 3.66667C16.8001 5.69171 18.4119 7.33333 20.4001 7.33333Z" fill="black"/>
</svg>
