<svg width="32" height="26" viewBox="0 0 32 26" fill="none" xmlns="http://www.w3.org/2000/svg">
<path fill-rule="evenodd" clip-rule="evenodd" d="M27.8668 25.2109H3.98097C1.78234 25.2109 0 23.3691 0 21.0972V4.6426C0 2.3707 1.78234 0.528952 3.98097 0.528952H29.1938C30.3848 0.458354 31.475 1.21755 31.8587 2.38473C32.2425 3.5519 31.8254 4.84022 30.8393 5.5339L18.4983 15.3381C17.0053 16.524 14.9124 16.4668 13.4822 15.201L5.82549 8.42717C5.46518 8.10874 5.29665 7.61587 5.38336 7.13422C5.47008 6.65257 5.79888 6.25532 6.24591 6.0921C6.69293 5.92888 7.19027 6.02449 7.55058 6.34292L15.2073 13.1167C15.6946 13.5252 16.3921 13.5252 16.8793 13.1167L29.2203 3.31252L3.98097 3.27139C3.2481 3.27139 2.65398 3.8853 2.65398 4.6426V21.0972C2.65398 21.8545 3.2481 22.4684 3.98097 22.4684H27.8668C28.5997 22.4684 29.1938 21.8545 29.1938 21.0972V10.1275C29.1938 9.37017 29.7879 8.75626 30.5208 8.75626C31.2537 8.75626 31.8478 9.37017 31.8478 10.1275V21.0972C31.8478 23.3691 30.0654 25.2109 27.8668 25.2109Z" fill="white"/>
</svg>
