<svg width="32" height="43" viewBox="0 0 32 43" fill="none" xmlns="http://www.w3.org/2000/svg">
<path fill-rule="evenodd" clip-rule="evenodd" d="M15.9939 21.2885C12.0666 21.2885 8.88281 18.1802 8.88281 14.3459C8.88281 10.5116 12.0666 7.40332 15.9939 7.40332C19.9213 7.40332 23.1051 10.5116 23.1051 14.3459C23.1051 18.1802 19.9213 21.2885 15.9939 21.2885ZM16.0009 10.875C14.0372 10.875 12.4453 12.4292 12.4453 14.3463C12.4453 16.2635 14.0372 17.8177 16.0009 17.8177C17.9646 17.8177 19.5564 16.2635 19.5564 14.3463C19.5564 12.4292 17.9646 10.875 16.0009 10.875ZM16.9956 41.8218C17.3874 41.5644 17.6582 41.1653 17.7482 40.7127C17.8383 40.2601 17.7402 39.7911 17.4756 39.4092C4.33778 20.3169 3.55556 18.9804 3.55556 14.3462C3.55556 10.1633 6.86222 3.93226 16 3.93226C25.1378 3.93226 28.4444 10.1633 28.4444 14.3462C28.4444 18.182 28.1067 19.5532 19.2711 32.5186C18.7909 33.3116 19.0289 34.3327 19.8133 34.8447C20.5976 35.3568 21.6551 35.1814 22.2222 34.4452C30.8089 21.879 32 19.4317 32 14.3462C32 8.98304 27.6622 0.460938 16 0.460938C4.33778 0.460938 0 8.98304 0 14.3462C0 20.1433 1.22667 22.1046 14.5244 41.3531C14.7881 41.7357 15.1968 42.0001 15.6604 42.088C16.124 42.1759 16.6044 42.0801 16.9956 41.8218Z" fill="white"/>
</svg>
