<svg width="37" height="38" viewBox="0 0 37 38" fill="none" xmlns="http://www.w3.org/2000/svg">
<path d="M8.06555 35.1752C8.77054 34.9865 9.51722 35.0949 10.1705 35.4201C12.6287 36.6446 15.4005 37.3332 18.3333 37.3332C28.4585 37.3332 36.6667 29.125 36.6667 18.9998C36.6667 8.87461 28.4585 0.666504 18.3333 0.666504C8.20811 0.666504 0 8.87461 0 18.9998C0 21.9326 0.688636 24.7044 1.91301 27.1628M8.06555 35.1752L7.67785 33.7261L7.6778 33.7261M8.06555 35.1752L3.98447 36.2671C2.21285 36.741 0.592075 35.1203 1.0661 33.3488M8.06555 35.1752L7.6778 33.7261M7.6778 33.7261C8.78217 33.4306 9.90379 33.6117 10.839 34.0773L10.8393 34.0774C13.0944 35.2007 15.6378 35.8332 18.3333 35.8332C27.63 35.8332 35.1667 28.2965 35.1667 18.9998C35.1667 9.70304 27.63 2.1665 18.3333 2.1665C9.03654 2.1665 1.5 9.70304 1.5 18.9998C1.5 21.6953 2.13244 24.2387 3.25566 26.494L1.91301 27.1628M7.6778 33.7261L3.59685 34.818M1.91301 27.1628L3.25569 26.494C3.7216 27.4294 3.90255 28.5511 3.60708 29.6553L2.15805 29.2676M1.91301 27.1628C2.23839 27.816 2.34668 28.5627 2.15805 29.2676M2.15805 29.2676L1.0661 33.3488M2.15805 29.2676L3.60707 29.6553L2.51513 33.7365L1.0661 33.3488M1.0661 33.3488L2.51513 33.7365C2.33949 34.3929 2.94001 34.9937 3.59685 34.818M3.59685 34.818L3.98389 36.2649L3.59677 34.8181L3.59685 34.818Z" fill="#FFD600" stroke="black" stroke-width="3"/>
<path d="M24.8052 14.361C25.3422 14.8979 25.3422 15.7685 24.8052 16.3055L17.4719 23.6388C16.9428 24.1681 16.0874 24.1769 15.5474 23.6584L11.8808 20.1384C11.333 19.6126 11.3152 18.7421 11.8411 18.1943C12.367 17.6465 13.2374 17.6288 13.7852 18.1547L16.4801 20.7418L22.8608 14.361C23.3978 13.824 24.2682 13.824 24.8052 14.361Z" fill="black"/>
</svg>
