<svg width="32" height="28" viewBox="0 0 32 28" fill="none" xmlns="http://www.w3.org/2000/svg">
<path fill-rule="evenodd" clip-rule="evenodd" d="M30.6591 18.3843C30.3025 18.3864 29.9598 18.2414 29.7066 17.9812L26.4733 14.6309C26.2201 14.3707 25.8773 14.2256 25.5207 14.2278H11.8764C10.8067 14.2278 9.78088 13.7865 9.02569 13.0014C8.27049 12.2163 7.84802 11.1519 7.85158 10.0435V4.48291C7.85158 2.17966 9.65358 0.3125 11.8764 0.3125H27.9759C30.1988 0.3125 32.0007 2.17966 32.0007 4.48291V10.0435C32.0007 10.8112 31.4001 11.4336 30.6591 11.4336C29.9182 11.4336 29.3175 10.8112 29.3175 10.0435V4.48291C29.3175 3.71516 28.7168 3.09278 27.9759 3.09278H11.8764C11.1355 3.09278 10.5348 3.71516 10.5348 4.48291V10.0435C10.5348 10.8112 11.1355 11.4336 11.8764 11.4336H25.5207C26.5878 11.4346 27.6109 11.8746 28.365 12.6569L31.5983 16.0072C31.9835 16.4031 32.1007 17.0005 31.8951 17.5208C31.6896 18.0411 31.2017 18.3819 30.6591 18.3843ZM2.71677 19.4746V13.8662C2.71677 13.0918 3.32494 12.464 4.07516 12.464C4.82537 12.464 5.43354 11.8363 5.43354 11.0619C5.43354 10.2875 4.82537 9.6598 4.07516 9.6598C1.82451 9.6598 1.23513e-09 11.543 1.23513e-09 13.8662V19.4746C1.23513e-09 20.249 0.60817 20.8768 1.35839 20.8768C2.1086 20.8768 2.71677 20.249 2.71677 19.4746ZM5.58891 23.8997L2.36627 27.2581L2.3529 27.2441C2.0261 27.6418 1.51298 27.815 1.0245 27.6926C0.536023 27.5701 0.154629 27.1727 0.0371276 26.6636C-0.0803742 26.1546 0.0858469 25.6199 0.467451 25.2793L3.70346 21.921C4.45506 21.1368 5.47474 20.6957 6.53832 20.6947H20.1376C20.8761 20.6947 21.4748 20.0708 21.4748 19.3012V17.9077C21.4748 17.1381 22.0735 16.5142 22.812 16.5142C23.5505 16.5142 24.1492 17.1381 24.1492 17.9077V19.3012C24.1492 21.61 22.3531 23.4817 20.1376 23.4817H6.53832C6.18096 23.4832 5.83906 23.6338 5.58891 23.8997Z" fill="white"/>
</svg>
