<svg width="91" height="80" viewBox="0 0 91 80" fill="none" xmlns="http://www.w3.org/2000/svg">
<path d="M41.6191 1.40527H83.5252C88.4235 1.40527 90.2604 4.46673 90.2604 10.5896C90.4645 17.5289 90.7502 30.5504 90.2604 36.9182C89.7706 43.286 88.7655 44.878 81.076 44.878H76.1777L81.076 57.7361L58.4212 46.7148H42.5017C33.6847 46.7148 32.2969 41.8165 32.7052 39.3673C32.5011 32.6321 32.2154 17.4473 32.7052 10.5896C33.195 3.73198 34.2716 1.40527 41.6191 1.40527Z" fill="#0CFFB6"/>
<path fill-rule="evenodd" clip-rule="evenodd" d="M88.7045 9.29498L88.7243 9.90112C88.798 12.0307 88.8828 14.1599 88.9677 16.2888C89.0009 17.1225 89.0341 17.9562 89.0667 18.7899C89.2804 24.1798 89.462 29.5837 89.3519 34.9792C89.3491 35.1195 89.3464 35.2611 89.3437 35.404C89.2739 39.1025 89.189 43.6004 85.9445 46.0057C84.2099 47.2936 82.0958 47.404 80.045 47.1717C80.0193 47.175 79.9938 47.1786 79.9683 47.1821C79.876 47.195 79.7835 47.2079 79.6826 47.2079H77.4631L80.3377 54.7667C80.4411 54.9684 80.5052 55.1796 80.5352 55.3985C80.7254 56.2361 80.457 56.9178 79.9499 57.3839C79.2466 58.2768 78.0279 58.7947 76.7354 58.1683C70.4509 55.1198 64.235 51.9534 58.2845 48.2738C58.2639 48.2616 58.2471 48.2472 58.2303 48.2329C58.217 48.2215 58.2036 48.2101 58.1883 48.1996C57.7809 47.9751 57.377 47.7436 56.977 47.5039C51.2081 47.5475 45.4533 47.8094 39.7062 48.3394C39.6474 48.345 39.594 48.3426 39.5407 48.3402C39.5115 48.3389 39.4824 48.3375 39.4524 48.3375C39.4256 48.3389 39.4135 48.3383 39.4049 48.3378C39.4018 48.3377 39.3991 48.3375 39.3964 48.3375C39.2574 48.3347 39.124 48.3252 38.9987 48.3023C36.2923 47.8019 33.7881 46.9719 32.2925 44.4555C30.881 42.0822 30.9168 39.3925 30.9522 36.7322C30.9592 36.2069 30.9661 35.6828 30.962 35.1625C30.938 32.1226 30.9573 29.0817 31.0198 26.0424C31.1432 20.0871 31.4317 14.1362 31.8787 8.19834C31.8838 8.13312 31.8962 8.07357 31.9086 8.01387C31.915 7.98331 31.9213 7.95273 31.9267 7.92132C31.9203 7.69641 31.9288 7.46831 31.9683 7.23946C32.7829 2.55076 36.5942 0.0733372 41.1045 5.28667e-05C41.1349 -0.000474047 41.1628 0.00302819 41.1907 0.00652846C41.2125 0.00925358 41.2342 0.0119775 41.257 0.012798C41.2774 0.0120228 41.2963 0.00926874 41.3153 0.00651817C41.3375 0.00328309 41.3598 5.28667e-05 41.3842 5.28667e-05H53.1265C53.174 5.28667e-05 53.2173 0.00603899 53.2608 0.012048C53.29 0.01607 53.3192 0.0201023 53.3497 0.0223568C62.3149 0.294502 71.2765 0.525413 80.2437 0.282694C80.2849 0.281585 80.3225 0.285923 80.3602 0.290271C80.3862 0.293271 80.4123 0.296277 80.4396 0.297501L80.4546 0.295898C80.5691 0.283641 80.6837 0.27138 80.8029 0.282694C82.9299 0.480618 85.3508 1.05452 86.7862 2.81485C88.3506 4.73261 88.6244 6.89834 88.7045 9.29498ZM83.1495 41.8051C83.8648 41.0657 84.1781 40.1035 84.3043 39.0741C84.4166 38.162 84.3818 37.1981 84.349 36.2903C84.3304 35.7749 84.3125 35.2776 84.3225 34.8182C84.3545 33.2957 84.3677 31.7725 84.3677 30.2502C84.3677 27.2583 84.3132 24.2669 84.2322 21.276C84.165 18.797 84.0842 16.3183 84.0034 13.8395C83.9868 13.3286 83.9701 12.8177 83.9536 12.3068C83.9423 11.9513 83.9473 11.5646 83.9526 11.1616C83.9767 9.31776 84.0052 7.13436 82.4882 6.05381C81.1045 5.06918 79.0123 5.17594 77.3113 5.26272C77.0926 5.27389 76.8803 5.28472 76.6769 5.29285C75.8816 5.32431 75.0872 5.36355 74.293 5.40277C72.3855 5.49698 70.4791 5.59113 68.5651 5.57737C65.9965 5.55906 63.4319 5.44705 60.8669 5.33503C58.1025 5.21431 55.3376 5.09356 52.567 5.09006H41.3846C41.3548 5.09006 41.3272 5.08624 41.2996 5.0824C41.2783 5.07944 41.257 5.07648 41.2344 5.07525C41.2137 5.07621 41.1943 5.07931 41.1747 5.08243C41.1523 5.08598 41.1298 5.08956 41.1051 5.09006C38.713 5.12904 37.4168 5.98296 36.911 8.21767C36.108 18.8463 35.8233 29.4851 36.0732 40.1428C36.0778 40.3274 36.0606 40.4997 36.0346 40.6643C36.123 40.8213 36.2011 40.9868 36.2628 41.1621C36.4906 41.8083 36.9277 42.4469 37.3903 42.723C38.0064 43.0911 38.6224 43.2358 39.4281 43.2511C39.4638 43.2517 39.4963 43.257 39.5287 43.2622C39.5524 43.2661 39.5761 43.27 39.6009 43.2719C39.6185 43.2697 39.6349 43.2658 39.6513 43.2619C39.6696 43.2575 39.6878 43.2531 39.7076 43.2511C45.7536 42.6943 51.8072 42.4248 57.8782 42.404C58.7017 42.4 59.3012 42.7359 59.706 43.2234C60.2567 43.5516 60.812 43.8723 61.3844 44.1647C61.5556 44.2522 61.7054 44.3654 61.8418 44.491C65.6444 46.7922 69.5477 48.8995 73.5037 50.9076C72.7977 49.0528 72.0919 47.1976 71.3868 45.3419C70.7223 43.5954 72.0148 42.4208 73.4631 42.2896C73.7334 42.1877 74.0307 42.1221 74.3723 42.1221C74.7794 42.1221 75.2013 42.1186 75.6298 42.115C76.5071 42.1078 77.4122 42.1003 78.2748 42.1221C78.6537 42.1313 79.0706 42.1773 79.5031 42.225C80.7714 42.3649 82.1745 42.5198 83.1495 41.8051Z" fill="#0CFFB6"/>
<path d="M52.5264 51.9783C52.5264 51.9783 52.5264 57.9582 52.5294 57.9857C52.4063 58.2735 52.3246 58.5878 52.2879 58.9155C52.3341 58.5005 52.1894 59.282 52.1894 59.2792C52.1676 59.3656 52.1534 59.4262 52.1459 59.4662C52.1288 59.4986 52.109 59.5336 52.0797 59.5953C52.0691 59.6144 51.8779 59.9057 51.8495 59.9714C51.7578 60.0759 51.66 60.1737 51.5588 60.2667C51.5813 60.2231 51.2167 60.4974 51.1865 60.5144C51.1286 60.5489 51.0956 60.5696 51.0634 60.5894C51.0246 60.599 50.9686 60.6152 50.8673 60.6493C50.2688 60.8514 50.2108 60.8172 49.6626 60.8277C49.5848 60.8297 49.5186 60.8468 49.4447 60.8544C49.3574 60.8458 49.277 60.8277 49.1851 60.8277H31.7686C30.9977 60.8277 30.4208 61.1288 30.0358 61.5791C29.8066 61.6816 29.5807 61.8136 29.3653 62.0074C27.194 63.9672 25.0784 65.9806 23.0118 68.0441C23.3069 66.7355 23.5801 65.4212 23.8101 64.0955C24.4969 60.1365 19.5697 61.1972 17.424 61.2533C14.9992 61.315 11.6099 62.1888 9.27222 61.5754C8.52911 61.3797 6.75417 60.4006 6.70866 59.4756C6.21046 49.5576 5.53227 39.6494 5.04731 29.7296C5.04638 29.7083 5.03967 29.6898 5.03873 29.6683C5.03351 29.4846 5.01131 29.2937 4.96207 29.0932C4.70952 28.0714 4.71773 27.1825 5.01225 26.6488C6.3207 24.2818 10.85 25.021 12.9905 25.2043C16.9379 25.543 20.8903 25.5149 24.8503 25.6625C27.9285 25.7773 27.9181 20.9921 24.8485 20.8782C20.8922 20.7316 16.9321 20.6721 12.973 20.6508C8.73877 20.6274 3.88659 20.2158 1.03001 24.0202C-0.229761 25.6988 -0.145453 28.0878 0.292127 30.0503C0.778949 39.9133 1.45192 49.7673 1.94434 59.6312C1.95329 59.804 1.98127 59.9654 2.01727 60.1191C2.00179 60.501 2.06893 60.9034 2.27056 61.3165C5.2413 67.414 12.9555 66.2157 18.5895 65.9972C17.8806 69.2965 16.9709 72.5422 15.8684 75.7398C15.552 76.6561 15.7889 77.4072 16.2918 77.9181C17.0623 79.0654 18.6711 79.6266 19.8564 78.3074C23.8524 73.8554 28.0682 69.6258 32.5 65.6116H49.1855C49.2612 65.6116 49.3257 65.5965 49.3977 65.5909C49.4858 65.5974 49.5682 65.6137 49.663 65.6116C51.6272 65.5727 53.319 64.9896 54.8391 63.7447C56.2427 62.5966 56.8224 60.7923 57.0384 59.0612C57.1984 58.7506 57.298 58.387 57.298 57.9567V51.9768C57.2982 48.8939 52.5264 48.8939 52.5264 51.9783Z" fill="white"/>
<path d="M79.34 20.5296C82.9587 20.1941 82.993 14.6762 79.34 15.015C67.8595 16.0791 56.3488 16.462 44.8192 16.4853C41.15 16.4927 41.1489 22.0076 44.8192 22C56.3488 21.9767 67.8593 21.5951 79.34 20.5296Z" fill="white"/>
<path d="M70.5187 28.0205C61.8409 29.1497 53.1546 29.5109 44.4302 29.1819C41.2741 29.0633 41.2841 34.8703 44.4302 34.9887C53.1537 35.3177 61.8409 34.9563 70.5187 33.8273C73.6188 33.4241 73.6523 27.6129 70.5187 28.0205Z" fill="white"/>
</svg>
