<svg width="21" height="25" viewBox="0 0 21 25" fill="none" xmlns="http://www.w3.org/2000/svg">
<path d="M12.6475 1.34814H3.84746C3.26398 1.34814 2.70441 1.57993 2.29183 1.99251C1.87925 2.40509 1.64746 2.96467 1.64746 3.54814V21.1481C1.64746 21.7316 1.87925 22.2912 2.29183 22.7038C2.70441 23.1164 3.26398 23.3481 3.84746 23.3481H17.0475C17.6309 23.3481 18.1905 23.1164 18.6031 22.7038C19.0157 22.2912 19.2475 21.7316 19.2475 21.1481V7.94814L12.6475 1.34814Z" stroke="black" stroke-width="2" stroke-linecap="round" stroke-linejoin="round"/>
<path d="M12.6475 1.34814V7.94814H19.2475" stroke="black" stroke-width="2" stroke-linecap="round" stroke-linejoin="round"/>
<path d="M14.8479 13.448H6.04785" stroke="black" stroke-width="2" stroke-linecap="round" stroke-linejoin="round"/>
<path d="M14.8479 17.8481H6.04785" stroke="black" stroke-width="2" stroke-linecap="round" stroke-linejoin="round"/>
<path d="M8.24785 9.04834H7.14785H6.04785" stroke="black" stroke-width="2" stroke-linecap="round" stroke-linejoin="round"/>
</svg>
