<svg width="57" height="44" viewBox="0 0 57 44" fill="none" xmlns="http://www.w3.org/2000/svg">
<path d="M44.2783 24.1464C47.9515 24.1464 51.1 22.7364 53.199 20.7976L42.5292 43.5338L44.2783 43.5338L53.5488 23.4414C55.6478 19.0351 56.6973 16.0389 56.6973 12.1614C56.6973 4.75873 51.7997 7.20123e-06 44.4532 6.55899e-06C37.1068 5.91674e-06 32.2092 4.75873 32.2092 12.1614C32.2092 19.3876 36.9319 24.1464 44.2783 24.1464ZM12.2691 24.1464C15.9421 24.1464 19.0907 22.7364 21.1897 20.7976L10.5197 43.5338L12.2691 43.5338L21.5394 23.4414C23.6384 19.0351 24.6879 16.0389 24.6879 12.1614C24.6879 4.75873 19.7904 4.40289e-06 12.4437 3.76063e-06C5.0974 3.11839e-06 0.199733 4.75872 0.199733 12.1614C0.199732 19.3876 4.9224 24.1464 12.2691 24.1464Z" fill="#F5E900"/>
</svg>
