<svg width="25" height="16" viewBox="0 0 25 16" fill="none" xmlns="http://www.w3.org/2000/svg">
<path fill-rule="evenodd" clip-rule="evenodd" d="M12.6015 0.0078125C19.1261 0.0078125 24.2346 6.95544 24.4491 7.25127C24.6524 7.53163 24.6524 7.91256 24.4491 8.19316C24.2346 8.48871 19.1261 15.4364 12.6015 15.4364C6.07686 15.4364 0.968032 8.48875 0.75386 8.19293C0.550797 7.91228 0.550797 7.53163 0.75386 7.25098C0.968032 6.95544 6.07686 0.0078125 12.6015 0.0078125ZM2.39844 7.72154C3.63064 9.22904 7.7932 13.8403 12.5993 13.8403C17.4156 13.8403 21.5695 9.2314 22.8001 7.72263C21.5674 6.21433 17.4051 1.60385 12.5993 1.60385C7.78289 1.60385 3.62905 6.21272 2.39844 7.72154Z" fill="white"/>
<path fill-rule="evenodd" clip-rule="evenodd" d="M7.46094 7.29339C7.46094 4.69398 9.57581 2.5791 12.1752 2.5791C14.7746 2.5791 16.8895 4.69398 16.8895 7.29339C16.8895 9.8928 14.7746 12.0077 12.1752 12.0077C9.57581 12.0077 7.46094 9.8928 7.46094 7.29339ZM9.03125 7.2934C9.03125 9.02639 10.441 10.4362 12.1741 10.4362C13.9071 10.4362 15.3169 9.02639 15.3169 7.2934C15.3169 5.56041 13.9071 4.15057 12.1741 4.15057C10.4411 4.15057 9.03125 5.56041 9.03125 7.2934Z" fill="white"/>
</svg>
