<svg width="79" height="76" viewBox="0 0 79 76" fill="none" xmlns="http://www.w3.org/2000/svg">
<g id="Icon">
<path id="Vector 2196" d="M22.3746 37.5246L37.0996 27.0746L56.0996 14.7246L73.1996 2.84961L56.0996 5.69961L41.3746 8.54961L1.47461 23.2746L5.27461 27.0746L9.54961 32.7746L16.6746 37.5246H22.3746Z" fill="#FF5BA0" stroke="#FF35F6"/>
<path id="Shape" fill-rule="evenodd" clip-rule="evenodd" d="M77.2025 3.39242C77.109 3.06662 76.9366 2.8407 76.7378 2.65733C76.4121 1.99633 75.64 1.49946 74.8456 1.63739C74.8777 0.71321 74.0828 -0.219969 72.9554 0.0460689C61.3671 2.77603 49.4702 5.59112 38.1128 9.18714C30.0022 11.7551 21.9196 14.5838 13.8857 17.3955L13.479 17.5379C12.6443 17.8299 11.7288 18.1128 10.7776 18.4068L10.7776 18.4068C7.72168 19.3511 4.29844 20.409 2.01261 22.2472C1.41047 22.7313 1.37509 23.4574 1.63815 24.0804C1.05837 24.3632 0.731073 25.1764 1.28483 25.8489C1.89587 26.5907 2.5541 27.4359 3.25636 28.3375C6.94231 33.07 11.841 39.3596 17.4927 40.445C16.7137 50.6813 15.9379 61.8246 19.9171 71.4384C20.3863 72.5717 21.6016 73.0011 22.5766 72.1452C22.8141 71.9367 23.034 71.7143 23.2539 71.492L23.254 71.4919C23.3758 71.3688 23.4975 71.2457 23.6223 71.1249C25.8701 71.331 28.5259 69.5716 30.5463 68.2332L30.5469 68.2328C30.9298 67.9791 31.2899 67.7406 31.6201 67.5334C34.5097 65.719 37.2797 63.7118 40.0017 61.6556C40.3748 61.3737 40.8003 61.0823 41.2448 60.778C42.2725 60.0742 43.4013 59.3012 44.2159 58.4169C47.2824 60.433 50.5159 62.1119 54.082 62.9133C59.7729 64.1917 60.7958 62.1831 63.0733 57.7109L63.0738 57.7099L63.0792 57.6992L63.0798 57.6982C63.2006 57.461 63.3249 57.2169 63.4536 56.9659C67.361 49.3515 70.1544 40.9061 72.8762 32.6772C73.3938 31.1123 73.9088 29.5552 74.4284 28.0132C77.0509 20.2289 79.5412 11.5352 77.2025 3.39242ZM21.1001 57.0609L21.1001 57.061C20.932 58.7145 20.7389 60.615 20.7559 62.4607C19.9373 57.5641 19.8815 52.5187 19.8259 47.4979V47.4978C19.8003 45.1848 19.7748 42.8771 19.6748 40.5915C20.6953 40.5432 21.7114 40.3411 22.7205 40.0361C22.6365 40.8532 22.5516 41.6703 22.4666 42.4874L22.4666 42.4878L22.4666 42.4882L22.4665 42.4885L22.4665 42.4889L22.4664 42.4893L22.4664 42.4897L22.4664 42.4901L22.4663 42.4905L22.4663 42.4909L22.4662 42.4913L22.4662 42.4917L22.4662 42.4917L22.4662 42.4918L22.4662 42.4918L22.4662 42.4919L22.4662 42.4919L22.4662 42.492L22.4662 42.4921L22.4662 42.4921L22.4661 42.4922L22.4661 42.4922L22.4661 42.4923C22.0307 46.6814 21.5952 50.8715 21.2857 55.0693C21.2414 55.67 21.1731 56.3421 21.1001 57.0609ZM15.26 21.1077C11.4268 22.4736 7.59397 23.8394 3.75302 25.1791C4.66623 26.0609 5.56834 26.9873 6.46989 27.9132C12.2775 33.8777 18.0617 39.818 26.6386 33.6346C28.5359 32.2667 30.3459 30.7696 32.1554 29.273C35.1182 26.8225 38.0796 24.373 41.4206 22.4937C42.8363 21.6974 44.2565 20.9078 45.677 20.1182L45.6771 20.1181L45.6771 20.1181L45.6772 20.1181L45.6772 20.118L45.6773 20.118L45.6773 20.118L45.6774 20.1179L45.6775 20.1179L45.6775 20.1178L45.6784 20.1173C50.4183 17.4823 55.1608 14.8459 59.7471 11.9492C61.6472 10.7492 63.3912 9.29566 65.1224 7.85282C65.8965 7.20767 66.668 6.56466 67.4498 5.9474C63.0798 7.47142 58.3339 8.38037 53.6459 9.27822C49.5134 10.0697 45.426 10.8525 41.6808 12.0405C32.8044 14.8559 24.0314 17.9821 15.2602 21.1076L15.2602 21.1076L15.2601 21.1076L15.2601 21.1077L15.26 21.1077L15.26 21.1077ZM58.5458 19.749C58.4958 19.352 58.4475 18.9546 58.4227 18.5543C58.3935 18.075 58.4005 17.5891 58.4076 17.1042V17.1039L58.4088 17.0174C60.2027 16.0323 61.9697 15.0266 63.6448 13.9478C63.9184 13.7718 64.2319 13.5782 64.562 13.376C63.4203 14.6079 62.264 15.8309 61.0813 17.051C60.5158 17.6347 59.9631 18.2289 59.4103 18.8232L59.4102 18.8233L59.4101 18.8234L59.41 18.8235L59.4099 18.8236L59.4098 18.8237L59.4097 18.8238L59.4096 18.8239L59.4095 18.824L59.4095 18.824L59.4093 18.8242L59.4092 18.8243L59.4091 18.8244L59.4089 18.8246L59.4088 18.8247L59.4087 18.8248L59.4086 18.825L59.4084 18.8251L59.4083 18.8252C59.1214 19.1336 58.8345 19.442 58.5458 19.749ZM56.3442 22.0919C56.5322 21.8938 56.7203 21.6957 56.9059 21.4955C56.5644 20.4445 56.49 19.2297 56.5693 18.0112C56.3146 18.1472 56.0621 18.2845 55.8096 18.4219L55.8089 18.4222C55.4838 18.5991 55.1587 18.7759 54.8291 18.9497C54.9236 19.3976 55.0252 19.8445 55.1268 20.2911L55.1268 20.2911L55.1268 20.2912L55.1268 20.2912L55.1268 20.2913L55.1268 20.2914L55.1269 20.2914L55.1269 20.2915L55.1269 20.2915C55.3191 21.1366 55.5111 21.9807 55.6536 22.8282C55.8804 22.5805 56.1117 22.3369 56.343 22.0932L56.3431 22.0931L56.3433 22.0929L56.3434 22.0927L56.3436 22.0926L56.3437 22.0924L56.3439 22.0923L56.344 22.0921L56.3442 22.0919ZM48.9809 30.2876L48.9803 30.2882L48.9803 30.2883L48.9802 30.2883L48.9802 30.2884L48.9801 30.2884L48.9801 30.2885L48.98 30.2885L48.98 30.2886C48.5664 30.7515 48.1529 31.2143 47.7499 31.686C47.5649 31.3091 46.9896 31.1548 46.6618 31.4699C46.1158 29.0294 45.7076 26.5945 45.5088 24.0532C46.1483 23.6664 46.8077 23.3 47.467 22.9336L47.4671 22.9335L47.4673 22.9334L47.4674 22.9334L47.4675 22.9333L47.4676 22.9332L47.4677 22.9331L47.4678 22.9331C47.6893 22.81 47.9109 22.6869 48.1316 22.563C48.0214 24.9729 48.1113 29.1239 49.8742 29.2798C49.5793 29.6178 49.2803 29.9524 48.9813 30.2871L48.9812 30.2872L48.9809 30.2876ZM49.5389 22.9723C49.5784 23.7606 49.6179 24.5493 49.7179 25.3338L49.7234 25.3784L49.7306 25.4389C49.7983 26.01 50.0202 27.8818 50.5429 27.9123C50.6974 27.9209 50.8242 27.9909 50.9263 28.087C51.8518 27.0376 52.7915 26.0001 53.7309 24.9627L54.2651 24.3727C53.665 23.0028 53.4113 21.3489 53.3674 19.7224C52.0647 20.408 50.762 21.0964 49.4728 21.8004C49.4997 22.1906 49.5193 22.5814 49.5389 22.9723ZM45.5046 34.3368C44.1507 35.9649 42.8062 37.6017 41.4937 39.2654C41.4913 39.2652 41.489 39.2648 41.4867 39.2644L41.4815 39.2634C41.4773 39.2626 41.4731 39.2618 41.4685 39.2613C41.4397 39.1051 41.4078 38.9506 41.376 38.7963L41.3759 38.7958L41.3759 38.7956C41.3151 38.5012 41.2544 38.2076 41.216 37.9045C41.0662 36.7147 41.0251 35.51 40.9843 34.3121L40.9802 34.1911C40.9445 33.1528 40.9313 32.1138 40.9181 31.0748C40.9048 30.0311 40.8915 28.9874 40.8554 27.9445C40.8456 27.6576 40.6672 27.5155 40.4639 27.4476C41.6653 26.5263 42.9395 25.6758 44.2394 24.8511C44.2434 28.0431 44.6683 31.2626 45.5046 34.3368ZM40.3134 40.7782C39.7515 40.0214 39.4055 38.5738 39.3824 37.9042C39.2966 35.4278 39.431 32.958 39.5654 30.4874L39.5654 30.4872C39.6101 29.6663 39.6547 28.8453 39.6913 28.0239C39.6596 28.0495 39.6262 28.0736 39.5929 28.0976L39.5928 28.0977C39.5574 28.1232 39.522 28.1488 39.4885 28.1762C38.5314 28.9563 37.5027 29.8559 36.4326 30.7932C37.0243 33.2104 37.2467 35.7387 37.4632 38.1995V38.1995L37.4702 38.2795C37.5153 38.7926 37.5724 39.3216 37.6305 39.86L37.6305 39.8602C37.7716 41.1679 37.9188 42.5313 37.9142 43.8593C38.4047 43.202 38.9124 42.5593 39.42 41.9167L39.4201 41.9165L39.4202 41.9164L39.4203 41.9163L39.4205 41.916C39.7193 41.5377 40.0181 41.1595 40.3134 40.7782ZM33.9708 50.7986C34.0452 50.8535 34.1195 50.9106 34.1939 50.9678C34.2566 51.016 34.3192 51.0641 34.3818 51.1109C33.9549 51.5018 33.5727 51.9327 33.2101 52.3801C32.7412 48.9888 32.6701 45.6198 32.599 42.2469V42.2469C32.547 39.782 32.4949 37.3151 32.2875 34.8359C32.2741 34.6767 32.2013 34.5674 32.1172 34.4765C33.2076 33.5945 34.2562 32.69 35.2755 31.8022C35.6634 34.2355 35.7719 36.7301 35.8264 39.1719C35.843 39.917 35.8153 40.6832 35.7874 41.4556C35.7273 43.1202 35.6661 44.8137 36.0452 46.3877C35.8221 46.6973 35.5922 47.0009 35.3623 47.3044L35.3623 47.3045L35.3622 47.3046C35.0692 47.6915 34.7762 48.0784 34.4973 48.4779C34.4855 48.4949 34.4801 48.5122 34.4748 48.5295C34.4723 48.5375 34.4699 48.5455 34.4668 48.5535C34.4641 48.5603 34.461 48.567 34.4571 48.5737C33.5097 48.6625 32.9921 50.0758 33.9708 50.7986ZM24.319 53.6992V53.6993V53.6993C24.1461 57.7743 23.9732 61.8512 24.0373 65.9074C25.1318 64.5882 26.1487 63.2048 27.1224 61.7887C27.1086 61.7733 27.0945 61.7583 27.0804 61.7433C27.0104 61.6689 26.9407 61.5947 26.9065 61.4789C26.1777 59.0015 26.4663 55.9647 26.7345 53.1433L26.7345 53.1433C26.8383 52.052 26.9389 50.9929 26.9765 50.011C27.0582 47.8756 27.2927 45.7333 27.5256 43.6044L27.5256 43.6044L27.5256 43.6043C27.7213 41.8165 27.9159 40.0383 28.0181 38.2816C28.0388 37.9234 28.5723 37.9177 28.5747 38.2816C28.5876 40.0401 28.6924 41.8252 28.7978 43.6199C28.9227 45.7461 29.0483 47.8858 29.0228 50.011C29.0108 51.012 29.0551 52.0833 29.1006 53.1828C29.1773 55.0351 29.2572 56.9671 29.0768 58.7767C29.2177 58.5545 29.3619 58.3348 29.5061 58.1152C29.6907 57.8341 29.8751 57.5531 30.0522 57.2673C30.3053 56.8585 30.5533 56.4453 30.8014 56.0322L30.8014 56.0321L30.8014 56.032L30.8015 56.032L30.8015 56.032C31.3033 55.196 31.8051 54.3601 32.3482 53.5612C31.929 53.6389 31.4915 53.4621 31.3683 52.8928C30.2535 47.7353 30.5023 42.1191 30.9683 36.8118C30.9797 36.423 30.994 36.3309 31.0185 36.1724L31.0185 36.1724C31.0252 36.1292 31.0327 36.0811 31.041 36.0206C31.0506 35.9181 31.0599 35.8154 31.0692 35.7128L31.0693 35.7124C31.0826 35.5657 31.0959 35.4193 31.1097 35.2737C29.0089 36.9019 26.8061 38.3814 24.5427 39.3617C24.7255 44.1139 24.5223 48.9053 24.319 53.6992L24.319 53.6992ZM39.3245 58.1012C37.0757 59.8988 34.7761 61.6358 32.4492 63.3294C30.905 64.4533 29.3108 65.4962 27.6914 66.5006C28.779 65.0644 29.8162 63.5844 30.8245 62.0651C31.2796 61.3793 31.7708 60.6765 32.2722 59.9591L32.2722 59.9591C33.8676 57.6763 35.5663 55.2457 36.5337 52.7432L37.1068 53.1868L37.1073 53.1872C38.4951 54.2618 39.8969 55.3473 41.3236 56.3965C40.9679 56.6811 40.6226 56.9847 40.2842 57.2823L40.2842 57.2823C39.9588 57.5684 39.6399 57.8488 39.3245 58.1012ZM63.7352 47.7437C64.2148 46.0999 64.6865 44.4829 65.2397 43.0473C65.913 41.3001 66.6665 39.4617 67.4473 37.5564C71.4123 27.882 76.0836 16.484 74.5557 6.5542C68.714 13.6179 62.6107 20.4645 56.502 27.3173C49.8881 34.7367 43.2678 42.1634 36.9658 49.8807C38.1225 50.6533 39.2975 51.4992 40.4908 52.3582C44.4449 55.2047 48.6 58.196 52.9537 59.1442C59.9639 60.6708 61.9064 54.0124 63.7352 47.7437Z" fill="white"/>
<path id="Path" d="M7.45991 59.2647C6.85535 57.6358 6.4638 55.9418 6.27157 54.2138C6.14031 53.036 4.49237 52.9909 4.42343 54.2138C4.32709 55.932 4.60285 57.5515 5.01561 59.217C5.42174 60.8543 5.87913 62.7955 6.87435 64.1661C7.43693 64.9402 9.08752 64.8313 8.93108 63.6035C8.73531 62.0612 7.99906 60.7183 7.45991 59.2647Z" fill="white"/>
<path id="Path_2" d="M5.42195 63.0829C4.70546 61.6756 3.79957 60.5539 3.28201 59.0044C2.65632 57.1297 2.6502 55.1193 2.92938 53.1718C3.07424 52.1636 1.8555 51.7577 1.54639 52.7466C0.386477 56.4534 0.990748 62.1653 4.15662 64.494C4.95574 65.082 5.86232 63.9478 5.42195 63.0829Z" fill="white"/>
<path id="Path_3" d="M41.7671 67.5801C41.5766 67.0085 40.7509 66.7595 40.1255 67.0411C39.3917 67.3715 39.2349 67.8399 38.8556 68.4125C38.4936 68.9596 38.0152 69.4348 37.4885 69.8827C36.3256 70.8717 34.7981 71.5174 33.2911 72.0979C32.1904 72.5211 32.9722 74.0081 34.1208 73.6853C35.9086 73.1822 37.5147 72.4788 38.98 71.5092C40.2339 70.6785 42.2335 68.9829 41.7671 67.5801Z" fill="white"/>
<path id="Path_4" d="M45.2819 67.3198C44.2209 68.3293 43.3521 69.6717 42.3055 70.7363C41.1514 71.9104 39.7888 72.9262 38.7167 74.1811C37.9332 75.0983 38.9129 76.4194 39.9273 75.87C41.407 75.0686 42.7585 73.7249 44.0338 72.5969C45.1273 71.63 46.7146 70.4358 47.3506 69.0389C48.0146 67.5821 46.4236 66.2326 45.2819 67.3198Z" fill="white"/>
</g>
</svg>
