<svg width="25" height="32" viewBox="0 0 25 32" fill="none" xmlns="http://www.w3.org/2000/svg">
<path d="M19.4655 11.1885C16.2874 9.16713 11.1864 5.9213 3.27437 0.883605C2.74094 0.483003 2.1272 0.430505 1.59692 0.634604L15.1718 16.0711L19.4655 11.1885Z" fill="#32BBFF"/>
<path d="M1.59696 0.634277C1.49757 0.672557 1.40086 0.718736 1.30836 0.774515C0.722782 1.13471 0.29248 1.82782 0.29248 2.70443V29.4372C0.29248 30.3138 0.722729 31.0069 1.30836 31.367C1.4007 31.4227 1.49736 31.4691 1.59664 31.5076L15.1718 16.0708L1.59696 0.634277Z" fill="#32BBFF"/>
<path d="M15.1718 16.0713L1.59668 31.5081C2.12712 31.7137 2.74086 31.6652 3.27444 31.2588C10.9474 26.373 15.9909 23.1656 19.2058 21.127C19.2953 21.0699 19.383 21.014 19.4697 20.9586L15.1718 16.0713Z" fill="#32BBFF"/>
<path d="M0.263184 16.6946V29.6245C0.263184 30.4725 0.695807 31.143 1.28467 31.4914C1.37752 31.5453 1.47471 31.5901 1.57454 31.6274L15.2246 16.6946H0.263184Z" fill="#2C9FD9"/>
<path d="M3.29894 0.892629C2.66513 0.405261 1.9177 0.419145 1.33179 0.781246L14.9969 16.6945L19.4992 11.4515C16.3194 9.38035 11.2155 6.0545 3.29894 0.892629Z" fill="#29CC5E"/>
<path d="M14.9939 15.45L1.33179 31.3608C1.91762 31.7228 2.66483 31.7437 3.2985 31.2495C10.9741 26.2439 16.0193 22.958 19.2353 20.8695C19.3248 20.8109 19.4125 20.7536 19.4992 20.6969L14.9939 15.45Z" fill="#D93F21"/>
<path d="M24.8427 16.6922C24.8427 15.9626 24.5042 15.2263 23.8331 14.818C23.8331 14.818 22.5782 14.0566 18.7315 11.717L14.156 16.6922L18.7359 21.6722C22.5404 19.3495 23.8331 18.5664 23.8331 18.5664C24.5042 18.1581 24.8427 17.4218 24.8427 16.6922Z" fill="#FFD500"/>
<path d="M23.8331 18.5679C24.5042 18.1598 24.8427 17.4238 24.8427 16.6946H14.156L18.7359 21.6722C22.5405 19.3507 23.8331 18.5679 23.8331 18.5679Z" fill="#FFAA00"/>
</svg>
