<svg width="106" height="106" viewBox="0 0 106 106" fill="none" xmlns="http://www.w3.org/2000/svg">
<path d="M31.5581 56.3565H30.0581V57.8565C30.0581 63.8341 32.4327 69.5669 36.6595 73.7937C40.8863 78.0206 46.6192 80.3952 52.5968 80.3952C58.5744 80.3952 64.3072 78.0206 68.5341 73.7937C72.7609 69.5669 75.1355 63.8341 75.1355 57.8565V56.3565H73.6355L31.5581 56.3565ZM52.5968 103.694C24.376 103.694 1.5 80.8176 1.5 52.5968C1.5 24.376 24.376 1.5 52.5968 1.5C80.8176 1.5 103.694 24.376 103.694 52.5968C103.694 80.8176 80.8176 103.694 52.5968 103.694Z" fill="#FFC226" stroke="black" stroke-width="3"/>
<ellipse cx="65.2201" cy="35.7657" rx="5.25968" ry="6.31161" fill="black"/>
<ellipse cx="36.5409" cy="36.5408" rx="5.5365" ry="6.64381" fill="black"/>
</svg>
