<svg width="103" height="54" viewBox="0 0 103 54" fill="none" xmlns="http://www.w3.org/2000/svg">
<path d="M89.2305 27.0479H92.5625V35.4199C92.5625 37.6599 93.6545 39.1439 95.8665 39.1439C97.9665 39.1439 99.3105 37.6319 99.3105 35.3639V27.0479H102.642V41.9999H99.3945V39.9839C98.2465 41.5239 96.7345 42.3079 94.8305 42.3079C91.2185 42.3079 89.2305 39.8159 89.2305 36.2319V27.0479Z" fill="black"/>
<path d="M73.1562 42V19.208H76.4883V32.928H76.5163L82.3123 27.048H86.8482L80.1003 33.824L87.2123 42H82.8162L76.5723 34.692H76.4883V42H73.1562Z" fill="black"/>
<path d="M65.4752 23.7442C64.6072 22.8762 64.6072 21.5322 65.4752 20.6642C66.3432 19.7682 67.6872 19.7682 68.5552 20.6642C69.4232 21.5322 69.4232 22.8762 68.5552 23.7442C67.6872 24.6122 66.3432 24.6122 65.4752 23.7442ZM68.6952 27.0482V42.0002H65.3632V27.0482H68.6952Z" fill="black"/>
<rect width="57" height="54" fill="black"/>
<path d="M18.066 35.2069H34.2415L28.7556 29H13.207L18.066 35.2069Z" fill="white"/>
<path d="M29.8036 32.2069L13.319 12H34.0132C37.5832 12 40.8881 13.884 42.707 16.9558C46.6948 23.6908 41.8403 32.2069 34.0132 32.2069H29.8036Z" stroke="white" stroke-width="6"/>
<path d="M36.3101 45.8969L27.6895 34.5176H35.2757L43.8963 45.8969H36.3101Z" fill="white"/>
</svg>
