<svg width="111" height="54" viewBox="0 0 111 54" fill="none" xmlns="http://www.w3.org/2000/svg">
<path d="M96.8135 25.0469H101.181V33.3909C101.181 35.1549 101.993 36.2469 103.757 36.2469C105.521 36.2469 106.445 35.0429 106.445 33.3909V25.0469H110.813V39.9989H106.501V38.1509H106.473C105.493 39.5789 104.093 40.3069 102.301 40.3069C100.537 40.3069 99.1655 39.7469 98.2135 38.6269C97.2895 37.4789 96.8135 36.0789 96.8135 34.4269V25.0469Z" fill="white"/>
<path d="M83.9857 32.9157V39.9997H79.6177V17.1797H83.9857V30.9277L89.1657 25.0477H94.7377L88.7177 31.9357L94.9057 39.9997H89.3897L84.0977 32.9157H83.9857Z" fill="white"/>
<path d="M73.3516 17.123C74.8916 17.123 76.0956 18.299 76.0956 19.839C76.0956 21.323 74.8916 22.527 73.3516 22.527C71.8956 22.527 70.6636 21.323 70.6636 19.839C70.6636 18.355 71.8956 17.123 73.3516 17.123ZM75.5916 39.999H71.1956V25.047H75.5916V39.999Z" fill="white"/>
<rect width="57" height="54" fill="white" fill-opacity="0.15"/>
<path d="M18.066 35.2069H34.2415L28.7556 29H13.207L18.066 35.2069Z" fill="white"/>
<path d="M29.8036 32.2069L13.319 12H34.0132C37.5832 12 40.8881 13.884 42.707 16.9558C46.6948 23.6908 41.8403 32.2069 34.0132 32.2069H29.8036Z" stroke="white" stroke-width="6"/>
<path d="M36.3101 45.8969L27.6895 34.5176H35.2757L43.8963 45.8969H36.3101Z" fill="white"/>
</svg>
