<svg width="89" height="39" viewBox="0 0 89 39" fill="none" xmlns="http://www.w3.org/2000/svg">
<path d="M74.8135 23.0479H79.1815V31.3919C79.1815 33.1559 79.9935 34.2479 81.7575 34.2479C83.5215 34.2479 84.4455 33.0439 84.4455 31.3919V23.0479H88.8135V37.9999H84.5015V36.1519H84.4735C83.4935 37.5799 82.0935 38.3079 80.3015 38.3079C78.5375 38.3079 77.1655 37.7479 76.2135 36.6279C75.2895 35.4799 74.8135 34.0799 74.8135 32.4279V23.0479Z" fill="white"/>
<path d="M61.9857 30.9157V37.9997H57.6177V15.1797H61.9857V28.9277L67.1657 23.0477H72.7377L66.7177 29.9357L72.9057 37.9997H67.3897L62.0977 30.9157H61.9857Z" fill="white"/>
<path d="M51.3516 15.124C52.8916 15.124 54.0956 16.3 54.0956 17.84C54.0956 19.324 52.8916 20.528 51.3516 20.528C49.8956 20.528 48.6636 19.324 48.6636 17.84C48.6636 16.356 49.8956 15.124 51.3516 15.124ZM53.5916 38H49.1956V23.048H53.5916V38Z" fill="white"/>
<path d="M11.066 26.2069H27.2415L21.7556 20H6.20703L11.066 26.2069Z" fill="white"/>
<path d="M22.8036 23.2069L6.31901 3H27.0132C30.5832 3 33.8881 4.88396 35.707 7.95582C39.6948 14.6908 34.8403 23.2069 27.0132 23.2069H22.8036Z" stroke="white" stroke-width="6"/>
<path d="M29.3101 36.8969L20.6895 25.5176H28.2757L36.8963 36.8969H29.3101Z" fill="white"/>
</svg>
