<svg width="89" height="41" viewBox="0 0 89 41" fill="none" xmlns="http://www.w3.org/2000/svg">
<path d="M74.8135 25.0479H79.1815V33.3919C79.1815 35.1559 79.9935 36.2479 81.7575 36.2479C83.5215 36.2479 84.4455 35.0439 84.4455 33.3919V25.0479H88.8135V39.9999H84.5015V38.1519H84.4735C83.4935 39.5799 82.0935 40.3079 80.3015 40.3079C78.5375 40.3079 77.1655 39.7479 76.2135 38.6279C75.2895 37.4799 74.8135 36.0799 74.8135 34.4279V25.0479Z" fill="white"/>
<path d="M61.9856 32.9162V40.0002H57.6176V17.1802H61.9856V30.9282L67.1656 25.0482H72.7376L66.7176 31.9362L72.9056 40.0002H67.3896L62.0976 32.9162H61.9856Z" fill="white"/>
<path d="M51.3517 17.124C52.8917 17.124 54.0957 18.3 54.0957 19.84C54.0957 21.324 52.8917 22.528 51.3517 22.528C49.8957 22.528 48.6637 21.324 48.6637 19.84C48.6637 18.356 49.8957 17.124 51.3517 17.124ZM53.5917 40H49.1957V25.048H53.5917V40Z" fill="white"/>
<path d="M11.9966 28.4111H29.5327L23.5854 21.6821H6.72894L11.9966 28.4111Z" fill="white"/>
<path d="M24.3645 25.9112L5.26584 2.5H29.2854C33.4214 2.5 37.2505 4.68271 39.3578 8.24169C43.978 16.0447 38.3536 25.9112 29.2854 25.9112H24.3645Z" stroke="white" stroke-width="5"/>
<path d="M31.7757 40L22.4299 27.6636H30.6542L40 40H31.7757Z" fill="white"/>
</svg>
