<?xml version="1.0" encoding="UTF-8"?>
<svg version="1.1" xmlns="http://www.w3.org/2000/svg" width="152" height="37">
<path d="M0 0 C50.16 0 100.32 0 152 0 C152 12.21 152 24.42 152 37 C101.84 37 51.68 37 0 37 C0 24.79 0 12.58 0 0 Z " fill="#040404" transform="translate(0,0)"/>
<path d="M0 0 C1.98 0 3.96 0 6 0 C6 9.9 6 19.8 6 30 C4.35 30 2.7 30 1 30 C0.67 28.02 0.34 26.04 0 24 C-0.45375 24.804375 -0.9075 25.60875 -1.375 26.4375 C-3 29 -3 29 -5 30 C-8.57529739 30.38861928 -10.32640241 30.50519819 -13.25 28.3125 C-16.26708686 24.32563522 -17.21349476 21.47834971 -16.875 16.5 C-16.26402694 12.34121743 -15.36084008 9.74173796 -12 7 C-8.5 6.5 -8.5 6.5 -5 7 C-3.68 7.99 -2.36 8.98 -1 10 C-0.67 6.7 -0.34 3.4 0 0 Z " fill="#EEEEEE" transform="translate(81,3)"/>
<path d="M0 0 C4.16507424 1.7585869 6.20882468 3.85201505 8 8 C8.54957375 12.31807946 8.2941115 14.44328894 6.25 18.3125 C2.85324833 22.36973116 1.35053057 22.87137804 -3.9375 23.375 C-8.06330962 23.27512007 -10.09331798 21.99217267 -13 19 C-15.68121076 14.97818385 -15.81344335 11.72763609 -15 7 C-11.4330195 0.59534728 -7.0319988 -0.7437691 0 0 Z " fill="#EDEDED" transform="translate(130,10)"/>
<path d="M0 0 C4.63977252 0.03699978 7.22820614 1.26585022 10.8125 4.3125 C12.79073694 8.26897388 12.37737734 13.0107418 11.8125 17.3125 C9.28679367 20.72561667 7.81336696 21.97887768 3.8125 23.3125 C-2.03909247 23.97494443 -2.03909247 23.97494443 -4.94140625 22.30078125 C-8.32042123 19.58942706 -9.89397721 17.55165958 -10.4609375 13.2265625 C-10.6609462 8.71867415 -10.7034909 6.94756573 -7.75 3.3125 C-6.904375 2.6525 -6.05875 1.9925 -5.1875 1.3125 C-3.63719882 -0.23780118 -2.15073999 0.06844901 0 0 Z " fill="#F0F0F0" transform="translate(49.1875,9.6875)"/>
<path d="M0 0 C2.31 0 4.62 0 7 0 C7.33 4.95 7.66 9.9 8 15 C8.66 15 9.32 15 10 15 C10.433125 14.1028125 10.433125 14.1028125 10.875 13.1875 C12 11 12 11 14 8 C17.625 7.8125 17.625 7.8125 21 8 C19.64717831 12.42741644 17.76701112 14.36309221 14 17 C13.34 17.33 12.68 17.66 12 18 C12.928125 18.391875 13.85625 18.78375 14.8125 19.1875 C18.27860434 21.15842208 19.41709663 22.39449788 21 26 C21 27.32 21 28.64 21 30 C19.02 30 17.04 30 15 30 C14.4225 28.865625 13.845 27.73125 13.25 26.5625 C11.64507365 23.62689703 11.64507365 23.62689703 8.75 22.0625 C8.1725 22.041875 7.595 22.02125 7 22 C7 24.64 7 27.28 7 30 C4.69 30 2.38 30 0 30 C0 20.1 0 10.2 0 0 Z " fill="#E2E2E2" transform="translate(15,2)"/>
<path d="M0 0 C2.87029869 1.79393668 4.49131638 2.98263276 6 6 C6 8.31 6 10.62 6 13 C1.05 13 -3.9 13 -9 13 C-8.34 14.32 -7.68 15.64 -7 17 C-3.43793339 17.81870185 -3.43793339 17.81870185 0 18 C0.33 17.01 0.66 16.02 1 15 C3.475 15.495 3.475 15.495 6 16 C4.56521739 20.54347826 4.56521739 20.54347826 2.375 22.3125 C-2.35485114 23.68166743 -6.41488185 23.6891818 -10.875 21.75 C-13.66652832 19.45109433 -14.80567523 17.41074733 -15.30078125 13.81640625 C-15.32555605 9.05138582 -15.14317911 5.84166336 -12 2 C-7.98141405 -0.6790573 -4.72358279 -0.69610694 0 0 Z " fill="#F4F4F4" transform="translate(106,10)"/>
<path d="M0 0 C1.98 0 3.96 0 6 0 C6 9.9 6 19.8 6 30 C4.35 30 2.7 30 1 30 C1 27.69 1 25.38 1 23 C0.34 23 -0.32 23 -1 23 C-1 20.03 -1 17.06 -1 14 C-0.34 14 0.32 14 1 14 C0.67 13.01 0.34 12.02 0 11 C-0.0685495 9.10529184 -0.08480372 7.2083166 -0.0625 5.3125 C-0.05347656 4.31863281 -0.04445313 3.32476562 -0.03515625 2.30078125 C-0.02355469 1.54152344 -0.01195313 0.78226562 0 0 Z " fill="#EFEFEF" transform="translate(81,3)"/>
<path d="M0 0 C2.87029869 1.79393668 4.49131638 2.98263276 6 6 C6 8.31 6 10.62 6 13 C1.05 13 -3.9 13 -9 13 C-9 12.67 -9 12.34 -9 12 C-5.535 11.505 -5.535 11.505 -2 11 C-4.31 10.67 -6.62 10.34 -9 10 C-9 7.69 -9 5.38 -9 3 C-9.99 2.67 -10.98 2.34 -12 2 C-7.98141405 -0.6790573 -4.72358279 -0.69610694 0 0 Z " fill="#E1E1E1" transform="translate(106,10)"/>
<path d="M0 0 C2.9375 -0.4375 2.9375 -0.4375 6 0 C8.611137 2.2629854 8.96165814 3.62424982 9.3125 7.0625 C9 10 9 10 7 13 C4.0625 13.4375 4.0625 13.4375 1 13 C-1.611137 10.7370146 -1.96165814 9.37575018 -2.3125 5.9375 C-2 3 -2 3 0 0 Z " fill="#131313" transform="translate(123,15)"/>
<path d="M0 0 C0.99 0.103125 1.98 0.20625 3 0.3125 C5.45811625 3.99967438 5.31118164 5.95595704 5 10.3125 C4.01 11.7975 4.01 11.7975 3 13.3125 C-0.125 13.5 -0.125 13.5 -3 13.3125 C-5.32617985 9.67784398 -5.31404687 6.55213281 -5 2.3125 C-3 0.3125 -3 0.3125 0 0 Z " fill="#080808" transform="translate(50,14.6875)"/>
<path d="M0 0 C2.4375 -0.4375 2.4375 -0.4375 5 0 C6.875 1.5625 6.875 1.5625 8 4 C7.67272727 10.32727273 7.67272727 10.32727273 5 13 C2.5 13.3125 2.5 13.3125 0 13 C-2.45811625 9.31282562 -2.31118164 7.35654296 -2 3 C-1.34 2.01 -0.68 1.02 0 0 Z " fill="#0E0E0E" transform="translate(73,15)"/>
<path d="M0 0 C1.65 0.33 3.3 0.66 5 1 C3.56521739 5.54347826 3.56521739 5.54347826 1.375 7.3125 C-2.21797275 8.35257106 -5.25673798 8.24150078 -9 8 C-9.66 7.34 -10.32 6.68 -11 6 C-10.01 6 -9.02 6 -8 6 C-8 5.01 -8 4.02 -8 3 C-5.69 3 -3.38 3 -1 3 C-0.67 2.01 -0.34 1.02 0 0 Z " fill="#E9E9E9" transform="translate(107,25)"/>
<path d="M0 0 C-0.99 0.495 -0.99 0.495 -2 1 C-2.33 1.99 -2.66 2.98 -3 4 C-5.31 3.34 -7.62 2.68 -10 2 C-10 4.64 -10 7.28 -10 10 C-10.33 10 -10.66 10 -11 10 C-11 7.03 -11 4.06 -11 1 C-6.87831311 -0.62950412 -4.29299643 -1.26264601 0 0 Z " fill="#C0C0C0" transform="translate(32,22)"/>
<path d="M0 0 C1.98 0 3.96 0 6 0 C6.33 1.32 6.66 2.64 7 4 C4.03 4 1.06 4 -2 4 C-1.34 2.68 -0.68 1.36 0 0 Z " fill="#0F0F0F" transform="translate(99,15)"/>
<path d="M0 0 C0.66 0.33 1.32 0.66 2 1 C2 2.32 2 3.64 2 5 C-0.31 5.33 -2.62 5.66 -5 6 C-5 4.68 -5 3.36 -5 2 C-2.625 0.9375 -2.625 0.9375 0 0 Z " fill="#F6F6F6" transform="translate(130,27)"/>
<path d="M0 0 C1.65 0.33 3.3 0.66 5 1 C4.67 2.32 4.34 3.64 4 5 C2.35 4.67 0.7 4.34 -1 4 C-0.67 2.68 -0.34 1.36 0 0 Z " fill="#6E6E6E" transform="translate(139,30)"/>
<path d="M0 0 C1.32 0 2.64 0 4 0 C3.67 1.32 3.34 2.64 3 4 C1.02 4.33 -0.96 4.66 -3 5 C-1.75 2.5 -1.75 2.5 0 0 Z " fill="#F5F5F5" transform="translate(55,27)"/>
<path d="M0 0 C2.5 1.3125 2.5 1.3125 5 3 C5 3.99 5 4.98 5 6 C2.07120629 5.37240135 -0.36095629 4.41377341 -3 3 C-2.01 2.01 -1.02 1.02 0 0 Z " fill="#D2D2D2" transform="translate(77,11)"/>
</svg>
