<svg width="89" height="41" viewBox="0 0 89 41" fill="none" xmlns="http://www.w3.org/2000/svg">
<path d="M74.8135 25.0469H79.1815V33.3909C79.1815 35.1549 79.9935 36.2469 81.7575 36.2469C83.5215 36.2469 84.4455 35.0429 84.4455 33.3909V25.0469H88.8135V39.9989H84.5015V38.1509H84.4735C83.4935 39.5789 82.0935 40.3069 80.3015 40.3069C78.5375 40.3069 77.1655 39.7469 76.2135 38.6269C75.2895 37.4789 74.8135 36.0789 74.8135 34.4269V25.0469Z" fill="white"/>
<path d="M61.9857 32.9157V39.9997H57.6177V17.1797H61.9857V30.9277L67.1657 25.0477H72.7377L66.7177 31.9357L72.9057 39.9997H67.3897L62.0977 32.9157H61.9857Z" fill="white"/>
<path d="M51.3516 17.123C52.8916 17.123 54.0956 18.299 54.0956 19.839C54.0956 21.323 52.8916 22.527 51.3516 22.527C49.8956 22.527 48.6636 21.323 48.6636 19.839C48.6636 18.355 49.8956 17.123 51.3516 17.123ZM53.5916 39.999H49.1956V25.047H53.5916V39.999Z" fill="white"/>
<path d="M11.9966 28.4106H29.5327L23.5854 21.6816H6.729L11.9966 28.4106Z" fill="white"/>
<path d="M24.6018 25.4112L6.31901 3H29.2854C33.2448 3 36.9102 5.08948 38.9275 8.49644C43.3504 15.9662 37.9663 25.4112 29.2854 25.4112H24.6018Z" stroke="white" stroke-width="6"/>
<path d="M31.7755 40.0005L22.4297 27.6641H30.654L39.9998 40.0005H31.7755Z" fill="white"/>
</svg>
